<svg width="14" height="18" viewBox="0 0 14 18" fill="none" xmlns="http://www.w3.org/2000/svg">
<path d="M4.49967 7.33335H5.33301C5.55402 7.33335 5.76598 7.24556 5.92226 7.08928C6.07854 6.933 6.16634 6.72103 6.16634 6.50002C6.16634 6.27901 6.07854 6.06705 5.92226 5.91077C5.76598 5.75448 5.55402 5.66669 5.33301 5.66669H4.49967C4.27866 5.66669 4.0667 5.75448 3.91042 5.91077C3.75414 6.06705 3.66634 6.27901 3.66634 6.50002C3.66634 6.72103 3.75414 6.933 3.91042 7.08928C4.0667 7.24556 4.27866 7.33335 4.49967 7.33335ZM4.49967 9.00002C4.27866 9.00002 4.0667 9.08782 3.91042 9.2441C3.75414 9.40038 3.66634 9.61234 3.66634 9.83335C3.66634 10.0544 3.75414 10.2663 3.91042 10.4226C4.0667 10.5789 4.27866 10.6667 4.49967 10.6667H9.49967C9.72069 10.6667 9.93265 10.5789 10.0889 10.4226C10.2452 10.2663 10.333 10.0544 10.333 9.83335C10.333 9.61234 10.2452 9.40038 10.0889 9.2441C9.93265 9.08782 9.72069 9.00002 9.49967 9.00002H4.49967ZM13.6663 6.45002C13.6577 6.37347 13.6409 6.29805 13.6163 6.22502V6.15002C13.5763 6.06434 13.5228 5.98557 13.458 5.91669L8.45801 0.916687C8.38912 0.851867 8.31036 0.798421 8.22467 0.758354C8.1998 0.75482 8.17455 0.75482 8.14967 0.758354C8.06502 0.709805 7.97153 0.678641 7.87467 0.666687H2.83301C2.16997 0.666687 1.53408 0.930079 1.06524 1.39892C0.5964 1.86776 0.333008 2.50365 0.333008 3.16669V14.8334C0.333008 15.4964 0.5964 16.1323 1.06524 16.6011C1.53408 17.07 2.16997 17.3334 2.83301 17.3334H11.1663C11.8294 17.3334 12.4653 17.07 12.9341 16.6011C13.4029 16.1323 13.6663 15.4964 13.6663 14.8334V6.50002C13.6663 6.50002 13.6663 6.50002 13.6663 6.45002ZM8.66634 3.50835L10.8247 5.66669H9.49967C9.27866 5.66669 9.0667 5.57889 8.91042 5.42261C8.75414 5.26633 8.66634 5.05437 8.66634 4.83335V3.50835ZM11.9997 14.8334C11.9997 15.0544 11.9119 15.2663 11.7556 15.4226C11.5993 15.5789 11.3874 15.6667 11.1663 15.6667H2.83301C2.61199 15.6667 2.40003 15.5789 2.24375 15.4226C2.08747 15.2663 1.99967 15.0544 1.99967 14.8334V3.16669C1.99967 2.94567 2.08747 2.73371 2.24375 2.57743C2.40003 2.42115 2.61199 2.33335 2.83301 2.33335H6.99967V4.83335C6.99967 5.4964 7.26307 6.13228 7.73191 6.60112C8.20075 7.06996 8.83663 7.33335 9.49967 7.33335H11.9997V14.8334ZM9.49967 12.3334H4.49967C4.27866 12.3334 4.0667 12.4212 3.91042 12.5774C3.75414 12.7337 3.66634 12.9457 3.66634 13.1667C3.66634 13.3877 3.75414 13.5997 3.91042 13.7559C4.0667 13.9122 4.27866 14 4.49967 14H9.49967C9.72069 14 9.93265 13.9122 10.0889 13.7559C10.2452 13.5997 10.333 13.3877 10.333 13.1667C10.333 12.9457 10.2452 12.7337 10.0889 12.5774C9.93265 12.4212 9.72069 12.3334 9.49967 12.3334Z" fill="white"/>
</svg>
