<svg width="18" height="18" viewBox="0 0 18 18" fill="none" xmlns="http://www.w3.org/2000/svg">
<path d="M14.8337 0.666687H3.16699C2.50395 0.666687 1.86807 0.930079 1.39923 1.39892C0.930384 1.86776 0.666992 2.50365 0.666992 3.16669V14.8334C0.666992 15.4964 0.930384 16.1323 1.39923 16.6011C1.86807 17.07 2.50395 17.3334 3.16699 17.3334H14.8337C14.9707 17.3314 15.1074 17.3175 15.242 17.2917L15.492 17.2334H15.5503H15.592L15.9003 17.1167L16.0087 17.0584C16.092 17.0084 16.1837 16.9667 16.267 16.9084C16.3783 16.8265 16.484 16.7374 16.5837 16.6417L16.642 16.5667C16.7238 16.4838 16.799 16.3946 16.867 16.3L16.942 16.1917C17.0002 16.0989 17.0504 16.0013 17.092 15.9C17.1149 15.86 17.1344 15.8182 17.1503 15.775C17.192 15.675 17.217 15.5667 17.2503 15.4584V15.3334C17.2976 15.1705 17.3255 15.0027 17.3337 14.8334V3.16669C17.3337 2.50365 17.0703 1.86776 16.6014 1.39892C16.1326 0.930079 15.4967 0.666687 14.8337 0.666687ZM3.16699 15.6667C2.94598 15.6667 2.73402 15.5789 2.57774 15.4226C2.42146 15.2663 2.33366 15.0544 2.33366 14.8334V11.2417L5.07533 8.49169C5.15279 8.41358 5.24496 8.35158 5.34651 8.30928C5.44806 8.26697 5.55698 8.24519 5.66699 8.24519C5.777 8.24519 5.88592 8.26697 5.98747 8.30928C6.08902 8.35158 6.18119 8.41358 6.25866 8.49169L13.4253 15.6667H3.16699ZM15.667 14.8334C15.6662 14.9361 15.6464 15.0378 15.6087 15.1334C15.5896 15.174 15.5673 15.213 15.542 15.25C15.5197 15.2853 15.4946 15.3187 15.467 15.35L11.0087 10.8917L11.742 10.1584C11.8195 10.0802 11.9116 10.0183 12.0132 9.97594C12.1147 9.93364 12.2236 9.91186 12.3337 9.91186C12.4437 9.91186 12.5526 9.93364 12.6541 9.97594C12.7557 10.0183 12.8479 10.0802 12.9253 10.1584L15.667 12.9084V14.8334ZM15.667 10.55L14.1003 9.00002C13.6234 8.54751 12.9911 8.29525 12.3337 8.29525C11.6762 8.29525 11.0439 8.54751 10.567 9.00002L9.83366 9.73335L7.43366 7.33335C6.95676 6.88085 6.32441 6.62859 5.66699 6.62859C5.00958 6.62859 4.37722 6.88085 3.90033 7.33335L2.33366 8.88335V3.16669C2.33366 2.94567 2.42146 2.73371 2.57774 2.57743C2.73402 2.42115 2.94598 2.33335 3.16699 2.33335H14.8337C15.0547 2.33335 15.2666 2.42115 15.4229 2.57743C15.5792 2.73371 15.667 2.94567 15.667 3.16669V10.55ZM10.2503 4.00002C10.0031 4.00002 9.76143 4.07333 9.55586 4.21068C9.3503 4.34804 9.19009 4.54326 9.09548 4.77167C9.00087 5.00007 8.97611 5.25141 9.02434 5.49388C9.07258 5.73636 9.19163 5.95909 9.36644 6.1339C9.54126 6.30872 9.76399 6.42777 10.0065 6.476C10.2489 6.52423 10.5003 6.49948 10.7287 6.40487C10.9571 6.31026 11.1523 6.15004 11.2897 5.94448C11.427 5.73892 11.5003 5.49725 11.5003 5.25002C11.5003 4.9185 11.3686 4.60056 11.1342 4.36614C10.8998 4.13172 10.5818 4.00002 10.2503 4.00002Z" fill="white"/>
</svg>
