<svg width="18" height="18" viewBox="0 0 18 18" fill="none" xmlns="http://www.w3.org/2000/svg">
<path d="M14.8337 0.666687H3.16699C2.50395 0.666687 1.86807 0.930079 1.39923 1.39892C0.930384 1.86776 0.666992 2.50365 0.666992 3.16669V14.8334C0.666992 15.4964 0.930384 16.1323 1.39923 16.6011C1.86807 17.07 2.50395 17.3334 3.16699 17.3334H14.8337C15.4967 17.3334 16.1326 17.07 16.6014 16.6011C17.0703 16.1323 17.3337 15.4964 17.3337 14.8334V3.16669C17.3337 2.50365 17.0703 1.86776 16.6014 1.39892C16.1326 0.930079 15.4967 0.666687 14.8337 0.666687ZM12.4087 2.33335L9.07533 5.66669H5.59199L8.92533 2.33335H12.4087ZM2.33366 3.16669C2.33366 2.94567 2.42146 2.73371 2.57774 2.57743C2.73402 2.42115 2.94598 2.33335 3.16699 2.33335H6.57533L3.24199 5.66669H2.33366V3.16669ZM15.667 14.8334C15.667 15.0544 15.5792 15.2663 15.4229 15.4226C15.2666 15.5789 15.0547 15.6667 14.8337 15.6667H3.16699C2.94598 15.6667 2.73402 15.5789 2.57774 15.4226C2.42146 15.2663 2.33366 15.0544 2.33366 14.8334V7.33335H15.667V14.8334ZM15.667 5.66669H11.4253L14.7587 2.33335H14.8337C15.0547 2.33335 15.2666 2.42115 15.4229 2.57743C15.5792 2.73371 15.667 2.94567 15.667 3.16669V5.66669Z" fill="white"/>
</svg>
