<svg width="300" height="292" viewBox="0 0 300 292" fill="none" xmlns="http://www.w3.org/2000/svg">
<path d="M233.167 285.716C230.651 285.713 228.163 285.18 225.867 284.15L183.251 265.101C181.812 264.457 180.529 263.509 179.49 262.322C178.451 261.136 177.681 259.739 177.232 258.227C176.782 256.715 176.664 255.123 176.887 253.562C177.109 252 177.665 250.505 178.518 249.178L181.494 244.554C182.188 243.485 182.613 242.263 182.731 240.994L186.171 202.753L157.714 190.037C151.556 187.257 146.459 182.562 143.181 176.651C139.903 170.739 138.619 163.927 139.521 157.226L141.661 141.749L124.959 134.32C121.942 132.966 119.435 130.685 117.801 127.809C116.167 124.933 115.491 121.61 115.871 118.323L68.3119 97.0641C66.7143 96.3518 65.2729 95.3311 64.07 94.0605C62.8672 92.79 61.9265 91.2945 61.3019 89.6596C60.6773 88.0248 60.381 86.2828 60.43 84.5332C60.479 82.7836 60.8724 81.0609 61.5875 79.4637L74.0774 51.4627C74.7148 50.0348 75.627 48.7467 76.7621 47.6717C77.8971 46.5968 79.2327 45.7562 80.6924 45.198C82.1522 44.6397 83.7075 44.3748 85.2696 44.4183C86.8317 44.4618 88.3699 44.8129 89.7964 45.4514L97.0404 48.6707L106.196 42.548C106.849 42.1187 107.599 41.8613 108.378 41.7996C109.156 41.738 109.938 41.874 110.65 42.1951L128.714 50.2431C129.836 50.7453 130.714 51.6728 131.153 52.822C131.593 53.9712 131.559 55.248 131.058 56.372L128.262 62.6247L263.374 123.016C265.714 124.066 267.78 125.642 269.411 127.622L276.965 136.84L281.567 135.794C283.789 135.287 286.118 135.568 288.156 136.588C290.194 137.608 291.815 139.304 292.743 141.387C293.671 143.469 293.848 145.81 293.244 148.009C292.639 150.208 291.291 152.129 289.43 153.444L276.532 162.538L273.191 180.206L276.284 184.478C277.31 185.88 277.845 187.583 277.805 189.32C277.764 191.058 277.152 192.734 276.062 194.087C274.972 195.44 273.466 196.395 271.778 196.804C270.09 197.212 268.314 197.051 266.727 196.346L259.52 193.127L252.406 204.889L254.466 218.849C254.515 219.183 254.528 219.522 254.503 219.859L250.989 269.088C250.657 273.597 248.638 277.815 245.334 280.899C242.03 283.982 237.685 285.705 233.167 285.722V285.716ZM84.9341 53.679C84.4282 53.6778 83.9329 53.8234 83.508 54.0981C83.0831 54.3727 82.7469 54.7648 82.54 55.2267L70.044 83.2277C69.8273 83.7121 69.7083 84.2346 69.6937 84.7652C69.679 85.2957 69.7691 85.824 69.9587 86.3196C70.1483 86.8153 70.4338 87.2687 70.7987 87.6539C71.1636 88.039 71.6009 88.3483 72.0854 88.5641L123.233 111.421C124.354 111.925 125.231 112.854 125.67 114.004C126.11 115.154 126.076 116.431 125.577 117.556C124.903 119.07 124.857 120.79 125.448 122.338C126.04 123.886 127.221 125.136 128.732 125.814L148.614 134.704C149.532 135.113 150.291 135.81 150.779 136.688C151.267 137.567 151.456 138.581 151.318 139.576L148.701 158.508C148.068 163.215 148.97 168 151.273 172.153C153.575 176.305 157.156 179.603 161.482 181.556L192.969 195.628C193.852 196.022 194.59 196.683 195.08 197.517C195.569 198.352 195.785 199.319 195.697 200.283L191.986 241.83C191.728 244.595 190.804 247.256 189.295 249.587L186.319 254.205C186.188 254.406 186.103 254.633 186.068 254.87C186.034 255.107 186.052 255.349 186.12 255.578C186.188 255.808 186.306 256.02 186.464 256.2C186.622 256.38 186.818 256.523 187.037 256.619L229.653 275.669C230.915 276.231 232.294 276.481 233.672 276.397C235.051 276.313 236.39 275.899 237.575 275.189C238.759 274.478 239.756 273.493 240.48 272.316C241.204 271.138 241.635 269.804 241.735 268.425L245.211 219.698L242.984 204.586C242.822 203.513 243.041 202.418 243.603 201.49L253.705 184.775C254.287 183.804 255.204 183.079 256.283 182.737C257.362 182.395 258.528 182.459 259.563 182.918L265.706 185.661L264.506 184.02C264.129 183.507 263.863 182.921 263.722 182.3C263.582 181.68 263.57 181.036 263.689 180.411L267.754 158.91C267.969 157.73 268.634 156.68 269.609 155.982L284.042 145.804C284.147 145.729 284.223 145.62 284.257 145.495C284.291 145.37 284.281 145.237 284.229 145.118C284.177 145 284.085 144.903 283.97 144.844C283.855 144.785 283.723 144.768 283.596 144.795L276.173 146.479C275.333 146.671 274.457 146.624 273.641 146.345C272.826 146.067 272.105 145.566 271.558 144.9L262.211 133.516C261.501 132.645 260.596 131.954 259.569 131.497L120.238 69.2117C119.117 68.707 118.24 67.7782 117.801 66.6285C117.361 65.4788 117.395 64.2017 117.894 63.0766L120.69 56.8116L109.227 51.6918L100.072 57.8145C99.4197 58.2525 98.6672 58.5175 97.8849 58.5846C97.1025 58.6518 96.3159 58.5188 95.599 58.1983L85.9981 53.9019C85.6632 53.753 85.3005 53.677 84.9341 53.679Z" fill="#333333"/>
<path d="M194.206 188.607C194.046 188.607 193.891 188.607 193.736 188.607C193.13 188.546 192.541 188.366 192.004 188.077C191.467 187.788 190.992 187.396 190.607 186.924C190.221 186.451 189.933 185.907 189.758 185.323C189.582 184.739 189.524 184.126 189.585 183.519L191.763 161.851C191.886 160.625 192.49 159.499 193.443 158.719C194.397 157.939 195.62 157.571 196.845 157.694C198.07 157.817 199.195 158.422 199.974 159.376C200.753 160.329 201.122 161.554 200.999 162.779L198.815 184.447C198.696 185.588 198.159 186.644 197.308 187.412C196.457 188.18 195.352 188.606 194.206 188.607Z" fill="#333333"/>
<path d="M178.32 175.632H177.083C175.853 175.593 174.688 175.067 173.845 174.169C173.002 173.271 172.55 172.074 172.589 170.843C172.627 169.612 173.153 168.446 174.051 167.602C174.948 166.759 176.143 166.307 177.374 166.345C182.471 166.5 186.035 165.367 188.398 164.036L166.078 154.181C165.505 153.945 164.984 153.598 164.547 153.158C164.11 152.719 163.765 152.196 163.534 151.621C163.302 151.045 163.187 150.43 163.197 149.81C163.207 149.19 163.341 148.578 163.591 148.01C163.841 147.443 164.202 146.931 164.653 146.506C165.104 146.081 165.635 145.75 166.216 145.533C166.797 145.317 167.415 145.219 168.034 145.245C168.653 145.271 169.26 145.422 169.821 145.687L198.493 158.328C199.077 158.585 199.601 158.959 200.033 159.428C200.466 159.897 200.797 160.45 201.006 161.052C201.215 161.655 201.297 162.294 201.248 162.93C201.199 163.566 201.019 164.185 200.72 164.748C200.448 165.2 194.738 175.632 178.32 175.632Z" fill="#333333"/>
<path d="M245.669 169.509H245.631C245.022 169.505 244.42 169.381 243.859 169.144C243.298 168.907 242.789 168.561 242.362 168.127C241.934 167.693 241.597 167.179 241.368 166.614C241.139 166.049 241.024 165.445 241.029 164.835L241.196 143.211C241.205 141.979 241.702 140.802 242.579 139.938C243.013 139.51 243.527 139.171 244.092 138.942C244.656 138.713 245.26 138.597 245.87 138.602C246.479 138.606 247.081 138.731 247.643 138.968C248.204 139.206 248.713 139.551 249.14 139.986C249.568 140.42 249.906 140.934 250.135 141.499C250.364 142.064 250.48 142.669 250.475 143.279L250.308 164.903C250.298 166.128 249.805 167.3 248.936 168.162C248.067 169.025 246.893 169.509 245.669 169.509Z" fill="#333333"/>
<path d="M227.568 161.43C226.959 161.426 226.356 161.301 225.795 161.064C225.234 160.827 224.725 160.482 224.297 160.048C223.869 159.614 223.53 159.1 223.301 158.535C223.071 157.97 222.956 157.365 222.96 156.756L223.127 135.131C223.136 133.9 223.633 132.722 224.51 131.858C225.386 130.994 226.57 130.513 227.8 130.522C229.031 130.531 230.207 131.029 231.071 131.906C231.935 132.783 232.415 133.968 232.406 135.199L232.239 156.824C232.229 158.054 231.732 159.23 230.856 160.094C229.98 160.957 228.798 161.438 227.568 161.43Z" fill="#333333"/>
<path d="M209.523 153.351H209.486C208.876 153.347 208.274 153.223 207.713 152.985C207.151 152.748 206.642 152.403 206.214 151.969C205.786 151.535 205.448 151.021 205.218 150.456C204.989 149.891 204.873 149.286 204.877 148.677L205.044 127.052C205.054 125.827 205.547 124.656 206.416 123.793C207.285 122.93 208.46 122.446 209.684 122.446H209.721C210.33 122.45 210.932 122.574 211.493 122.812C212.054 123.049 212.563 123.394 212.99 123.828C213.418 124.263 213.756 124.777 213.984 125.342C214.213 125.906 214.328 126.511 214.323 127.12L214.156 148.745C214.148 149.969 213.656 151.141 212.788 152.004C211.92 152.866 210.746 153.351 209.523 153.351Z" fill="#333333"/>
<path d="M187.977 31.1008C187.524 31.1013 187.074 31.0345 186.641 30.9027C164.593 24.2878 141.118 24.0946 118.964 30.3455C117.787 30.6611 116.533 30.5004 115.473 29.8981C114.413 29.2958 113.632 28.3003 113.3 27.1267C112.967 25.9531 113.11 24.6958 113.696 23.6265C114.283 22.5571 115.266 21.7617 116.434 21.4122C140.294 14.6824 165.577 14.8972 189.319 22.0312C190.371 22.3642 191.269 23.0611 191.854 23.997C192.439 24.9329 192.671 26.0466 192.509 27.1383C192.348 28.2301 191.803 29.2286 190.972 29.9547C190.142 30.6808 189.08 31.0871 187.977 31.1008Z" fill="#333333"/>
<path d="M35.2835 201.299C34.3587 201.298 33.4553 201.02 32.6892 200.502C31.9232 199.983 31.3294 199.247 30.9841 198.389C18.5931 167.512 18.4935 133.058 30.7058 102.11C30.9215 101.531 31.2506 101.001 31.6736 100.551C32.0966 100.101 32.605 99.74 33.1692 99.4892C33.7334 99.2384 34.3419 99.1028 34.9591 99.0903C35.5763 99.0778 36.1898 99.1887 36.7636 99.4166C37.3374 99.6444 37.86 99.9845 38.3008 100.417C38.7416 100.849 39.0918 101.366 39.3307 101.935C39.5697 102.505 39.6926 103.117 39.6924 103.734C39.6921 104.352 39.5687 104.964 39.3293 105.533C27.9976 134.266 28.0905 166.25 39.5891 194.916C39.873 195.623 39.9789 196.389 39.8974 197.147C39.8159 197.904 39.5496 198.63 39.1219 199.261C38.6941 199.891 38.1181 200.407 37.4445 200.762C36.7708 201.118 36.0202 201.302 35.2588 201.299H35.2835Z" fill="#333333"/>
<path d="M50.3905 86.4655H50.1121L8.04628 83.9892C7.05449 83.9306 6.1077 83.5549 5.34523 82.9175C4.58277 82.2801 4.04489 81.4145 3.81078 80.4483C3.57667 79.482 3.65866 78.4661 4.04472 77.5499C4.43079 76.6338 5.10053 75.8659 5.95536 75.3592L31.0773 60.5013L1.38378 31.2993C0.61376 30.5403 0.132729 29.536 0.0236826 28.4599C-0.0853642 27.3838 0.184419 26.3033 0.786493 25.405C1.38857 24.5068 2.28515 23.847 3.32144 23.5397C4.35774 23.2324 5.46872 23.2968 6.46262 23.7218L43.8394 39.7188L46.3633 11.4269C46.4496 10.4639 46.834 9.55193 47.4631 8.81814C48.0921 8.08436 48.9343 7.56538 49.8722 7.33362C50.8102 7.10186 51.797 7.16888 52.695 7.52534C53.593 7.88179 54.3575 8.50989 54.8816 9.322L74.0587 39.0378C74.3894 39.55 74.616 40.1223 74.7256 40.7222C74.8352 41.322 74.8257 41.9375 74.6976 42.5337C74.5695 43.1298 74.3253 43.6949 73.979 44.1966C73.6327 44.6983 73.191 45.1268 72.6792 45.4577C72.1674 45.7886 71.5955 46.0153 70.9962 46.125C70.3968 46.2347 69.7817 46.2252 69.186 46.097C68.5903 45.9688 68.0257 45.7244 67.5244 45.3779C67.0231 45.0313 66.5948 44.5893 66.2642 44.0771L54.4239 25.7276L52.5309 46.9497C52.4663 47.68 52.2295 48.3846 51.8401 49.0056C51.4506 49.6266 50.9195 50.1464 50.2904 50.5222C49.6613 50.898 48.9522 51.1191 48.2211 51.1675C47.4901 51.2158 46.758 51.09 46.085 50.8003L25.4851 41.9661L41.8846 58.0621C42.3923 58.5609 42.7785 59.1698 43.0135 59.8418C43.2485 60.5137 43.326 61.2308 43.2399 61.9375C43.1538 62.6442 42.9064 63.3217 42.5169 63.9175C42.1275 64.5132 41.6063 65.0114 40.9938 65.3735L23.7467 75.6254L50.6565 77.2041C51.887 77.2394 53.0531 77.7624 53.8983 78.6581C54.7434 79.5538 55.1984 80.7488 55.1631 81.9803C55.1279 83.2117 54.6052 84.3787 53.7102 85.2245C52.8152 86.0702 51.621 86.5256 50.3905 86.4903V86.4655Z" fill="#333333"/>
<path d="M221.122 82.4351C219.892 82.4351 218.712 81.9459 217.841 81.0751C216.971 80.2044 216.483 79.0234 216.483 77.792C216.483 72.1653 214.615 66.698 211.172 62.2494C207.73 57.8007 202.908 54.623 197.464 53.2155C192.02 51.808 186.263 52.2506 181.098 54.4737C175.933 56.6968 171.653 60.5744 168.93 65.4971C168.332 66.5741 167.332 67.3697 166.149 67.7087C164.965 68.0477 163.696 67.9024 162.62 67.3048C161.543 66.7071 160.748 65.7061 160.41 64.5219C160.071 63.3376 160.216 62.0672 160.813 60.9902C164.532 54.2637 170.38 48.9649 177.436 45.9272C184.492 42.8894 192.358 42.2848 199.795 44.2086C207.232 46.1324 213.819 50.4754 218.521 56.5546C223.223 62.6339 225.772 70.1046 225.768 77.792C225.768 78.4022 225.648 79.0065 225.414 79.5702C225.181 80.134 224.838 80.6461 224.407 81.0773C223.975 81.5086 223.463 81.8504 222.9 82.0834C222.336 82.3164 221.732 82.4359 221.122 82.4351Z" fill="#333333"/>
<path d="M293.945 130.587C293.465 130.586 292.987 130.511 292.529 130.364C291.358 129.989 290.384 129.164 289.82 128.071C289.256 126.978 289.149 125.705 289.522 124.533C290.732 120.726 291.028 116.688 290.386 112.745C289.744 108.803 288.183 105.067 285.829 101.842C283.475 98.6161 280.394 95.9913 276.836 94.1803C273.278 92.3692 269.344 91.4229 265.353 91.418C264.122 91.418 262.942 90.9288 262.072 90.0581C261.202 89.1873 260.713 88.0064 260.713 86.7749C260.713 85.5435 261.202 84.3625 262.072 83.4918C262.942 82.621 264.122 82.1318 265.353 82.1318C270.805 82.1367 276.178 83.4279 281.038 85.9007C285.897 88.3735 290.106 91.9581 293.321 96.3637C296.537 100.769 298.669 105.872 299.545 111.256C300.421 116.641 300.016 122.157 298.362 127.356C298.063 128.293 297.474 129.111 296.681 129.692C295.887 130.273 294.929 130.587 293.945 130.587Z" fill="#333333"/>
<path d="M275.727 92.0934C275.356 92.0935 274.986 92.0477 274.626 91.9572C273.431 91.6654 272.401 90.9107 271.762 89.8589C271.123 88.8072 270.927 87.5444 271.218 86.3483C272.997 79.0746 272.285 71.4137 269.195 64.5934C266.105 57.7732 260.817 52.1886 254.177 48.735C247.537 45.2814 239.931 44.1588 232.578 45.547C225.225 46.9352 218.551 50.7539 213.625 56.391C213.221 56.8496 212.732 57.2241 212.184 57.4932C211.636 57.7624 211.04 57.9209 210.431 57.9597C209.822 57.9985 209.211 57.9168 208.633 57.7194C208.056 57.5219 207.522 57.2126 207.064 56.8089C206.606 56.4053 206.232 55.9153 205.963 55.3669C205.694 54.8185 205.535 54.2224 205.497 53.6128C205.458 53.0031 205.54 52.3918 205.737 51.8137C205.934 51.2356 206.243 50.7021 206.647 50.2436C212.937 43.0275 221.468 38.1361 230.87 36.3546C240.272 34.5731 250 36.0049 258.491 40.4201C266.982 44.8353 273.745 51.9778 277.693 60.701C281.641 69.4241 282.546 79.2218 280.262 88.5213C280.019 89.5411 279.439 90.4489 278.616 91.0973C277.793 91.7457 276.775 92.0968 275.727 92.0934Z" fill="#333333"/>
<path d="M152.351 283.184C146.6 283.182 140.94 281.746 135.882 279.008C130.824 276.269 126.527 272.314 123.378 267.498C120.229 262.682 118.328 257.158 117.846 251.423C117.363 245.688 118.315 239.923 120.616 234.648C121.132 233.558 122.052 232.711 123.182 232.288C124.311 231.865 125.56 231.898 126.665 232.381C127.77 232.864 128.644 233.759 129.102 234.875C129.559 235.992 129.564 237.243 129.116 238.363C126.853 243.521 126.37 249.286 127.741 254.75C129.113 260.214 132.262 265.065 136.693 268.541C141.123 272.016 146.583 273.918 152.212 273.946C157.841 273.975 163.32 272.128 167.785 268.698C168.269 268.327 168.822 268.056 169.411 267.899C170 267.743 170.614 267.704 171.218 267.784C171.822 267.865 172.404 268.064 172.931 268.37C173.458 268.676 173.92 269.083 174.29 269.567C174.66 270.052 174.931 270.605 175.088 271.194C175.244 271.783 175.283 272.398 175.203 273.002C175.122 273.607 174.923 274.19 174.617 274.717C174.312 275.245 173.905 275.707 173.421 276.077C167.367 280.696 159.963 283.193 152.351 283.184Z" fill="#333333"/>
<path d="M87.9155 215.215C87.2767 215.214 86.645 215.081 86.0596 214.825C81.0605 212.643 76.647 209.31 73.1782 205.098C69.7094 200.886 67.2833 195.914 66.0974 190.587C64.9115 185.259 64.9993 179.727 66.3537 174.44C67.708 169.152 70.2907 164.26 73.8915 160.16C74.7036 159.235 75.8497 158.671 77.0777 158.591C78.3057 158.512 79.515 158.924 80.4395 159.736C81.364 160.549 81.928 161.696 82.0075 162.925C82.087 164.154 81.6754 165.364 80.8632 166.289C78.2267 169.291 76.3356 172.873 75.3439 176.744C74.3521 180.615 74.2877 184.665 75.1558 188.566C76.024 192.467 77.8002 196.107 80.34 199.191C82.8797 202.275 86.1112 204.715 89.7713 206.313C90.7445 206.743 91.5407 207.494 92.0269 208.441C92.5131 209.388 92.6599 210.473 92.4426 211.515C92.2254 212.558 91.6573 213.494 90.8333 214.167C90.0093 214.84 88.9793 215.21 87.9155 215.215Z" fill="#333333"/>
<path d="M108.955 271.595C101 271.596 93.2036 269.373 86.4444 265.176C79.6852 260.979 74.2324 254.975 70.701 247.842C67.1697 240.709 65.7003 232.73 66.4586 224.806C67.2169 216.882 70.1728 209.327 74.9928 202.995C75.3616 202.509 75.8223 202.101 76.3487 201.794C76.875 201.487 77.4567 201.287 78.0604 201.204C78.6641 201.122 79.2781 201.16 79.8673 201.315C80.4566 201.47 81.0094 201.74 81.4944 202.109C81.9794 202.479 82.387 202.94 82.6939 203.466C83.0009 203.993 83.2011 204.575 83.2833 205.179C83.3654 205.784 83.3278 206.398 83.1727 206.988C83.0175 207.577 82.7479 208.131 82.379 208.616C80.7638 210.742 79.4078 213.053 78.3395 215.5C75.6202 221.732 74.8648 228.646 76.174 235.319C77.4831 241.992 80.7947 248.106 85.6667 252.847C90.5387 257.587 96.7395 260.728 103.442 261.85C110.144 262.972 117.028 262.022 123.177 259.127C123.729 258.867 124.326 258.719 124.936 258.691C125.545 258.663 126.153 258.755 126.727 258.962C127.301 259.17 127.828 259.488 128.278 259.899C128.729 260.31 129.094 260.806 129.354 261.358C129.613 261.911 129.761 262.509 129.789 263.119C129.817 263.728 129.725 264.337 129.518 264.911C129.311 265.485 128.993 266.013 128.582 266.464C128.171 266.915 127.676 267.281 127.124 267.54C121.439 270.213 115.235 271.597 108.955 271.595Z" fill="#333333"/>
<path d="M203.04 12.7454C201.916 12.743 200.831 12.3325 199.987 11.5902C199.143 10.8478 198.596 9.824 198.45 8.70897L197.967 5.05021C197.862 3.86041 198.22 2.67603 198.965 1.74323C199.711 0.810432 200.787 0.200983 201.97 0.0415613C203.152 -0.117861 204.351 0.185008 205.317 0.887213C206.282 1.58942 206.94 2.63694 207.154 3.81205L207.648 7.52653C207.728 8.13144 207.688 8.7462 207.531 9.33565C207.373 9.9251 207.101 10.4777 206.73 10.9618C206.359 11.4459 205.896 11.8521 205.368 12.157C204.84 12.462 204.257 12.6598 203.652 12.7392C203.448 12.7536 203.244 12.7556 203.04 12.7454Z" fill="#333333"/>
<path d="M208.744 56.1307C207.62 56.1288 206.535 55.7194 205.69 54.9783C204.845 54.2373 204.297 53.2149 204.148 52.1005L200.436 23.0038C200.328 22.3865 200.346 21.7539 200.49 21.1439C200.633 20.5339 200.898 19.9592 201.268 19.4545C201.639 18.9497 202.109 18.5253 202.648 18.2067C203.187 17.8882 203.785 17.6822 204.406 17.6011C205.027 17.52 205.657 17.5654 206.26 17.7348C206.863 17.9041 207.425 18.1938 207.913 18.5863C208.401 18.9789 208.805 19.4662 209.099 20.019C209.394 20.5718 209.574 21.1786 209.628 21.8028L213.34 50.8995C213.418 51.5045 213.376 52.1189 213.217 52.7077C213.057 53.2964 212.783 53.8478 212.41 54.3303C212.037 54.8128 211.572 55.2169 211.043 55.5195C210.514 55.8221 209.93 56.0172 209.325 56.0936C209.132 56.1178 208.938 56.1302 208.744 56.1307Z" fill="#333333"/>
<path d="M276.804 91.4179C275.758 91.4192 274.742 91.0668 273.922 90.418C273.101 89.7691 272.523 88.8618 272.283 87.8432C272.042 86.8246 272.152 85.7545 272.596 84.8066C273.039 83.8586 273.789 83.0883 274.725 82.6208L293.284 73.3346C293.829 73.0618 294.422 72.8992 295.03 72.8559C295.638 72.8127 296.249 72.8897 296.827 73.0826C297.405 73.2754 297.939 73.5804 298.4 73.98C298.86 74.3796 299.237 74.8661 299.51 75.4116C299.783 75.9571 299.945 76.551 299.988 77.1593C300.031 77.7677 299.955 78.3786 299.762 78.9572C299.569 79.5359 299.264 80.0708 298.865 80.5316C298.466 80.9923 297.98 81.3698 297.435 81.6426L278.876 90.9288C278.233 91.2515 277.523 91.419 276.804 91.4179Z" fill="#333333"/>
<path d="M7.07512 218.329C5.89327 218.322 4.7586 217.864 3.90268 217.049C3.04675 216.233 2.5341 215.122 2.46937 213.941C2.40464 212.76 2.79271 211.598 3.55437 210.694C4.31602 209.79 5.39384 209.21 6.56785 209.074L9.21554 208.777C9.82158 208.709 10.435 208.761 11.0209 208.931C11.6067 209.1 12.1535 209.383 12.63 209.764C13.1065 210.145 13.5034 210.616 13.798 211.15C14.0926 211.685 14.2791 212.272 14.347 212.878C14.4148 213.485 14.3626 214.099 14.1933 214.685C14.0241 215.271 13.7411 215.819 13.3605 216.295C12.98 216.772 12.5093 217.169 11.9753 217.464C11.4414 217.759 10.8547 217.946 10.2486 218.014L7.60093 218.311C7.4263 218.329 7.25061 218.335 7.07512 218.329Z" fill="#333333"/>
<path d="M25.1445 216.305C23.9622 216.299 22.8265 215.843 21.9694 215.027C21.1123 214.212 20.5986 213.101 20.533 211.919C20.4675 210.738 20.8551 209.576 21.6168 208.671C22.3784 207.766 23.4566 207.186 24.6311 207.05L78.3269 201.026C78.9417 200.938 79.5677 200.975 80.168 201.134C80.7683 201.293 81.3307 201.571 81.8217 201.951C82.3127 202.332 82.7224 202.807 83.0265 203.349C83.3306 203.89 83.5229 204.488 83.5921 205.105C83.6612 205.723 83.6058 206.348 83.4291 206.944C83.2524 207.54 82.958 208.094 82.5633 208.574C82.1687 209.053 81.6818 209.449 81.1316 209.737C80.5813 210.025 79.9789 210.199 79.36 210.25L25.6642 216.274C25.4916 216.293 25.3182 216.304 25.1445 216.305Z" fill="#333333"/>
<path d="M116.582 292C115.853 292.002 115.134 291.832 114.483 291.503C113.832 291.174 113.267 290.696 112.836 290.108C112.404 289.52 112.117 288.838 111.999 288.118C111.88 287.398 111.933 286.66 112.153 285.964L118.958 264.296C119.327 263.122 120.147 262.142 121.238 261.572C122.329 261.003 123.602 260.89 124.776 261.26C125.95 261.629 126.929 262.45 127.498 263.542C128.067 264.634 128.179 265.907 127.81 267.082L121.005 288.75C120.708 289.692 120.12 290.514 119.325 291.098C118.529 291.683 117.569 291.999 116.582 292Z" fill="#333333"/>
<path d="M9.56189 290.762C8.55312 290.765 7.57072 290.44 6.76354 289.834C5.95636 289.229 5.36838 288.376 5.08866 287.406C4.80895 286.436 4.85275 285.402 5.21341 284.459C5.57408 283.516 6.23198 282.717 7.08742 282.182L7.59465 281.86C8.6383 281.233 9.88626 281.042 11.0695 281.327C12.2527 281.613 13.2765 282.352 13.92 283.386C14.5636 284.42 14.7754 285.665 14.5098 286.854C14.2442 288.043 13.5226 289.079 12.5003 289.74L11.993 290.062C11.264 290.519 10.4217 290.761 9.56189 290.762Z" fill="#333333"/>
<path d="M22.5529 282.713C21.5274 282.722 20.5276 282.392 19.71 281.772C18.8923 281.153 18.3027 280.28 18.0334 279.289C17.7641 278.299 17.8303 277.247 18.2215 276.299C18.6128 275.35 19.3071 274.558 20.1959 274.046L34.4983 265.62C35.559 264.996 36.8242 264.818 38.0157 265.127C39.2071 265.436 40.2272 266.206 40.8515 267.267C41.4758 268.329 41.6531 269.595 41.3445 270.787C41.0359 271.979 40.2667 273 39.206 273.625L24.9036 282.051C24.1929 282.477 23.3814 282.706 22.5529 282.713Z" fill="#333333"/>
<path d="M54.1208 263.43C53.1139 263.431 52.1339 263.104 51.3288 262.499C50.5237 261.894 49.9372 261.043 49.6578 260.075C49.3784 259.107 49.4213 258.074 49.78 257.132C50.1387 256.191 50.7938 255.392 51.6464 254.855L70.2048 243.186C71.2467 242.529 72.5065 242.313 73.7072 242.586C74.908 242.859 75.9512 243.598 76.6075 244.64C77.2638 245.683 77.4793 246.944 77.2067 248.146C76.934 249.347 76.1956 250.391 75.1538 251.048L56.5953 262.718C55.8547 263.185 54.9964 263.432 54.1208 263.43Z" fill="#333333"/>
</svg>
