<svg width="296" height="298" viewBox="0 0 296 298" fill="none" xmlns="http://www.w3.org/2000/svg">
<g clip-path="url(#clip0_106_1153)">
<path d="M45.7381 42.018C105.234 -15.431 200.395 -13.757 257.837 45.733C275.897 64.427 288.789 87.493 295.248 112.671C295.477 113.368 295.558 114.105 295.488 114.839C295.418 115.568 295.198 116.277 294.844 116.92C294.49 117.562 294.008 118.128 293.426 118.576C292.845 119.027 292.177 119.349 291.465 119.533C290.753 119.714 290.013 119.744 289.287 119.63C288.563 119.513 287.87 119.248 287.248 118.854C286.631 118.458 286.1 117.941 285.689 117.332C285.281 116.722 284.998 116.035 284.861 115.314C278.856 91.946 266.881 70.544 250.115 53.198C196.772 -2.04897 108.433 -3.58097 53.2021 49.748C-2.03394 103.084 -3.58494 191.421 49.7531 246.664C69.6831 267.398 95.5791 281.406 123.841 286.736C124.533 286.869 125.195 287.134 125.783 287.523C126.373 287.908 126.882 288.408 127.278 288.99C128.081 290.168 128.382 291.615 128.117 293.014C127.852 294.413 127.041 295.65 125.864 296.452C124.685 297.253 123.238 297.554 121.839 297.29C91.3941 291.543 63.4981 276.455 42.0261 254.122C-15.4299 194.618 -13.7629 99.47 45.7381 42.018Z" fill="#333333"/>
<path d="M52.94 228.692C52.133 228.692 51.329 228.475 50.616 228.046C49.302 227.254 48.482 225.846 48.441 224.312L45.108 98.312C45.059 96.455 46.156 94.758 47.87 94.041L113.203 66.708C114.255 66.269 115.434 66.245 116.503 66.64L186.442 92.543L242.23 58.043C243.62 57.185 245.363 57.145 246.788 57.939C248.214 58.733 249.098 60.238 249.098 61.87V139.124C249.098 141.609 247.083 143.624 244.598 143.624C242.113 143.624 240.098 141.609 240.098 139.124V69.944L189.308 101.354C188.127 102.083 186.676 102.229 185.378 101.747L115.041 75.697L54.188 101.156L57.253 217.043L110.28 190.827C111.422 190.263 112.749 190.21 113.932 190.678L136.273 199.533C138.584 200.449 139.714 203.064 138.798 205.375C137.883 207.687 135.268 208.818 132.957 207.9L112.476 199.782L54.935 228.228C54.305 228.538 53.622 228.692 52.94 228.692Z" fill="#333333"/>
<path d="M87.6862 132.156C86.9172 132.156 86.1392 131.959 85.4272 131.544L66.1602 120.332C64.0122 119.082 63.2842 116.328 64.5342 114.18C65.7842 112.032 68.5372 111.304 70.6872 112.554L89.9542 123.767C92.1022 125.017 92.8302 127.771 91.5802 129.919C90.7442 131.354 89.2362 132.156 87.6862 132.156Z" fill="#333333"/>
<path d="M71.9358 138.193C71.1668 138.193 70.3878 137.995 69.6748 137.58C67.5278 136.329 66.8008 133.574 68.0518 131.427L81.3898 108.534C82.6398 106.388 85.3948 105.66 87.5438 106.911C89.6908 108.162 90.4178 110.917 89.1668 113.064L75.8288 135.957C74.9928 137.393 73.4848 138.193 71.9358 138.193Z" fill="#333333"/>
<path d="M157.877 133.105C154.513 126.436 149.826 121.105 143.947 117.263C141.866 115.903 139.077 116.489 137.718 118.568C136.358 120.649 136.943 123.437 139.022 124.797C143.559 127.763 147.2 131.922 149.841 137.159C150.582 138.63 152.021 139.516 153.552 139.622C154.332 139.676 155.136 139.528 155.885 139.15C158.105 138.031 158.997 135.324 157.877 133.105Z" fill="#333333"/>
<path d="M124.183 110.448C113.13 109.196 103.997 111.527 103.643 111.619C101.242 112.246 99.8056 114.698 100.429 117.101C100.927 119.023 102.598 120.33 104.477 120.46C104.947 120.493 105.429 120.452 105.91 120.328C105.983 120.309 113.838 118.331 123.167 119.39C125.654 119.676 127.867 117.896 128.147 115.427C128.427 112.958 126.652 110.729 124.183 110.448Z" fill="#333333"/>
<path d="M207.992 279.206C165.628 279.206 131.162 244.74 131.162 202.376C131.162 160.011 165.628 125.545 207.992 125.545C250.357 125.545 284.824 160.011 284.824 202.376C284.824 244.74 250.357 279.206 207.992 279.206ZM207.992 134.545C170.591 134.545 140.162 164.974 140.162 202.376C140.162 239.777 170.591 270.206 207.992 270.206C245.394 270.206 275.824 239.777 275.824 202.376C275.824 164.974 245.394 134.545 207.992 134.545Z" fill="#333333"/>
<path d="M219.914 133.454H199.623C195.292 133.454 191.769 129.931 191.769 125.6C191.769 121.269 195.292 117.746 199.623 117.746H219.914C224.245 117.746 227.768 121.269 227.768 125.6C227.768 129.931 224.245 133.454 219.914 133.454Z" fill="#333333"/>
<path d="M209.881 119.075C202.667 119.075 196.798 113.205 196.798 105.991C196.798 98.777 202.667 92.908 209.881 92.908C217.096 92.908 222.965 98.777 222.965 105.991C222.965 113.206 217.096 119.075 209.881 119.075ZM209.881 101.908C207.63 101.908 205.798 103.74 205.798 105.991C205.798 108.243 207.63 110.075 209.881 110.075C212.133 110.075 213.965 108.243 213.965 105.991C213.965 103.74 212.133 101.908 209.881 101.908Z" fill="#333333"/>
<path d="M207.993 168.763C205.508 168.763 203.493 166.748 203.493 164.263V143.586C203.493 141.101 205.508 139.086 207.993 139.086C210.478 139.086 212.493 141.101 212.493 143.586V164.263C212.493 166.748 210.478 168.763 207.993 168.763Z" fill="#333333"/>
<path d="M170.327 206.429H149.65C147.165 206.429 145.15 204.414 145.15 201.929C145.15 199.444 147.165 197.429 149.65 197.429H170.327C172.812 197.429 174.827 199.444 174.827 201.929C174.827 204.414 172.812 206.429 170.327 206.429Z" fill="#333333"/>
<path d="M207.993 264.771C205.508 264.771 203.493 262.756 203.493 260.271V239.594C203.493 237.109 205.508 235.094 207.993 235.094C210.478 235.094 212.493 237.109 212.493 239.594V260.271C212.493 262.757 210.478 264.771 207.993 264.771Z" fill="#333333"/>
<path d="M265.335 206.429H244.658C242.173 206.429 240.158 204.414 240.158 201.929C240.158 199.444 242.173 197.429 244.658 197.429H265.335C267.82 197.429 269.835 199.444 269.835 201.929C269.835 204.414 267.821 206.429 265.335 206.429Z" fill="#333333"/>
<path d="M172.755 242.676C171.587 242.676 170.436 242.222 169.572 241.358C168.211 239.998 167.866 237.922 168.714 236.195L191.519 189.703C191.938 188.849 192.617 188.149 193.458 187.705L244.369 160.835C246.117 159.91 248.269 160.239 249.665 161.646C251.06 163.052 251.371 165.205 250.432 166.949L223.208 217.507C222.763 218.333 222.07 219 221.228 219.413L174.736 242.218C174.105 242.525 173.427 242.676 172.755 242.676ZM198.955 194.979L182.593 228.337L215.97 211.966L235.503 175.69L198.955 194.979Z" fill="#333333"/>
<path d="M209.524 206.656C208.122 206.656 206.803 206.11 205.812 205.118C204.82 204.127 204.274 202.808 204.274 201.406C204.274 200.004 204.82 198.685 205.812 197.694C206.803 196.702 208.122 196.156 209.524 196.156C210.926 196.156 212.245 196.702 213.236 197.694C214.228 198.685 214.774 200.004 214.774 201.406C214.774 202.808 214.228 204.127 213.236 205.118C212.245 206.11 210.926 206.656 209.524 206.656Z" fill="#333333"/>
<path d="M220.375 217.769C219.629 217.769 218.873 217.583 218.177 217.193C216.01 215.976 215.239 213.234 216.454 211.066C219.395 205.824 221.743 200.689 218.207 195.51C213.965 189.297 205.561 191.496 201.71 193.525C199.51 194.688 196.789 193.842 195.631 191.643C194.472 189.444 195.315 186.722 197.513 185.564C206.297 180.934 218.844 180.482 225.641 190.436C232.617 200.654 227.002 210.661 224.304 215.47C223.479 216.94 221.95 217.769 220.375 217.769Z" fill="#333333"/>
<path d="M83.0552 68.7251C81.6902 68.7251 80.3422 68.1061 79.4572 66.9331L72.5842 57.8111C71.0882 55.8261 71.4852 53.0041 73.4702 51.5091C75.4552 50.0141 78.2762 50.4101 79.7722 52.3951L86.6452 61.5171C88.1412 63.5021 87.7442 66.3241 85.7592 67.8191C84.9482 68.4291 83.9982 68.7251 83.0552 68.7251Z" fill="#333333"/>
<path d="M138.091 44.5921C135.838 44.5921 133.894 42.9041 133.627 40.6131L131.413 21.6121C131.125 19.1431 132.893 16.9091 135.362 16.6211C137.837 16.3331 140.065 18.1021 140.353 20.5701L142.567 39.5711C142.855 42.0401 141.087 44.2741 138.618 44.5621C138.44 44.5821 138.264 44.5921 138.091 44.5921Z" fill="#333333"/>
<path d="M140.901 68.7249C138.649 68.7249 136.704 67.0369 136.437 64.7449L135.583 57.4049C135.295 54.9359 137.064 52.7019 139.532 52.4149C142.008 52.1299 144.235 53.8959 144.522 56.3639L145.376 63.7039C145.663 66.1729 143.896 68.4069 141.427 68.6939C141.25 68.7139 141.075 68.7249 140.901 68.7249Z" fill="#333333"/>
<path d="M182.055 73.224C181.976 73.224 181.897 73.222 181.817 73.218C179.335 73.089 177.428 70.972 177.557 68.49L178.979 41.246C179.109 38.765 181.221 36.857 183.708 36.987C186.19 37.116 188.097 39.233 187.968 41.715L186.546 68.959C186.419 71.36 184.433 73.224 182.055 73.224Z" fill="#333333"/>
<path d="M215.878 63.379C215.278 63.379 214.669 63.259 214.084 63.004C211.806 62.012 210.762 59.361 211.754 57.082L216.928 45.191C217.92 42.911 220.57 41.868 222.85 42.86C225.128 43.852 226.172 46.503 225.18 48.782L220.006 60.673C219.269 62.368 217.615 63.379 215.878 63.379Z" fill="#333333"/>
<path d="M83.0473 254.433C82.1653 254.433 81.2733 254.174 80.4923 253.635C78.4483 252.221 77.9363 249.418 79.3493 247.374L98.8493 219.165C100.262 217.12 103.064 216.61 105.11 218.021C107.154 219.435 107.666 222.238 106.253 224.282L86.7533 252.491C85.8793 253.755 84.4753 254.433 83.0473 254.433Z" fill="#333333"/>
<path d="M116.719 264.772C116.273 264.772 115.82 264.706 115.372 264.565C113 263.822 111.681 261.296 112.424 258.925L117.61 242.377C118.353 240.005 120.88 238.684 123.25 239.429C125.622 240.172 126.941 242.698 126.198 245.069L121.012 261.617C120.409 263.541 118.634 264.772 116.719 264.772Z" fill="#333333"/>
</g>
<defs>
<clipPath id="clip0_106_1153">
<rect width="295.511" height="297.384" fill="white"/>
</clipPath>
</defs>
</svg>
