<svg width="302" height="299" viewBox="0 0 302 299" fill="none" xmlns="http://www.w3.org/2000/svg">
<g clip-path="url(#clip0_106_1133)">
<path d="M122.107 295.294C40.5426 279.466 -13.0034 200.517 2.74964 119.333C7.69664 93.814 19.2176 70.027 36.1876 50.296C36.6296 49.711 37.1886 49.224 37.8306 48.858C38.4726 48.499 39.1816 48.274 39.9146 48.192C40.6466 48.114 41.3896 48.185 42.0916 48.404C42.7996 48.622 43.4516 48.986 44.0126 49.462C44.5716 49.942 45.0256 50.531 45.3506 51.193C45.6696 51.853 45.8536 52.571 45.8876 53.309C45.9176 54.041 45.8006 54.773 45.5346 55.457C45.2706 56.144 44.8686 56.77 44.3536 57.294C28.6116 75.612 17.9266 97.696 13.3436 121.382C-1.28436 196.762 48.4296 270.046 124.155 284.741C199.88 299.438 273.394 250.067 288.022 174.684C293.567 146.463 290.135 117.206 278.207 90.988C277.919 90.344 277.753 89.65 277.732 88.947C277.71 88.242 277.826 87.536 278.074 86.879C278.579 85.546 279.596 84.47 280.9 83.886C282.203 83.297 283.687 83.256 285.026 83.76C286.365 84.267 287.448 85.281 288.038 86.578C300.885 114.824 304.582 146.338 298.614 176.738C282.857 257.944 203.678 311.125 122.107 295.294Z" fill="#333333"/>
<path d="M197.79 256C197.435 256 197.073 255.956 196.712 255.865L55.7922 220.243C52.178 219.329 49.1053 217.13 47.1397 214.05C45.1204 210.884 44.5029 207.177 45.4043 203.613L91.7289 20.1497C93.2379 14.1735 98.7591 10 105.155 10C106.366 10 107.58 10.1513 108.766 10.4509L249.685 46.0729C250.814 46.3579 251.783 47.0801 252.38 48.0806C252.977 49.081 253.151 50.2776 252.866 51.4068L202.043 252.683C201.541 254.673 199.753 256 197.79 256ZM105.155 18.7832C102.784 18.7832 100.764 20.2297 100.24 22.3008L53.9153 205.765C53.6139 206.958 53.8354 208.221 54.5387 209.323C55.2957 210.51 56.5052 211.363 57.9421 211.727L194.606 246.274L243.279 53.5131L106.616 18.9667C106.133 18.8457 105.642 18.7832 105.155 18.7832Z" fill="#333333"/>
<path d="M258.601 80C257.146 80 255.723 79.2749 254.884 77.9469L244.689 61.8143C243.383 59.7484 243.988 57.0086 246.039 55.6933C248.089 54.3801 250.811 54.9869 252.115 57.0529L262.311 73.1854C263.617 75.2514 263.012 77.9912 260.961 79.3064C260.228 79.7764 259.411 80 258.601 80Z" fill="#333333"/>
<path d="M201.248 248C199.755 248 198.307 247.2 197.532 245.782C196.397 243.704 197.138 241.087 199.188 239.935L217.698 229.54C219.745 228.389 222.329 229.138 223.468 231.218C224.603 233.296 223.862 235.914 221.812 237.066L203.302 247.461C202.65 247.826 201.944 248 201.248 248Z" fill="#333333"/>
<path d="M219.365 246C219.021 246 218.672 245.959 218.323 245.874C215.984 245.298 214.554 242.927 215.126 240.579L257.405 67.3379C257.978 64.9882 260.336 63.5491 262.677 64.128C265.016 64.704 266.446 67.0742 265.874 69.423L223.595 242.663C223.107 244.661 221.325 246 219.365 246Z" fill="#333333"/>
<path d="M183.638 219C183.275 219 182.908 218.954 182.54 218.858L78.2697 191.646C75.9368 191.037 74.5357 188.639 75.1408 186.291C75.7458 183.943 78.1281 182.536 80.4591 183.14L184.73 210.352C187.063 210.961 188.464 213.359 187.86 215.707C187.35 217.687 185.578 219 183.638 219Z" fill="#333333"/>
<path d="M189.599 200C189.233 200 188.863 199.954 188.492 199.858L83.2986 172.647C80.9451 172.038 79.5316 169.64 80.142 167.292C80.7524 164.944 83.1539 163.534 85.5074 164.141L190.701 191.352C193.054 191.961 194.468 194.359 193.858 196.707C193.344 198.687 191.557 200 189.599 200Z" fill="#333333"/>
<path d="M147.586 159C147.225 159 146.863 158.955 146.506 158.867C143.028 158.002 132.356 151.649 131.903 151.379C119.531 143.998 118.787 141.891 118.294 140.498C117.199 137.401 119.325 135.22 122.016 132.46C125.307 129.084 130.635 123.62 130.644 117.771C126.729 114.32 118.707 104.467 121.29 83.0863C122.481 73.2216 130.956 58.8914 141.523 58.8914C142.805 58.8914 144.05 59.0991 145.249 59.5117C151.298 53.3833 157.358 52 161.592 52C168.591 52 174.535 55.6199 177.981 59.9825C179.942 59.3942 181.888 59.0962 183.797 59.0962C193.576 59.0962 199.818 66.7175 201.478 73.7982C203.22 81.2274 200.524 87.9828 194.59 91.2377C193.606 93.0356 192.374 98.5552 192.104 100.733C192.286 101.073 192.588 101.56 192.772 101.855C193.085 102.357 193.369 102.824 193.568 103.208C193.677 103.418 193.943 103.892 194.308 104.546C201.042 116.619 203.011 120.58 199.646 123.544C198.186 124.832 196.298 124.982 195.004 124.982C193.483 124.982 190.518 124.619 187.651 123.96C187.714 124.311 187.784 124.666 187.851 125.011C188.456 128.116 189.284 132.367 186.494 135.988C185.86 136.813 185.167 137.353 184.548 137.72L184.553 137.901C184.627 140.416 184.751 144.625 182.186 147.275C180.912 148.59 179.081 149.257 176.742 149.257C174.657 149.257 172.327 148.742 170.627 148.366C170.113 148.253 169.665 148.151 169.332 148.096C167.488 147.792 164.526 147.102 161.392 146.373C159.299 145.887 156.477 145.231 154.546 144.844L154.426 145.187C153.468 147.851 152.658 151.177 151.951 155.351C151.747 156.555 151.042 157.619 150.008 158.286C149.281 158.756 148.439 159 147.586 159ZM128.291 138.622C131.982 141.339 139.41 145.724 144.331 148.33C144.859 146.068 145.441 144.058 146.087 142.261L146.203 141.927C146.754 140.324 147.781 137.338 150.609 136.167C151.226 135.911 151.893 135.786 152.644 135.786C154.29 135.786 157.191 136.42 163.419 137.869C166.278 138.534 169.233 139.221 170.79 139.477C171.245 139.553 171.857 139.684 172.559 139.839C173.499 140.047 174.691 140.31 175.697 140.44C175.749 139.592 175.719 138.59 175.707 138.153L175.701 137.944C175.696 137.815 175.675 137.681 175.66 137.548C175.529 136.44 175.225 133.845 177.311 131.816C178.133 131.016 178.972 130.601 179.581 130.356C179.724 129.548 179.393 127.849 179.161 126.661C178.553 123.54 177.72 119.264 180.453 115.537C181.175 114.552 182.279 113.91 183.501 113.762C184.607 113.628 185.71 113.911 186.605 114.541C187.19 114.811 188.634 115.227 190.243 115.579C189.375 113.896 188.182 111.678 186.555 108.76C186.126 107.992 185.816 107.432 185.687 107.183C185.576 106.967 185.409 106.712 185.234 106.433C184.34 104.997 183.226 103.209 183.21 101.137C183.209 100.994 184.502 86.4053 190.009 83.7455C193.134 82.236 193.528 78.6355 192.857 75.7688C191.93 71.8188 188.769 67.8329 183.796 67.8329C182.032 67.8329 180.119 68.33 178.111 69.3095C177.02 69.8405 175.757 69.9065 174.615 69.49C173.475 69.0736 172.558 68.2115 172.081 67.1068C170.972 64.5382 166.87 60.7368 161.591 60.7368C157.431 60.7368 153.435 63.086 149.714 67.7194C148.984 68.627 147.921 69.2124 146.754 69.3444C145.589 69.4784 144.417 69.1473 143.497 68.428C142.581 67.7106 141.931 67.6271 141.522 67.6271C137.368 67.6271 130.951 76.8755 130.076 84.1192C127.507 105.387 136.796 111.532 137.193 111.784C138.327 112.441 139.034 113.518 139.247 114.798C141.041 125.542 132.811 133.983 128.39 138.517C128.359 138.553 128.326 138.587 128.291 138.622Z" fill="#333333"/>
<path d="M229.39 49C228.995 49 228.593 48.9461 228.194 48.8325C225.884 48.175 224.548 45.7779 225.207 43.4771L230.416 25.3114L214.731 29.1399C213.229 29.5067 211.648 29.0523 210.573 27.9462L200.656 17.7457L195.533 35.741C194.878 38.0428 192.474 39.3828 190.164 38.7263C187.852 38.0736 186.511 35.6784 187.166 33.3767L194.348 8.15066C194.771 6.66139 195.962 5.51003 197.47 5.1317C198.974 4.7524 200.572 5.20582 201.654 6.31868L215.082 20.1331L235.617 15.1205C237.123 14.7537 238.709 15.2109 239.784 16.3238C240.859 17.4357 241.258 19.0337 240.833 20.5182L233.567 45.8559C233.023 47.7601 231.283 49 229.39 49Z" fill="#333333"/>
</g>
<defs>
<clipPath id="clip0_106_1133">
<rect width="301.394" height="298.083" fill="white"/>
</clipPath>
</defs>
</svg>
