<svg width="300" height="320" viewBox="0 0 300 320" fill="none" xmlns="http://www.w3.org/2000/svg">
<path d="M154.513 320C134.265 319.978 114.243 315.812 95.7234 307.766C77.2033 299.72 60.5903 287.971 46.9424 273.266C46.1111 272.249 45.7063 270.958 45.8105 269.657C45.9148 268.356 46.5204 267.144 47.5034 266.267C48.4865 265.39 49.773 264.915 51.1001 264.94C52.4271 264.964 53.6947 265.486 54.6438 266.398C67.3139 280.051 82.7373 290.959 99.9316 298.429C117.126 305.899 135.714 309.767 154.513 309.786C228.992 309.786 289.583 250.217 289.583 176.994C289.591 155.237 284.159 133.812 273.765 114.604C263.371 95.3959 248.335 78.9939 229.978 66.8415C228.866 66.0688 228.106 64.8984 227.861 63.5812C227.616 62.264 227.905 60.9048 228.667 59.7949C229.429 58.685 230.603 57.9127 231.937 57.6436C233.271 57.3744 234.66 57.6299 235.805 58.3551C255.571 71.4404 271.763 89.1005 282.956 109.782C294.15 130.464 300.003 153.533 300 176.96C300 255.836 234.735 320 154.513 320Z" fill="#333333"/>
<path d="M57.3732 183.788C50.0937 183.788 42.9777 181.666 36.925 177.69C30.8723 173.714 26.1548 168.062 23.3691 161.45C20.5833 154.838 19.8545 147.563 21.2746 140.544C22.6948 133.524 26.2002 127.077 31.3476 122.016C36.495 116.956 43.0531 113.509 50.1928 112.113C57.3324 110.717 64.7328 111.434 71.4582 114.172C78.1836 116.911 83.9319 121.549 87.9762 127.5C92.0204 133.45 94.1791 140.446 94.1791 147.603C94.1607 157.194 90.2771 166.388 83.3786 173.17C76.4801 179.952 67.1291 183.77 57.3732 183.788ZM57.3732 121.604C52.154 121.604 47.0519 123.126 42.7122 125.977C38.3726 128.827 34.9902 132.879 32.9929 137.62C30.9956 142.361 30.473 147.577 31.4912 152.61C32.5094 157.642 35.0227 162.265 38.7133 165.893C42.4039 169.522 47.106 171.993 52.225 172.994C57.344 173.995 62.6499 173.481 67.4719 171.517C72.2939 169.554 76.4153 166.228 79.315 161.962C82.2146 157.696 83.7623 152.68 83.7623 147.548C83.7312 140.682 80.9391 134.106 75.9954 129.256C71.0516 124.406 64.3574 121.675 57.3732 121.659V121.604Z" fill="#333333"/>
<path d="M88.9079 286.846C88.5771 286.847 88.247 286.817 87.9218 286.758C66.8731 282.777 53.3652 286.758 26.6576 253.365C16.2825 240.393 12.1644 228.657 11.9908 228.165C11.628 227.121 11.6181 225.989 11.9626 224.939C12.307 223.889 12.9874 222.976 13.9023 222.337C14.8172 221.697 15.9177 221.366 17.0399 221.391C18.162 221.417 19.2458 221.798 20.1297 222.478C53.123 247.78 82.9982 252.395 102.075 235.15C110.5 227.533 114.721 223.604 109.103 209.936C83.2483 224.089 59.4425 207.69 34.2826 199.149C17.5325 193.462 4.51155 182.941 0.317079 171.703C-0.0286299 170.774 -0.0932353 169.767 0.131072 168.802C0.355379 167.838 0.858995 166.958 1.58104 166.269C2.30309 165.58 3.21266 165.112 4.19979 164.92C5.18692 164.729 6.20936 164.822 7.14352 165.19C22.1089 171.075 26.9631 168.733 27.5603 168.378C28.4009 167.407 29.5795 166.78 30.8657 166.618C32.152 166.456 33.4533 166.772 34.5153 167.504C35.5772 168.235 36.3234 169.33 36.6078 170.574C36.8923 171.818 36.6946 173.121 36.0535 174.229C34.8868 176.114 30.6715 180.79 18.4353 179.008C24.142 183.629 30.6651 187.177 37.6785 189.475C61.4425 197.531 84.0677 213.302 108.429 198.452C109.592 197.741 110.993 197.508 112.329 197.804C113.665 198.1 114.829 198.903 115.568 200.036C127.262 217.685 120.466 232.51 109.151 242.721C98.665 252.184 85.1094 256.608 69.9495 255.509C57.8036 254.628 44.9007 250.265 31.4284 242.537C32.5326 244.114 33.7479 245.739 35.0743 247.377C47.4355 262.684 71.1925 273.226 89.8871 276.762C91.1553 277.007 92.2859 277.706 93.0591 278.724C93.8323 279.742 94.1929 281.006 94.0708 282.271C93.9487 283.536 93.3527 284.711 92.3985 285.568C91.4444 286.425 90.2003 286.902 88.9079 286.908V286.846Z" fill="#333333"/>
<path d="M225.86 243.063C224.604 243.063 223.39 242.618 222.442 241.808C221.493 240.998 220.875 239.879 220.7 238.656C220.525 237.433 220.805 236.189 221.489 235.153C222.173 234.117 223.215 233.36 224.423 233.02C230.504 231.302 235.748 227.482 239.191 222.263C242.635 217.045 244.044 210.779 243.161 204.62C242.277 198.461 239.16 192.823 234.384 188.744C229.607 184.665 223.493 182.42 217.166 182.422C215.785 182.422 214.46 181.883 213.483 180.922C212.506 179.962 211.958 178.66 211.958 177.302C211.958 175.944 212.506 174.641 213.483 173.681C214.46 172.721 215.785 172.181 217.166 172.181C226.003 172.177 234.545 175.313 241.217 181.01C247.889 186.708 252.243 194.583 253.476 203.186C254.71 211.79 252.74 220.542 247.929 227.83C243.119 235.119 235.792 240.453 227.298 242.851C226.831 242.988 226.347 243.059 225.86 243.063Z" fill="#333333"/>
<path d="M230.979 184.259C230.073 184.258 229.183 184.026 228.396 183.583C227.609 183.141 226.954 182.505 226.494 181.738C226.034 180.971 225.785 180.099 225.773 179.208C225.761 178.317 225.985 177.439 226.423 176.66C227.601 174.561 228.263 172.22 228.355 169.825C228.448 167.43 227.969 165.046 226.956 162.866C225.944 160.685 224.426 158.768 222.525 157.267C220.623 155.767 218.391 154.725 216.006 154.225C215.336 154.083 214.701 153.813 214.137 153.43C213.572 153.047 213.091 152.559 212.719 151.993C212.346 151.426 212.091 150.794 211.968 150.131C211.845 149.468 211.855 148.787 211.999 148.128C212.143 147.469 212.418 146.845 212.808 146.29C213.197 145.735 213.694 145.262 214.27 144.896C214.846 144.53 215.49 144.279 216.164 144.158C216.838 144.037 217.531 144.047 218.201 144.189C222.174 145.026 225.894 146.766 229.062 149.268C232.229 151.771 234.758 154.968 236.445 158.602C238.132 162.237 238.93 166.21 238.777 170.202C238.624 174.195 237.523 178.096 235.562 181.596C235.112 182.403 234.449 183.077 233.642 183.545C232.836 184.014 231.916 184.26 230.979 184.259Z" fill="#333333"/>
<path d="M199.944 275.22C193.649 275.231 187.496 273.383 182.284 269.915C181.139 269.154 180.348 267.978 180.086 266.644C179.824 265.311 180.111 263.929 180.884 262.804C181.658 261.679 182.854 260.902 184.211 260.644C185.567 260.386 186.972 260.668 188.117 261.428C192.587 264.417 198.05 265.611 203.387 264.765C208.723 263.919 213.528 261.097 216.815 256.878C220.103 252.659 221.623 247.364 221.064 242.078C220.506 236.792 217.911 231.917 213.812 228.452C212.773 227.561 212.137 226.301 212.041 224.949C211.946 223.597 212.4 222.263 213.303 221.239C214.207 220.216 215.486 219.586 216.861 219.488C218.236 219.39 219.594 219.832 220.638 220.717C225.503 224.863 228.963 230.371 230.554 236.504C232.145 242.638 231.791 249.103 229.539 255.032C227.288 260.962 223.246 266.074 217.957 269.682C212.667 273.29 206.382 275.222 199.944 275.22Z" fill="#333333"/>
<path d="M169.769 303.614C161.393 303.605 153.362 300.328 147.442 294.502C141.521 288.676 138.195 280.778 138.193 272.543C138.193 271.185 138.742 269.882 139.718 268.922C140.695 267.962 142.02 267.422 143.401 267.422C144.783 267.422 146.107 267.962 147.084 268.922C148.061 269.882 148.61 271.185 148.61 272.543C148.71 277.996 150.984 283.192 154.942 287.013C158.9 290.835 164.226 292.976 169.773 292.976C175.32 292.976 180.646 290.835 184.604 287.013C188.562 283.192 190.836 277.996 190.936 272.543C190.936 271.185 191.485 269.882 192.462 268.922C193.439 267.962 194.763 267.422 196.145 267.422C197.526 267.422 198.851 267.962 199.828 268.922C200.804 269.882 201.353 271.185 201.353 272.543C201.349 280.779 198.021 288.677 192.1 294.502C186.178 300.328 178.147 303.605 169.769 303.614Z" fill="#333333"/>
<path d="M172.554 194.711C169.716 194.72 166.904 194.175 164.281 193.107C161.658 192.04 159.277 190.471 157.276 188.492C156.328 187.525 155.804 186.232 155.816 184.889C155.829 183.546 156.377 182.262 157.343 181.313C158.309 180.365 159.616 179.827 160.982 179.816C162.347 179.805 163.663 180.321 164.644 181.255C166.13 182.714 168.004 183.732 170.051 184.193C172.098 184.653 174.236 184.537 176.219 183.857C178.202 183.178 179.95 181.963 181.263 180.352C182.576 178.74 183.401 176.798 183.642 174.747C183.883 172.696 183.532 170.619 182.628 168.756C181.724 166.892 180.304 165.317 178.532 164.21C176.759 163.103 174.704 162.51 172.604 162.499C170.504 162.487 168.444 163.058 166.658 164.145C165.485 164.862 164.07 165.092 162.725 164.783C161.38 164.475 160.214 163.653 159.485 162.5C158.755 161.346 158.522 159.955 158.836 158.633C159.15 157.31 159.985 156.164 161.158 155.447C163.996 153.716 167.204 152.656 170.53 152.351C173.855 152.045 177.207 152.502 180.323 153.686C183.438 154.87 186.231 156.748 188.483 159.173C190.735 161.598 192.384 164.503 193.301 167.661C194.217 170.818 194.376 174.142 193.765 177.37C193.154 180.598 191.789 183.643 189.778 186.264C187.767 188.886 185.165 191.013 182.177 192.479C179.188 193.945 175.894 194.709 172.554 194.711Z" fill="#333333"/>
<path d="M129.651 279.487C128.416 279.484 127.223 279.05 126.283 278.262C125.344 277.474 124.72 276.384 124.522 275.186C124.324 273.988 124.566 272.759 125.204 271.72C125.842 270.681 126.835 269.898 128.005 269.512C140.756 265.285 151.641 256.878 158.836 245.7C166.032 234.522 169.1 221.251 167.526 208.113C167.39 206.779 167.791 205.446 168.644 204.399C169.497 203.353 170.733 202.677 172.087 202.517C173.441 202.357 174.805 202.725 175.886 203.543C176.967 204.361 177.678 205.563 177.867 206.891C179.722 222.371 176.107 238.007 167.628 251.178C159.149 264.348 146.322 274.251 131.297 279.227C130.766 279.399 130.21 279.487 129.651 279.487Z" fill="#333333"/>
<path d="M226.52 130.76C203.708 130.76 170.2 128.309 132.547 119.611C86.533 108.974 42.9633 93.3391 26.6645 81.5825C23.5043 79.3137 21.3599 75.9305 20.6807 72.1418C20.0014 68.3531 20.84 64.453 23.0208 61.2587C25.2015 58.0644 28.5551 55.8238 32.3789 55.0065C36.2027 54.1892 40.1998 54.8585 43.5327 56.8743C51.6231 61.7149 67.026 70.0101 84.04 74.3933L97.3109 4.18082C97.4408 3.49663 97.7113 2.84565 98.1057 2.26767C98.5001 1.68969 99.0102 1.19683 99.6049 0.819194C100.2 0.441562 100.866 0.187101 101.564 0.0713275C102.263 -0.0444454 102.977 -0.0190658 103.665 0.145877L220.937 28.2335C221.633 28.402 222.286 28.7095 222.856 29.1369C223.426 29.5644 223.9 30.1026 224.25 30.7181C224.599 31.3336 224.815 32.0132 224.886 32.7145C224.956 33.4158 224.879 34.1239 224.659 34.7947C223.923 36.9999 208.805 82.6271 202.096 101.02C217.76 103.196 233.549 104.389 249.368 104.591C252.593 104.646 255.678 105.9 258.001 108.101C260.324 110.302 261.713 113.286 261.889 116.453C262.065 119.62 261.015 122.735 258.949 125.171C256.884 127.608 253.957 129.185 250.756 129.586C242.709 130.457 234.616 130.849 226.52 130.76ZM32.8174 73.3214C45.748 82.6339 84.9775 98.0978 134.901 109.643C188.624 122.055 233.298 121.447 249.416 119.392C250.002 119.316 250.537 119.026 250.915 118.579C251.293 118.132 251.485 117.561 251.453 116.981C251.422 116.401 251.169 115.854 250.745 115.449C250.321 115.044 249.757 114.812 249.166 114.798C235.138 114.565 214.187 113.569 194.055 110.087C193.288 109.952 192.561 109.651 191.928 109.205C191.295 108.758 190.772 108.178 190.397 107.507C190.022 106.836 189.805 106.091 189.761 105.326C189.718 104.561 189.849 103.797 190.145 103.089C193.617 94.8207 207.958 51.9586 212.978 36.8633L106.519 11.3632L93.2553 81.5278C93.1308 82.1989 92.8711 82.8387 92.4916 83.4098C92.1121 83.9808 91.6203 84.4715 91.0452 84.8531C90.4701 85.2347 89.8232 85.4995 89.1426 85.6319C88.462 85.7644 87.7613 85.7617 87.0816 85.6242C67.5815 81.6371 49.6925 72.5499 38.1369 65.6201C37.0981 65.0105 35.8614 64.8148 34.6805 65.0731C33.4997 65.3314 32.4641 66.0242 31.7863 67.0094C31.1085 67.9945 30.8398 69.1973 31.0354 70.371C31.231 71.5447 31.8761 72.6004 32.8382 73.3214H32.8174Z" fill="#333333"/>
<path d="M193.978 109.991C193.692 109.992 193.406 109.969 193.124 109.923C145.082 102.14 109.401 91.0724 109.047 90.9358C108.395 90.7323 107.79 90.4045 107.267 89.9712C106.744 89.5378 106.313 89.0074 105.998 88.4102C105.362 87.2041 105.24 85.7992 105.658 84.5045C106.076 83.2098 107 82.1314 108.227 81.5066C109.454 80.8818 110.883 80.7617 112.2 81.1727C112.554 81.282 147.575 92.1374 194.84 99.7909C196.129 100 197.292 100.678 198.096 101.691C198.901 102.704 199.289 103.977 199.183 105.258C199.077 106.538 198.486 107.733 197.525 108.605C196.565 109.477 195.306 109.962 193.999 109.964L193.978 109.991Z" fill="#333333"/>
<path d="M168.79 104.099C168.299 104.097 167.811 104.028 167.339 103.894C166.682 103.706 166.069 103.393 165.534 102.973C165 102.552 164.556 102.032 164.226 101.442C163.897 100.853 163.689 100.205 163.614 99.536C163.539 98.8673 163.599 98.1905 163.79 97.5445L184.881 26.1168C185.071 25.4708 185.39 24.8681 185.817 24.343C186.245 23.8179 186.773 23.3807 187.373 23.0564C187.972 22.7322 188.63 22.5271 189.31 22.453C189.99 22.379 190.679 22.4373 191.336 22.6246C191.993 22.812 192.606 23.1248 193.14 23.5452C193.674 23.9655 194.119 24.4851 194.449 25.0744C194.778 25.6637 194.987 26.3111 195.062 26.9796C195.138 27.6481 195.078 28.3247 194.888 28.9706L173.79 100.398C173.477 101.464 172.821 102.402 171.919 103.069C171.017 103.737 169.919 104.098 168.79 104.099Z" fill="#333333"/>
<path d="M117.763 91.2501C117.405 91.2506 117.049 91.2139 116.7 91.1408C116.03 91.0042 115.394 90.7392 114.828 90.3609C114.263 89.9826 113.778 89.4985 113.403 88.9361C113.028 88.3737 112.769 87.7442 112.641 87.0834C112.513 86.4226 112.519 85.7435 112.658 85.085L127.714 14.0806C127.839 13.4088 128.1 12.7684 128.48 12.1971C128.861 11.6258 129.354 11.1352 129.93 10.754C130.507 10.3728 131.155 10.1089 131.837 9.97767C132.518 9.84648 133.22 9.85072 133.9 9.99009C134.58 10.1295 135.225 10.4011 135.797 10.7892C136.368 11.1772 136.855 11.6738 137.229 12.2496C137.602 12.8254 137.855 13.4689 137.971 14.1421C138.088 14.8154 138.067 15.5048 137.908 16.1697L122.86 87.1742C122.614 88.3252 121.974 89.3584 121.046 90.1005C120.118 90.8426 118.959 91.2485 117.763 91.2501Z" fill="#333333"/>
<path d="M143.985 96.8759C143.58 96.8777 143.177 96.8318 142.783 96.7393C141.441 96.4293 140.278 95.608 139.552 94.4557C138.825 93.3035 138.594 91.9147 138.908 90.5947L156.193 18.6686C156.511 17.3468 157.349 16.2032 158.525 15.4894C159.107 15.1359 159.754 14.8986 160.429 14.791C161.104 14.6835 161.795 14.7077 162.46 14.8624C163.126 15.017 163.754 15.2991 164.309 15.6925C164.864 16.0858 165.335 16.5827 165.694 17.1549C166.054 17.7271 166.295 18.3633 166.404 19.0271C166.514 19.691 166.489 20.3695 166.332 21.024L149.047 92.9296C148.778 94.0516 148.132 95.0516 147.213 95.7677C146.295 96.4839 145.157 96.8743 143.985 96.8759Z" fill="#333333"/>
</svg>
