<svg width="297" height="297" viewBox="0 0 297 297" fill="none" xmlns="http://www.w3.org/2000/svg">
<g clip-path="url(#clip0_106_1070)">
<path d="M47.8118 40.054C108.391 -16.251 203.502 -12.767 259.803 47.807C277.502 66.843 289.953 90.148 295.934 115.447C296.147 116.148 296.213 116.885 296.131 117.618C296.045 118.346 295.813 119.049 295.447 119.686C295.082 120.323 294.588 120.877 294 121.314C293.41 121.755 292.734 122.064 292.021 122.235C291.306 122.402 290.564 122.421 289.839 122.291C289.118 122.159 288.431 121.883 287.816 121.476C287.207 121.068 286.685 120.541 286.289 119.924C285.889 119.307 285.619 118.613 285.498 117.89C279.937 94.413 268.373 72.786 251.939 55.123C199.662 -1.12199 111.369 -4.346 55.1278 47.926C-1.11415 100.2 -4.34715 188.491 47.9318 244.737C67.4618 265.849 93.0899 280.348 121.245 286.216C121.934 286.363 122.591 286.641 123.171 287.038C123.753 287.435 124.255 287.945 124.64 288.533C125.419 289.725 125.693 291.179 125.4 292.573C125.111 293.969 124.275 295.187 123.084 295.968C121.891 296.746 120.438 297.02 119.043 296.73C88.7148 290.405 61.1088 274.788 40.0658 252.05C-16.2502 191.461 -12.7732 96.363 47.8118 40.054Z" fill="#333333"/>
<path d="M239.628 247.578C223.072 247.578 207.515 238.761 199.025 224.566C192.545 213.732 190.671 201.022 193.751 188.779C196.83 176.537 204.492 166.225 215.327 159.745C222.664 155.357 231.04 153.037 239.548 153.037C256.104 153.037 271.662 161.853 280.152 176.046C286.632 186.882 288.506 199.592 285.425 211.835C282.346 224.078 274.683 234.39 263.847 240.87C256.511 245.257 248.136 247.578 239.628 247.578ZM239.548 162.037C232.666 162.037 225.889 163.916 219.946 167.47C211.175 172.716 204.971 181.064 202.479 190.975C199.986 200.887 201.502 211.176 206.749 219.947C213.727 231.614 226.018 238.579 239.628 238.579C246.509 238.579 253.287 236.7 259.229 233.146C268.001 227.9 274.206 219.552 276.699 209.64C279.192 199.728 277.676 189.439 272.429 180.666C265.451 169.001 253.158 162.037 239.548 162.037Z" fill="#333333"/>
<path d="M203.365 173.747C201.835 173.747 200.343 172.966 199.499 171.556L191.877 158.814C188.925 153.873 190.541 147.45 195.479 144.497L211.282 135.046C216.22 132.092 222.643 133.706 225.598 138.646L233.22 151.389C234.495 153.522 233.8 156.285 231.667 157.561C229.534 158.834 226.771 158.143 225.495 156.008L217.874 143.266C217.468 142.586 216.584 142.365 215.9 142.771L200.098 152.221C199.417 152.628 199.194 153.515 199.602 154.198L207.223 166.938C208.498 169.071 207.804 171.834 205.67 173.11C204.948 173.541 204.151 173.747 203.365 173.747Z" fill="#333333"/>
<path d="M211.723 157.86C209.875 157.86 208.136 156.875 207.186 155.288C206.457 154.071 206.247 152.645 206.593 151.273C206.94 149.902 207.799 148.75 209.015 148.028C209.833 147.543 210.764 147.288 211.709 147.288C213.555 147.288 215.292 148.27 216.244 149.851C217.741 152.384 216.918 155.628 214.426 157.115C213.611 157.601 212.676 157.86 211.723 157.86Z" fill="#333333"/>
<path d="M213.685 159.368C212.495 159.368 211.332 158.76 210.677 157.662L209.752 156.114C208.761 154.455 209.303 152.306 210.962 151.314C212.62 150.324 214.77 150.863 215.762 152.524L216.687 154.072C217.678 155.731 217.136 157.88 215.477 158.872C214.914 159.208 214.296 159.368 213.685 159.368Z" fill="#333333"/>
<path d="M116.854 265.982C113.802 265.982 110.724 265.681 107.705 265.089C82.133 260.071 65.409 235.184 70.425 209.609C74.764 187.492 94.251 171.438 116.759 171.438C119.81 171.438 122.888 171.739 125.906 172.331C138.295 174.763 148.995 181.872 156.036 192.351C163.077 202.83 165.616 215.423 163.185 227.81C158.848 249.928 139.362 265.982 116.854 265.982ZM116.76 180.438C98.543 180.438 82.77 193.435 79.258 211.341C75.196 232.046 88.736 252.195 109.439 256.257C111.889 256.738 114.384 256.982 116.855 256.982C135.071 256.982 150.842 243.985 154.355 226.077C156.324 216.049 154.268 205.853 148.568 197.37C142.867 188.887 134.204 183.131 124.175 181.163C121.726 180.682 119.231 180.438 116.76 180.438Z" fill="#333333"/>
<path d="M140.387 181.721C140.099 181.721 139.808 181.694 139.515 181.636C137.076 181.157 135.487 178.792 135.966 176.354L138.825 161.786C138.977 161.008 138.468 160.248 137.689 160.096L119.622 156.551C118.837 156.394 118.084 156.907 117.931 157.687L115.073 172.255C114.594 174.694 112.228 176.284 109.791 175.805C107.352 175.326 105.763 172.961 106.241 170.523L109.099 155.954C110.208 150.306 115.703 146.612 121.354 147.72L139.421 151.265C145.067 152.371 148.762 157.868 147.657 163.518L144.798 178.088C144.376 180.233 142.494 181.721 140.387 181.721Z" fill="#333333"/>
<path d="M128.018 169.873C127.678 169.873 127.336 169.84 127.002 169.774C125.604 169.497 124.407 168.697 123.623 167.518C122.843 166.346 122.564 164.94 122.838 163.557C123.324 161.09 125.505 159.297 128.02 159.297C128.364 159.297 128.709 159.33 129.046 159.398C130.424 159.669 131.619 160.465 132.405 161.638C133.192 162.814 133.474 164.225 133.198 165.614C132.72 168.074 130.54 169.873 128.018 169.873Z" fill="#333333"/>
<path d="M127.281 171.848C127.057 171.848 126.83 171.827 126.602 171.782C124.706 171.409 123.47 169.569 123.842 167.673L124.19 165.903C124.563 164.007 126.4 162.768 128.299 163.143C130.195 163.516 131.431 165.356 131.059 167.252L130.711 169.022C130.384 170.691 128.92 171.848 127.281 171.848Z" fill="#333333"/>
<path d="M134.352 143.954C133.162 143.954 131.97 143.806 130.808 143.514L129.842 143.272C126.082 142.327 122.919 139.975 120.931 136.651C118.942 133.326 118.368 129.426 119.314 125.67L121.752 115.974C123.377 109.517 129.156 105.008 135.808 105.008C136.998 105.008 138.19 105.156 139.352 105.448L140.323 105.693C144.078 106.637 147.242 108.988 149.23 112.312C151.217 115.636 151.792 119.536 150.846 123.293L148.408 132.989C146.782 139.444 141.003 143.954 134.352 143.954ZM135.807 114.007C133.287 114.007 131.096 115.718 130.479 118.168L128.041 127.865C127.682 129.29 127.9 130.769 128.654 132.031C129.408 133.293 130.608 134.184 132.032 134.542L132.998 134.784C133.447 134.897 133.9 134.953 134.351 134.953C136.872 134.953 139.062 133.242 139.679 130.792L142.116 121.096C142.475 119.669 142.258 118.19 141.504 116.929C140.75 115.669 139.55 114.778 138.126 114.419L137.155 114.174C136.711 114.063 136.257 114.007 135.807 114.007Z" fill="#333333"/>
<path d="M144.057 100.968C141.827 100.968 139.676 100.466 137.664 99.4771L136.764 99.0331C129.593 95.5041 126.629 86.7961 130.159 79.6221L134.574 70.6501C137.032 65.6531 142.021 62.5491 147.591 62.5491C149.823 62.5491 151.975 63.0511 153.987 64.0421L154.883 64.4811C162.057 68.0121 165.021 76.7191 161.494 83.8931L157.077 92.8681C154.616 97.8641 149.628 100.968 144.057 100.968ZM147.59 71.5491C145.475 71.5491 143.581 72.7271 142.649 74.6231L138.233 83.5951C136.894 86.3161 138.019 89.6191 140.74 90.9591L141.638 91.4021C142.4 91.7771 143.215 91.9671 144.056 91.9671C146.172 91.9671 148.067 90.7891 149 88.8921L153.416 79.9191C154.753 77.1991 153.629 73.8961 150.908 72.5571L150.012 72.1171C149.246 71.7401 148.432 71.5491 147.59 71.5491Z" fill="#333333"/>
<path d="M179.182 55.015C178.731 55.015 178.276 54.994 177.817 54.951L167.858 54.015C159.898 53.266 154.031 46.182 154.779 38.223L154.872 37.23C155.618 29.283 162.553 23.384 170.663 24.147L180.622 25.083C184.477 25.444 187.962 27.286 190.432 30.269C192.903 33.251 194.064 37.018 193.702 40.874L193.611 41.863C192.902 49.364 186.701 55.015 179.182 55.015ZM169.297 33.083C166.448 33.083 164.099 35.227 163.832 38.069L163.739 39.062C163.455 42.084 165.68 44.771 168.699 45.055L178.657 45.991C181.71 46.281 184.363 44.045 184.647 41.029L184.738 40.041C184.877 38.57 184.436 37.141 183.5 36.01C182.563 34.88 181.242 34.181 179.78 34.045L169.821 33.109C169.646 33.091 169.471 33.083 169.297 33.083Z" fill="#333333"/>
<path d="M203.199 90.8221C202.851 90.8221 202.503 90.8101 202.151 90.7841L201.145 90.7101C197.289 90.4331 193.765 88.6681 191.23 85.7411C188.694 82.8131 187.451 79.0731 187.729 75.2091L188.449 65.2331C189.016 57.3411 195.956 51.2311 203.953 51.8111L204.956 51.8841C212.924 52.4551 218.946 59.4091 218.375 67.3841L217.656 77.3601C217.11 84.9101 210.76 90.8221 203.199 90.8221ZM202.906 60.7741C200.039 60.7741 197.632 63.0171 197.426 65.8801L196.706 75.8571C196.601 77.3221 197.072 78.7401 198.033 79.8501C198.995 80.9601 200.331 81.6291 201.797 81.7351L202.802 81.8091C202.931 81.8181 203.065 81.8231 203.199 81.8231C206.065 81.8231 208.472 79.5791 208.679 76.7141L209.398 66.7421C209.615 63.7181 207.331 61.0791 204.306 60.8631L203.304 60.7901C203.175 60.7791 203.04 60.7741 202.906 60.7741Z" fill="#333333"/>
<path d="M193.398 135.343C189 135.343 184.891 133.385 182.125 129.97L175.831 122.198C170.8 115.983 171.763 106.833 177.976 101.802L178.745 101.177C181.326 99.087 184.566 97.938 187.874 97.938C192.272 97.938 196.381 99.897 199.147 103.313L205.441 111.084C210.47 117.297 209.509 126.446 203.3 131.479L202.523 132.108C199.944 134.195 196.705 135.343 193.398 135.343ZM187.873 106.938C186.602 106.938 185.406 107.363 184.415 108.166L183.646 108.791C181.282 110.706 180.917 114.177 182.826 116.535L189.119 124.306C190.168 125.6 191.727 126.344 193.398 126.344C194.669 126.344 195.865 125.92 196.857 125.117L197.631 124.49C199.988 122.579 200.353 119.107 198.444 116.749L192.151 108.978C191.104 107.681 189.543 106.938 187.873 106.938Z" fill="#333333"/>
<path d="M131.752 154.263C131.63 154.263 131.507 154.258 131.384 154.248C128.907 154.048 127.061 151.877 127.262 149.399L128.7 131.649C128.901 129.171 131.075 127.332 133.549 127.527C136.026 127.728 137.872 129.899 137.671 132.376L136.233 150.126C136.042 152.48 134.073 154.263 131.752 154.263Z" fill="#333333"/>
<path d="M205.3 143.513C203.871 143.513 202.466 142.834 201.592 141.569L191.478 126.912C190.066 124.867 190.58 122.064 192.625 120.652C194.671 119.239 197.472 119.755 198.885 121.799L208.999 136.456C210.411 138.501 209.897 141.304 207.852 142.716C207.071 143.254 206.181 143.513 205.3 143.513Z" fill="#333333"/>
<path d="M137.256 120.345C136.973 120.345 136.686 120.318 136.398 120.262C133.958 119.791 132.361 117.43 132.833 114.991L138.231 87.034C138.702 84.594 141.067 83.002 143.503 83.469C145.942 83.94 147.539 86.301 147.067 88.74L141.669 116.697C141.254 118.849 139.369 120.345 137.256 120.345Z" fill="#333333"/>
<path d="M185.914 114.096C185.549 114.096 185.177 114.051 184.806 113.957C182.397 113.347 180.939 110.899 181.549 108.49C181.695 107.912 182.038 106.558 197.248 76.3731C198.366 74.1531 201.068 73.2591 203.292 74.3791C205.511 75.4971 206.403 78.2031 205.285 80.4221C199.885 91.1391 191.075 108.787 190.192 110.981C189.585 112.863 187.831 114.096 185.914 114.096Z" fill="#333333"/>
<path d="M202.651 67.007C201.534 67.007 200.414 66.593 199.543 65.759L177.101 44.302C175.304 42.585 175.241 39.736 176.957 37.94C178.673 36.144 181.523 36.079 183.319 37.797L205.761 59.254C207.558 60.971 207.621 63.82 205.905 65.616C205.021 66.541 203.837 67.007 202.651 67.007Z" fill="#333333"/>
<path d="M150.479 76.5711C149.891 76.5711 149.293 76.4551 148.719 76.2111C146.432 75.2381 145.366 72.5951 146.34 70.3081L160.242 37.6411C161.216 35.3541 163.861 34.2891 166.144 35.2631C168.431 36.2361 169.497 38.8791 168.523 41.1661L154.621 73.8331C153.893 75.5441 152.229 76.5711 150.479 76.5711Z" fill="#333333"/>
<path d="M73.6043 130.176C57.8473 130.176 45.0283 117.357 45.0283 101.6C45.0283 85.8429 57.8473 73.0239 73.6043 73.0239C89.3603 73.0239 102.179 85.8429 102.179 101.6C102.179 117.357 89.3613 130.176 73.6043 130.176ZM73.6043 82.0239C62.8103 82.0239 54.0283 90.8059 54.0283 101.6C54.0283 112.394 62.8103 121.176 73.6043 121.176C84.3983 121.176 93.1793 112.394 93.1793 101.6C93.1803 90.8059 84.3983 82.0239 73.6043 82.0239Z" fill="#333333"/>
<path d="M73.6035 93.127C71.1185 93.127 69.1035 91.112 69.1035 88.627V61.927C69.1035 59.442 71.1185 57.427 73.6035 57.427C76.0885 57.427 78.1035 59.442 78.1035 61.927V88.627C78.1035 91.112 76.0895 93.127 73.6035 93.127Z" fill="#333333"/>
<path d="M60.6307 106.101H33.9307C31.4457 106.101 29.4307 104.086 29.4307 101.601C29.4307 99.1161 31.4457 97.1011 33.9307 97.1011H60.6307C63.1157 97.1011 65.1307 99.1161 65.1307 101.601C65.1307 104.086 63.1167 106.101 60.6307 106.101Z" fill="#333333"/>
<path d="M73.6035 145.774C71.1185 145.774 69.1035 143.759 69.1035 141.274V114.574C69.1035 112.089 71.1185 110.074 73.6035 110.074C76.0885 110.074 78.1035 112.089 78.1035 114.574V141.274C78.1035 143.759 76.0895 145.774 73.6035 145.774Z" fill="#333333"/>
<path d="M113.276 106.101H86.5771C84.0921 106.101 82.0771 104.086 82.0771 101.601C82.0771 99.1161 84.0921 97.1011 86.5771 97.1011H113.276C115.761 97.1011 117.776 99.1161 117.776 101.601C117.776 104.086 115.762 106.101 113.276 106.101Z" fill="#333333"/>
<path d="M183.646 282.437C177.655 282.437 172.78 277.562 172.78 271.571C172.78 265.58 177.655 260.705 183.646 260.705C189.637 260.705 194.511 265.58 194.511 271.571C194.511 277.562 189.637 282.437 183.646 282.437ZM183.646 269.705C182.617 269.705 181.78 270.542 181.78 271.571C181.78 272.6 182.617 273.437 183.646 273.437C184.674 273.437 185.511 272.6 185.511 271.571C185.511 270.542 184.674 269.705 183.646 269.705Z" fill="#333333"/>
<path d="M183.954 271.039C181.469 271.039 179.454 269.024 179.454 266.539V257.363C179.454 254.878 181.469 252.863 183.954 252.863C186.439 252.863 188.454 254.878 188.454 257.363V266.539C188.454 269.024 186.439 271.039 183.954 271.039Z" fill="#333333"/>
<path d="M179.496 275.497H170.32C167.835 275.497 165.82 273.482 165.82 270.997C165.82 268.512 167.835 266.497 170.32 266.497H179.496C181.981 266.497 183.996 268.512 183.996 270.997C183.996 273.482 181.981 275.497 179.496 275.497Z" fill="#333333"/>
<path d="M183.954 289.13C181.469 289.13 179.454 287.115 179.454 284.63V275.454C179.454 272.969 181.469 270.954 183.954 270.954C186.439 270.954 188.454 272.969 188.454 275.454V284.63C188.454 287.116 186.439 289.13 183.954 289.13Z" fill="#333333"/>
<path d="M197.588 275.497H188.412C185.927 275.497 183.912 273.482 183.912 270.997C183.912 268.512 185.927 266.497 188.412 266.497H197.588C200.073 266.497 202.088 268.512 202.088 270.997C202.088 273.482 200.073 275.497 197.588 275.497Z" fill="#333333"/>
</g>
<defs>
<clipPath id="clip0_106_1070">
<rect width="296.165" height="296.842" fill="white"/>
</clipPath>
</defs>
</svg>
