<svg width="301" height="295" viewBox="0 0 301 295" fill="none" xmlns="http://www.w3.org/2000/svg">
<g clip-path="url(#clip0_106_1025)">
<path d="M226.893 47.213C226.679 47.213 226.464 47.198 226.249 47.167C224.621 46.932 223.251 45.828 222.676 44.287L218.162 32.196L207.838 24.45C206.522 23.463 205.85 21.836 206.084 20.208C206.319 18.58 207.424 17.209 208.965 16.634L221.057 12.121L228.802 1.79799C229.79 0.481995 231.419 -0.187005 233.044 0.0449947C234.672 0.279995 236.042 1.38399 236.617 2.92499L241.131 15.016L251.455 22.762C252.771 23.749 253.443 25.376 253.209 27.004C252.974 28.632 251.869 30.003 250.328 30.578L238.236 35.091L230.491 45.414C229.634 46.556 228.296 47.213 226.893 47.213ZM219.821 22.189L224.618 25.788C225.306 26.305 225.833 27.008 226.134 27.814L228.231 33.432L231.83 28.636C232.347 27.948 233.05 27.422 233.856 27.121L239.473 25.024L234.677 21.425C233.989 20.908 233.462 20.205 233.161 19.399L231.063 13.781L227.465 18.577C226.948 19.265 226.245 19.791 225.439 20.092L219.821 22.189Z" fill="#333333"/>
<path d="M188.684 265.762C187.846 265.762 187.009 265.528 186.275 265.063L171.677 255.812L154.393 255.897C154.385 255.897 154.377 255.897 154.371 255.897C152.734 255.897 151.226 255.008 150.433 253.576C149.637 252.137 149.689 250.378 150.57 248.988L159.824 234.389L159.739 217.105C159.731 215.459 160.621 213.942 162.06 213.145C163.498 212.348 165.257 212.402 166.648 213.282L181.248 222.535L198.532 222.448C198.539 222.448 198.547 222.448 198.554 222.448C200.191 222.448 201.699 223.337 202.492 224.769C203.288 226.208 203.236 227.967 202.355 229.357L193.1 243.957L193.184 261.241C193.192 262.886 192.302 264.404 190.863 265.2C190.184 265.576 189.433 265.762 188.684 265.762ZM172.973 246.805C173.826 246.805 174.661 247.047 175.382 247.504L184.144 253.057L184.094 242.682C184.09 241.822 184.332 240.978 184.793 240.251L190.347 231.488L179.974 231.541C179.967 231.541 179.959 231.541 179.952 231.541C179.099 231.541 178.264 231.299 177.543 230.842L168.78 225.288L168.831 235.662C168.835 236.523 168.593 237.367 168.132 238.094L162.577 246.856L172.951 246.805C172.958 246.805 172.965 246.805 172.973 246.805Z" fill="#333333"/>
<path d="M147.374 294.163C64.6813 292.714 -1.42368 224.243 0.0243181 141.559C0.473318 115.571 7.66732 90.145 20.9023 67.773C21.2353 67.119 21.6983 66.54 22.2663 66.071C22.8313 65.605 23.4893 65.258 24.1933 65.053C24.8983 64.849 25.6383 64.791 26.3673 64.885C27.0963 64.977 27.7983 65.22 28.4303 65.594C29.0613 65.97 29.6083 66.47 30.0393 67.066C30.4683 67.66 30.7713 68.337 30.9313 69.056C31.0883 69.772 31.0983 70.514 30.9563 71.235C30.8153 71.956 30.5293 72.642 30.1153 73.247C17.8403 94.016 11.1723 117.618 10.7623 141.739C9.41732 218.517 70.7913 282.072 147.561 283.417C224.332 284.761 287.894 223.394 289.239 146.617C289.809 117.863 281.402 89.646 265.188 65.893C264.792 65.31 264.512 64.654 264.37 63.963C264.225 63.274 264.219 62.56 264.35 61.868C264.615 60.468 265.425 59.231 266.603 58.43C267.78 57.628 269.227 57.327 270.626 57.592C272.026 57.859 273.263 58.669 274.065 59.846C291.528 85.436 300.586 115.831 299.976 146.805C298.529 229.51 230.072 295.611 147.374 294.163Z" fill="#333333"/>
<path d="M164.304 234.805H102.669C94.6739 234.805 88.1689 228.3 88.1689 220.305V204.137C88.1689 201.652 90.1839 199.637 92.6689 199.637C95.1539 199.637 97.1689 201.652 97.1689 204.137V220.305C97.1689 223.338 99.6359 225.805 102.669 225.805H164.304C166.789 225.805 168.804 227.82 168.804 230.305C168.804 232.79 166.79 234.805 164.304 234.805Z" fill="#333333"/>
<path d="M203.336 234.805H196.426C193.941 234.805 191.926 232.79 191.926 230.305C191.926 227.82 193.941 225.805 196.426 225.805H203.336C206.368 225.805 208.836 223.337 208.836 220.305V52.3049C208.836 49.2719 206.368 46.8049 203.336 46.8049H102.669C99.6359 46.8049 97.1689 49.2719 97.1689 52.3049V188.388C97.1689 190.873 95.1539 192.888 92.6689 192.888C90.1839 192.888 88.1689 190.873 88.1689 188.388V52.3049C88.1689 44.3099 94.6739 37.8049 102.669 37.8049H203.336C211.331 37.8049 217.836 44.3099 217.836 52.3049V220.305C217.836 228.3 211.332 234.805 203.336 234.805Z" fill="#333333"/>
<path d="M153.002 89.8159C148.729 89.8159 145.252 86.3389 145.252 82.0659C145.252 77.7929 148.729 74.3159 153.002 74.3159C157.275 74.3159 160.752 77.7929 160.752 82.0659C160.752 86.3389 157.276 89.8159 153.002 89.8159ZM153.002 80.8159C152.313 80.8159 151.752 81.3769 151.752 82.0659C151.752 82.7549 152.313 83.3159 153.002 83.3159C153.691 83.3159 154.252 82.7549 154.252 82.0659C154.252 81.3769 153.692 80.8159 153.002 80.8159Z" fill="#333333"/>
<path d="M153.002 169.816C148.729 169.816 145.252 166.339 145.252 162.066C145.252 157.793 148.729 154.316 153.002 154.316C157.275 154.316 160.752 157.793 160.752 162.066C160.752 166.339 157.276 169.816 153.002 169.816ZM153.002 160.816C152.313 160.816 151.752 161.377 151.752 162.066C151.752 162.755 152.313 163.316 153.002 163.316C153.691 163.316 154.252 162.755 154.252 162.066C154.252 161.377 153.692 160.816 153.002 160.816Z" fill="#333333"/>
<path d="M153.003 185.233C140.229 185.233 129.836 174.839 129.836 162.065C129.836 149.292 140.229 138.899 153.003 138.899C165.776 138.899 176.169 149.291 176.169 162.065C176.169 174.839 165.777 185.233 153.003 185.233ZM153.003 147.899C145.191 147.899 138.836 154.254 138.836 162.065C138.836 169.878 145.191 176.233 153.003 176.233C160.815 176.233 167.169 169.878 167.169 162.065C167.169 154.254 160.815 147.899 153.003 147.899Z" fill="#333333"/>
<path d="M153.002 204.233C129.752 204.233 110.837 185.317 110.837 162.065C110.837 138.815 129.752 119.899 153.002 119.899C176.252 119.899 195.168 138.815 195.168 162.065C195.168 185.317 176.252 204.233 153.002 204.233ZM153.002 128.899C134.715 128.899 119.837 143.777 119.837 162.065C119.837 180.354 134.715 195.233 153.002 195.233C171.29 195.233 186.168 180.354 186.168 162.065C186.168 143.777 171.291 128.899 153.002 128.899Z" fill="#333333"/>
<path d="M153.003 105.982C139.815 105.982 129.086 95.253 129.086 82.065C129.086 68.877 139.815 58.1479 153.003 58.1479C166.191 58.1479 176.919 68.877 176.919 82.065C176.919 95.253 166.191 105.982 153.003 105.982ZM153.003 67.149C144.778 67.149 138.086 73.84 138.086 82.066C138.086 90.292 144.778 96.983 153.003 96.983C161.228 96.983 167.919 90.292 167.919 82.066C167.919 73.84 161.228 67.149 153.003 67.149Z" fill="#333333"/>
<path d="M235.682 172.892C229.472 172.892 224.412 169.481 223.091 164.403C221.405 157.923 226.227 151.248 234.068 149.208C235.523 148.829 237.005 148.637 238.47 148.637C244.679 148.637 249.739 152.048 251.06 157.125C252.747 163.607 247.925 170.282 240.082 172.323C238.628 172.701 237.148 172.892 235.682 172.892ZM238.47 157.636C237.768 157.636 237.05 157.731 236.334 157.917C233.164 158.741 231.506 161.003 231.802 162.137C232.026 162.999 233.538 163.892 235.682 163.892C236.383 163.892 237.102 163.798 237.817 163.612C240.988 162.788 242.646 160.525 242.35 159.391C242.126 158.529 240.613 157.636 238.47 157.636Z" fill="#333333"/>
<path d="M267.622 150.593C261.413 150.593 256.354 147.181 255.033 142.104C254.179 138.822 255.029 135.262 257.366 132.335C259.433 129.747 262.503 127.819 266.009 126.907C267.464 126.529 268.945 126.337 270.41 126.337C276.62 126.337 281.68 129.749 283.001 134.826C283.855 138.108 283.004 141.669 280.666 144.595C278.599 147.183 275.529 149.111 272.022 150.023C270.568 150.402 269.087 150.593 267.622 150.593ZM270.41 135.337C269.708 135.337 268.989 135.431 268.273 135.617C266.66 136.037 265.248 136.888 264.398 137.952C264.137 138.278 263.553 139.113 263.742 139.837C263.967 140.7 265.479 141.593 267.622 141.593C268.323 141.593 269.041 141.499 269.756 141.313C271.371 140.893 272.785 140.042 273.635 138.978C273.896 138.652 274.479 137.817 274.291 137.093C274.066 136.229 272.553 135.337 270.41 135.337Z" fill="#333333"/>
<path d="M246.302 161.683C244.302 161.683 242.477 160.34 241.949 158.315L230.382 113.857C229.833 111.744 230.879 109.541 232.864 108.632L266.696 93.143C267.906 92.59 269.3 92.599 270.5 93.17C271.702 93.741 272.589 94.814 272.925 96.102L283.001 134.827C283.626 137.232 282.184 139.689 279.778 140.315C277.373 140.94 274.916 139.498 274.29 137.093L265.565 103.559L240.043 115.244L250.66 156.05C251.285 158.455 249.843 160.912 247.437 161.538C247.058 161.636 246.677 161.683 246.302 161.683Z" fill="#333333"/>
<path d="M237.666 128C235.956 128 234.322 127.021 233.567 125.363C232.538 123.101 233.537 120.433 235.798 119.403L269.02 104.281C271.285 103.253 273.951 104.252 274.98 106.512C276.009 108.774 275.01 111.442 272.749 112.472L239.527 127.594C238.922 127.869 238.289 128 237.666 128Z" fill="#333333"/>
<path d="M55.0909 230.449C51.9689 230.449 48.7289 229.358 45.9679 227.376C43.1219 225.333 41.0239 222.525 40.0579 219.468C38.9619 215.997 39.4379 212.467 41.3639 209.784C43.3409 207.029 46.6279 205.448 50.3819 205.448C53.5039 205.448 56.7429 206.539 59.5039 208.52C65.8819 213.1 67.9039 220.828 64.1089 226.113C62.1319 228.869 58.8439 230.449 55.0909 230.449ZM50.3829 214.448C49.5769 214.448 48.9389 214.667 48.6759 215.032C48.4229 215.385 48.4099 216.029 48.6399 216.758C49.0189 217.956 49.9579 219.162 51.2159 220.066C52.4419 220.946 53.8539 221.45 55.0899 221.45C55.8969 221.45 56.5349 221.232 56.7979 220.866C57.4029 220.023 56.6969 217.587 54.2559 215.833C53.0309 214.953 51.6189 214.448 50.3829 214.448Z" fill="#333333"/>
<path d="M60.6296 74.6431C56.9636 74.6431 53.7266 73.1121 51.7496 70.4421C49.7826 67.7911 49.2526 64.2681 50.2976 60.7791C51.2166 57.7081 53.2736 54.8681 56.0876 52.7821C58.8826 50.7101 62.1776 49.5691 65.3646 49.5691C69.0296 49.5691 72.2656 51.1001 74.2446 53.7691C76.2116 56.4221 76.7416 59.9441 75.6976 63.4331C74.7776 66.5051 72.7206 69.3451 69.9066 71.4311C67.1116 73.5011 63.8166 74.6431 60.6296 74.6431ZM65.3646 58.5691C64.1126 58.5691 62.6836 59.0951 61.4466 60.0121C60.2006 60.9351 59.2796 62.1551 58.9196 63.3601C58.7006 64.0921 58.7226 64.7351 58.9796 65.0821C59.2406 65.4351 59.8566 65.6431 60.6296 65.6431C61.8816 65.6431 63.3096 65.1171 64.5466 64.2001C65.7926 63.2771 66.7136 62.0571 67.0746 60.8521C67.2936 60.1201 67.2716 59.4761 67.0146 59.1291C66.7546 58.7781 66.1376 58.5691 65.3646 58.5691Z" fill="#333333"/>
<path d="M60.9958 227.038C60.0868 227.038 59.1698 226.764 58.3748 226.193C56.3558 224.744 55.8948 221.932 57.3438 219.913L82.9258 184.285C84.1998 182.513 86.5618 181.908 88.5298 182.854L116.256 196.175C117.881 196.955 118.884 198.632 118.803 200.434C118.721 202.236 117.573 203.815 115.883 204.446L102.164 209.575C101.013 210.005 99.7368 209.946 98.6308 209.412L81.8018 201.282L64.6548 225.163C63.7758 226.386 62.3958 227.038 60.9958 227.038ZM87.1298 193.861L100.814 200.471L102.84 199.713L88.0348 192.6L87.1298 193.861Z" fill="#333333"/>
<path d="M70.1591 59.434C68.3011 59.434 66.5621 58.274 65.9121 56.421L53.7731 21.792C53.3451 20.572 53.4631 19.228 54.0951 18.101C54.7281 16.974 55.8141 16.173 57.0781 15.903L76.5581 11.737C78.5521 11.309 80.5841 12.278 81.5101 14.096C82.4351 15.914 82.0221 18.127 80.5031 19.488L66.8071 31.766L74.4061 53.444C75.2281 55.79 73.9931 58.357 71.6481 59.179C71.1551 59.352 70.6521 59.434 70.1591 59.434Z" fill="#333333"/>
<path d="M64.089 147.899H33.25C30.765 147.899 28.75 145.884 28.75 143.399C28.75 140.914 30.765 138.899 33.25 138.899H64.089C66.574 138.899 68.589 140.914 68.589 143.399C68.589 145.884 66.575 147.899 64.089 147.899Z" fill="#333333"/>
<path d="M71.7257 124.555C70.5737 124.555 69.4227 124.116 68.5437 123.237L52.4047 107.098C50.6477 105.341 50.6477 102.491 52.4047 100.734C54.1627 98.977 57.0107 98.977 58.7687 100.734L74.9077 116.873C76.6647 118.63 76.6647 121.48 74.9077 123.237C74.0287 124.115 72.8777 124.555 71.7257 124.555Z" fill="#333333"/>
<path d="M52.0759 187.899C50.9239 187.899 49.7729 187.46 48.8939 186.581C47.1369 184.824 47.1369 181.975 48.8939 180.218L66.9769 162.135C68.7349 160.377 71.5829 160.377 73.3409 162.135C75.0979 163.892 75.0979 166.741 73.3409 168.498L55.2579 186.581C54.3789 187.459 53.2279 187.899 52.0759 187.899Z" fill="#333333"/>
</g>
<defs>
<clipPath id="clip0_106_1025">
<rect width="300.006" height="294.186" fill="white"/>
</clipPath>
</defs>
</svg>
