<svg width="300" height="294" viewBox="0 0 300 294" fill="none" xmlns="http://www.w3.org/2000/svg">
<path d="M160.627 294C138.356 294.011 116.408 288.701 96.6256 278.516C76.8428 268.331 59.8026 253.569 46.9358 235.468C46.557 234.958 46.2843 234.378 46.1334 233.762C45.9825 233.145 45.9566 232.505 46.0571 231.879C46.1576 231.252 46.3827 230.652 46.719 230.113C47.0552 229.574 47.4961 229.108 48.0156 228.74C48.5352 228.373 49.123 228.113 49.7448 227.975C50.3666 227.837 51.0099 227.823 51.637 227.935C52.264 228.048 52.8623 228.283 53.3968 228.628C53.9314 228.974 54.3914 229.422 54.75 229.946C66.7604 246.773 82.6354 260.498 101.052 269.978C119.469 279.458 139.895 284.418 160.627 284.444C232.187 284.444 290.375 226.485 290.375 155.242C290.434 135.5 285.922 116.01 277.189 98.2858C268.456 80.5619 255.737 65.0813 240.021 53.0466C239.524 52.661 239.109 52.1819 238.799 51.6365C238.488 51.0912 238.289 50.4903 238.212 49.8682C238.135 49.2461 238.181 48.615 238.349 48.0109C238.517 47.4067 238.803 46.8414 239.19 46.3472C239.577 45.853 240.058 45.4396 240.606 45.1306C241.154 44.8216 241.757 44.623 242.382 44.5462C243.007 44.4694 243.64 44.5159 244.247 44.683C244.854 44.8501 245.422 45.1346 245.918 45.5202C262.433 58.2888 275.88 74.5636 285.282 93.1599C295.907 114.316 300.925 137.825 299.859 161.455C298.794 185.085 291.68 208.052 279.193 228.174C266.706 248.297 249.261 264.907 228.514 276.428C207.767 287.948 184.408 293.997 160.653 294H160.627Z" fill="#333333"/>
<path d="M100.709 165.237C100.223 165.237 99.741 165.164 99.2776 165.02L67.7847 155.248C67.0572 155.022 66.3943 154.627 65.8508 154.096C65.3074 153.564 64.8991 152.911 64.6599 152.191C64.4206 151.47 64.3573 150.703 64.4752 149.954C64.5931 149.204 64.8887 148.494 65.3376 147.881L101.258 98.7394C102.006 97.7169 103.13 97.0319 104.385 96.835C105.639 96.6381 106.921 96.9456 107.948 97.6897C108.975 98.4338 109.663 99.5537 109.861 100.803C110.058 102.052 109.749 103.328 109.002 104.351L77.0173 148.122L102.159 155.884C103.253 156.224 104.188 156.942 104.796 157.91C105.403 158.877 105.643 160.029 105.47 161.157C105.298 162.285 104.725 163.314 103.857 164.058C102.988 164.802 101.88 165.211 100.734 165.211L100.709 165.237Z" fill="#333333"/>
<path d="M124.093 232.134C123.765 232.134 123.438 232.102 123.116 232.039L92.8751 225.791H92.7984C90.3668 225.248 88.0795 224.195 86.0888 222.703C84.0981 221.21 82.4498 219.312 81.2539 217.135C80.058 214.958 79.3419 212.552 79.1533 210.078C78.9647 207.603 79.308 205.118 80.1604 202.786L88.9968 179.494C89.1893 178.871 89.508 178.293 89.9334 177.797C90.3587 177.301 90.8817 176.897 91.4699 176.611C92.0582 176.324 92.6992 176.16 93.3534 176.13C94.0077 176.099 94.6613 176.203 95.2738 176.434C95.8863 176.664 96.4448 177.018 96.9148 177.472C97.3848 177.926 97.7562 178.472 98.0063 179.075C98.2563 179.677 98.3795 180.325 98.3685 180.977C98.3574 181.629 98.2122 182.272 97.9418 182.866L89.1246 206.1C88.7495 207.156 88.6032 208.279 88.6954 209.395C88.7875 210.511 89.1161 211.594 89.6594 212.575C90.2026 213.555 90.9483 214.41 91.8473 215.082C92.7462 215.755 93.7781 216.23 94.8749 216.477L125.064 222.712C126.223 222.954 127.25 223.614 127.949 224.566C128.647 225.517 128.967 226.692 128.847 227.865C128.728 229.037 128.176 230.124 127.3 230.916C126.423 231.708 125.283 232.149 124.1 232.153L124.093 232.134Z" fill="#333333"/>
<path d="M98.9642 171.51C98.1893 171.51 97.426 171.322 96.74 170.963C96.054 170.605 95.4657 170.085 95.0258 169.45C94.5858 168.815 94.3073 168.083 94.2143 167.317C94.1213 166.551 94.2164 165.774 94.4916 165.052L100.664 148.772C101.167 147.667 102.073 146.794 103.199 146.331C104.325 145.868 105.586 145.849 106.725 146.279C107.864 146.708 108.796 147.554 109.332 148.643C109.868 149.732 109.967 150.984 109.609 152.144L103.437 168.424C103.093 169.329 102.481 170.108 101.682 170.659C100.883 171.21 99.9357 171.507 98.9642 171.51Z" fill="#333333"/>
<path d="M204.132 185.997C203.727 185.996 203.323 185.944 202.931 185.844C201.7 185.527 200.647 184.736 200.001 183.646C199.355 182.556 199.171 181.255 199.487 180.029L208.094 146.755C208.25 146.148 208.526 145.578 208.904 145.077C209.282 144.576 209.756 144.154 210.298 143.835C210.84 143.516 211.44 143.307 212.063 143.219C212.686 143.131 213.321 143.166 213.93 143.323C214.54 143.479 215.112 143.753 215.616 144.13C216.119 144.506 216.542 144.978 216.862 145.518C217.183 146.057 217.393 146.654 217.481 147.275C217.569 147.896 217.534 148.527 217.377 149.134L208.771 182.415C208.505 183.439 207.905 184.346 207.066 184.994C206.226 185.643 205.194 185.995 204.132 185.997Z" fill="#333333"/>
<path d="M123.39 244.719C122.688 244.724 121.993 244.574 121.355 244.281C120.718 243.987 120.153 243.557 119.702 243.021C119.251 242.485 118.924 241.856 118.745 241.179C118.567 240.503 118.541 239.795 118.669 239.107L127.684 188.846C128.289 185.404 130.095 182.285 132.783 180.039C135.472 177.792 138.87 176.563 142.379 176.567H142.597L220.661 177.643C223.112 177.676 225.517 178.309 227.665 179.486C229.813 180.663 231.637 182.347 232.977 184.391C234.318 186.434 235.133 188.774 235.352 191.205C235.571 193.637 235.186 196.084 234.232 198.332L216.981 239.012C216.485 240.178 215.545 241.1 214.366 241.575C213.188 242.051 211.868 242.041 210.697 241.547C209.526 241.054 208.6 240.117 208.123 238.944C207.645 237.77 207.655 236.456 208.151 235.29L225.434 194.617C225.778 193.809 225.917 192.93 225.839 192.056C225.761 191.182 225.468 190.341 224.987 189.607C224.505 188.872 223.849 188.267 223.077 187.845C222.305 187.423 221.44 187.197 220.559 187.186L142.494 186.111H142.411C141.149 186.107 139.926 186.547 138.958 187.354C137.99 188.16 137.339 189.282 137.121 190.52L128.106 240.781C127.91 241.884 127.331 242.884 126.468 243.604C125.606 244.325 124.516 244.719 123.39 244.719Z" fill="#333333"/>
<path d="M40.1313 220.874C37.839 220.855 35.5539 220.616 33.3075 220.161C25.1484 218.59 19.4427 214.62 16.3439 208.347C9.24537 193.994 19.6535 172.98 20.1008 172.083C20.6035 171.082 21.4433 170.289 22.4734 169.843C23.5034 169.396 24.6583 169.324 25.7362 169.64L63.6375 180.697C70.2888 174.481 79.6491 172.662 90.9199 175.435C96.5529 176.872 101.953 179.097 106.957 182.046C108.004 182.728 108.742 183.791 109.013 185.007C109.284 186.224 109.066 187.498 108.405 188.556C107.745 189.615 106.696 190.374 105.48 190.672C104.265 190.97 102.981 190.783 101.903 190.151C101.679 190.017 79.3872 176.53 68.864 189.063L68.7425 189.21C64.6917 194.115 62.3533 199.319 60.3023 203.912C56.5646 212.279 52.7055 220.874 40.1313 220.874ZM27.0779 179.991C24.5222 186.436 21.564 197.321 24.9503 204.167C26.6818 207.653 30.0106 209.829 35.1284 210.815C45.8113 212.87 47.3704 209.384 51.549 200.063C53.197 196.188 55.1186 192.433 57.2994 188.828L27.0779 179.991Z" fill="#333333"/>
<path d="M226.808 151.819C205.57 151.819 176.805 146.634 149.849 124.799C121.097 101.533 87.2334 102.086 69.6181 104.491C67.4044 104.795 65.1528 104.337 63.2365 103.192C61.3202 102.047 59.8544 100.285 59.0818 98.197C58.3093 96.109 58.2765 93.8208 58.9889 91.7118C59.7013 89.6027 61.1161 87.7994 62.9988 86.6007C66.4093 84.5298 69.9379 82.6583 73.5667 80.9956C83.9046 75.9759 96.779 69.7283 105.353 56.9213C114.899 42.6637 128.004 33.0378 143.255 29.0869C158.11 25.2378 175.144 26.7456 192.516 33.4449C226.795 46.6528 232.692 73.7873 236.999 93.599C238.532 100.667 239.861 106.775 242.11 111.267C243.771 114.581 248.723 119.022 253.087 122.941C260.703 129.781 266.715 135.176 265.227 141.328C264.447 144.585 261.783 146.85 257.323 148.065C247.355 150.614 237.099 151.876 226.808 151.819ZM86.0833 93.8344C105.973 93.8344 132.419 98.3706 155.899 117.374C198.426 151.832 245.765 141.309 254.825 138.847L255.355 138.688C253.809 136.416 249.451 132.504 246.672 130.016C241.433 125.314 236.015 120.473 233.542 115.523C230.75 109.956 229.236 102.983 227.632 95.6031C223.357 75.9568 218.521 53.6829 189.06 42.3329C173.572 36.3588 158.564 34.9719 145.67 38.312C132.546 41.7094 121.665 49.7638 113.327 62.2018C103.309 77.1656 88.5432 84.3294 77.7645 89.5591C74.4785 91.0606 71.279 92.7428 68.1805 94.5979C68.1277 94.6281 68.0802 94.6668 68.04 94.7124C68.0374 94.8289 68.0784 94.9423 68.155 95.0305C68.155 95.0305 68.2061 95.0305 68.3019 95.0305C74.1954 94.2352 80.136 93.8356 86.0833 93.8344Z" fill="#333333"/>
<path d="M247.432 261.495C246.606 261.491 245.796 261.272 245.081 260.859L219.997 246.78C214.519 243.695 208.195 242.433 201.947 243.179L159.777 248.154C158.534 248.268 157.294 247.895 156.323 247.112C155.352 246.33 154.726 245.201 154.578 243.966C154.431 242.731 154.774 241.487 155.534 240.5C156.293 239.513 157.41 238.86 158.647 238.681L200.816 233.706C209.084 232.713 217.454 234.383 224.699 238.471L249.79 252.588C250.702 253.111 251.416 253.919 251.822 254.886C252.227 255.853 252.301 256.927 252.033 257.94C251.765 258.954 251.169 259.851 250.337 260.494C249.506 261.136 248.485 261.488 247.432 261.495Z" fill="#333333"/>
<path d="M81.0744 261.496C80.0286 261.504 79.009 261.171 78.1709 260.548C77.3329 259.925 76.7226 259.047 76.433 258.046C76.1434 257.045 76.1905 255.978 76.5671 255.007C76.9436 254.035 77.629 253.213 78.5186 252.666L97.6227 240.889L89.521 223.031C89.023 221.881 88.9985 220.583 89.4528 219.416C89.907 218.249 90.8037 217.306 91.9495 216.791C93.0953 216.276 94.3985 216.23 95.578 216.663C96.7576 217.096 97.7191 217.973 98.2552 219.105L108.088 240.775C108.566 241.83 108.642 243.023 108.303 244.13C107.963 245.237 107.231 246.184 106.242 246.793L83.5662 260.79C82.8176 261.251 81.9547 261.496 81.0744 261.496Z" fill="#333333"/>
<path d="M184.581 39.3301C184.313 39.3308 184.046 39.3095 183.782 39.2664C182.696 39.0842 181.707 38.5348 180.981 37.7108C180.254 36.8867 179.836 35.8386 179.795 34.743C179.55 31.1786 178.97 27.6449 178.064 24.1882C176.786 19.2511 174.23 12.5645 169.508 8.72179C168.535 7.91951 167.92 6.76708 167.796 5.51521C167.672 4.26334 168.049 3.01332 168.846 2.03711C169.642 1.06089 170.794 0.437472 172.05 0.302474C173.306 0.167476 174.565 0.531823 175.553 1.31625C181.942 6.48231 185.379 14.5113 187.219 21.3634C191.847 15.7595 197.559 11.1401 204.017 7.78019C204.575 7.49027 205.185 7.31263 205.812 7.2574C206.439 7.20218 207.07 7.27045 207.671 7.45831C208.271 7.64618 208.829 7.94997 209.311 8.35233C209.794 8.75469 210.192 9.24775 210.483 9.80335C210.774 10.3589 210.952 10.9662 211.008 11.5905C211.063 12.2147 210.995 12.8437 210.806 13.4416C210.617 14.0395 210.312 14.5945 209.908 15.075C209.504 15.5554 209.009 15.9519 208.451 16.2418C194.062 23.7364 189.053 36.1681 189.015 36.2762C188.668 37.169 188.06 37.9374 187.269 38.4819C186.479 39.0264 185.542 39.3219 184.581 39.3301Z" fill="#333333"/>
<path d="M11.431 29.5768C10.3941 29.5773 9.38504 29.2424 8.55579 28.6225C7.52072 27.8463 6.87539 27.4264 6.869 27.4264C5.79974 26.7414 5.04757 25.6614 4.77797 24.4241C4.50837 23.1868 4.74342 21.8936 5.43141 20.8289C6.1194 19.7642 7.20396 19.0152 8.44652 18.7467C9.68908 18.4783 10.9879 18.7123 12.0571 19.3974C12.1466 19.461 12.9964 20.0336 14.3062 20.9879C15.1108 21.5888 15.7051 22.4266 16.005 23.3825C16.3048 24.3384 16.2951 25.3641 15.977 26.3141C15.659 27.2642 15.0488 28.0906 14.2329 28.6762C13.417 29.2617 12.4367 29.5768 11.431 29.5768Z" fill="#333333"/>
<path d="M36.8345 164.155C36.6429 164.155 36.4512 164.155 36.2531 164.123C34.9923 163.971 33.8439 163.326 33.0594 162.332C32.2749 161.337 31.9185 160.073 32.0682 158.817C33.1479 149.872 29.915 142.403 22.4842 136.607C13.2581 129.431 0.888372 118.125 0.0449848 102.888C-0.542831 92.2565 4.63247 81.5491 15.4304 71.077C26.1069 60.7003 27.2378 50.1646 18.8934 38.8782C18.1393 37.859 17.8227 36.5833 18.0133 35.3317C18.2038 34.0801 18.8858 32.9551 19.9093 32.2043C20.9328 31.4534 22.214 31.1381 23.4709 31.3278C24.7279 31.5176 25.8576 32.1967 26.6117 33.2158C37.7993 48.3514 36.1956 64.2186 22.1392 77.9099C13.4114 86.3907 9.20078 94.6296 9.63525 102.391C10.2742 113.729 20.644 123.062 28.407 129.112C41.1856 139.069 42.6488 151.38 41.6137 159.982C41.4683 161.139 40.9015 162.203 40.0206 162.973C39.1398 163.742 38.0061 164.163 36.8345 164.155Z" fill="#333333"/>
<path d="M55.8944 74.1369C54.9239 74.1369 53.9763 73.8434 53.177 73.2954C52.3776 72.7474 51.7643 71.9706 51.418 71.0679C51.0717 70.1652 51.0088 69.179 51.2377 68.2399C51.4666 67.3008 51.9764 66.4531 52.6997 65.8088C53.4016 65.1831 54.0651 64.516 54.6868 63.8111C55.1017 63.3399 55.6058 62.9547 56.1702 62.6774C56.7347 62.4002 57.3484 62.2364 57.9764 62.1953C58.6044 62.1543 59.2344 62.2368 59.8304 62.4381C60.4264 62.6395 60.9767 62.9558 61.4499 63.369C61.9231 63.7821 62.31 64.284 62.5884 64.846C62.8668 65.4081 63.0314 66.0192 63.0726 66.6445C63.1138 67.2699 63.0309 67.8972 62.8287 68.4906C62.6265 69.0841 62.3089 69.6321 61.8939 70.1033C61.0181 71.0972 60.0836 72.0384 59.0954 72.9217C58.2156 73.7062 57.0754 74.139 55.8944 74.1369Z" fill="#333333"/>
<path d="M65.267 58.5435C64.7567 58.544 64.2497 58.4624 63.7655 58.3018C62.5591 57.9048 61.56 57.0475 60.9875 55.918C60.4149 54.7886 60.3157 53.4791 60.7114 52.2768C68.1741 29.7421 56.29 12.6088 52.4756 7.89449L52.2776 7.65273C51.5171 6.65302 51.1824 5.39538 51.346 4.15188C51.5096 2.90838 52.1583 1.779 53.1517 1.00806C54.1451 0.237118 55.4033 -0.113396 56.6542 0.0323454C57.9052 0.178086 59.0483 0.808364 59.8361 1.78683L59.932 1.90135C64.5195 7.56366 78.7932 28.1515 69.8162 55.2606C69.5014 56.215 68.8923 57.0461 68.0754 57.6356C67.2586 58.225 66.2758 58.5428 65.267 58.5435Z" fill="#333333"/>
</svg>
