<svg width="298" height="296" viewBox="0 0 298 296" fill="none" xmlns="http://www.w3.org/2000/svg">
<g clip-path="url(#clip0_106_993)">
<path d="M42.5428 250.126C-15.2062 190.915 -14.0082 95.755 45.1958 38.017C63.7998 19.866 86.7988 6.86002 111.946 0.271021C112.643 0.0400208 113.378 -0.0429792 114.116 0.0220208C114.842 0.0880208 115.554 0.305021 116.199 0.656021C116.845 1.00702 117.411 1.48702 117.862 2.06602C118.313 2.64502 118.641 3.31002 118.827 4.02102C119.01 4.73302 119.047 5.47302 118.935 6.19802C118.822 6.92102 118.56 7.61802 118.169 8.24102C117.773 8.86302 117.26 9.39502 116.652 9.80902C116.048 10.22 115.359 10.506 114.64 10.646C91.3018 16.769 69.9598 28.846 52.6998 45.702C-2.27423 99.312 -3.37824 187.654 50.2318 242.622C103.844 297.589 192.188 298.7 247.164 245.087C267.798 225.053 281.679 199.087 286.866 170.804C286.997 170.109 287.259 169.448 287.643 168.857C288.027 168.267 288.523 167.755 289.102 167.355C290.273 166.544 291.721 166.238 293.121 166.496C294.523 166.756 295.764 167.557 296.574 168.732C297.38 169.904 297.687 171.35 297.429 172.753C291.835 203.224 276.889 231.194 254.662 252.775C195.442 310.53 100.289 309.337 42.5428 250.126Z" fill="#333333"/>
<path d="M153.679 246.967C98.6 246.967 53.79 202.157 53.79 147.078C53.79 91.9992 98.6 47.1892 153.679 47.1892C155.938 47.1892 158.229 47.2662 160.489 47.4182C162.968 47.5852 164.843 49.7302 164.677 52.2102C164.51 54.6892 162.353 56.5592 159.885 56.3982C157.825 56.2602 155.738 56.1902 153.679 56.1902C103.563 56.1902 62.79 96.9622 62.79 147.079C62.79 197.196 103.562 237.968 153.679 237.968C203.796 237.968 244.568 197.196 244.568 147.079C244.568 133.463 241.63 120.369 235.839 108.158C234.774 105.913 235.731 103.229 237.976 102.163C240.221 101.098 242.906 102.054 243.97 104.3C250.339 117.725 253.569 132.118 253.569 147.078C253.567 202.157 208.758 246.967 153.679 246.967Z" fill="#333333"/>
<path d="M203.622 114.001C181.381 114.001 163.286 95.9061 163.286 73.6641C163.286 51.4231 181.381 33.3281 203.622 33.3281C225.863 33.3281 243.958 51.4231 243.958 73.6641C243.958 95.9061 225.863 114.001 203.622 114.001ZM203.622 42.3281C186.344 42.3281 172.286 56.3851 172.286 73.6641C172.286 90.9431 186.344 105.001 203.622 105.001C220.9 105.001 234.958 90.9431 234.958 73.6641C234.958 56.3851 220.9 42.3281 203.622 42.3281Z" fill="#333333"/>
<path d="M210.81 100.632C210.806 100.632 210.798 100.632 210.79 100.632H196.63C195.124 100.632 193.718 99.8792 192.884 98.6262C192.05 97.3732 191.898 95.7852 192.479 94.3962L199.479 77.6622C200.176 75.9942 201.804 74.9062 203.612 74.8982C203.619 74.8982 203.625 74.8982 203.631 74.8982C205.432 74.8982 207.06 75.9712 207.768 77.6282L214.768 93.9872C215.115 94.6252 215.311 95.3552 215.311 96.1322C215.31 98.6172 213.295 100.632 210.81 100.632ZM203.39 91.6322H203.97L203.677 90.9462L203.39 91.6322Z" fill="#333333"/>
<path d="M209.127 74.6471C207.54 74.6471 206.053 73.8081 205.239 72.4121C204.33 70.8501 204.442 68.8951 205.526 67.4491L216.44 52.8831C217.347 51.6731 218.81 51.0001 220.31 51.0891C221.82 51.1791 223.183 52.0221 223.939 53.3311L231.019 65.5951C231.772 66.8991 231.823 68.4931 231.154 69.8431C230.486 71.1931 229.186 72.1181 227.693 72.3091L209.699 74.6121C209.508 74.6361 209.316 74.6471 209.127 74.6471ZM219.555 63.7371L219.108 64.3341L219.845 64.2401L219.555 63.7371Z" fill="#333333"/>
<path d="M198.369 74.5131C198.191 74.5131 198.012 74.5031 197.832 74.4811L179.76 72.3131C178.259 72.1331 176.948 71.2111 176.272 69.8581C175.595 68.5061 175.643 66.9041 176.399 65.5941L183.481 53.3301C184.235 52.0261 185.589 51.1851 187.092 51.0891C188.585 50.9911 190.045 51.6551 190.958 52.8541L201.727 66.9951C202.449 67.7931 202.888 68.8511 202.888 70.0131C202.888 72.4921 200.883 74.5031 198.407 74.5131C198.394 74.5131 198.382 74.5131 198.369 74.5131ZM187.604 64.1891L188.345 64.2781L187.894 63.6861L187.604 64.1891Z" fill="#333333"/>
<path d="M110.418 233.589C110.034 233.589 109.644 233.539 109.256 233.436C106.855 232.796 105.427 230.331 106.067 227.929C109.067 216.679 112.249 203.991 112.794 200.67C111.197 197.659 102.694 188.144 96.4462 184.735C88.5552 180.431 92.5602 169.283 95.4842 161.143C96.0702 159.513 96.8032 157.473 97.2182 156.014C75.3792 145.418 60.0932 124.66 59.4312 123.751C57.9682 121.742 58.4102 118.927 60.4192 117.464C62.4282 116 65.2422 116.443 66.7062 118.452C66.9542 118.789 82.4362 139.702 103.198 148.867C108.6 151.253 106.344 157.535 103.955 164.186C102.797 167.411 100.115 174.877 100.9 176.914C108.315 181.036 121.865 194.501 121.865 200.246C121.865 203.178 117.416 220.301 114.764 230.247C114.227 232.26 112.407 233.589 110.418 233.589Z" fill="#333333"/>
<path d="M129.816 241.603C129.803 241.603 129.791 241.603 129.778 241.602C127.307 241.581 125.315 239.61 125.315 237.139C125.315 228.572 141.581 204.78 158.022 204.78C169.045 204.78 176.328 192.967 176.407 190.011C176.407 185.609 175.254 177.81 170.93 176.532C168.547 175.828 167.186 173.325 167.89 170.941C168.593 168.558 171.096 167.196 173.481 167.901C184.546 171.171 185.407 185.654 185.407 190.015C185.407 197.069 174.779 213.779 158.022 213.779C146.656 213.779 134.381 233.188 134.315 237.14C134.274 239.599 132.269 241.603 129.816 241.603Z" fill="#333333"/>
<path d="M126.46 162.634C126.13 162.634 125.795 162.598 125.46 162.522C118.347 160.906 110.935 152.317 101.986 141.257C99.5697 138.271 97.2877 135.451 95.7657 133.93C91.0917 129.254 91.7447 123.896 92.1777 120.35C92.5017 117.694 92.5117 116.776 91.9427 116.206C83.5287 107.79 95.8797 95.4431 99.9377 91.3861C102.332 88.9921 104.837 89.1311 106.119 89.4241C111.071 90.5631 113.341 97.1181 115.968 104.708C116.186 105.336 116.433 106.052 116.691 106.777C118.462 103.103 120.741 97.3501 122.805 90.8181C125.846 81.1851 141.331 77.5951 150.377 77.5951C155.591 77.5951 162.519 71.4361 164.534 69.2781C166.23 67.4621 169.078 67.3661 170.894 69.0611C172.709 70.7581 172.807 73.6051 171.11 75.4211C170.042 76.5651 160.383 86.5941 150.377 86.5941C142.212 86.5941 132.45 90.1571 131.387 93.5271C123.803 117.531 119.305 118.63 117.385 119.099C115.481 119.566 113.506 119 112.098 117.593C110.357 115.852 109.257 112.834 107.463 107.651C106.708 105.469 105.486 101.942 104.412 99.6991C97.0477 107.568 98.2877 109.822 98.3077 109.841C102.069 113.602 101.516 118.131 101.113 121.438C100.702 124.81 100.687 126.119 102.131 127.563C103.987 129.418 106.302 132.28 108.984 135.593C114.158 141.987 122.818 152.689 127.455 153.742C129.879 154.292 131.397 156.703 130.847 159.127C130.37 161.218 128.515 162.634 126.46 162.634Z" fill="#333333"/>
<path d="M209.995 226.439C209.32 226.079 203.295 222.585 199.441 211.052C197.025 203.82 202.565 193.678 211.294 179.031C214.887 173.002 219.808 164.744 219.808 162.193C219.808 160.116 215.248 156.989 211.225 154.231C205.413 150.245 198.18 145.285 194.344 137.624C186.387 121.727 199.752 107.056 200.325 106.439C202.015 104.618 204.865 104.514 206.684 106.204C208.501 107.892 208.61 110.732 206.928 112.553C206.516 113.004 197.249 123.322 202.392 133.595C205.186 139.177 211.098 143.231 216.314 146.808C222.739 151.214 228.807 155.375 228.807 162.193C228.807 166.979 225.09 173.461 219.025 183.638C214.411 191.381 206.688 204.34 207.977 208.201C210.654 216.211 214.318 218.545 214.354 218.567L214.237 218.502L209.995 226.439Z" fill="#333333"/>
<path d="M150.136 186.473C146.465 186.473 142.867 185.772 139.441 184.391C131.246 181.085 125.888 175.985 123.514 169.231C119.508 157.833 125.904 146.221 126.179 145.732C127.061 144.16 128.8 143.269 130.588 143.461C132.38 143.655 133.883 144.9 134.408 146.624C135.355 149.705 137.227 153.225 138.327 154.054C138.791 153.987 138.976 153.867 138.978 153.866C139.644 152.802 138.439 148.074 137.986 146.294L137.801 145.565C136.213 139.25 134.413 132.092 139.555 123.622C142.897 118.118 153.488 111.826 155.576 110.621C157.37 109.587 159.635 109.909 161.068 111.399C162.502 112.89 162.735 115.167 161.632 116.917C161.535 117.073 151.654 133.169 160.008 142.221C161.3 142.968 162.009 143.103 162.264 143.126C162.937 142.292 163.458 139.138 163.296 136.737C163.15 134.598 164.535 132.654 166.604 132.091C168.667 131.531 170.852 132.502 171.81 134.42C172.196 135.19 181.187 153.457 176.063 168.668C173.831 175.297 169.343 180.318 162.726 183.595C161.801 184.084 156.95 186.473 150.136 186.473ZM131.252 159.665C131.081 161.804 131.238 164.092 132.02 166.292C133.508 170.476 137.137 173.757 142.807 176.044C145.158 176.991 147.623 177.473 150.135 177.473C155.007 177.473 158.487 175.654 158.521 175.635C158.563 175.614 158.636 175.574 158.678 175.554C163.169 173.345 166.066 170.153 167.534 165.794C169.146 161.005 168.776 155.337 167.727 150.305C166.203 151.502 164.369 152.128 162.351 152.128H162.35C160.008 152.128 157.537 151.296 154.794 149.585C154.505 149.404 154.236 149.191 153.995 148.95C147.428 142.383 146.874 134.114 148.209 127.073C147.798 127.513 147.47 127.923 147.246 128.292C144.358 133.049 144.809 136.54 146.527 143.37L146.706 144.073C147.852 148.576 149.424 154.742 146.233 159.173C145.078 160.777 142.818 162.755 138.617 163.064C135.666 163.281 133.173 161.778 131.252 159.665Z" fill="#333333"/>
<path d="M144.173 30.611H136.062C133.578 30.611 131.562 28.596 131.562 26.111C131.562 23.626 133.578 21.611 136.062 21.611H144.173C146.658 21.611 148.673 23.626 148.673 26.111C148.673 28.596 146.658 30.611 144.173 30.611Z" fill="#333333"/>
<path d="M271.841 107.445H263.174C260.689 107.445 258.674 105.43 258.674 102.945C258.674 100.46 260.689 98.4451 263.174 98.4451H271.841C274.326 98.4451 276.341 100.46 276.341 102.945C276.341 105.43 274.326 107.445 271.841 107.445Z" fill="#333333"/>
<path d="M286.508 128.778H271.841C269.356 128.778 267.341 126.763 267.341 124.278C267.341 121.793 269.356 119.778 271.841 119.778H286.508C288.993 119.778 291.008 121.793 291.008 124.278C291.008 126.763 288.993 128.778 286.508 128.778Z" fill="#333333"/>
</g>
<defs>
<clipPath id="clip0_106_993">
<rect width="297.519" height="295.324" fill="white"/>
</clipPath>
</defs>
</svg>
