<svg width="300" height="268" viewBox="0 0 300 268" fill="none" xmlns="http://www.w3.org/2000/svg">
<path d="M165.367 268C137.479 267.982 110.284 259.149 87.5272 242.719C64.7709 226.289 47.574 203.07 38.3059 176.262C38.0956 175.656 38.0045 175.013 38.038 174.37C38.0715 173.728 38.2288 173.098 38.5009 172.518C38.7731 171.937 39.1547 171.417 39.6241 170.987C40.0935 170.557 40.6414 170.225 41.2366 170.011C41.8318 169.796 42.4625 169.704 43.0929 169.738C43.7232 169.772 44.3408 169.932 44.9103 170.21C45.4799 170.487 45.9903 170.876 46.4124 171.354C46.8344 171.833 47.1599 172.391 47.3702 172.998C55.9759 197.895 71.9455 219.459 93.0785 234.718C114.212 249.978 139.468 258.182 165.367 258.2C234.307 258.2 290.391 201.04 290.391 130.775C290.443 111.798 286.298 93.0523 278.264 75.932C277.993 75.3516 277.836 74.7222 277.803 74.08C277.77 73.4377 277.861 72.7952 278.071 72.1889C278.282 71.5826 278.608 71.0246 279.03 70.5466C279.452 70.0686 279.963 69.68 280.532 69.4031C281.102 69.1262 281.719 68.9662 282.349 68.9325C282.979 68.8988 283.61 68.9919 284.205 69.2065C284.8 69.4211 285.347 69.7531 285.816 70.1834C286.285 70.6136 286.666 71.1339 286.938 71.7143C295.587 90.1451 300.052 110.325 300 130.756C300 206.446 239.605 268 165.367 268Z" fill="#333333"/>
<path d="M209.055 224.681C208.622 224.68 208.191 224.62 207.774 224.504L60.6944 183.372C59.4669 183.026 58.4239 182.198 57.7937 181.07C57.1634 179.942 56.9972 178.605 57.3313 177.352L85.7543 71.7989C85.9203 71.178 86.205 70.5966 86.5919 70.0881C86.9789 69.5796 87.4605 69.1539 88.0092 68.8354C88.5579 68.517 89.1629 68.3121 89.7895 68.2324C90.416 68.1528 91.0518 68.1999 91.6605 68.3712L238.74 109.504C239.349 109.673 239.919 109.963 240.418 110.357C240.917 110.752 241.335 111.243 241.648 111.802C241.96 112.361 242.161 112.978 242.239 113.616C242.317 114.255 242.271 114.903 242.103 115.523L213.686 221.09C213.406 222.122 212.801 223.032 211.965 223.681C211.128 224.33 210.106 224.681 209.055 224.681ZM67.8754 175.23L205.692 213.751L231.565 117.626L93.7488 79.1048L67.8754 175.23Z" fill="#333333"/>
<path d="M22.4708 152.627C22.0378 152.628 21.6067 152.569 21.1896 152.45L3.52857 147.534C2.92066 147.364 2.35157 147.074 1.85383 146.679C1.35608 146.285 0.939428 145.795 0.627698 145.236C0.315969 144.678 0.115289 144.062 0.0370766 143.425C-0.0411356 142.787 0.00466538 142.14 0.171888 141.521L20.5426 65.8243C20.7086 65.2034 20.9934 64.6221 21.3803 64.1135C21.7673 63.605 22.2489 63.1793 22.7976 62.8609C23.3463 62.5424 23.9512 62.3375 24.5778 62.2578C25.2044 62.1782 25.8402 62.2253 26.4489 62.3966L44.1163 67.339C44.8113 67.5297 45.4551 67.8778 45.9996 68.3575L84.0251 102.008C84.5098 102.427 84.9081 102.94 85.1969 103.517C85.4856 104.095 85.6591 104.725 85.7073 105.371C85.7554 106.017 85.6772 106.666 85.4773 107.281C85.2774 107.896 84.9597 108.465 84.5426 108.954C84.1255 109.443 83.6173 109.843 83.0475 110.13C82.4778 110.417 81.8577 110.587 81.2232 110.628C80.5888 110.669 79.9526 110.582 79.3515 110.371C78.7504 110.16 78.1964 109.829 77.7216 109.398L40.5226 76.4861L28.5372 73.1041L10.7224 139.36L22.7142 142.709L71.1492 133.823C71.7749 133.697 72.419 133.699 73.044 133.829C73.669 133.959 74.2624 134.215 74.7894 134.581C75.3164 134.947 75.7666 135.417 76.1137 135.962C76.4607 136.508 76.6978 137.118 76.8109 137.758C76.9241 138.398 76.911 139.054 76.7726 139.689C76.6342 140.324 76.3732 140.924 76.0048 141.455C75.6364 141.985 75.168 142.436 74.6269 142.78C74.0858 143.125 73.4828 143.356 72.8532 143.46L23.3228 152.561C23.0413 152.609 22.7561 152.631 22.4708 152.627Z" fill="#333333"/>
<path d="M215.006 110.973C203.78 110.971 192.836 107.381 183.716 100.707C174.596 94.0342 167.759 84.6142 164.167 73.7731C160.576 62.932 160.41 51.2159 163.694 40.2739C166.978 29.3318 173.545 19.7149 182.473 12.7766C191.4 5.83843 202.238 1.9283 213.46 1.59671C224.682 1.26512 235.724 4.52875 245.031 10.9282C254.337 17.3276 261.441 26.5406 265.341 37.2704C269.241 48.0002 269.742 59.7064 266.772 70.7413C263.646 82.2932 256.891 92.4823 247.542 99.7485C238.192 107.015 226.764 110.957 215.006 110.973ZM215.006 11.3606C203.825 11.3499 193.058 15.6703 184.885 23.4469C176.712 31.2235 171.744 41.8751 170.987 53.2447C170.23 64.6143 173.741 75.8523 180.808 84.6829C187.876 93.5135 197.971 99.2768 209.051 100.806C220.131 102.335 231.367 99.5149 240.484 92.9175C249.601 86.3201 255.917 76.4381 258.153 65.2726C260.39 54.1071 258.38 42.4926 252.53 32.781C246.68 23.0695 237.427 15.9866 226.646 12.9668C222.861 11.9163 218.955 11.3849 215.032 11.3867L215.006 11.3606Z" fill="#333333"/>
<path d="M128.399 87.1875C119.451 87.1874 110.728 84.3272 103.459 79.0094C96.1897 73.6917 90.7397 66.1843 87.8763 57.544C85.0129 48.9037 84.8804 39.5658 87.4972 30.8446C90.1141 22.1235 95.3486 14.4585 102.464 8.92854C109.579 3.39861 118.217 0.282284 127.161 0.0182778C136.105 -0.245728 144.906 2.35589 152.323 7.45686C159.74 12.5578 165.401 19.9013 168.509 28.4534C171.617 37.0055 172.015 46.3357 169.647 55.1303C167.158 64.3364 161.776 72.4567 154.326 78.2469C146.876 84.0371 137.768 87.1777 128.399 87.1875ZM128.354 9.77383C122.175 9.78337 116.122 11.5521 110.877 14.8806C105.631 18.2091 101.402 22.9649 98.6673 28.6119C95.9321 34.2588 94.7992 40.5723 95.3963 46.8404C95.9934 53.1085 98.2968 59.082 102.047 64.0872C105.797 69.0925 110.844 72.9304 116.62 75.1683C122.395 77.4062 128.669 77.955 134.735 76.753C140.8 75.5509 146.415 72.6456 150.947 68.3649C155.479 64.0841 158.747 58.598 160.384 52.5253C161.727 47.5051 161.917 42.2369 160.938 37.1299C159.959 32.0229 157.837 27.2147 154.739 23.079C151.64 18.9433 147.648 15.5914 143.072 13.2839C138.496 10.9763 133.46 9.77517 128.354 9.77383Z" fill="#333333"/>
<path d="M204.821 141.005C204.388 141.007 203.957 140.948 203.54 140.829L170.05 131.466C169.442 131.295 168.873 131.003 168.375 130.607C167.878 130.212 167.461 129.72 167.15 129.16C166.839 128.601 166.639 127.984 166.562 127.346C166.485 126.708 166.532 126.06 166.7 125.44C166.868 124.82 167.154 124.24 167.543 123.733C167.931 123.226 168.413 122.802 168.962 122.485C169.511 122.168 170.116 121.964 170.742 121.885C171.369 121.806 172.004 121.854 172.612 122.025L206.102 131.394C207.223 131.71 208.194 132.428 208.835 133.418C209.475 134.407 209.742 135.599 209.586 136.774C209.429 137.948 208.86 139.025 207.984 139.804C207.108 140.584 205.984 141.013 204.821 141.012V141.005Z" fill="#333333"/>
<path d="M199.165 162.126C198.732 162.126 198.301 162.066 197.884 161.95L164.394 152.587C163.164 152.241 162.12 151.411 161.492 150.281C160.863 149.15 160.7 147.811 161.04 146.558C161.38 145.305 162.194 144.241 163.303 143.6C164.413 142.959 165.727 142.794 166.956 143.14L200.446 152.509C201.567 152.824 202.538 153.543 203.178 154.532C203.819 155.521 204.086 156.714 203.929 157.888C203.773 159.063 203.204 160.139 202.327 160.919C201.451 161.698 200.328 162.127 199.165 162.126Z" fill="#333333"/>
<path d="M239.17 65.3871C243.666 65.3871 247.312 61.6718 247.312 57.0888C247.312 52.5058 243.666 48.7905 239.17 48.7905C234.673 48.7905 231.028 52.5058 231.028 57.0888C231.028 61.6718 234.673 65.3871 239.17 65.3871Z" fill="#333333"/>
<path d="M192.476 65.3871C196.973 65.3871 200.618 61.6718 200.618 57.0888C200.618 52.5058 196.973 48.7905 192.476 48.7905C187.98 48.7905 184.334 52.5058 184.334 57.0888C184.334 61.6718 187.98 65.3871 192.476 65.3871Z" fill="#333333"/>
<path d="M215.82 41.5897C220.317 41.5897 223.962 37.8745 223.962 33.2915C223.962 28.7084 220.317 24.9932 215.82 24.9932C211.324 24.9932 207.678 28.7084 207.678 33.2915C207.678 37.8745 211.324 41.5897 215.82 41.5897Z" fill="#333333"/>
<path d="M215.82 89.1854C220.317 89.1854 223.962 85.4701 223.962 80.8871C223.962 76.3041 220.317 72.5889 215.82 72.5889C211.324 72.5889 207.678 76.3041 207.678 80.8871C207.678 85.4701 211.324 89.1854 215.82 89.1854Z" fill="#333333"/>
</svg>
