<svg width="342" height="300" viewBox="0 0 342 300" fill="none" xmlns="http://www.w3.org/2000/svg">
<path d="M278.331 135.388C277.682 135.386 277.039 135.267 276.432 135.034C246.732 123.533 233.444 103.989 227.525 89.5489C221.08 73.8674 221.756 60.8862 221.791 60.3375C221.874 58.9014 222.516 57.5575 223.575 56.6016C224.635 55.6457 226.025 55.156 227.44 55.2403C228.855 55.3245 230.179 55.9758 231.121 57.0509C232.062 58.1259 232.545 59.5367 232.462 60.9728C232.462 61.1605 231.957 72.4235 237.584 85.8379C245.082 103.707 259.437 116.883 280.266 124.912C281.433 125.362 282.407 126.214 283.019 127.318C283.632 128.423 283.843 129.71 283.616 130.956C283.389 132.202 282.739 133.328 281.778 134.138C280.818 134.948 279.608 135.39 278.36 135.388H278.331Z" fill="#333333"/>
<path d="M220.718 268.954C219.738 268.956 218.777 268.683 217.939 268.166C217.102 267.649 216.422 266.907 215.973 266.023C206.291 247.006 203.965 229.642 209.066 214.408C214.593 197.904 228.757 184.085 251.172 173.443C281.811 158.852 273.189 111.266 273.096 110.782C272.827 109.372 273.122 107.911 273.914 106.721C274.707 105.531 275.932 104.709 277.322 104.436C278.711 104.163 280.151 104.462 281.323 105.266C282.496 106.07 283.306 107.314 283.575 108.725C285.213 118.564 285.453 128.591 284.286 138.499C281.604 160.159 271.731 175.631 255.739 183.262C236.055 192.648 223.763 204.301 219.203 217.917C215.077 230.249 217.19 244.775 225.491 261.077C225.911 261.903 226.115 262.823 226.082 263.751C226.05 264.679 225.783 265.583 225.308 266.377C224.832 267.17 224.163 267.826 223.366 268.281C222.568 268.736 221.669 268.975 220.754 268.976L220.718 268.954Z" fill="#333333"/>
<path d="M213.597 251.627C212.478 251.627 211.386 251.269 210.478 250.604C209.571 249.939 208.892 249.001 208.539 247.923L195.137 207.131C193.874 203.239 191.653 199.737 188.686 196.958C185.718 194.179 182.102 192.213 178.178 191.247L158.16 186.28C156.104 185.771 154.185 184.809 152.537 183.462C150.89 182.115 149.555 180.416 148.628 178.486C147.701 176.556 147.204 174.442 147.173 172.295C147.143 170.149 147.578 168.021 148.45 166.064L157.939 144.708L147.084 140.882C146.152 140.554 145.328 139.97 144.704 139.196C144.079 138.421 143.678 137.486 143.545 136.494C143.413 135.502 143.554 134.493 143.952 133.577C144.351 132.662 144.992 131.876 145.803 131.308L173.917 111.605C180.184 83.3469 204.662 72.084 205.729 71.6075C207.02 71.0491 208.475 71.0292 209.78 71.5521C211.085 72.0749 212.135 73.0984 212.702 74.4009C213.269 75.7034 213.307 77.1801 212.809 78.5113C212.311 79.8424 211.316 80.9209 210.04 81.5131C209.08 81.9535 188.336 91.7003 183.961 115.807C183.704 117.216 182.909 118.464 181.749 119.28L160.543 134.138L166.945 136.413C167.644 136.66 168.284 137.052 168.826 137.564C169.367 138.076 169.798 138.696 170.09 139.386C170.382 140.076 170.53 140.82 170.524 141.571C170.518 142.322 170.358 143.063 170.054 143.748L158.167 170.461C157.943 170.968 157.831 171.518 157.839 172.074C157.847 172.629 157.976 173.176 158.215 173.675C158.455 174.174 158.8 174.614 159.225 174.963C159.651 175.313 160.147 175.563 160.678 175.696L180.696 180.692C186.37 182.092 191.599 184.936 195.891 188.956C200.182 192.975 203.394 198.037 205.224 203.665L218.627 244.464C218.849 245.139 218.937 245.851 218.888 246.561C218.839 247.27 218.652 247.963 218.339 248.599C218.026 249.235 217.592 249.803 217.063 250.269C216.534 250.735 215.919 251.091 215.255 251.316C214.722 251.507 214.162 251.612 213.597 251.627Z" fill="#333333"/>
<path d="M215.262 124.262C214.569 124.262 213.883 124.125 213.242 123.858L200.33 118.508C199.02 117.965 197.976 116.916 197.427 115.592C196.879 114.268 196.872 112.776 197.406 111.447C197.941 110.117 198.975 109.057 200.279 108.501C201.584 107.944 203.053 107.936 204.364 108.479L217.275 113.829C218.423 114.302 219.372 115.165 219.962 116.27C220.551 117.375 220.743 118.654 220.505 119.888C220.267 121.121 219.614 122.232 218.657 123.03C217.701 123.828 216.5 124.264 215.262 124.262Z" fill="#333333"/>
<path d="M216.976 180.504C212.78 180.498 208.758 178.804 205.791 175.793C202.823 172.781 201.154 168.699 201.148 164.44C201.148 157.87 209.564 139.048 212.146 133.431C212.576 132.498 213.259 131.708 214.115 131.155C214.971 130.602 215.965 130.308 216.98 130.308C217.995 130.308 218.989 130.602 219.845 131.155C220.701 131.708 221.384 132.498 221.814 133.431C224.396 139.048 232.804 157.87 232.804 164.44C232.801 168.699 231.132 172.783 228.164 175.795C225.197 178.807 221.173 180.5 216.976 180.504ZM216.976 149.163C214.095 156.217 211.862 162.527 211.819 164.447C211.819 165.836 212.362 167.167 213.33 168.149C214.297 169.13 215.609 169.682 216.976 169.682C218.344 169.682 219.656 169.13 220.623 168.149C221.591 167.167 222.134 165.836 222.134 164.447C222.098 162.556 219.865 156.246 216.976 149.192V149.163Z" fill="#333333"/>
<path d="M38.3513 276.296C24.4368 276.296 14.0437 270.239 8.05395 262.651C-1.56381 250.442 -1.13701 234.154 9.09252 223.021C9.89394 222.15 10.9564 221.571 12.1152 221.374C13.2739 221.178 14.464 221.375 15.5009 221.936C16.5379 222.496 17.3636 223.388 17.85 224.473C18.3364 225.559 18.4562 226.776 18.191 227.938C18.191 227.988 16.5904 235.945 20.503 239.807C23.6472 242.905 30.199 243.302 39.4468 240.963C47.9121 238.797 56.5766 229.685 65.7676 220.025C82.1789 202.697 102.61 181.218 133.22 189.702C133.895 189.891 134.527 190.214 135.08 190.652C135.632 191.089 136.094 191.633 136.44 192.252C136.785 192.871 137.007 193.552 137.093 194.258C137.179 194.964 137.127 195.68 136.94 196.366C136.753 197.051 136.435 197.693 136.004 198.253C135.573 198.814 135.038 199.283 134.428 199.634C133.818 199.984 133.146 200.21 132.451 200.297C131.755 200.384 131.05 200.331 130.374 200.142C105.882 193.326 89.3851 210.704 73.429 227.505C63.1568 238.335 53.4608 248.536 42.022 251.439C28.7691 254.796 19.002 253.467 12.998 247.482C12.6992 247.188 12.4147 246.885 12.1443 246.572C12.7814 249.978 14.2488 253.168 16.4126 255.85C24.0242 265.503 42.086 271.322 67.9444 255.951C99.6858 237.086 118.253 244.594 139.793 253.28C153.743 258.926 169.557 265.315 192.321 265.315C193.736 265.315 195.093 265.886 196.093 266.901C197.094 267.917 197.656 269.294 197.656 270.73C197.656 272.166 197.094 273.543 196.093 274.559C195.093 275.574 193.736 276.145 192.321 276.145C167.515 276.145 150.691 269.344 135.845 263.344C115.393 255.077 100.618 249.099 73.3721 265.293C60.0695 273.192 48.3105 276.296 38.3513 276.296Z" fill="#333333"/>
<path d="M35.7545 223.469C34.4628 223.464 33.2167 222.984 32.2475 222.117C31.2782 221.251 30.6516 220.057 30.4839 218.757C30.3162 217.457 30.6188 216.14 31.3356 215.049C32.0524 213.959 33.1346 213.169 34.3815 212.827C35.4628 212.524 58.618 205.665 66.8841 174.071C72.5751 152.411 82.3849 136.109 96.1286 125.698C105.978 118.082 117.985 113.893 130.367 113.756C131.782 113.756 133.139 114.327 134.14 115.342C135.14 116.358 135.702 117.735 135.702 119.171C135.702 120.607 135.14 121.985 134.14 123C133.139 124.016 131.782 124.586 130.367 124.586C121.119 124.586 89.8757 128.355 77.1919 176.872C67.2327 214.863 38.3439 222.992 37.1132 223.317C36.6687 223.427 36.212 223.478 35.7545 223.469Z" fill="#333333"/>
<path d="M192.968 300C154.124 300.084 116.799 284.693 89.0219 257.136C88.0254 256.13 87.4599 254.766 87.4482 253.34C87.4366 251.914 87.9796 250.541 88.9595 249.519C89.9394 248.497 91.277 247.909 92.6818 247.882C94.0866 247.854 95.4453 248.391 96.4628 249.374C122.251 274.961 156.904 289.251 192.968 289.17C269.262 289.17 331.329 226.177 331.329 148.744C331.369 124.866 325.41 101.371 314.014 80.4799C302.619 59.5889 286.164 41.9915 266.203 29.35C213.185 -2.25113 160.714 11.3943 129.243 34.7144C111.245 48.0494 99.6853 62.0486 89.4913 74.4234C74.6877 92.3575 61.8972 107.851 36.5012 111.533C35.1004 111.736 33.6775 111.366 32.5455 110.504C31.4135 109.643 30.6652 108.36 30.4653 106.938C30.2653 105.516 30.6299 104.072 31.4791 102.923C32.3282 101.774 33.5923 101.015 34.9931 100.812C56.3343 97.7146 66.8199 85.0293 81.3177 67.4635C91.9029 54.6411 103.904 40.1076 122.947 25.9856C157.164 0.629553 214.202 -14.2361 271.667 20.0725L271.78 20.1448C293.29 33.754 311.025 52.7038 323.312 75.2041C335.599 97.7045 342.03 123.012 342 148.737C342 232.148 275.145 300 192.968 300Z" fill="#333333"/>
<path d="M49.3199 132.42C43.6141 132.444 37.9234 131.821 32.3536 130.564C17.8914 127.229 6.90076 119.735 0.57666 108.905C-0.0354454 107.68 -0.165774 106.264 0.212116 104.945C0.590006 103.626 1.44788 102.501 2.61187 101.8C3.77586 101.099 5.15898 100.873 6.48104 101.168C7.8031 101.463 8.96522 102.257 9.73202 103.389C19.6912 120.428 46.4104 126.261 74.7301 117.569C76.0847 117.153 77.5465 117.301 78.7939 117.979C80.0412 118.658 80.972 119.811 81.3814 121.186C81.7908 122.561 81.6453 124.044 80.977 125.31C80.3086 126.576 79.1721 127.521 77.8175 127.936C68.5849 130.835 58.9838 132.346 49.3199 132.42Z" fill="#333333"/>
</svg>
