<svg width="263" height="301" viewBox="0 0 263 301" fill="none" xmlns="http://www.w3.org/2000/svg">
<g clip-path="url(#clip0_106_926)">
<path d="M0.0566298 145.914C2.30863 63.239 71.4196 -2.19699 154.088 0.057015C180.07 0.760015 205.424 8.20202 227.666 21.655C228.32 21.996 228.891 22.463 229.357 23.035C229.816 23.606 230.156 24.265 230.355 24.973C230.55 25.68 230.601 26.418 230.501 27.147C230.399 27.876 230.147 28.574 229.771 29.201C229.388 29.83 228.882 30.373 228.283 30.799C227.685 31.221 227.006 31.52 226.285 31.668C225.568 31.82 224.826 31.822 224.105 31.676C223.384 31.527 222.703 31.237 222.101 30.813C201.453 18.337 177.917 11.439 153.8 10.795C77.0386 8.70201 12.8886 69.452 10.7946 146.208C8.70263 222.962 69.4506 287.12 146.213 289.21C174.959 290.062 203.258 281.929 227.168 265.946C227.756 265.556 228.412 265.283 229.107 265.147C229.796 265.01 230.509 265.009 231.199 265.147C232.597 265.429 233.826 266.249 234.617 267.435C235.406 268.618 235.693 270.069 235.414 271.467C235.135 272.862 234.312 274.092 233.129 274.883C207.369 292.098 176.887 300.858 145.918 299.946C63.2316 297.694 -2.19937 228.595 0.0566298 145.914Z" fill="#333333"/>
<path d="M108.175 141.182C92.9119 141.182 80.0489 129.196 78.2559 113.3C78.0829 111.767 78.0479 92.6449 78.0479 92.4549C78.0479 89.6939 80.2869 87.4549 83.0479 87.4549C85.8089 87.4549 88.0479 89.6939 88.0479 92.4549C88.0479 94.5839 88.1109 110.442 88.2039 112.269C89.4639 123.058 98.0349 131.182 108.176 131.182C118.014 131.182 126.333 123.662 128.009 113.28C128.183 110.445 128.307 82.9569 128.307 79.3879C128.307 76.6269 130.546 74.3879 133.307 74.3879C136.069 74.3879 138.307 76.6269 138.307 79.3879C138.307 79.7159 138.235 112.609 137.913 114.67C135.53 130.031 123.024 141.182 108.175 141.182Z" fill="#333333"/>
<path d="M207.243 139.758C194.791 139.758 184.302 130.001 182.846 117.063C182.699 115.768 182.675 91.793 182.675 91.553C182.675 88.792 184.913 86.553 187.675 86.553C190.437 86.553 192.675 88.792 192.675 91.553C192.675 93.375 192.724 113.912 192.799 116.076C193.741 123.889 199.929 129.758 207.243 129.758C214.342 129.758 220.351 124.315 221.587 116.794C221.717 114.497 221.801 96.282 221.801 93.711C221.801 90.95 224.039 88.711 226.801 88.711C229.563 88.711 231.801 90.95 231.801 93.711C231.801 93.936 231.763 116.44 231.492 118.178C229.554 130.68 219.355 139.758 207.243 139.758Z" fill="#333333"/>
<path d="M156.949 196.85C140.636 196.85 126.992 184.115 125.886 167.857C125.814 166.813 125.812 162.05 125.812 161.51C125.812 158.748 128.051 156.51 130.812 156.51C133.574 156.51 135.812 158.748 135.812 161.51C135.812 164.316 135.839 166.754 135.864 167.188C136.614 178.209 145.876 186.85 156.949 186.85C168.031 186.85 177.294 178.202 178.037 167.162C178.08 166.51 178.498 158.752 178.515 157.955C178.515 155.193 180.754 152.982 183.515 152.982C186.277 152.982 188.515 155.247 188.515 158.008C188.515 158.891 188.02 167.752 188.015 167.827C186.92 184.104 173.274 196.85 156.949 196.85Z" fill="#333333"/>
<path d="M101.372 97.965C90.6444 97.965 81.6795 96.119 80.8554 95.944C78.1544 95.37 76.4294 92.715 77.0024 90.014C77.5764 87.314 80.2284 85.592 82.9294 86.161C93.5514 88.403 122.491 91.186 128.749 77.329C129.886 74.812 132.848 73.695 135.363 74.83C137.88 75.966 138.999 78.928 137.862 81.445C131.773 94.929 115.125 97.965 101.372 97.965Z" fill="#333333"/>
<path d="M81.7342 117.928C81.4782 117.928 81.2182 117.908 80.9572 117.868C68.9792 116 60.2842 105.833 60.2842 93.6941C60.2842 80.2031 71.2612 69.2271 84.7532 69.2271C87.5142 69.2271 89.7532 71.4661 89.7532 74.2271C89.7532 76.9881 87.5142 79.2271 84.7532 79.2271C76.7752 79.2271 70.2842 85.7171 70.2842 93.6941C70.2842 100.757 75.5352 106.902 82.4982 107.987C85.2272 108.413 87.0932 110.969 86.6682 113.698C86.2832 116.166 84.1552 117.928 81.7342 117.928Z" fill="#333333"/>
<path d="M134.209 117.159C132.079 117.159 130.105 115.787 129.438 113.646C128.616 111.01 130.087 108.207 132.723 107.384C142.661 104.285 143.056 98.7379 143.052 85.3739V84.7479C143.052 79.6709 141.732 75.8639 139.127 73.4339C135.08 69.6579 129.02 69.9599 128.96 69.9679C127.584 70.0609 126.217 69.5809 125.204 68.6349C124.191 67.6889 123.616 66.3649 123.616 64.9799C123.595 64.5679 122.782 62.3739 119.421 60.0939C116.414 58.0529 107.904 53.8259 93.8731 58.6049C83.0871 62.2789 84.0161 73.1989 84.1581 74.4319C84.4711 77.1619 82.5241 79.6509 79.7951 79.9819C77.0781 80.3139 74.5851 78.3979 74.2351 75.6719C73.3451 68.7319 75.6301 54.2549 90.6491 49.1389C109.398 42.7529 121.332 49.1569 125.592 52.2049C128.817 54.5139 131.208 57.3079 132.507 60.1769C136.178 60.6349 141.567 62.0309 145.95 66.1219C150.662 70.5199 153.052 76.7869 153.052 84.7469V85.3699C153.056 98.2239 153.06 111.516 135.699 116.93C135.204 117.085 134.702 117.159 134.209 117.159Z" fill="#333333"/>
<path d="M234.647 143.168C228.064 143.168 220.397 140.53 215.714 134.099L215.182 133.369C214.535 132.48 214.222 131.449 214.223 130.427C214.223 128.884 214.936 127.362 216.279 126.384C218.51 124.757 221.638 125.249 223.264 127.48L223.797 128.211C226.705 132.206 232.438 133.653 236.591 133.029C239 132.664 240.143 131.746 240.322 131.217C244.436 119.146 247.154 89.654 235.185 72.928C229.254 64.642 220.639 60.614 208.846 60.614C208.694 60.614 208.541 60.607 208.39 60.593C207.927 60.556 196.312 59.749 187.117 69.32C177.317 79.517 173.701 98.306 176.648 123.679C177.398 125.545 180.71 132.917 185.955 132.179L190.483 129.725C192.914 128.411 195.947 129.313 197.261 131.74C198.576 134.168 197.674 137.203 195.246 138.518L190.055 141.331C189.676 141.536 189.272 141.692 188.853 141.793C176.735 144.735 169.272 133.07 167.023 126.49C166.91 126.158 166.832 125.815 166.79 125.467C163.282 96.168 167.75 74.889 180.07 62.221C191.924 50.033 206.769 50.47 209.029 50.615C223.981 50.659 235.515 56.208 243.317 67.109C258.228 87.944 254.004 122.074 249.787 134.445C248.255 138.935 243.99 142.021 238.087 142.915C236.993 143.082 235.837 143.168 234.647 143.168Z" fill="#333333"/>
<path d="M201.999 99.5891C195.102 99.5891 186.479 96.9071 183.05 93.4781C181.097 91.5251 181.097 88.3591 183.05 86.4071C184.994 84.4601 188.149 84.4541 190.103 86.3901C191.533 87.6431 198.747 90.1721 203.682 89.4851C205.111 89.2871 205.663 88.8811 205.745 88.7551C209.825 82.3811 215.588 84.7491 218.355 85.8841C221.503 87.1771 225.423 88.7851 232.732 86.7381C235.394 85.9961 238.151 87.5461 238.895 90.2051C239.64 92.8641 238.088 95.6231 235.429 96.3681C224.8 99.3441 218.388 96.7081 214.556 95.1351C214.296 95.0291 213.998 94.9061 213.715 94.7941C212.238 96.7471 209.49 98.9191 204.457 99.4641C203.673 99.5481 202.849 99.5891 201.999 99.5891Z" fill="#333333"/>
<path d="M194.463 166.51C194.383 166.51 194.302 166.508 194.221 166.504C191.462 166.372 189.333 164.029 189.465 161.272L190.806 133.181C190.938 130.423 193.278 128.293 196.038 128.425C198.797 128.556 200.926 130.899 200.794 133.657L199.453 161.748C199.325 164.425 197.114 166.51 194.463 166.51Z" fill="#333333"/>
<path d="M220.506 164.866C217.847 164.866 215.634 162.771 215.515 160.088L214.342 133.641C214.22 130.882 216.357 128.547 219.115 128.424C221.837 128.299 224.21 130.438 224.332 133.197L225.505 159.644C225.627 162.403 223.49 164.739 220.732 164.861C220.656 164.864 220.581 164.866 220.506 164.866Z" fill="#333333"/>
<path d="M110.313 177.495C110.31 177.495 110.306 177.495 110.303 177.495C108.483 177.491 106.808 176.499 105.931 174.903L93.3645 152.036C92.9205 151.228 92.7085 150.313 92.7515 149.393L93.4805 133.888C93.6105 131.13 95.9535 129.016 98.7095 129.128C101.468 129.258 103.599 131.599 103.47 134.357L102.807 148.454L110.334 162.15L116.664 150.742L115.626 134.44C115.45 131.684 117.543 129.308 120.298 129.132C123.057 128.956 125.43 131.048 125.606 133.804L126.737 151.569C126.798 152.523 126.584 153.475 126.119 154.312L114.685 174.919C113.804 176.51 112.13 177.495 110.313 177.495Z" fill="#333333"/>
<path d="M254.576 234.914C254.43 234.914 254.284 234.908 254.137 234.895C251.386 234.655 249.35 232.231 249.589 229.48C249.789 227.185 250.14 224.527 250.511 221.712C252.324 207.974 255.062 187.212 244.724 172.571C237.117 161.8 222.358 162.979 222.208 162.987C219.46 163.234 217.03 161.199 216.786 158.448C216.542 155.697 218.574 153.27 221.325 153.026C222.165 152.952 242.002 151.382 252.891 166.803C265.487 184.64 262.441 207.736 260.424 223.019C260.053 225.838 259.732 228.273 259.551 230.346C259.324 232.951 257.141 234.914 254.576 234.914Z" fill="#333333"/>
<path d="M62.6867 234.753C60.1247 234.753 57.9427 232.795 57.7118 230.195C56.7338 219.176 55.0938 198.057 55.0938 180.412C55.0938 151.531 91.3907 143.785 92.9357 143.469C95.6417 142.92 98.2827 144.662 98.8347 147.367C99.3867 150.07 97.6457 152.708 94.9437 153.265C94.6457 153.327 65.0928 159.701 65.0928 180.411C65.0928 197.672 66.7087 218.457 67.6717 229.309C67.9157 232.06 65.8837 234.488 63.1327 234.732C62.9837 234.747 62.8337 234.753 62.6867 234.753Z" fill="#333333"/>
<path d="M82.1095 235.281C82.0615 235.281 82.0135 235.28 81.9645 235.279C79.2045 235.201 77.0295 232.899 77.1085 230.138L78.0475 197.106C78.1265 194.346 80.4365 192.206 83.1875 192.251C85.9475 192.329 88.1225 194.631 88.0435 197.392L87.1045 230.424C87.0275 233.135 84.8055 235.281 82.1095 235.281Z" fill="#333333"/>
<path d="M128.456 164.867C127.521 164.867 126.577 164.605 125.735 164.057C121.433 161.259 118.864 156.53 118.864 151.406C118.864 144.125 124.051 138.033 130.925 136.631C130.925 136.602 130.925 136.572 130.925 136.543C130.925 128.229 137.691 121.465 146.006 121.465C151.131 121.465 155.687 124.006 158.415 127.954C159.787 127.494 161.24 127.253 162.729 127.253C168.139 127.253 172.82 130.434 175 135.023C176.104 134.763 177.245 134.628 178.397 134.628C186.613 134.628 193.297 141.312 193.297 149.527C193.297 154.791 190.607 159.56 186.101 162.286C183.738 163.715 180.664 162.958 179.235 160.596C177.806 158.234 178.563 155.159 180.925 153.73C182.41 152.832 183.297 151.26 183.297 149.528C183.297 146.826 181.099 144.629 178.397 144.629C176.994 144.629 175.7 145.21 174.753 146.264C173.218 147.974 170.715 148.417 168.685 147.339C166.656 146.26 165.623 143.936 166.183 141.707C166.264 141.383 166.304 141.096 166.304 140.83C166.304 138.859 164.7 137.255 162.728 137.255C161.643 137.255 160.624 137.751 159.933 138.616C158.665 140.202 156.567 140.862 154.619 140.292C152.672 139.72 151.264 138.029 151.054 136.01C150.785 133.42 148.615 131.467 146.005 131.467C143.203 131.467 140.924 133.745 140.924 136.545C140.924 137.515 141.206 138.465 141.738 139.293C142.909 141.111 142.779 143.475 141.416 145.153C140.052 146.831 137.766 147.445 135.745 146.669C135.157 146.444 134.552 146.33 133.944 146.33C131.142 146.33 128.863 148.608 128.863 151.409C128.863 153.136 129.731 154.731 131.186 155.678C133.501 157.183 134.157 160.281 132.651 162.595C131.694 164.065 130.092 164.866 128.456 164.867Z" fill="#333333"/>
<path d="M169.619 166.49C161.664 166.49 155.584 163.365 151.534 159.793C144.225 166.273 132.362 165.833 131.742 165.806C128.983 165.681 126.848 163.343 126.974 160.584C127.099 157.829 129.418 155.673 132.182 155.815C132.323 155.815 144.142 156.105 146.584 149.926C147.29 148.14 148.957 146.917 150.873 146.778C152.774 146.638 154.614 147.611 155.57 149.277C156.277 150.451 163.168 160.944 179.68 154.346C182.242 153.325 185.154 154.571 186.178 157.135C187.202 159.699 185.953 162.609 183.389 163.633C178.316 165.66 173.719 166.49 169.619 166.49Z" fill="#333333"/>
<path d="M157.164 220.931C149.261 220.931 144.588 214.534 143.072 210.754C142.836 210.162 142.714 209.531 142.714 208.894V193.984C142.714 191.222 144.952 188.984 147.714 188.984C150.476 188.984 152.714 191.222 152.714 193.984V207.72C153.364 208.838 154.886 210.931 157.164 210.931C159.69 210.931 161.694 209.574 162.819 208.583V190.128C162.819 187.366 165.057 185.128 167.819 185.128C170.581 185.128 172.819 187.366 172.819 190.128V210.569C172.819 211.651 172.468 212.704 171.819 213.569C169.769 216.304 164.374 220.931 157.164 220.931Z" fill="#333333"/>
<path d="M115.941 234.666C115.561 234.666 115.175 234.623 114.789 234.531C112.101 233.897 110.436 231.205 111.07 228.517C112.872 220.874 119.507 202.613 142.136 198.125C144.844 197.584 147.476 199.348 148.013 202.057C148.55 204.766 146.79 207.397 144.081 207.934C127.757 211.171 122.49 223.658 120.803 230.812C120.26 233.114 118.207 234.666 115.941 234.666Z" fill="#333333"/>
<path d="M199.447 235.031C197.075 235.031 194.969 233.336 194.533 230.919C190.451 208.331 171.465 208.032 170.659 208.03C167.909 208.024 165.665 205.8 165.653 203.051C165.642 200.301 167.837 198.059 170.587 198.03C170.66 198.029 170.736 198.029 170.811 198.029C180.608 198.029 199.92 204.493 204.374 229.141C204.865 231.858 203.061 234.459 200.343 234.95C200.042 235.005 199.742 235.031 199.447 235.031Z" fill="#333333"/>
<path d="M208.267 169.673C197.181 169.673 187.45 164.956 185.895 163.4C183.944 161.446 183.946 158.281 185.9 156.329C187.667 154.564 190.426 154.397 192.382 155.828C193.588 156.453 209.556 164.267 220.978 155.844C223.199 154.204 226.33 154.677 227.969 156.9C229.609 159.122 229.136 162.253 226.913 163.891C221.068 168.202 214.456 169.673 208.267 169.673Z" fill="#333333"/>
</g>
<defs>
<clipPath id="clip0_106_926">
<rect width="262.275" height="300.012" fill="white"/>
</clipPath>
</defs>
</svg>
