<svg width="300" height="296" viewBox="0 0 300 296" fill="none" xmlns="http://www.w3.org/2000/svg">
<path d="M156.048 296C134.509 296.002 113.298 290.719 94.2661 280.612C75.2344 270.505 58.9614 255.882 46.8685 238.019C46.1645 236.98 45.9011 235.704 46.1361 234.471C46.3711 233.237 47.0853 232.148 48.1216 231.443C49.1579 230.737 50.4314 230.473 51.6619 230.709C52.8925 230.944 53.9792 231.66 54.6832 232.698C65.9121 249.286 81.0232 262.865 98.6962 272.249C116.369 281.634 136.066 286.538 156.066 286.533C223.603 286.533 278.545 231.468 278.545 163.78C278.565 149.384 276.05 135.097 271.115 121.578C270.901 120.994 270.805 120.373 270.83 119.752C270.856 119.131 271.004 118.521 271.265 117.957C271.526 117.393 271.895 116.886 272.352 116.465C272.809 116.044 273.344 115.717 273.926 115.503C274.509 115.289 275.128 115.193 275.747 115.218C276.367 115.244 276.976 115.392 277.539 115.654C278.102 115.916 278.608 116.286 279.028 116.743C279.448 117.201 279.774 117.737 279.987 118.321C285.302 132.878 288.011 148.261 287.991 163.762C287.972 236.687 228.792 296 156.048 296Z" fill="#333333"/>
<path d="M16.7497 225.428C14.522 225.424 12.3498 224.731 10.5289 223.445C8.70804 222.158 7.32691 220.341 6.57356 218.24L0.641738 201.679C-0.271014 199.148 -0.208196 196.366 0.817999 193.879L19.7471 147.807C20.2193 146.673 20.4624 145.457 20.4624 144.229C20.4624 143 20.2193 141.784 19.7471 140.65C17.8208 135.956 17.0179 130.875 17.4028 125.814C17.7877 120.753 19.3497 115.853 21.9637 111.505L28.5378 100.618V81.8428C28.5328 76.3077 30.187 70.8987 33.2859 66.3172L76.5784 2.09466C77.192 1.1846 78.1023 0.516773 79.1533 0.205546C80.2043 -0.105681 81.3306 -0.0408695 82.3392 0.388826C83.3478 0.818522 84.1759 1.58631 84.6816 2.56076C85.1873 3.5352 85.3391 4.65558 85.111 5.72991L74.406 56.2193C74.2854 56.8355 74.0436 57.4215 73.6949 57.9431C73.3461 58.4647 72.8973 58.9116 72.3745 59.2577C71.8518 59.6038 71.2655 59.8422 70.6499 59.959C70.0343 60.0758 69.4017 60.0688 68.7889 59.9381C68.1761 59.8075 67.5954 59.556 67.0805 59.1982C66.5656 58.8405 66.1269 58.3836 65.79 57.8542C65.453 57.3248 65.2244 56.7336 65.1177 56.1148C65.0109 55.4961 65.0281 54.8623 65.1681 54.2502L70.8355 27.5287L41.1132 71.6186C39.0635 74.6327 37.9664 78.1952 37.9647 81.8428V101.925C37.9652 102.79 37.73 103.639 37.2845 104.38L30.0239 116.371C28.1751 119.447 27.0704 122.914 26.7981 126.494C26.5259 130.074 27.0936 133.669 28.456 136.99C29.4022 139.269 29.8893 141.713 29.8893 144.181C29.8893 146.65 29.4022 149.094 28.456 151.373L9.52694 197.445C9.40415 197.763 9.40415 198.117 9.52694 198.435L15.4588 214.996C15.5202 215.169 15.6154 215.327 15.7386 215.463C15.8619 215.598 16.0108 215.708 16.1766 215.785C16.4739 215.925 16.8119 215.952 17.1275 215.861L32.524 208.672C32.9543 208.47 33.413 208.336 33.8841 208.275L46.6043 206.552L39.0477 200.177C38.3615 199.599 37.8536 198.838 37.5833 197.981C37.313 197.124 37.2915 196.208 37.5213 195.34C37.7511 194.472 38.2227 193.687 38.8811 193.077C39.5394 192.467 40.3573 192.058 41.2391 191.897L52.8888 189.776L49.375 186.419C48.5241 185.607 48.0061 184.507 47.9223 183.332C47.8384 182.158 48.1947 180.995 48.9215 180.07C60.6719 165.074 66.8683 164.443 76.8051 164.645C77.7623 164.645 78.7699 164.683 79.8404 164.683H82.9071C85.2709 164.685 87.5761 163.945 89.5001 162.569L111.653 146.709L93.4421 143.137C92.5639 142.964 91.7528 142.544 91.1033 141.927C90.4539 141.31 89.9928 140.521 89.7737 139.651C89.5546 138.781 89.5866 137.867 89.8659 137.015C90.1452 136.163 90.6604 135.408 91.3514 134.838L102.271 125.844L96.6976 124.071C95.8144 123.787 95.0338 123.25 94.4529 122.525C93.872 121.801 93.5165 120.921 93.4306 119.996C93.3447 119.07 93.5322 118.14 93.9698 117.32C94.4074 116.501 95.0757 115.828 95.8917 115.387L131.086 96.4531L87.8566 94.6481C87.068 94.6158 86.3 94.3857 85.6232 93.9788C84.9464 93.572 84.3822 93.0014 83.9824 92.3194C83.5827 91.6374 83.36 90.8657 83.335 90.0751C83.3099 89.2845 83.4832 88.5002 83.839 87.7942L110.545 34.6478L55.6721 96.2448C55.2586 96.7085 54.758 97.0861 54.199 97.3559C53.6399 97.6257 53.0333 97.7826 52.4138 97.8175C51.7942 97.8523 51.1739 97.7645 50.5882 97.5591C50.0025 97.3537 49.4629 97.0347 49.0003 96.6203C48.5376 96.2059 48.1609 95.7043 47.8917 95.144C47.6224 94.5837 47.466 93.9757 47.4312 93.3548C47.3964 92.7339 47.4839 92.1122 47.6889 91.5252C47.8938 90.9382 48.2121 90.3974 48.6256 89.9336L127.339 1.57718C128.103 0.722066 129.15 0.173971 130.287 0.0349009C131.423 -0.104169 132.571 0.175285 133.517 0.821179C134.464 1.46707 135.144 2.43542 135.431 3.54619C135.718 4.65695 135.593 5.83447 135.079 6.85963L95.5516 85.5158L148.693 87.7374C149.727 87.7816 150.717 88.1648 151.513 88.8283C152.308 89.4917 152.864 90.3986 153.095 91.4095C153.326 92.4204 153.22 93.4794 152.792 94.4237C152.364 95.3679 151.638 96.1453 150.727 96.6361L110.173 118.479L113.404 119.508C114.221 119.763 114.954 120.235 115.524 120.875C116.094 121.515 116.48 122.298 116.64 123.141C116.801 123.983 116.73 124.854 116.435 125.659C116.14 126.464 115.632 127.174 114.966 127.712L105.079 135.854L124.21 139.603C125.115 139.78 125.948 140.22 126.607 140.867C127.266 141.514 127.721 142.341 127.916 143.244C128.112 144.147 128.039 145.088 127.707 145.951C127.375 146.813 126.799 147.56 126.048 148.097L94.9785 170.344C91.457 172.878 87.2292 174.236 82.8944 174.226H79.8278C78.6943 174.226 77.6238 174.226 76.61 174.188C69.5194 174.043 66.4086 173.986 59.041 182.664L66.1127 189.417C66.7438 190.019 67.1964 190.785 67.4201 191.629C67.6439 192.473 67.6301 193.363 67.3805 194.2C67.1308 195.037 66.6549 195.789 66.0055 196.371C65.3561 196.954 64.5584 197.345 63.7009 197.501L52.8069 199.483L60.8546 206.261C61.5541 206.851 62.0677 207.632 62.333 208.509C62.5984 209.386 62.6041 210.321 62.3494 211.201C62.0947 212.081 61.5905 212.868 60.8982 213.467C60.2058 214.066 59.3551 214.45 58.4491 214.573L35.8614 217.634L20.9247 224.589C20.8113 224.639 20.7043 224.69 20.5909 224.728C19.3635 225.193 18.0619 225.43 16.7497 225.428Z" fill="#333333"/>
<path d="M75.4447 243.617C74.5323 243.617 73.6396 243.352 72.8743 242.854C72.109 242.357 71.5039 241.647 71.1323 240.812C70.7606 239.977 70.6383 239.052 70.78 238.149C70.9217 237.245 71.3215 236.403 71.931 235.722C96.836 207.991 116.344 206.394 135.217 204.848C147.609 203.832 160.405 202.784 175.82 194.346C195.222 183.712 208.395 159.104 196.846 136.334C194.557 131.812 191.313 127.844 187.34 124.705C183.366 121.566 178.759 119.332 173.837 118.157C161.608 115.078 146.564 117.526 130.349 125.157C129.787 125.429 129.177 125.587 128.553 125.621C127.93 125.655 127.306 125.566 126.718 125.357C126.129 125.148 125.588 124.824 125.125 124.405C124.662 123.985 124.287 123.477 124.021 122.911C123.755 122.345 123.604 121.732 123.576 121.107C123.548 120.482 123.644 119.858 123.858 119.27C124.072 118.683 124.401 118.143 124.824 117.684C125.248 117.224 125.758 116.853 126.325 116.592C168.667 96.5985 195.316 112.421 205.266 132.042C216.38 153.948 210.096 186.318 180.348 202.651C163.189 212.055 148.737 213.242 135.985 214.283C117.396 215.804 101.351 217.123 78.9522 242.052C78.5093 242.544 77.9683 242.938 77.3641 243.208C76.76 243.477 76.106 243.617 75.4447 243.617Z" fill="#333333"/>
<path d="M295.214 131.278C294.635 131.278 294.06 131.171 293.52 130.962L273.439 123.212C272.288 122.748 271.366 121.85 270.872 120.711C270.377 119.572 270.349 118.283 270.793 117.123C271.238 115.963 272.12 115.025 273.249 114.511C274.377 113.998 275.662 113.949 276.826 114.377L284.553 117.355C273.048 102.038 252.557 87.693 252.299 87.5226C251.474 86.946 250.854 86.1209 250.529 85.1671C250.204 84.2133 250.191 83.1805 250.491 82.2186C250.792 81.2568 251.39 80.416 252.2 79.8183C253.01 79.2207 253.989 78.8973 254.994 78.8952H266.707C259.802 74.8997 252.61 71.4253 245.19 68.5007C233.124 63.5969 222.634 60.4665 222.52 60.435C221.594 60.1717 220.77 59.6307 220.16 58.8845C219.549 58.1383 219.181 57.2227 219.105 56.2607C219.029 55.2988 219.248 54.3365 219.734 53.5032C220.219 52.6699 220.948 52.0055 221.821 51.5993L230.007 47.6738C205.915 40.9902 175.279 42.3345 174.92 42.3471C173.857 42.4083 172.805 42.1076 171.934 41.494C171.063 40.8804 170.424 39.9899 170.122 38.9668C169.819 37.9437 169.87 36.8481 170.267 35.8579C170.664 34.8676 171.383 34.0408 172.307 33.5115L179.316 29.3966C143.045 34.7358 113.379 50.9177 113.033 51.1133C111.938 51.7001 110.656 51.8313 109.466 51.4783C108.275 51.1253 107.271 50.3166 106.671 49.2273C106.071 48.138 105.923 46.8557 106.259 45.6578C106.595 44.4599 107.388 43.4428 108.467 42.8268C110.23 41.8485 152.238 18.8948 199.473 18.2511H199.542C200.585 18.2443 201.601 18.5836 202.431 19.2161C203.261 19.8486 203.859 20.7387 204.131 21.7475C204.404 22.7563 204.336 23.8272 203.937 24.793C203.539 25.7588 202.832 26.5654 201.929 27.0867L192.011 32.9246C206.891 33.4926 228.288 35.6257 244.277 42.65C245.104 43.0158 245.809 43.6115 246.308 44.3664C246.808 45.1214 247.081 46.004 247.096 46.9098C247.11 47.8157 246.866 48.7067 246.391 49.4774C245.915 50.2481 245.23 50.8662 244.415 51.2585L236.519 55.0452C240.089 56.3074 244.264 57.8663 248.685 59.6587C265.781 66.601 277.727 73.5433 284.2 80.3152C284.841 80.9851 285.271 81.829 285.437 82.7419C285.603 83.6548 285.498 84.5965 285.134 85.4499C284.77 86.3032 284.165 87.0307 283.392 87.5417C282.619 88.0527 281.713 88.3247 280.787 88.324H268.942C279.578 97.0965 294.616 111.278 299.697 124.847C299.966 125.562 300.058 126.331 299.965 127.089C299.872 127.848 299.597 128.572 299.164 129.2C298.731 129.829 298.152 130.343 297.477 130.698C296.802 131.053 296.052 131.239 295.289 131.24L295.214 131.278Z" fill="#333333"/>
<path d="M23.1789 205.75C21.9263 205.75 20.7251 205.251 19.8394 204.363C18.9537 203.476 18.4561 202.272 18.4561 201.016V194.705C18.4561 193.45 18.9537 192.246 19.8394 191.358C20.7251 190.47 21.9263 189.972 23.1789 189.972C24.4314 189.972 25.6327 190.47 26.5184 191.358C27.4041 192.246 27.9017 193.45 27.9017 194.705V201.016C27.9017 202.272 27.4041 203.476 26.5184 204.363C25.6327 205.251 24.4314 205.75 23.1789 205.75Z" fill="#333333"/>
<path d="M46.5223 140.732L44.8032 135.342C44.2063 133.46 44.0441 131.467 44.3288 129.513C44.6135 127.56 45.3378 125.696 46.4467 124.064L55.4578 111.473C55.7799 111.019 56.2479 110.69 56.7833 110.541C57.3188 110.391 57.8892 110.431 58.3991 110.653C58.9089 110.875 59.3272 111.265 59.5839 111.759C59.8406 112.253 59.9201 112.821 59.8091 113.367L56.8306 129.252C56.6549 130.924 56.1177 132.537 55.2563 133.979L50.8924 141.262C50.6525 141.662 50.3025 141.983 49.8844 142.188C49.4663 142.393 48.998 142.472 48.536 142.416C48.0741 142.36 47.6381 142.171 47.2808 141.872C46.9235 141.573 46.6601 141.177 46.5223 140.732Z" fill="#333333"/>
<path d="M108.819 266.337C107.912 266.337 107.024 266.075 106.262 265.582C105.499 265.089 104.895 264.387 104.52 263.559C104.145 262.73 104.017 261.812 104.149 260.912C104.282 260.013 104.67 259.17 105.268 258.486C119.285 242.437 140.229 230.812 169.303 222.954C200.234 214.592 212.079 193.342 216.386 181.421C222.797 163.686 220.618 146.526 215.127 138.732C202.665 120.959 184.851 113.178 162.162 115.601C151.165 116.89 140.473 120.08 130.563 125.03C129.462 125.629 128.168 125.766 126.966 125.409C125.765 125.052 124.754 124.231 124.156 123.127C123.558 122.023 123.422 120.727 123.778 119.522C124.134 118.318 124.953 117.305 126.055 116.706C136.949 111.189 148.729 107.641 160.852 106.223C186.979 103.332 208.414 112.698 222.854 133.292C230.989 144.898 231.972 166.015 225.24 184.646C220.303 198.297 206.796 222.62 171.715 232.093C144.499 239.452 125.072 250.124 112.327 264.722C111.89 265.225 111.351 265.629 110.746 265.907C110.142 266.186 109.485 266.333 108.819 266.337Z" fill="#333333"/>
<path d="M146.608 61.8555C145.528 61.856 144.48 61.485 143.639 60.8045C142.798 60.124 142.216 59.175 141.989 58.1161C141.762 57.0571 141.904 55.9522 142.392 54.9857C142.879 54.0192 143.683 53.2495 144.669 52.8053L157.263 47.1252C158.402 46.6289 159.691 46.6025 160.85 47.0518C162.008 47.5011 162.944 48.3898 163.453 49.5254C163.963 50.6611 164.005 51.9521 163.571 53.1189C163.137 54.2857 162.262 55.2342 161.136 55.7589L148.542 61.4389C147.934 61.7138 147.275 61.8559 146.608 61.8555Z" fill="#333333"/>
<path d="M166.759 77.6338C165.679 77.6343 164.63 77.2633 163.79 76.5828C162.949 75.9023 162.366 74.9534 162.139 73.8944C161.913 72.8354 162.055 71.7305 162.543 70.764C163.03 69.7975 163.834 69.0279 164.82 68.5836L177.414 62.9035C178.553 62.4072 179.842 62.3808 181.001 62.8301C182.159 63.2794 183.095 64.1681 183.604 65.3037C184.113 66.4394 184.156 67.7304 183.722 68.8972C183.288 70.064 182.413 71.0125 181.287 71.5372L168.692 77.2172C168.085 77.4922 167.426 77.6342 166.759 77.6338Z" fill="#333333"/>
<path d="M195.09 86.4688C193.91 86.4694 192.773 86.0275 191.902 85.2301C191.031 84.4327 190.49 83.3375 190.384 82.16C190.278 80.9825 190.616 79.8079 191.331 78.8673C192.045 77.9268 193.085 77.2884 194.246 77.0778L208.1 74.5533C208.71 74.4418 209.336 74.4519 209.943 74.583C210.549 74.714 211.124 74.9636 211.634 75.3172C212.144 75.6709 212.58 76.1219 212.916 76.6443C213.252 77.1668 213.483 77.7505 213.594 78.3621C213.705 78.9738 213.695 79.6013 213.564 80.2091C213.434 80.8168 213.185 81.3928 212.832 81.9041C212.479 82.4155 212.029 82.8521 211.508 83.1892C210.986 83.5262 210.404 83.7571 209.794 83.8686L195.94 86.3931C195.659 86.4428 195.375 86.4681 195.09 86.4688Z" fill="#333333"/>
<path d="M229.73 104.771C229.519 104.771 229.309 104.756 229.1 104.727L215.247 102.834C214.619 102.767 214.01 102.575 213.458 102.268C212.905 101.962 212.42 101.548 212.03 101.05C211.64 100.552 211.353 99.9813 211.187 99.3707C211.021 98.7601 210.979 98.1224 211.063 97.4951C211.147 96.8679 211.356 96.2639 211.677 95.719C211.999 95.1741 212.426 94.6993 212.933 94.3227C213.44 93.946 214.018 93.6752 214.632 93.5261C215.246 93.3771 215.883 93.353 216.506 93.4551L230.36 95.3485C231.544 95.5118 232.623 96.1192 233.378 97.0481C234.133 97.9771 234.508 99.1585 234.428 100.354C234.348 101.55 233.819 102.67 232.947 103.49C232.075 104.31 230.925 104.768 229.73 104.771Z" fill="#333333"/>
<path d="M250.51 107.927C250.313 107.927 250.115 107.914 249.919 107.889L244.881 107.258C244.254 107.195 243.647 107.007 243.094 106.704C242.542 106.402 242.055 105.992 241.662 105.499C241.27 105.005 240.98 104.438 240.809 103.831C240.639 103.223 240.591 102.588 240.669 101.962C240.747 101.336 240.95 100.731 241.264 100.185C241.579 99.638 241.999 99.1599 242.5 98.7784C243.002 98.3969 243.575 98.1198 244.184 97.9633C244.794 97.8068 245.429 97.7741 246.052 97.8672L251.09 98.4983C252.28 98.65 253.367 99.2498 254.132 100.176C254.897 101.102 255.282 102.285 255.208 103.485C255.134 104.685 254.608 105.811 253.735 106.636C252.863 107.462 251.71 107.923 250.51 107.927Z" fill="#333333"/>
<path d="M246.726 131.076C245.979 131.075 245.243 130.895 244.579 130.553L235.133 125.712C234.018 125.14 233.174 124.148 232.789 122.953C232.403 121.758 232.507 120.459 233.077 119.341C233.648 118.223 234.638 117.377 235.83 116.991C237.022 116.605 238.319 116.709 239.434 117.28L248.88 122.127C249.825 122.611 250.58 123.399 251.023 124.365C251.467 125.331 251.573 126.419 251.324 127.453C251.075 128.487 250.486 129.406 249.652 130.064C248.818 130.721 247.787 131.078 246.726 131.076Z" fill="#333333"/>
<path d="M263.363 141.206C262.442 141.206 261.542 140.933 260.775 140.423L256.53 137.633C255.483 136.944 254.752 135.866 254.498 134.636C254.245 133.406 254.488 132.126 255.176 131.076C255.865 130.027 256.94 129.294 258.167 129.04C259.394 128.785 260.672 129.03 261.719 129.719L265.963 132.515C266.814 133.075 267.461 133.894 267.81 134.852C268.158 135.81 268.188 136.855 267.896 137.832C267.603 138.809 267.004 139.665 266.187 140.272C265.371 140.88 264.38 141.208 263.363 141.206Z" fill="#333333"/>
<path d="M263.13 163.649C262.15 163.649 261.195 163.342 260.397 162.771L252.211 156.908C251.688 156.556 251.24 156.101 250.894 155.573C250.549 155.044 250.313 154.451 250.2 153.829C250.087 153.207 250.099 152.569 250.236 151.952C250.373 151.335 250.631 150.752 250.997 150.237C251.362 149.722 251.827 149.285 252.364 148.953C252.9 148.621 253.498 148.4 254.121 148.303C254.744 148.206 255.38 148.235 255.992 148.388C256.604 148.542 257.179 148.816 257.683 149.196L265.907 155.059C266.723 155.641 267.334 156.469 267.65 157.421C267.966 158.374 267.972 159.403 267.666 160.359C267.36 161.315 266.759 162.149 265.949 162.741C265.14 163.332 264.163 163.65 263.162 163.649H263.13Z" fill="#333333"/>
<path d="M261.241 184.475C260.329 184.476 259.436 184.211 258.672 183.712L255.485 181.635C254.436 180.95 253.701 179.875 253.442 178.646C253.183 177.418 253.422 176.136 254.106 175.084C254.79 174.032 255.863 173.296 257.089 173.037C258.315 172.777 259.593 173.017 260.643 173.702L263.791 175.779C264.643 176.336 265.293 177.155 265.643 178.112C265.994 179.069 266.026 180.115 265.736 181.092C265.446 182.069 264.848 182.927 264.033 183.536C263.217 184.146 262.227 184.475 261.209 184.475H261.241Z" fill="#333333"/>
<path d="M233.502 83.3134H226.575C225.323 83.3134 224.122 82.8148 223.236 81.9271C222.35 81.0394 221.853 79.8354 221.853 78.5801C221.853 77.3247 222.35 76.1207 223.236 75.233C224.122 74.3453 225.323 73.8467 226.575 73.8467H233.502C234.755 73.8467 235.956 74.3453 236.842 75.233C237.727 76.1207 238.225 77.3247 238.225 78.5801C238.225 79.8354 237.727 81.0394 236.842 81.9271C235.956 82.8148 234.755 83.3134 233.502 83.3134Z" fill="#333333"/>
<path d="M194.46 65.6421C193.28 65.6427 192.143 65.2008 191.272 64.4034C190.401 63.606 189.86 62.5108 189.754 61.3333C189.648 60.1558 189.986 58.9812 190.701 58.0407C191.415 57.1001 192.455 56.4617 193.616 56.2511L200.543 54.9888C201.153 54.8774 201.78 54.8874 202.386 55.0185C202.992 55.1496 203.567 55.3991 204.077 55.7528C204.587 56.1065 205.023 56.5575 205.359 57.0799C205.696 57.6023 205.926 58.186 206.037 58.7977C206.148 59.4093 206.138 60.0369 206.008 60.6446C205.877 61.2524 205.628 61.8284 205.275 62.3397C204.922 62.851 204.472 63.2877 203.951 63.6247C203.43 63.9618 202.847 64.1927 202.237 64.3041L195.31 65.5664C195.03 65.6161 194.745 65.6414 194.46 65.6421Z" fill="#333333"/>
</svg>
