<svg width="289" height="300" viewBox="0 0 289 300" fill="none" xmlns="http://www.w3.org/2000/svg">
<g clip-path="url(#clip0_106_873)">
<path d="M30.907 58.665C81.229 -6.96801 175.587 -19.417 241.212 30.903C261.841 46.716 278.009 67.615 288.13 91.556C288.459 92.216 288.648 92.931 288.69 93.666C288.727 94.398 288.615 95.132 288.361 95.822C288.105 96.51 287.713 97.138 287.205 97.669C286.696 98.2 286.083 98.618 285.408 98.903C284.73 99.188 284.003 99.332 283.267 99.324C282.535 99.314 281.808 99.157 281.137 98.856C280.468 98.558 279.866 98.125 279.368 97.583C278.872 97.041 278.49 96.404 278.251 95.71C268.848 73.492 253.834 54.1 234.682 39.43C173.743 -7.29601 86.154 4.271 39.433 65.204C-7.28804 126.134 4.27096 213.728 65.21 260.453C87.992 278.007 115.679 288.022 144.418 289.105C145.122 289.133 145.815 289.297 146.456 289.594C147.097 289.888 147.674 290.306 148.151 290.823C149.118 291.871 149.632 293.256 149.577 294.68C149.522 296.102 148.904 297.445 147.858 298.413C146.812 299.379 145.424 299.892 144.002 299.839C113.043 298.668 83.218 287.881 58.673 268.976C-6.96703 218.643 -19.422 124.299 30.907 58.665Z" fill="#333333"/>
<path d="M96.7439 105.748H87.3169C82.2509 105.748 78.1289 101.625 78.1289 96.559V84.202C78.1289 79.135 82.2509 75.012 87.3169 75.012H96.7439C101.81 75.012 105.932 79.135 105.932 84.202V96.558C105.933 101.625 101.811 105.748 96.7439 105.748ZM88.1289 95.748H95.9329V85.011H88.1289V95.748Z" fill="#333333"/>
<path d="M97.2673 142.402H87.8413C82.7753 142.402 78.6533 138.28 78.6533 133.214V120.856C78.6533 115.789 82.7753 111.667 87.8413 111.667H97.2673C102.334 111.667 106.456 115.79 106.456 120.856V133.214C106.456 138.28 102.333 142.402 97.2673 142.402ZM88.6533 132.402H96.4563V121.666H88.6533V132.402Z" fill="#333333"/>
<path d="M96.7439 178.233H87.3169C82.2509 178.233 78.1289 174.111 78.1289 169.045V156.688C78.1289 151.621 82.2509 147.499 87.3169 147.499H96.7439C101.81 147.499 105.932 151.621 105.932 156.688V169.045C105.933 174.111 101.811 178.233 96.7439 178.233ZM88.1289 168.233H95.9329V157.498H88.1289V168.233Z" fill="#333333"/>
<path d="M97.2673 214.886H87.8413C82.7753 214.886 78.6533 210.764 78.6533 205.698V193.342C78.6533 188.275 82.7753 184.152 87.8413 184.152H97.2673C102.334 184.152 106.456 188.275 106.456 193.342V205.698C106.456 210.764 102.333 214.886 97.2673 214.886ZM88.6533 204.886H96.4563V194.151H88.6533V204.886Z" fill="#333333"/>
<path d="M67.666 242.133C64.905 242.133 62.666 239.895 62.666 237.133V53.177C62.666 50.416 64.905 48.177 67.666 48.177C70.427 48.177 72.666 50.416 72.666 53.177V237.133C72.666 239.895 70.427 242.133 67.666 242.133Z" fill="#333333"/>
<path d="M211.892 105.748H202.467C197.401 105.748 193.279 101.625 193.279 96.559V84.201C193.279 79.134 197.401 75.012 202.467 75.012H211.892C216.959 75.012 221.081 79.135 221.081 84.201V96.558C221.081 101.625 216.959 105.748 211.892 105.748ZM203.278 95.748H211.081V85.011H203.278V95.748Z" fill="#333333"/>
<path d="M231.545 110.015C228.783 110.015 226.545 107.776 226.545 105.015V52.248C226.545 49.487 228.783 47.248 231.545 47.248C234.307 47.248 236.545 49.487 236.545 52.248V105.016C236.545 107.776 234.307 110.015 231.545 110.015Z" fill="#333333"/>
<path d="M69.833 66.541C67.072 66.541 64.833 64.302 64.833 61.541C64.833 58.78 67.072 56.541 69.833 56.541L230.276 56.54C233.038 56.54 235.276 58.779 235.276 61.54C235.276 64.301 233.038 66.54 230.276 66.54L69.833 66.541Z" fill="#333333"/>
<path d="M69.833 232.869C67.072 232.869 64.833 230.631 64.833 227.869C64.833 225.107 67.071 222.869 69.833 222.869L114.201 222.868C116.962 222.868 119.201 225.106 119.201 227.868C119.201 230.63 116.963 232.868 114.201 232.868L69.833 232.869Z" fill="#333333"/>
<path d="M207.458 222.245C205.419 222.245 203.504 220.988 202.763 218.962L172.362 135.816C171.789 134.248 172.036 132.497 173.021 131.149C174.007 129.801 175.613 129.045 177.268 129.104C178.867 129.171 193.054 130.032 198.784 139.475C198.977 139.793 199.134 140.131 199.252 140.484L214.762 186.883C215.289 188.459 214.998 190.195 213.986 191.513L206.797 200.876L212.155 215.526C213.104 218.12 211.77 220.991 209.177 221.939C208.608 222.147 208.028 222.245 207.458 222.245ZM184.834 140.808L202.729 189.751L204.434 187.53L189.973 144.269C188.87 142.755 186.94 141.623 184.834 140.808Z" fill="#333333"/>
<path d="M214.985 254.799C206.632 254.799 198.667 248.442 195.616 239.34C193.832 234.029 193.871 228.412 195.726 223.526C197.714 218.293 201.513 214.503 206.421 212.855C208.107 212.29 209.868 212.002 211.655 212.002C220.009 212.002 227.973 218.357 231.025 227.457C234.829 238.783 229.981 250.666 220.218 253.945C218.534 254.511 216.772 254.799 214.985 254.799ZM211.656 222.002C210.953 222.002 210.262 222.113 209.604 222.335C207.587 223.012 205.979 224.695 205.075 227.077C204.038 229.806 204.046 233.031 205.096 236.157C206.776 241.166 210.934 244.799 214.986 244.799C215.688 244.799 216.379 244.687 217.036 244.466C221.496 242.968 223.561 236.636 221.547 230.639C219.868 225.633 215.709 222.002 211.656 222.002Z" fill="#333333"/>
<path d="M199.408 204.766C199.038 204.766 198.666 204.725 198.298 204.641L148.894 193.384C148.561 193.308 148.237 193.198 147.927 193.057C137.71 188.391 135.989 174.225 135.826 172.625C135.661 171.002 136.299 169.399 137.534 168.334C138.769 167.266 140.45 166.868 142.028 167.272L212.108 185.024L228.844 189.006C231.531 189.646 233.191 192.342 232.551 195.027C231.911 197.714 229.215 199.377 226.53 198.734L211.349 195.121L202.895 203.349C201.951 204.268 200.696 204.766 199.408 204.766ZM151.698 183.767L197.869 194.288L199.952 192.261L147.883 179.073C148.802 181.047 150.052 182.849 151.698 183.767Z" fill="#333333"/>
<path d="M245.763 216.633C245.762 216.633 245.763 216.633 245.763 216.633C244.039 216.633 242.298 216.45 240.586 216.091C228.888 213.633 221.093 203.434 223.209 193.356C224.985 184.898 233.156 178.991 243.079 178.991C244.805 178.991 246.549 179.174 248.264 179.535C259.957 181.991 267.751 192.191 265.635 202.271C263.859 210.727 255.688 216.633 245.763 216.633ZM243.079 188.991C237.936 188.991 233.79 191.631 232.996 195.411C232.029 200.015 236.446 205.004 242.642 206.305C243.679 206.524 244.729 206.634 245.762 206.634C250.907 206.634 255.054 203.995 255.847 200.217C256.814 195.612 252.399 190.622 246.204 189.321C245.164 189.101 244.113 188.991 243.079 188.991Z" fill="#333333"/>
<path d="M199.265 271.125C196.855 271.125 194.41 271.017 191.997 270.802C147.511 266.845 114.538 227.432 118.495 182.943C120.301 162.656 129.584 143.937 144.636 130.235C159.597 116.616 178.934 109.116 199.087 109.116C201.497 109.116 203.942 109.225 206.355 109.439C250.841 113.396 283.814 152.809 279.857 197.298C278.051 217.585 268.768 236.304 253.716 250.005C238.755 263.625 219.418 271.125 199.265 271.125ZM199.087 119.117C162.105 119.117 131.739 146.937 128.456 183.83C124.987 222.826 153.89 257.373 192.884 260.842C195.003 261.03 197.15 261.126 199.265 261.126C236.247 261.126 266.613 233.306 269.896 196.413C273.365 157.417 244.462 122.87 205.468 119.401C203.349 119.212 201.202 119.117 199.087 119.117Z" fill="#333333"/>
<path d="M145.103 248.626C143.726 248.626 142.356 248.061 141.368 246.952C139.531 244.889 139.714 241.729 141.775 239.892L255.166 138.872C257.229 137.034 260.389 137.218 262.226 139.279C264.063 141.341 263.88 144.502 261.819 146.339L148.427 247.36C147.474 248.208 146.285 248.626 145.103 248.626Z" fill="#333333"/>
</g>
<defs>
<clipPath id="clip0_106_873">
<rect width="288.696" height="299.843" fill="white"/>
</clipPath>
</defs>
</svg>
