<svg width="300" height="346" viewBox="0 0 300 346" fill="none" xmlns="http://www.w3.org/2000/svg">
<g clip-path="url(#clip0_106_287)">
<path d="M150 345.653C67.296 345.653 3.99769e-06 278.35 3.99769e-06 195.653C-0.005996 169.66 6.742 144.112 19.583 121.512C19.905 120.852 20.359 120.265 20.917 119.787C21.475 119.31 22.125 118.952 22.827 118.735C23.529 118.519 24.267 118.448 24.997 118.529C25.727 118.609 26.433 118.839 27.071 119.203C27.709 119.567 28.265 120.058 28.706 120.646C29.146 121.233 29.462 121.905 29.632 122.62C29.802 123.334 29.825 124.076 29.697 124.799C29.57 125.522 29.295 126.212 28.89 126.825C16.982 147.806 10.728 171.521 10.74 195.646C10.74 272.436 73.218 334.906 150 334.906C226.783 334.906 289.26 272.436 289.26 195.646C289.326 166.886 280.427 138.821 263.799 115.355C263.393 114.779 263.102 114.128 262.947 113.44C262.791 112.753 262.771 112.041 262.89 111.346C263.131 109.942 263.92 108.691 265.083 107.869C266.246 107.047 267.688 106.72 269.092 106.961C270.496 107.202 271.747 107.991 272.57 109.154C290.478 134.434 300.067 164.665 300 195.646C300 278.364 232.711 345.653 150 345.653Z" fill="#333333"/>
<path d="M70.3099 219.152C69.7659 219.148 69.2259 219.064 68.7059 218.901L36.5939 208.876C35.7769 208.62 35.0329 208.173 34.4239 207.571C33.8149 206.969 33.3579 206.23 33.0919 205.417C32.8259 204.604 32.7579 203.737 32.8939 202.893C33.0299 202.046 33.3659 201.247 33.8729 200.557L79.6179 138.553C80.0359 137.985 80.5629 137.506 81.1669 137.142C81.7709 136.778 82.4409 136.537 83.1389 136.431C83.8359 136.326 84.5479 136.36 85.2319 136.53C85.9169 136.699 86.5609 137.002 87.1279 137.421C87.6949 137.84 88.1749 138.367 88.5389 138.971C88.9029 139.575 89.1439 140.245 89.2489 140.942C89.3539 141.64 89.3199 142.351 89.1509 143.036C88.9809 143.72 88.6779 144.365 88.2589 144.932L46.9889 200.872L71.9129 208.661C73.1389 209.044 74.1879 209.853 74.8689 210.942C75.5499 212.032 75.8169 213.329 75.6229 214.599C75.4289 215.87 74.7859 217.027 73.8109 217.863C72.8359 218.7 71.5939 219.159 70.3089 219.158V219.152H70.3099Z" fill="#333333"/>
<path d="M121.954 261.567C115.088 261.567 106.245 259.591 95.6268 253.162C81.4638 244.569 75.9008 244.691 70.0158 244.799C66.1998 244.871 61.8818 244.949 55.8958 242.959C46.0158 239.666 42.6858 231.295 43.7738 224.908C44.2128 222.47 45.1558 220.15 46.5428 218.098C47.9298 216.044 49.7308 214.304 51.8288 212.987C58.3088 208.849 73.2588 204.703 88.1648 215.443C95.7048 220.871 99.7928 227.994 103.401 234.281C108.907 243.86 112.265 248.858 122.339 248.557C129.914 248.328 134.955 246.016 136.172 242.199C136.981 239.672 135.95 237.273 135.334 236.808C134.195 235.953 133.441 234.681 133.24 233.271C133.039 231.862 133.406 230.429 134.26 229.291C135.115 228.151 136.387 227.398 137.797 227.196C139.207 226.996 140.639 227.362 141.778 228.217C146.275 231.588 148.286 238.635 146.597 244.821C146.583 245.027 146.559 245.233 146.525 245.437C145.63 250.834 141.141 255.999 134.819 258.904C130.774 260.709 126.385 261.617 121.954 261.567ZM72.1648 234.037C77.4488 234.037 83.7428 234.66 94.3608 240.152L94.0598 239.623C90.8458 234.023 87.5228 228.23 81.8888 224.156C69.0578 214.92 58.0678 221.744 57.6098 222.009C56.7718 222.519 56.0498 223.198 55.4908 224.004C54.9308 224.809 54.5458 225.722 54.3598 226.685C54.3598 226.857 53.7078 230.881 59.2928 232.742C63.5238 234.175 66.3018 234.103 69.8108 234.038C70.5818 234.051 71.3628 234.037 72.1648 234.037Z" fill="#333333"/>
<path d="M76.031 220.605C75.184 220.607 74.349 220.408 73.594 220.025C72.839 219.641 72.185 219.086 71.686 218.4C71.187 217.716 70.858 216.923 70.725 216.086C70.592 215.25 70.658 214.395 70.919 213.588L76.576 196.068C77.037 194.744 77.999 193.651 79.255 193.026C80.511 192.401 81.963 192.293 83.297 192.724C84.632 193.156 85.746 194.092 86.399 195.333C87.052 196.575 87.193 198.023 86.792 199.368L81.136 216.889C80.787 217.968 80.105 218.909 79.188 219.577C78.27 220.244 77.165 220.604 76.031 220.605Z" fill="#333333"/>
<path d="M97.0232 288.373C96.6502 288.375 96.2782 288.336 95.9132 288.26L62.2332 281.15C59.6782 280.585 57.2742 279.482 55.1792 277.915C53.0852 276.346 51.3502 274.348 50.0902 272.055C48.8302 269.762 48.0742 267.227 47.8732 264.617C47.6722 262.01 48.0302 259.388 48.9232 256.929L54.5792 241.385C54.8202 240.722 55.1892 240.113 55.6642 239.593C56.1412 239.072 56.7142 238.651 57.3532 238.352C57.9922 238.054 58.6842 237.884 59.3882 237.853C60.0932 237.821 60.7962 237.929 61.4592 238.169C62.1222 238.41 62.7312 238.779 63.2512 239.255C63.7712 239.732 64.1932 240.306 64.4912 240.943C64.7892 241.583 64.9592 242.274 64.9912 242.978C65.0222 243.683 64.9142 244.387 64.6742 245.049L59.0182 260.601C58.6532 261.618 58.5082 262.701 58.5932 263.779C58.6772 264.856 58.9902 265.904 59.5102 266.851C60.0302 267.799 60.7452 268.625 61.6082 269.276C62.4712 269.926 63.4632 270.386 64.5172 270.626L98.1682 277.721C99.4682 277.993 100.62 278.739 101.403 279.812C102.186 280.885 102.543 282.21 102.406 283.531C102.269 284.852 101.647 286.075 100.661 286.965C99.6742 287.855 98.3932 288.347 97.0652 288.347L97.0232 288.373Z" fill="#333333"/>
<path d="M178.411 310.919C177.614 310.917 176.828 310.739 176.109 310.398C175.39 310.056 174.755 309.559 174.252 308.943C173.749 308.327 173.387 307.606 173.195 306.833C173.002 306.062 172.984 305.255 173.14 304.476L176.685 286.828C176.818 286.157 176.818 285.468 176.685 284.797C176.55 284.129 176.285 283.491 175.904 282.926C175.523 282.359 175.033 281.873 174.462 281.498C173.893 281.121 173.253 280.861 172.582 280.733L144.809 275.485C142.798 275.108 140.724 275.233 138.773 275.85L50.7069 303.853C49.3489 304.285 47.8749 304.16 46.6099 303.505C45.3449 302.85 44.3909 301.72 43.9589 300.361C43.5269 299.005 43.6519 297.53 44.3069 296.264C44.9609 294.998 46.0919 294.045 47.4499 293.613L135.552 265.618C139.196 264.448 143.074 264.202 146.836 264.902L174.603 270.15C176.671 270.54 178.642 271.337 180.4 272.495C182.159 273.651 183.67 275.146 184.845 276.891C186.023 278.637 186.84 280.599 187.252 282.662C187.664 284.726 187.662 286.852 187.247 288.916L183.674 306.623C183.425 307.834 182.767 308.924 181.808 309.707C180.848 310.491 179.648 310.917 178.411 310.919Z" fill="#333333"/>
<path d="M201.959 336.03C200.969 336.031 199.998 335.759 199.154 335.242C198.308 334.725 197.625 333.984 197.175 333.101L192.879 324.739C191.398 321.817 189.207 319.314 186.51 317.455C183.812 315.598 180.693 314.443 177.435 314.1L60.572 300.496C59.157 300.332 57.866 299.611 56.982 298.496C56.098 297.379 55.693 295.957 55.857 294.543C56.022 293.127 56.741 291.836 57.857 290.951C58.974 290.067 60.396 289.664 61.81 289.828L178.631 303.432C183.656 303.968 188.467 305.752 192.626 308.621C196.785 311.491 200.16 315.355 202.444 319.863L206.741 328.225C207.061 328.853 207.254 329.538 207.309 330.241C207.365 330.944 207.281 331.651 207.063 332.321C206.844 332.991 206.496 333.612 206.038 334.148C205.58 334.683 205.02 335.123 204.392 335.443C203.641 335.83 202.807 336.031 201.959 336.03Z" fill="#333333"/>
<path d="M171.503 277.314C171.066 277.314 170.624 277.257 170.184 277.136C167.52 276.408 165.95 273.659 166.677 270.996L173.88 244.612C174.417 242.645 176.094 241.201 178.118 240.963C178.271 240.944 194.558 238.856 210.282 227.751C231.082 213.062 241.265 190.109 240.55 159.532C239.817 128.157 218.084 96.47 186.473 80.682C166.607 70.76 126.88 59.324 79.3221 90.312L157.891 147.804C160.12 149.435 160.604 152.563 158.973 154.792C157.341 157.021 154.214 157.505 151.985 155.875L67.7131 94.209C66.4191 93.262 65.6571 91.751 65.6661 90.147C65.6751 88.543 66.4521 87.041 67.7571 86.107C107.459 57.705 152.359 52.465 190.941 71.736C225.776 89.133 249.729 124.322 250.548 159.298C251.547 202.029 232.136 224.694 215.676 236.183C202.275 245.537 188.814 249.1 182.687 250.324L176.324 273.63C175.717 275.853 173.701 277.314 171.503 277.314Z" fill="#333333"/>
<path d="M167.834 189.505C155.979 189.505 146.334 179.86 146.334 168.005C146.334 156.15 155.979 146.505 167.834 146.505C179.689 146.505 189.334 156.15 189.334 168.005C189.334 179.86 179.689 189.505 167.834 189.505ZM167.834 156.506C161.493 156.506 156.334 161.665 156.334 168.006C156.334 174.347 161.493 179.506 167.834 179.506C174.175 179.506 179.334 174.347 179.334 168.006C179.334 161.665 174.175 156.506 167.834 156.506Z" fill="#333333"/>
<path d="M247.388 111.885C245.596 111.885 243.864 110.919 242.966 109.225C230.892 86.4319 206.233 66.1039 178.345 72.0699C175.646 72.6489 172.989 70.9279 172.409 68.2269C171.832 65.5269 173.552 62.8689 176.253 62.2909C191.636 58.9989 207.295 62.0269 221.535 71.0479C233.688 78.7459 244.437 90.6419 251.802 104.543C253.095 106.983 252.165 110.009 249.725 111.302C248.979 111.697 248.178 111.885 247.388 111.885Z" fill="#333333"/>
<path d="M277.335 98.479C276.226 98.479 275.126 98.11 274.226 97.395L258.059 84.562C255.896 82.845 255.535 79.7 257.251 77.538C258.968 75.374 262.115 75.015 264.275 76.73L271.862 82.752C270.504 69.695 265.555 47.856 247.96 37.48C233.125 28.732 215.983 29.654 215.811 29.664C213.998 29.774 212.28 28.9 211.302 27.382C210.323 25.863 210.236 23.936 211.079 22.338C212.405 19.829 213.804 17.111 215.083 14.559C206.672 16.35 195.226 16.247 182.694 11.897C173.215 8.60703 162.137 9.72803 153.063 14.895C144.817 19.591 139.254 27.186 137.398 36.281C136.279 41.762 136.983 46.305 139.55 50.169C144.701 57.924 155.804 60.325 155.915 60.347C158.623 60.887 160.381 63.519 159.841 66.228C159.302 68.935 156.676 70.698 153.96 70.154C153.342 70.031 138.73 67.006 131.221 55.702C127.164 49.596 125.946 42.389 127.601 34.281C130.042 22.32 137.328 12.349 148.115 6.20603C159.657 -0.366971 173.81 -1.77297 185.974 2.45003C204.829 8.99503 218.486 3.81503 220.465 1.83603C223.235 -0.934972 226.239 -0.00497162 227.578 0.983028C231.092 3.57703 229.33 7.65303 228.164 10.35C227.413 12.088 226.309 14.431 224.881 17.313C224.448 18.187 224.014 19.055 223.591 19.892C231.064 20.532 242.405 22.594 253.04 28.865C284.161 47.218 282.418 91.824 282.328 93.715C282.239 95.589 281.109 97.256 279.401 98.031C278.74 98.332 278.035 98.479 277.335 98.479Z" fill="#333333"/>
<path d="M158.47 69.2809C156.695 69.2809 154.976 68.3339 154.07 66.6639C153.8 66.1659 147.502 54.3459 151.002 42.6839C152.896 36.3709 157.171 31.3979 163.708 27.9039C166.145 26.6039 169.173 27.5209 170.475 29.9569C171.777 32.3929 170.858 35.4219 168.423 36.7239C164.262 38.9479 161.696 41.8379 160.58 45.5579C158.3 53.1579 162.814 61.8119 162.861 61.8969C164.177 64.3239 163.277 67.3589 160.849 68.6759C160.091 69.0859 159.274 69.2809 158.47 69.2809Z" fill="#333333"/>
<path d="M173.376 71.6509C170.647 71.6509 168.415 69.4579 168.377 66.7199C168.371 66.2639 168.318 55.4639 176.533 47.1959C182.506 41.1849 191.072 38.1389 201.997 38.1389C202.143 38.1389 202.289 38.1389 202.435 38.1399C205.196 38.1609 207.418 40.4149 207.398 43.1769C207.377 45.9259 205.143 48.1399 202.399 48.1399C202.266 48.1359 202.13 48.1389 201.998 48.1389C193.832 48.1389 187.653 50.1919 183.627 54.2439C178.426 59.4779 178.376 66.5119 178.377 66.5819C178.414 69.3429 176.207 71.6119 173.446 71.6499C173.423 71.6509 173.398 71.6509 173.376 71.6509Z" fill="#333333"/>
<path d="M140.999 166.147C140.415 166.147 139.821 166.044 139.242 165.826L54.0638 133.826C52.6928 133.311 51.6178 132.222 51.1198 130.845C50.6218 129.468 50.7528 127.943 51.4768 126.671L64.1548 104.409C65.5228 102.009 68.5758 101.172 70.9738 102.538C73.3738 103.904 74.2108 106.957 72.8448 109.357L63.0678 126.525L142.759 156.463C145.344 157.434 146.653 160.317 145.681 162.902C144.927 164.91 143.022 166.147 140.999 166.147Z" fill="#333333"/>
<path d="M76.7209 140.205C75.9369 140.205 75.1409 140.02 74.3989 139.63C71.9549 138.345 71.0149 135.321 72.2999 132.878L80.7999 116.711C82.0859 114.266 85.1099 113.328 87.5519 114.612C89.9959 115.897 90.9359 118.921 89.6509 121.364L81.1509 137.531C80.2559 139.233 78.5189 140.205 76.7209 140.205Z" fill="#333333"/>
<path d="M95.236 147.833C94.452 147.833 93.656 147.648 92.914 147.258C90.47 145.973 89.53 142.949 90.815 140.506L97.674 127.461C98.96 125.018 101.984 124.078 104.426 125.362C106.87 126.647 107.81 129.671 106.525 132.114L99.666 145.159C98.771 146.86 97.034 147.833 95.236 147.833Z" fill="#333333"/>
<path d="M114.692 156.22C114.076 156.22 113.449 156.105 112.842 155.863C110.277 154.841 109.027 151.932 110.049 149.367L113.76 140.057C114.782 137.492 117.689 136.241 120.256 137.264C122.821 138.286 124.071 141.195 123.049 143.76L119.338 153.07C118.558 155.027 116.678 156.22 114.692 156.22Z" fill="#333333"/>
</g>
<defs>
<clipPath id="clip0_106_287">
<rect width="300" height="345.653" fill="white"/>
</clipPath>
</defs>
</svg>
