<svg width="300" height="313" viewBox="0 0 300 313" fill="none" xmlns="http://www.w3.org/2000/svg">
<path d="M149.997 313C72.8189 313 10.0195 249.908 10.0195 172.387C10.0183 162.259 11.1002 152.16 13.2467 142.264C13.3732 141.604 13.6297 140.977 14.0012 140.419C14.3727 139.861 14.8516 139.383 15.4098 139.013C15.968 138.643 16.5941 138.39 17.2513 138.267C17.9085 138.144 18.5836 138.155 19.2367 138.298C19.8898 138.442 20.5078 138.715 21.0542 139.102C21.6006 139.488 22.0644 139.981 22.4184 140.551C22.7723 141.121 23.0092 141.756 23.1151 142.419C23.221 143.082 23.1939 143.759 23.0351 144.412C21.0431 153.602 20.0395 162.981 20.0418 172.387C20.0418 244.371 78.3444 302.932 149.997 302.932C221.649 302.932 279.951 244.371 279.951 172.387C279.955 162.602 278.87 152.847 276.718 143.304C276.423 142.002 276.654 140.636 277.362 139.505C278.07 138.375 279.196 137.573 280.493 137.277C281.789 136.981 283.149 137.214 284.274 137.925C285.4 138.636 286.198 139.767 286.493 141.069C288.811 151.345 289.979 161.85 289.974 172.387C289.974 249.922 227.181 313 149.997 313Z" fill="#333333"/>
<path d="M184.74 306.288C183.411 306.288 182.136 305.758 181.197 304.814C180.257 303.87 179.729 302.589 179.729 301.254V287.965L152.462 286.824C151.568 286.785 150.701 286.507 149.951 286.018C149.2 285.53 148.593 284.849 148.192 284.045L140.174 267.937C139.804 267.195 139.622 266.374 139.644 265.545C139.667 264.716 139.892 263.905 140.302 263.185L146.128 252.949L138.972 247.58C138.415 247.156 137.953 246.62 137.614 246.007C137.275 245.393 137.068 244.715 137.005 244.016C136.942 243.318 137.025 242.613 137.249 241.949C137.472 241.284 137.832 240.674 138.304 240.156L159.685 216.665C160.19 216.111 160.812 215.677 161.506 215.396C162.199 215.115 162.947 214.994 163.693 215.041L179.729 216.047V210.866C179.716 206.702 180.647 202.59 182.451 198.841C184.254 195.092 186.883 191.804 190.139 189.227C192.207 187.588 193.877 185.499 195.023 183.116C196.169 180.734 196.761 178.12 196.753 175.474V127.552C196.751 124.917 197.243 122.305 198.203 119.853L211.82 85.0793L198.751 79.9112L185.021 114.88C184.563 116.043 183.69 116.994 182.573 117.546C181.456 118.098 180.174 118.213 178.977 117.868C177.781 117.523 176.755 116.742 176.099 115.679C175.444 114.615 175.206 113.345 175.433 112.115L189.858 33.9619C190.033 33.0494 190.024 32.1109 189.832 31.2017C189.641 30.2926 189.27 29.4311 188.742 28.6681C188.214 27.9051 187.539 27.256 186.757 26.7589C185.976 26.2618 185.103 25.9268 184.191 25.7737C183.278 25.6206 182.344 25.6523 181.444 25.8672C180.544 26.082 179.696 26.4756 178.95 27.0247C178.203 27.5738 177.574 28.2673 177.098 29.0645C176.623 29.8617 176.311 30.7464 176.181 31.6665L162.35 113.873C162.137 115.113 161.468 116.228 160.476 116.998C159.485 117.767 158.242 118.136 156.994 118.031C155.745 117.925 154.581 117.354 153.731 116.429C152.881 115.504 152.407 114.293 152.402 113.034V17.0548C152.398 15.2088 151.666 13.4395 150.366 12.1348C149.066 10.8301 147.304 10.0964 145.466 10.0946H145.286C143.449 10.0964 141.687 10.8303 140.388 12.1352C139.089 13.4401 138.359 15.2094 138.357 17.0548V113.034C138.365 114.294 137.902 115.511 137.059 116.444C136.217 117.378 135.058 117.96 133.809 118.076C132.56 118.193 131.313 117.834 130.315 117.072C129.316 116.31 128.638 115.2 128.415 113.96L113.008 30.955C112.686 29.1392 111.663 27.5249 110.161 26.4647C108.658 25.4046 106.799 24.9847 104.99 25.2969L104.776 25.3372C102.97 25.6597 101.364 26.6887 100.312 28.1986C99.26 29.7085 98.8469 31.576 99.1636 33.3914C99.1673 33.4204 99.1673 33.4497 99.1636 33.4787L113.348 122.974C113.486 123.849 113.392 124.745 113.075 125.571C112.757 126.398 112.229 127.125 111.542 127.681C110.856 128.236 110.035 128.6 109.164 128.735C108.293 128.871 107.402 128.773 106.58 128.451L85.9543 120.397C83.9309 119.611 82.1042 118.387 80.6033 116.813C79.1024 115.239 77.9638 113.354 77.2684 111.289L71.4355 94.637C71.131 93.7511 70.6558 92.9343 70.037 92.2329C69.4183 91.5316 68.6682 90.9595 67.8293 90.5494C66.9905 90.1393 66.0795 89.8992 65.1483 89.8428C64.2171 89.7864 63.2839 89.9147 62.4021 90.2206C61.5203 90.5265 60.7071 91.0038 60.0089 91.6253C59.3108 92.2469 58.7413 93.0005 58.333 93.8431C57.9248 94.6858 57.6858 95.6009 57.6296 96.5363C57.5735 97.4718 57.7012 98.4092 58.0056 99.295L68.4087 127.29C68.6345 127.926 68.9885 128.508 69.4483 129C69.9082 129.492 70.4641 129.883 71.0813 130.149L88.2061 137.479C92.9062 139.486 96.9142 142.838 99.7301 147.119C102.546 151.399 104.045 156.417 104.041 161.547V175.213C104.042 177.906 104.657 180.563 105.838 182.98C107.02 185.398 108.736 187.512 110.856 189.16C114.195 191.746 116.901 195.066 118.766 198.864C120.632 202.662 121.608 206.839 121.62 211.074V245.445C121.62 246.78 121.092 248.061 120.152 249.005C119.213 249.949 117.938 250.479 116.609 250.479C115.28 250.479 114.005 249.949 113.066 249.005C112.126 248.061 111.598 246.78 111.598 245.445V211.074C111.59 208.388 110.972 205.739 109.791 203.329C108.61 200.919 106.897 198.812 104.783 197.167C101.444 194.579 98.7388 191.258 96.8732 187.459C95.0077 183.66 94.0314 179.482 94.0189 175.246V161.561C94.0184 158.404 93.0948 155.318 91.363 152.684C89.6311 150.051 87.1671 147.987 84.2773 146.748L67.1527 139.412C65.28 138.606 63.5916 137.423 62.1918 135.936C60.7921 134.45 59.7106 132.69 59.0145 130.767L48.6116 102.772C47.8658 100.64 47.5451 98.3825 47.6679 96.1268C47.7908 93.8711 48.3549 91.6617 49.3277 89.625C50.3005 87.5882 51.6632 85.7638 53.3379 84.2561C55.0126 82.7483 56.9665 81.5866 59.0881 80.8374C61.2097 80.0882 63.4575 79.7661 65.703 79.8895C67.9486 80.013 70.1478 80.5795 72.1754 81.5568C76.2703 83.5304 79.4169 87.0573 80.9232 91.3616L86.7761 108.014C86.9995 108.695 87.3699 109.318 87.8607 109.839C88.3516 110.36 88.9508 110.766 89.6158 111.027L102.097 115.92L89.2951 35.1298C88.5259 30.6886 89.5405 26.1221 92.1166 22.4309C94.6927 18.7398 98.6204 16.2249 103.039 15.4372L103.246 15.397C107.661 14.624 112.201 15.6339 115.879 18.207C119.557 20.78 122.074 24.708 122.883 29.1361L128.348 58.581V17.0279C128.354 12.5135 130.141 8.18549 133.319 4.99328C136.497 1.80108 140.805 0.00532889 145.299 0H145.48C149.975 0.00355246 154.285 1.79851 157.464 4.99091C160.643 8.1833 162.432 12.5123 162.437 17.0279V53.0235L166.306 30.0288C166.665 27.7996 167.463 25.6646 168.652 23.7481C169.841 21.8315 171.398 20.1718 173.231 18.8657C175.065 17.5595 177.139 16.6329 179.333 16.14C181.527 15.647 183.796 15.5975 186.01 15.9943C190.434 16.7924 194.363 19.3212 196.933 23.0257C199.503 26.7302 200.506 31.3079 199.72 35.754L193.6 68.8904C194.234 68.5626 194.93 68.3745 195.642 68.3386C196.354 68.3027 197.065 68.4199 197.729 68.6823L220.125 77.5285C221.361 78.0193 222.353 78.9821 222.884 80.2061C223.415 81.43 223.442 82.8155 222.958 84.0591L207.504 123.518C207.002 124.801 206.746 126.167 206.749 127.545V175.468C206.763 179.626 205.837 183.733 204.04 187.479C202.244 191.225 199.624 194.512 196.379 197.093C194.311 198.732 192.64 200.821 191.494 203.204C190.349 205.587 189.757 208.2 189.765 210.846V221.377C189.764 222.066 189.623 222.748 189.35 223.381C189.077 224.013 188.677 224.582 188.176 225.054C187.675 225.525 187.083 225.888 186.437 226.12C185.791 226.352 185.104 226.449 184.419 226.404L165.437 225.209L149.402 242.828L155.669 247.526C156.645 248.263 157.319 249.333 157.565 250.534C157.811 251.735 157.612 252.986 157.005 254.05L150.324 265.809L155.816 276.85L184.94 278.072C186.231 278.127 187.45 278.681 188.344 279.617C189.238 280.554 189.737 281.801 189.738 283.099V301.221C189.742 301.883 189.616 302.541 189.367 303.154C189.118 303.768 188.751 304.326 188.287 304.797C187.822 305.268 187.27 305.642 186.661 305.898C186.053 306.154 185.4 306.286 184.74 306.288Z" fill="#333333"/>
<path d="M152.442 181.971C151.205 181.969 150.011 181.508 149.092 180.675C148.173 179.842 147.593 178.697 147.465 177.461C145.921 162.574 138.712 149.882 126.044 139.733C120.237 135.061 113.749 131.315 106.808 128.625C105.549 128.196 104.511 127.282 103.923 126.085C103.334 124.887 103.244 123.504 103.671 122.239C104.098 120.974 105.008 119.932 106.2 119.341C107.392 118.75 108.769 118.659 110.028 119.088C117.96 122.093 125.374 126.325 132.004 131.632C146.816 143.391 155.609 158.875 157.433 176.414C157.57 177.741 157.177 179.069 156.34 180.106C155.503 181.143 154.291 181.804 152.97 181.944C152.797 181.958 152.616 181.971 152.442 181.971Z" fill="#333333"/>
<path d="M116.589 306.288C115.26 306.288 113.986 305.758 113.046 304.814C112.106 303.87 111.578 302.59 111.578 301.255V267.024C111.578 265.689 112.106 264.409 113.046 263.465C113.986 262.521 115.26 261.99 116.589 261.99C117.918 261.99 119.193 262.521 120.133 263.465C121.072 264.409 121.6 265.689 121.6 267.024V301.255C121.6 302.59 121.072 303.87 120.133 304.814C119.193 305.758 117.918 306.288 116.589 306.288Z" fill="#333333"/>
<path d="M6.5517 106.148C5.80876 106.149 5.07483 105.984 4.4033 105.665C3.73178 105.346 3.13953 104.88 2.66972 104.302L1.13303 102.416C0.291314 101.383 -0.107332 100.056 0.0248621 98.727C0.157056 97.3984 0.809214 96.177 1.83788 95.3315C2.86655 94.486 4.18752 94.0855 5.51009 94.2183C6.83265 94.3511 8.0485 95.0063 8.89022 96.0396L10.4269 97.9256C11.0276 98.6629 11.4077 99.5563 11.5229 100.502C11.6382 101.448 11.484 102.407 11.0781 103.268C10.6722 104.129 10.0314 104.857 9.23017 105.366C8.42892 105.876 7.50013 106.147 6.5517 106.148Z" fill="#333333"/>
<path d="M71.8304 186.817C71.0844 186.818 70.3476 186.651 69.6738 186.329C69 186.008 68.406 185.539 67.9351 184.958L13.1469 117.168C12.7319 116.655 12.4216 116.065 12.2338 115.431C12.0459 114.797 11.9842 114.132 12.0522 113.474C12.1201 112.816 12.3164 112.178 12.6298 111.597C12.9431 111.015 13.3674 110.501 13.8785 110.084C14.3896 109.667 14.9775 109.356 15.6085 109.167C16.2396 108.978 16.9013 108.916 17.5562 108.984C18.2111 109.053 18.8462 109.25 19.4252 109.565C20.0042 109.879 20.5159 110.306 20.9309 110.819L75.719 178.609C76.3135 179.348 76.688 180.241 76.7991 181.185C76.9103 182.128 76.7535 183.085 76.347 183.943C75.9404 184.801 75.3007 185.526 74.5016 186.035C73.7024 186.543 72.7765 186.815 71.8304 186.817Z" fill="#333333"/>
<path d="M85.8609 203.597C85.1181 203.598 84.3842 203.433 83.7128 203.113C83.0413 202.794 82.4491 202.329 81.9789 201.751L79.7941 199.066C79.3773 198.555 79.0649 197.965 78.8747 197.333C78.6846 196.7 78.6205 196.035 78.686 195.377C78.7515 194.72 78.9452 194.081 79.2563 193.498C79.5674 192.916 79.9896 192.401 80.4989 191.982C81.0083 191.563 81.5947 191.249 82.2248 191.058C82.8548 190.867 83.5163 190.803 84.1711 190.869C84.826 190.934 85.4615 191.129 86.0415 191.442C86.6215 191.754 87.1346 192.178 87.5514 192.69L89.7361 195.375C90.3367 196.112 90.7168 197.005 90.8321 197.951C90.9473 198.897 90.7931 199.856 90.3872 200.717C89.9814 201.578 89.3406 202.306 88.5394 202.816C87.7381 203.325 86.8094 203.596 85.8609 203.597Z" fill="#333333"/>
<path d="M292.519 107.275C291.571 107.274 290.642 107.004 289.841 106.494C289.039 105.984 288.399 105.256 287.993 104.395C287.587 103.534 287.433 102.575 287.548 101.629C287.663 100.684 288.043 99.7903 288.644 99.053L291.109 96.0259C291.951 94.9926 293.167 94.3375 294.49 94.2047C295.812 94.0719 297.133 94.4723 298.162 95.3178C299.19 96.1634 299.842 97.3848 299.975 98.7134C300.107 100.042 299.708 101.369 298.866 102.402L296.408 105.429C295.936 106.007 295.343 106.473 294.67 106.792C293.998 107.111 293.263 107.276 292.519 107.275Z" fill="#333333"/>
<path d="M214.139 203.597C213.191 203.596 212.262 203.326 211.461 202.816C210.66 202.306 210.019 201.578 209.613 200.717C209.207 199.856 209.053 198.897 209.168 197.951C209.283 197.006 209.663 196.112 210.264 195.375L277.226 113.068C277.636 112.537 278.147 112.094 278.73 111.764C279.314 111.435 279.956 111.226 280.621 111.151C281.285 111.075 281.959 111.134 282.6 111.323C283.242 111.513 283.839 111.83 284.357 112.255C284.875 112.68 285.303 113.205 285.616 113.799C285.928 114.393 286.119 115.044 286.178 115.714C286.236 116.383 286.16 117.057 285.955 117.697C285.75 118.336 285.42 118.928 284.983 119.437L218.021 201.751C217.551 202.329 216.959 202.794 216.287 203.114C215.616 203.433 214.882 203.598 214.139 203.597Z" fill="#333333"/>
<path d="M272.762 50.7951C271.897 50.799 271.046 50.5775 270.291 50.1523C269.537 49.727 268.905 49.1126 268.457 48.3688C268.01 47.6251 267.762 46.7775 267.737 45.9088C267.713 45.0401 267.913 44.1798 268.319 43.4121L269.829 40.4992C270.132 39.9126 270.548 39.3918 271.052 38.9666C271.556 38.5414 272.138 38.22 272.766 38.0209C273.393 37.8218 274.054 37.7488 274.71 37.806C275.365 37.8633 276.003 38.0498 276.587 38.3547C277.171 38.6597 277.69 39.0772 278.113 39.5835C278.536 40.0897 278.856 40.6747 279.054 41.3051C279.252 41.9356 279.325 42.599 279.268 43.2576C279.211 43.9163 279.026 44.5572 278.722 45.1438L277.212 48.0567C276.792 48.8797 276.155 49.5707 275.37 50.0537C274.585 50.5368 273.683 50.7933 272.762 50.7951Z" fill="#333333"/>
<path d="M233.615 126.378C232.812 126.379 232.021 126.183 231.31 125.807C230.726 125.503 230.207 125.086 229.783 124.58C229.359 124.074 229.039 123.489 228.841 122.859C228.643 122.228 228.571 121.565 228.629 120.906C228.687 120.248 228.874 119.607 229.179 119.021L259.686 60.1115C259.99 59.5249 260.405 59.0041 260.909 58.5789C261.413 58.1537 261.996 57.8323 262.623 57.6332C263.251 57.4341 263.911 57.3611 264.567 57.4183C265.223 57.4756 265.861 57.6621 266.445 57.967C267.028 58.272 267.547 58.6895 267.97 59.1958C268.394 59.702 268.713 60.287 268.912 60.9174C269.11 61.5479 269.182 62.2113 269.125 62.87C269.068 63.5286 268.883 64.1695 268.579 64.7561L238.065 123.666C237.642 124.484 237.003 125.17 236.219 125.649C235.434 126.127 234.533 126.379 233.615 126.378Z" fill="#333333"/>
<path d="M222.825 147.218C221.959 147.222 221.108 147 220.354 146.575C219.599 146.15 218.967 145.535 218.52 144.791C218.072 144.048 217.824 143.2 217.8 142.331C217.776 141.463 217.976 140.602 218.381 139.835L219.838 137.029C220.129 136.421 220.539 135.878 221.042 135.433C221.546 134.987 222.134 134.648 222.771 134.435C223.408 134.221 224.081 134.139 224.75 134.193C225.42 134.246 226.071 134.434 226.667 134.745C227.263 135.056 227.79 135.485 228.217 136.005C228.645 136.525 228.964 137.126 229.156 137.772C229.348 138.418 229.409 139.097 229.335 139.767C229.26 140.437 229.053 141.086 228.724 141.674L227.274 144.479C226.855 145.302 226.217 145.993 225.432 146.476C224.647 146.959 223.745 147.216 222.825 147.218Z" fill="#333333"/>
<path d="M44.436 76.7432C43.6408 76.745 42.8565 76.5559 42.1488 76.1916C41.441 75.8274 40.8301 75.2985 40.367 74.6491L28.3403 57.8695C27.9354 57.3344 27.6411 56.7233 27.4751 56.0722C27.3091 55.4211 27.2745 54.7432 27.3735 54.0784C27.4724 53.4137 27.703 52.7756 28.0514 52.2018C28.3998 51.628 28.859 51.13 29.4021 50.7374C29.9451 50.3447 30.5609 50.0653 31.2132 49.9156C31.8655 49.7658 32.541 49.7488 33.1999 49.8656C33.8588 49.9823 34.4877 50.2304 35.0497 50.5953C35.6116 50.9601 36.095 51.4343 36.4716 51.9899L48.4983 68.7695C49.0391 69.5205 49.3627 70.407 49.4333 71.3312C49.5039 72.2554 49.3189 73.1812 48.8986 74.0063C48.4782 74.8314 47.8389 75.5237 47.0514 76.0067C46.2639 76.4897 45.3587 76.7446 44.436 76.7432Z" fill="#333333"/>
<path d="M207.303 82.8984C206.499 82.8939 205.708 82.695 204.996 82.3187C204.285 81.9423 203.674 81.3994 203.215 80.7359C202.757 80.0725 202.464 79.3079 202.361 78.5067C202.259 77.7055 202.35 76.8914 202.626 76.1329L211.466 51.8562C211.923 50.6021 212.857 49.5818 214.063 49.0198C215.269 48.4578 216.648 48.4001 217.897 48.8594C219.145 49.3186 220.161 50.2573 220.72 51.4688C221.28 52.6803 221.337 54.0654 220.88 55.3195L212.034 79.5895C211.68 80.5631 211.036 81.4034 210.19 81.9956C209.343 82.5879 208.335 82.9032 207.303 82.8984Z" fill="#333333"/>
<path d="M211.132 58.621C215.191 58.621 218.481 55.3155 218.481 51.238C218.481 47.1605 215.191 43.855 211.132 43.855C207.073 43.855 203.782 47.1605 203.782 51.238C203.782 55.3155 207.073 58.621 211.132 58.621Z" fill="#333333"/>
<path d="M222.491 62.6479C226.55 62.6479 229.841 59.3424 229.841 55.2649C229.841 51.1873 226.55 47.8818 222.491 47.8818C218.432 47.8818 215.142 51.1873 215.142 55.2649C215.142 59.3424 218.432 62.6479 222.491 62.6479Z" fill="#333333"/>
<path d="M168.037 283.468C166.707 283.468 165.433 282.938 164.493 281.994C163.553 281.05 163.025 279.769 163.025 278.434V237.492C163.025 236.157 163.553 234.876 164.493 233.932C165.433 232.988 166.707 232.458 168.037 232.458C169.366 232.458 170.64 232.988 171.58 233.932C172.52 234.876 173.048 236.157 173.048 237.492V278.434C173.048 279.769 172.52 281.05 171.58 281.994C170.64 282.938 169.366 283.468 168.037 283.468Z" fill="#333333"/>
<path d="M177.397 144.533C176.335 144.533 175.3 144.194 174.442 143.565C173.584 142.935 172.947 142.048 172.624 141.032C172.3 140.015 172.307 138.922 172.642 137.909C172.978 136.896 173.625 136.017 174.491 135.398L199.88 117.276C200.964 116.503 202.309 116.194 203.62 116.416C204.93 116.639 206.099 117.376 206.869 118.464C207.639 119.553 207.947 120.904 207.725 122.221C207.504 123.537 206.77 124.711 205.686 125.485L180.297 143.607C179.449 144.209 178.436 144.533 177.397 144.533Z" fill="#333333"/>
</svg>
