<svg width="304" height="298" viewBox="0 0 304 298" fill="none" xmlns="http://www.w3.org/2000/svg">
<g clip-path="url(#clip0_106_750)">
<path d="M36.1337 245.144C-17.7513 182.396 -10.5343 87.498 52.2057 33.6211C71.9207 16.6821 95.6977 5.15705 121.209 0.173053C121.919 -0.0109472 122.66 -0.0489472 123.391 0.0640528C124.111 0.174053 124.809 0.434053 125.429 0.827053C126.051 1.21605 126.587 1.73005 127 2.33605C127.416 2.94505 127.7 3.62905 127.841 4.35105C127.979 5.07505 127.969 5.81105 127.811 6.53005C127.653 7.24505 127.347 7.92405 126.917 8.52105C126.485 9.11505 125.938 9.61505 125.305 9.98905C124.674 10.3611 123.97 10.6031 123.242 10.6971C99.5647 15.3301 77.5017 26.0361 59.2067 41.7641C0.95068 91.7911 -5.73832 179.89 44.2847 238.14C94.3117 296.391 182.409 303.094 240.665 253.063C262.526 234.375 278.02 209.336 284.99 181.439C285.164 180.753 285.466 180.11 285.887 179.545C286.306 178.979 286.834 178.498 287.439 178.136C288.66 177.401 290.124 177.188 291.504 177.533C292.886 177.879 294.072 178.762 294.806 179.984C295.539 181.205 295.753 182.668 295.41 184.048C287.895 214.106 271.21 241.076 247.663 261.208C184.907 315.1 90.0207 307.889 36.1337 245.144Z" fill="#333333"/>
<path d="M200.98 130.948H71.6455C66.4075 130.948 62.1455 126.686 62.1455 121.448V56.781C62.1455 51.543 66.4075 47.281 71.6455 47.281H200.98C206.218 47.281 210.48 51.543 210.48 56.781V121.448C210.48 126.686 206.219 130.948 200.98 130.948ZM71.6455 56.281C71.3695 56.281 71.1455 56.505 71.1455 56.781V121.448C71.1455 121.724 71.3695 121.948 71.6455 121.948H200.98C201.255 121.948 201.48 121.724 201.48 121.448V56.781C201.48 56.505 201.255 56.281 200.98 56.281H71.6455Z" fill="#333333"/>
<path d="M55.7285 105.781C53.2435 105.781 51.2285 103.766 51.2285 101.281V78.531C51.2285 76.046 53.2435 74.031 55.7285 74.031C58.2135 74.031 60.2285 76.046 60.2285 78.531V101.281C60.2285 103.766 58.2145 105.781 55.7285 105.781Z" fill="#333333"/>
<path d="M100.979 84.531H85.2285C82.7435 84.531 80.7285 82.516 80.7285 80.031C80.7285 77.546 82.7435 75.531 85.2285 75.531H100.979C103.464 75.531 105.479 77.546 105.479 80.031C105.479 82.516 103.465 84.531 100.979 84.531Z" fill="#333333"/>
<path d="M188.729 84.531H119.979C117.494 84.531 115.479 82.516 115.479 80.031C115.479 77.546 117.494 75.531 119.979 75.531H188.729C191.214 75.531 193.229 77.546 193.229 80.031C193.229 82.516 191.215 84.531 188.729 84.531Z" fill="#333333"/>
<path d="M212.896 69.365H208.312C205.827 69.365 203.812 67.35 203.812 64.865C203.812 62.38 205.827 60.365 208.312 60.365H212.896C215.381 60.365 217.396 62.38 217.396 64.865C217.396 67.35 215.382 69.365 212.896 69.365Z" fill="#333333"/>
<path d="M212.896 85.031H208.312C205.827 85.031 203.812 83.016 203.812 80.531C203.812 78.046 205.827 76.031 208.312 76.031H212.896C215.381 76.031 217.396 78.046 217.396 80.531C217.396 83.016 215.382 85.031 212.896 85.031Z" fill="#333333"/>
<path d="M212.896 93.697H208.312C205.827 93.697 203.812 91.682 203.812 89.197C203.812 86.712 205.827 84.697 208.312 84.697H212.896C215.381 84.697 217.396 86.712 217.396 89.197C217.396 91.682 215.382 93.697 212.896 93.697Z" fill="#333333"/>
<path d="M212.896 102.363H208.312C205.827 102.363 203.812 100.348 203.812 97.863C203.812 95.378 205.827 93.363 208.312 93.363H212.896C215.381 93.363 217.396 95.378 217.396 97.863C217.396 100.348 215.382 102.363 212.896 102.363Z" fill="#333333"/>
<path d="M212.896 117.029H208.312C205.827 117.029 203.812 115.014 203.812 112.529C203.812 110.044 205.827 108.029 208.312 108.029H212.896C215.381 108.029 217.396 110.044 217.396 112.529C217.396 115.014 215.382 117.029 212.896 117.029Z" fill="#333333"/>
<path d="M246.479 120.218H235.979C234.301 120.218 232.763 119.285 231.988 117.797L226.999 108.218H210.104C207.619 108.218 205.604 106.203 205.604 103.718C205.604 101.233 207.619 99.218 210.104 99.218H229.729C231.407 99.218 232.945 100.151 233.72 101.639L238.709 111.218H241.979V66.031H238.709L233.72 75.61C232.945 77.098 231.407 78.031 229.729 78.031H210.104C207.619 78.031 205.604 76.016 205.604 73.531C205.604 71.046 207.619 69.031 210.104 69.031H226.999L231.988 59.452C232.763 57.964 234.301 57.031 235.979 57.031H246.479C248.964 57.031 250.979 59.046 250.979 61.531V115.719C250.979 118.204 248.965 120.218 246.479 120.218Z" fill="#333333"/>
<path d="M228.582 108.217C226.097 108.217 224.082 106.202 224.082 103.717V74.3C224.082 71.815 226.097 69.8 228.582 69.8C231.067 69.8 233.082 71.815 233.082 74.3V103.717C233.082 106.203 231.067 108.217 228.582 108.217Z" fill="#333333"/>
<path d="M197.229 223.531C197.089 223.531 196.949 223.524 196.809 223.511L164.809 220.511C163.152 220.356 161.716 219.298 161.076 217.762L136.302 158.351L85.8077 150.729C84.5177 150.534 83.3757 149.789 82.6777 148.687L77.9277 141.187C77.5507 140.591 77.3187 139.915 77.2507 139.213L76.2507 128.88C76.0117 126.406 77.8227 124.207 80.2957 123.967C82.7717 123.724 84.9687 125.539 85.2087 128.012L86.1057 137.277L89.1827 142.135L140.152 149.828C141.708 150.063 143.028 151.094 143.633 152.546L168.342 211.801L197.046 214.491C197.414 214.418 197.794 214.326 198.16 214.224C197.27 213.345 196.432 212.844 196.419 212.836C195.417 212.279 194.665 211.361 194.317 210.27L176.942 155.769C176.48 154.322 176.78 152.74 177.739 151.562C178.698 150.383 180.187 149.767 181.695 149.926L183.444 150.108C180.366 144.558 179.464 140.294 180.762 137.383C181.496 135.738 183.126 134.668 184.939 134.717L192.801 134.835L192.854 128.407C192.875 125.934 194.885 123.944 197.353 123.944C197.366 123.944 197.378 123.944 197.391 123.944C199.876 123.965 201.874 125.996 201.854 128.481L201.763 139.439C201.753 140.638 201.265 141.783 200.408 142.621C199.551 143.459 198.388 143.944 197.196 143.902L190.368 143.8C191.645 146.391 193.781 149.859 196.038 152.871C197.111 154.302 197.234 156.233 196.352 157.789C195.469 159.344 193.75 160.221 191.971 160.046L187.606 159.591L202.416 206.044C203.968 207.201 206.258 209.273 207.755 212.266C208.702 214.162 208.706 216.291 207.765 218.108C205.796 221.905 200.213 223.129 197.904 223.478C197.681 223.515 197.455 223.531 197.229 223.531Z" fill="#333333"/>
<path d="M118.104 142.531H115.354C112.869 142.531 110.854 140.516 110.854 138.031C110.854 135.546 112.869 133.531 115.354 133.531H118.104C120.589 133.531 122.604 135.546 122.604 138.031C122.604 140.516 120.59 142.531 118.104 142.531Z" fill="#333333"/>
<path d="M133.729 142.531H130.979C128.494 142.531 126.479 140.516 126.479 138.031C126.479 135.546 128.494 133.531 130.979 133.531H133.729C136.214 133.531 138.229 135.546 138.229 138.031C138.229 140.516 136.215 142.531 133.729 142.531Z" fill="#333333"/>
<path d="M68.7512 240.348C59.4642 240.348 51.1982 234.443 48.1812 225.655C46.2952 220.159 46.6622 214.259 49.2152 209.039C51.7682 203.82 56.2002 199.907 61.6962 198.021L87.7062 189.094C89.9932 188.309 92.3692 187.911 94.7682 187.911C104.056 187.911 112.324 193.817 115.341 202.607C117.227 208.102 116.86 214.003 114.307 219.222C111.754 224.442 107.321 228.355 101.825 230.239L75.8152 239.165C73.5282 239.949 71.1512 240.348 68.7512 240.348ZM94.7682 196.911C93.3652 196.911 91.9722 197.144 90.6272 197.606L64.6172 206.533C61.3942 207.638 58.7962 209.932 57.3002 212.992C55.8032 216.052 55.5892 219.511 56.6942 222.732C58.4632 227.885 63.3082 231.347 68.7522 231.347C70.1552 231.347 71.5492 231.113 72.8942 230.652L98.9062 221.725C102.129 220.621 104.727 218.328 106.223 215.268C107.719 212.208 107.934 208.749 106.829 205.529C105.06 200.374 100.212 196.911 94.7682 196.911Z" fill="#333333"/>
<path d="M141.275 217.236C132.239 217.236 123.777 211.556 120.684 202.543C116.793 191.2 122.855 178.806 134.198 174.912L135.327 174.524L154.594 167.667C156.935 166.833 159.509 168.056 160.342 170.397C161.176 172.738 159.953 175.312 157.612 176.145L137.118 183.424C130.47 185.706 126.915 192.973 129.196 199.621C131.479 206.27 138.743 209.826 145.393 207.543L148.538 206.465C150.892 205.656 153.448 206.912 154.255 209.262C155.061 211.613 153.809 214.172 151.458 214.979L148.314 216.057C145.985 216.856 143.611 217.236 141.275 217.236Z" fill="#333333"/>
<path d="M207.917 193.72C206.073 193.72 204.343 192.577 203.683 190.742C202.842 188.403 204.055 185.826 206.394 184.984L208.995 184.048L213.724 182.423C216.949 181.317 219.547 179.024 221.044 175.963C222.54 172.904 222.755 169.445 221.649 166.225C219.367 159.577 212.105 156.022 205.453 158.305C203.104 159.113 200.543 157.86 199.736 155.51C198.928 153.159 200.18 150.6 202.531 149.793C213.874 145.899 226.267 151.96 230.161 163.303C232.049 168.798 231.682 174.699 229.128 179.919C226.575 185.139 222.143 189.051 216.646 190.937L209.442 193.454C208.938 193.634 208.423 193.72 207.917 193.72Z" fill="#333333"/>
<path d="M255.601 176.23C246.315 176.23 238.049 170.323 235.033 161.532C233.146 156.039 233.512 150.138 236.063 144.919C238.615 139.7 243.047 135.787 248.544 133.9L274.554 124.974C276.841 124.19 279.217 123.792 281.616 123.792C290.905 123.792 299.174 129.699 302.189 138.49C304.077 143.983 303.71 149.884 301.158 155.103C298.605 160.321 294.173 164.234 288.677 166.12L262.663 175.047C260.376 175.832 258 176.23 255.601 176.23ZM281.615 132.793C280.212 132.793 278.818 133.027 277.474 133.488L251.465 142.413C248.242 143.519 245.644 145.813 244.148 148.873C242.652 151.932 242.438 155.39 243.544 158.61C245.314 163.767 250.157 167.231 255.6 167.231C257.002 167.231 258.396 166.997 259.74 166.536L285.754 157.61C288.977 156.504 291.576 154.21 293.072 151.151C294.568 148.092 294.782 144.634 293.676 141.414C291.907 136.256 287.061 132.793 281.615 132.793Z" fill="#333333"/>
<path d="M88.9453 216.614C87.0763 216.614 85.3303 215.44 84.6893 213.573C83.8823 211.222 85.1343 208.663 87.4853 207.856L133.127 192.196C135.478 191.388 138.037 192.641 138.844 194.993C139.651 197.344 138.399 199.903 136.048 200.71L90.4063 216.37C89.9223 216.536 89.4293 216.614 88.9453 216.614Z" fill="#333333"/>
<path d="M213.872 172.073C212.002 172.073 210.256 170.899 209.615 169.032C208.809 166.681 210.06 164.122 212.412 163.315L258.053 147.656C260.404 146.85 262.963 148.101 263.77 150.452C264.576 152.803 263.325 155.362 260.973 156.169L215.332 171.829C214.849 171.995 214.356 172.073 213.872 172.073Z" fill="#333333"/>
<path d="M157.646 254.948C157.198 254.948 156.743 254.881 156.292 254.739C153.922 253.992 152.605 251.465 153.353 249.094L157.954 234.494C158.701 232.124 161.227 230.806 163.599 231.555C165.969 232.302 167.286 234.829 166.538 237.2L161.937 251.8C161.332 253.72 159.559 254.948 157.646 254.948Z" fill="#333333"/>
<path d="M234.401 219.733C233.625 219.733 232.838 219.532 232.121 219.109L214.324 208.623C212.182 207.361 211.47 204.602 212.731 202.462C213.994 200.321 216.754 199.608 218.892 200.869L236.689 211.355C238.831 212.617 239.543 215.376 238.282 217.516C237.443 218.94 235.942 219.733 234.401 219.733Z" fill="#333333"/>
<path d="M173.013 204.899C171.217 204.899 169.52 203.816 168.824 202.044C167.916 199.731 169.053 197.119 171.367 196.21L178.367 193.46C180.677 192.553 183.293 193.69 184.201 196.003C185.109 198.316 183.972 200.928 181.658 201.837L174.658 204.587C174.117 204.799 173.561 204.899 173.013 204.899Z" fill="#333333"/>
<path d="M200.498 253.209C198.699 253.209 197 252.123 196.306 250.347L193.569 243.345C192.665 241.031 193.806 238.42 196.121 237.515C198.436 236.613 201.048 237.753 201.951 240.068L204.688 247.07C205.592 249.384 204.451 251.995 202.136 252.9C201.598 253.109 201.043 253.209 200.498 253.209Z" fill="#333333"/>
</g>
<defs>
<clipPath id="clip0_106_750">
<rect width="303.38" height="297.35" fill="white"/>
</clipPath>
</defs>
</svg>
