<svg width="336" height="300" viewBox="0 0 336 300" fill="none" xmlns="http://www.w3.org/2000/svg">
<g clip-path="url(#clip0_106_118)">
<path d="M16.3971 218.249C-21.2239 144.597 8.10111 54.051 81.7471 16.434C104.892 4.60498 130.713 -1.00602 156.68 0.147982C157.415 0.134982 158.143 0.271982 158.823 0.550982C159.503 0.831982 160.116 1.24698 160.63 1.77298C161.141 2.29998 161.54 2.92498 161.8 3.61198C162.062 4.29898 162.177 5.03198 162.144 5.76598C162.11 6.49998 161.925 7.21798 161.603 7.87898C161.28 8.53698 160.826 9.12498 160.265 9.60198C159.707 10.078 159.057 10.436 158.355 10.65C157.652 10.866 156.913 10.936 156.184 10.853C132.082 9.79298 108.118 15.011 86.6401 25.996C18.2531 60.926 -8.95889 144.982 25.9681 213.36C60.8961 281.739 144.948 308.962 213.333 274.031C238.976 261.008 259.921 240.315 273.255 214.833C273.583 214.21 274.029 213.655 274.572 213.204C275.112 212.753 275.739 212.411 276.411 212.201C277.771 211.776 279.244 211.91 280.506 212.571C281.767 213.233 282.713 214.369 283.138 215.728C283.562 217.088 283.429 218.561 282.767 219.824C268.4 247.272 245.839 269.563 218.218 283.596C144.556 321.223 54.0221 291.907 16.3971 218.249Z" fill="#333333"/>
<path d="M233.849 79.031C231.818 79.031 229.787 78.534 227.978 77.593L167.971 46.4C164.95 44.83 162.722 42.178 161.697 38.932C160.672 35.686 160.971 32.235 162.542 29.215L164.895 24.689C167.096 20.454 171.431 17.822 176.208 17.822C178.24 17.822 180.271 18.319 182.08 19.26L242.087 50.455C245.107 52.025 247.335 54.677 248.36 57.923C249.385 61.169 249.086 64.62 247.515 67.639L245.163 72.162C242.961 76.399 238.625 79.031 233.849 79.031ZM176.206 27.822C175.398 27.822 174.333 28.21 173.767 29.301L171.414 33.827C171.076 34.477 171.011 35.221 171.232 35.92C171.453 36.619 171.932 37.19 172.583 37.528L232.59 68.72C232.986 68.927 233.41 69.031 233.849 69.031C234.657 69.031 235.722 68.642 236.289 67.551L238.641 63.027C238.979 62.377 239.043 61.634 238.824 60.936C238.603 60.237 238.123 59.666 237.473 59.329L177.466 28.134C177.069 27.926 176.646 27.822 176.206 27.822Z" fill="#333333"/>
<path d="M188.959 171.014C186.928 171.014 184.898 170.517 183.089 169.576L123.083 138.382C120.062 136.812 117.834 134.159 116.809 130.914C115.784 127.668 116.084 124.216 117.655 121.196L120.006 116.673C122.209 112.436 126.545 109.805 131.32 109.805C133.351 109.805 135.382 110.303 137.191 111.243L197.197 142.437C200.217 144.006 202.445 146.659 203.47 149.905C204.495 153.151 204.196 156.602 202.625 159.622L200.275 164.146C198.07 168.384 193.734 171.014 188.959 171.014ZM131.319 119.804C130.288 119.804 129.352 120.371 128.877 121.284L126.526 125.808C126.187 126.459 126.123 127.202 126.343 127.9C126.564 128.599 127.044 129.17 127.694 129.508L187.7 160.702C189.029 161.393 190.723 160.834 191.401 159.532L193.75 155.01C194.089 154.358 194.154 153.615 193.934 152.916C193.713 152.218 193.234 151.647 192.583 151.31L132.577 120.115C132.181 119.909 131.757 119.804 131.319 119.804Z" fill="#333333"/>
<path d="M132.575 119.481C131.798 119.481 131.01 119.299 130.273 118.917C127.823 117.643 126.869 114.625 128.143 112.174L165.841 39.657C167.115 37.206 170.134 36.255 172.584 37.527C175.034 38.801 175.987 41.819 174.714 44.27L137.016 116.787C136.125 118.5 134.381 119.481 132.575 119.481Z" fill="#333333"/>
<path d="M193.752 151.284C192.975 151.284 192.187 151.102 191.449 150.72C188.999 149.446 188.046 146.428 189.319 143.977L227.072 71.352C228.345 68.901 231.365 67.951 233.815 69.222C236.264 70.496 237.218 73.514 235.945 75.965L198.192 148.59C197.302 150.302 195.558 151.284 193.752 151.284Z" fill="#333333"/>
<path d="M316.354 180.557C314.323 180.557 312.292 180.06 310.483 179.119C205.612 124.494 205.311 124.221 204.653 123.624C202.971 122.098 202.53 119.63 203.577 117.615L216.431 92.8859C217.479 90.8709 219.756 89.8159 221.968 90.3149C222.809 90.5049 223.232 90.5999 328.188 145.051C334.425 148.293 336.861 156.002 333.621 162.238L327.668 173.691C325.466 177.926 321.13 180.557 316.354 180.557ZM214.729 117.843C231.069 126.455 290.482 157.426 315.098 170.248C316.418 170.933 318.119 170.379 318.794 169.077L324.747 157.625C325.444 156.283 324.921 154.623 323.579 153.925C298.944 141.145 239.461 110.308 223.024 101.882L214.729 117.843Z" fill="#333333"/>
<path d="M225.31 132.635C224.533 132.635 223.745 132.453 223.007 132.071C220.558 130.797 219.604 127.779 220.877 125.328L232.912 102.176C234.186 99.7251 237.206 98.774 239.655 100.046C242.104 101.32 243.058 104.338 241.785 106.789L229.75 129.94C228.859 131.654 227.115 132.635 225.31 132.635Z" fill="#333333"/>
<path d="M89.874 227.726C87.113 227.726 84.874 225.488 84.874 222.726V210.747C84.874 203.401 90.851 197.425 98.196 197.425H195.572C202.919 197.425 208.895 203.402 208.895 210.747V222.103C208.895 224.865 206.657 227.103 203.895 227.103C201.133 227.103 198.895 224.865 198.895 222.103V210.747C198.895 208.915 197.404 207.425 195.572 207.425H98.196C96.364 207.425 94.874 208.915 94.874 210.747V222.726C94.874 225.487 92.635 227.726 89.874 227.726Z" fill="#333333"/>
<path d="M214.715 253.847H79.054C71.708 253.847 65.731 247.87 65.731 240.524V231.639C65.731 224.292 71.708 218.316 79.054 218.316H214.715C222.062 218.316 228.038 224.293 228.038 231.639V240.524C228.038 247.87 222.062 253.847 214.715 253.847ZM79.054 228.315C77.222 228.315 75.731 229.806 75.731 231.638V240.523C75.731 242.355 77.222 243.846 79.054 243.846H214.715C216.547 243.846 218.038 242.355 218.038 240.523V231.638C218.038 229.806 216.547 228.315 214.715 228.315H79.054Z" fill="#333333"/>
<path d="M71.5631 207.633C71.2641 207.633 70.9611 207.606 70.6571 207.55L47.9081 203.388C45.1921 202.891 43.3921 200.286 43.8891 197.571C44.3861 194.854 46.9931 193.054 49.7071 193.552L72.4561 197.714C75.1721 198.211 76.9721 200.816 76.4751 203.531C76.0341 205.943 73.9311 207.633 71.5631 207.633Z" fill="#333333"/>
<path d="M84.1319 190.621C82.6479 190.621 81.1789 189.964 80.1929 188.705L58.2759 160.733C56.5729 158.559 56.9539 155.417 59.1279 153.713C61.3029 152.009 64.4449 152.391 66.1479 154.565L88.0649 182.537C89.7679 184.711 89.3869 187.853 87.2129 189.557C86.2969 190.273 85.2099 190.621 84.1319 190.621Z" fill="#333333"/>
<path d="M100.971 180.89C98.2541 180.89 96.0261 178.713 95.9741 175.985L95.5571 154.071C95.5041 151.31 97.7001 149.029 100.461 148.977C100.494 148.977 100.526 148.976 100.558 148.976C103.275 148.976 105.503 151.152 105.555 153.881L105.972 175.796C106.025 178.557 103.829 180.837 101.068 180.89C101.036 180.89 101.003 180.89 100.971 180.89Z" fill="#333333"/>
</g>
<defs>
<clipPath id="clip0_106_118">
<rect width="335.056" height="299.999" fill="white"/>
</clipPath>
</defs>
</svg>
