<svg width="279" height="300" viewBox="0 0 279 300" fill="none" xmlns="http://www.w3.org/2000/svg">
<g clip-path="url(#clip0_0_1)">
<path d="M278.718 151.882C277.685 234.583 209.548 301.026 126.858 299.988C100.869 299.668 75.4095 292.602 52.9675 279.479C52.3115 279.149 51.7335 278.688 51.2575 278.122C50.7905 277.561 50.4405 276.905 50.2325 276.2C50.0245 275.496 49.9625 274.755 50.0535 274.028C50.1435 273.298 50.3815 272.596 50.7525 271.963C51.1275 271.33 51.6235 270.781 52.2155 270.347C52.8075 269.916 53.4855 269.609 54.2015 269.445C54.9205 269.285 55.6605 269.271 56.3825 269.408C57.1015 269.545 57.7895 269.83 58.3975 270.238C79.2295 282.412 102.861 288.963 126.985 289.25C203.767 290.215 267.015 228.527 267.976 151.75C268.933 74.9731 207.252 11.7192 130.467 10.7552C101.71 10.3322 73.5335 18.8772 49.8655 35.2082C49.2815 35.6072 48.6295 35.8902 47.9395 36.0352C47.2505 36.1812 46.5375 36.1931 45.8445 36.0662C44.4445 35.8102 43.2025 35.0032 42.3955 33.8322C41.5875 32.6562 41.2775 31.2132 41.5365 29.8081C41.7955 28.4101 42.5995 27.1701 43.7735 26.3601C69.2755 8.77015 99.6236 -0.439849 130.6 0.016151C213.314 1.05415 279.754 69.1811 278.718 151.882Z" fill="#333333"/>
<path d="M93.102 149.362C83.559 149.362 77.862 143.591 77.862 133.924C77.862 126.624 78.07 110.745 78.072 110.586C78.104 108.121 80.113 106.145 82.571 106.145C82.591 106.145 82.611 106.145 82.631 106.145C85.116 106.178 87.104 108.219 87.071 110.704C87.069 110.863 86.862 126.683 86.862 133.924C86.862 138.557 88.612 140.362 93.102 140.362C95.866 140.362 97.834 139.755 98.951 138.557C100.401 137.004 100.254 134.629 100.252 134.605C100.237 134.457 100.235 134.371 100.235 134.221V89.2751C100.235 86.8801 99.192 85.0621 96.953 83.5521C89.767 78.7091 74.203 79.3401 68.836 81.5131C64.298 83.3491 46.985 103.659 33.547 121.423C32.696 122.548 31.368 123.208 29.958 123.208H4.5C2.015 123.208 0 121.193 0 118.708C0 116.223 2.015 114.208 4.5 114.208H27.726C35.916 103.473 57.024 76.5841 65.459 73.1701C72.287 70.4081 91.366 68.9331 101.983 76.0881C106.727 79.2861 109.235 83.8451 109.235 89.2741V134.057C109.318 135.404 109.353 140.476 105.664 144.551C102.775 147.744 98.549 149.362 93.102 149.362Z" fill="#333333"/>
<path d="M52.3518 153.607C50.0748 153.607 48.3288 153.573 48.1648 153.57C45.6808 153.52 43.7068 151.466 43.7558 148.981C43.8058 146.496 45.8818 144.53 48.3448 144.572C50.7628 144.619 57.7078 144.672 60.7498 144.333C67.7638 143.554 75.3928 133.872 77.7398 130.208C79.0798 128.116 81.8598 127.503 83.9528 128.84C86.0458 130.177 86.6608 132.954 85.3278 135.048C84.2318 136.768 74.2628 151.887 61.7438 153.278C59.3218 153.547 55.3708 153.607 52.3518 153.607Z" fill="#333333"/>
<path d="M157.239 129.308H106.327C103.842 129.308 101.827 127.293 101.827 124.808C101.827 122.323 103.842 120.308 106.327 120.308H157.239C162.491 120.308 162.814 111.287 162.816 111.197C162.815 99.4802 156.195 99.3442 155.913 99.3442H107.388C104.903 99.3442 102.888 97.3292 102.888 94.8442C102.888 92.3592 104.903 90.3442 107.388 90.3442H155.913C161.413 90.3442 171.815 94.7202 171.815 111.285C171.693 117.576 168.49 129.308 157.239 129.308Z" fill="#333333"/>
<path d="M160.952 159.273H110.039C107.554 159.273 105.539 157.258 105.539 154.773C105.539 152.288 107.554 150.273 110.039 150.273H160.952C166.217 150.273 166.526 141.235 166.528 141.144C166.703 136.797 165.86 133.633 164.024 131.664C161.935 129.422 159.085 129.311 158.964 129.308C156.479 129.308 154.496 127.293 154.496 124.808C154.496 122.323 156.542 120.308 159.027 120.308C159.7 120.308 165.733 120.45 170.442 125.352C174.09 129.15 175.799 134.56 175.522 141.43C175.405 147.541 172.204 159.273 160.952 159.273Z" fill="#333333"/>
<path d="M153.943 188.736H103.031C100.546 188.736 98.5312 186.721 98.5312 184.236C98.5312 181.751 100.546 179.736 103.031 179.736H153.943C159.041 179.736 159.492 171.264 159.518 170.643C159.509 166.777 158.746 161.76 155.191 159.653C153.052 158.386 152.346 155.626 153.614 153.488C154.881 151.349 157.641 150.644 159.779 151.911C163.766 154.273 168.518 159.453 168.518 170.713C168.396 177.003 165.195 188.736 153.943 188.736Z" fill="#333333"/>
<path d="M112.312 188.736C101.232 188.736 97.4927 177.152 97.0637 171.027C97.0567 170.923 97.0527 170.817 97.0527 170.713C97.0527 159.212 102.956 153.996 106.474 151.911C108.613 150.643 111.373 151.35 112.64 153.488C113.907 155.626 113.201 158.386 111.063 159.653C107.778 161.599 106.093 165.256 106.053 170.52C106.167 171.621 107.183 179.736 112.311 179.736C114.796 179.736 116.811 181.751 116.811 184.236C116.811 186.721 114.797 188.736 112.312 188.736Z" fill="#333333"/>
<path d="M108.447 214.011C97.2249 214.011 93.9579 203.129 93.7989 197.376C93.7979 197.334 93.7969 197.293 93.7969 197.251C93.7969 185.748 99.6999 180.533 103.218 178.449C105.36 177.184 108.117 177.89 109.383 180.028C110.65 182.166 109.943 184.926 107.805 186.193C104.498 188.151 102.814 191.844 102.797 197.17C102.841 198.145 103.336 205.011 108.447 205.011C110.932 205.011 112.947 207.026 112.947 209.511C112.947 211.996 110.933 214.011 108.447 214.011Z" fill="#333333"/>
<path d="M146.147 214.011H70.2643C70.0753 214.011 69.8853 213.999 69.6973 213.975C60.0993 212.755 34.0613 194.311 26.3733 188.736H7.15332C4.66832 188.736 2.65332 186.721 2.65332 184.236C2.65332 181.751 4.66832 179.736 7.15332 179.736H27.8373C28.7933 179.736 29.7233 180.041 30.4943 180.604C43.5853 190.183 64.4863 203.944 70.5943 205.011H146.147C151.399 205.011 151.721 195.99 151.723 195.9C151.722 191.788 150.754 190.365 149.415 188.395L148.99 187.766C147.612 185.699 148.172 182.905 150.24 181.526C152.306 180.149 155.101 180.706 156.48 182.776L156.858 183.336C158.579 185.868 160.721 189.019 160.721 195.988C160.601 202.279 157.399 214.011 146.147 214.011Z" fill="#333333"/>
<path d="M111.498 159.274C111.012 159.274 110.518 159.195 110.033 159.028C108.521 158.507 95.2637 153.652 95.2637 143.476C95.2637 140.991 97.2787 138.976 99.7637 138.976C102.249 138.976 104.264 140.991 104.264 143.476C104.264 146.302 110.024 149.507 112.962 150.518C115.312 151.327 116.562 153.887 115.753 156.238C115.11 158.102 113.365 159.274 111.498 159.274Z" fill="#333333"/>
<path d="M37.5156 79.8982H12.0586C9.57359 79.8982 7.55859 77.8832 7.55859 75.3982C7.55859 72.9132 9.57359 70.8982 12.0586 70.8982H37.5156C40.0006 70.8982 42.0156 72.9132 42.0156 75.3982C42.0156 77.8832 40.0006 79.8982 37.5156 79.8982Z" fill="#333333"/>
<path d="M37.9047 219.703H8.46973C5.98473 219.703 3.96973 217.688 3.96973 215.203C3.96973 212.718 5.98473 210.703 8.46973 210.703H37.9057C40.3907 210.703 42.4057 212.718 42.4057 215.203C42.4057 217.688 40.3907 219.703 37.9047 219.703Z" fill="#333333"/>
<path d="M73.8169 239.535H52.3369C49.8519 239.535 47.8369 237.52 47.8369 235.035C47.8369 232.55 49.8519 230.535 52.3369 230.535H73.8169C76.3019 230.535 78.3169 232.55 78.3169 235.035C78.3169 237.52 76.3029 239.535 73.8169 239.535Z" fill="#333333"/>
<path d="M148.487 253.671C147.058 253.671 145.694 252.989 144.839 251.804L127.337 227.542C125.883 225.526 126.338 222.714 128.354 221.26C130.37 219.806 133.183 220.26 134.636 222.277L146.535 238.773L151.866 218.21C152.267 216.666 153.456 215.449 154.99 215.012C156.525 214.577 158.176 214.984 159.33 216.085L171.494 227.7L166.64 203.519C166.358 202.113 166.763 200.657 167.73 199.597C168.697 198.539 170.112 198.003 171.538 198.159L203.432 201.621L172.654 171.512C171.453 170.337 171.006 168.59 171.496 166.983C171.986 165.376 173.331 164.175 174.983 163.871L220.669 155.435L182.287 131.267C180.967 130.435 180.171 128.979 180.184 127.419C180.197 125.859 181.019 124.417 182.354 123.609L208.745 107.632L184.012 99.0961C181.663 98.2851 180.416 95.7251 181.225 93.3761L193.401 58.0391L149.278 85.5361C148.169 86.2271 146.815 86.4021 145.566 86.0151C144.318 85.6281 143.299 84.7191 142.776 83.5211L129.524 53.2521L125.102 82.3911C124.728 84.8481 122.434 86.5361 119.977 86.1651C117.52 85.7921 115.831 83.4981 116.203 81.0401L122.959 36.5241C123.26 34.5431 124.834 33.0001 126.82 32.7381C128.807 32.4791 130.726 33.5591 131.53 35.3951L148.932 75.1451L199.408 43.6891C201.026 42.6821 203.101 42.8021 204.592 43.9891C206.083 45.1761 206.663 47.1731 206.043 48.9741L191.199 92.0541L220.756 102.254C222.406 102.823 223.578 104.296 223.763 106.032C223.948 107.768 223.112 109.453 221.618 110.358L193.249 127.532L235.216 153.959C236.785 154.946 237.587 156.795 237.237 158.615C236.887 160.435 235.458 161.855 233.635 162.191L185.149 171.143L219.021 204.28C220.392 205.622 220.762 207.684 219.944 209.419C219.125 211.154 217.289 212.175 215.389 211.971L176.674 207.769L183.129 239.932C183.516 241.858 182.608 243.812 180.887 244.76C179.167 245.706 177.03 245.428 175.61 244.072L158.657 227.884L152.845 250.298C152.407 251.986 151.033 253.27 149.319 253.592C149.042 253.646 148.764 253.671 148.487 253.671Z" fill="#333333"/>
<path d="M32.0011 239.535H23.0781C20.5931 239.535 18.5781 237.52 18.5781 235.035C18.5781 232.55 20.5931 230.535 23.0781 230.535H32.0011C34.4861 230.535 36.5011 232.55 36.5011 235.035C36.5011 237.52 34.4861 239.535 32.0011 239.535Z" fill="#333333"/>
</g>
<defs>
<clipPath id="clip0_0_1">
<rect width="279" height="300" fill="white"/>
</clipPath>
</defs>
</svg>
