<svg width="300" height="300" viewBox="0 0 300 300" fill="none" xmlns="http://www.w3.org/2000/svg">
<path d="M131.491 299.047C58.9921 299.047 0 240.048 0 167.556C0 95.0632 58.9983 36.0649 131.491 36.0649C132.739 36.0649 133.937 36.5609 134.819 37.4437C135.702 38.3264 136.198 39.5238 136.198 40.7722C136.198 42.0207 135.702 43.2181 134.819 44.1008C133.937 44.9836 132.739 45.4796 131.491 45.4796C64.1827 45.4796 9.41462 100.241 9.41462 167.556C9.41462 234.87 64.1827 289.632 131.491 289.632C198.799 289.632 253.567 234.87 253.567 167.556C253.567 166.307 254.063 165.11 254.946 164.227C255.829 163.344 257.026 162.848 258.274 162.848C259.523 162.848 260.72 163.344 261.603 164.227C262.486 165.11 262.982 166.307 262.982 167.556C262.982 240.061 203.996 299.047 131.491 299.047Z" fill="#333333"/>
<path d="M172.683 194.946C167.707 194.93 162.762 194.162 158.015 192.667C145.023 188.625 133.744 179.65 126.263 167.373C110.691 141.847 116.522 109.8 139.255 95.929C161.988 82.0581 193.157 91.5355 208.729 117.074C209.379 118.14 209.579 119.421 209.284 120.635C208.99 121.848 208.226 122.895 207.159 123.545C206.093 124.195 204.813 124.395 203.599 124.101C202.386 123.807 201.339 123.042 200.689 121.976C187.822 100.881 162.465 92.8033 144.157 103.969C125.849 115.135 121.43 141.376 134.297 162.472C140.573 172.79 149.988 180.315 160.808 183.673C171.397 186.968 182.06 185.832 190.828 180.485C199.597 175.137 205.465 166.206 207.398 155.304C207.616 154.075 208.314 152.982 209.337 152.267C210.361 151.552 211.626 151.273 212.855 151.491C214.085 151.709 215.177 152.406 215.892 153.43C216.607 154.453 216.886 155.719 216.668 156.948C214.258 170.543 206.821 181.753 195.73 188.519C188.79 192.752 180.812 194.977 172.683 194.946Z" fill="#333333"/>
<path d="M131.126 170.412C130.211 170.412 129.315 170.145 128.549 169.643C127.783 169.141 127.18 168.427 126.814 167.587C122.967 158.763 122.76 149.097 126.256 141.728C129.156 135.609 134.334 131.36 141.225 129.427C153.012 126.119 154.87 112.851 154.889 112.712C154.956 112.089 155.147 111.485 155.45 110.936C155.754 110.387 156.164 109.904 156.657 109.516C157.149 109.128 157.715 108.842 158.32 108.675C158.924 108.509 159.556 108.465 160.178 108.546C160.8 108.627 161.4 108.832 161.942 109.148C162.484 109.464 162.957 109.885 163.333 110.387C163.71 110.889 163.983 111.46 164.135 112.069C164.288 112.677 164.317 113.31 164.222 113.93C164.121 114.727 161.479 133.525 143.767 138.49C139.518 139.682 136.486 142.13 134.76 145.764C132.413 150.71 132.67 157.463 135.445 163.821C135.943 164.966 135.966 166.261 135.51 167.423C135.053 168.585 134.154 169.517 133.009 170.016C132.416 170.278 131.775 170.412 131.126 170.412Z" fill="#333333"/>
<path d="M118.63 277.72C111.775 277.706 105.083 275.632 99.4206 271.767C93.7587 267.903 89.3888 262.426 86.8778 256.047C86.8659 256.009 86.8511 255.971 86.8338 255.934L44.694 139.306C44.4158 138.531 43.8707 137.881 43.1565 137.472C42.4423 137.062 41.6056 136.92 40.7964 137.072L9.99802 142.79C9.39015 142.902 8.7661 142.894 8.16145 142.765C7.5568 142.636 6.98336 142.39 6.47398 142.04C5.96459 141.689 5.52921 141.242 5.19264 140.724C4.85608 140.205 4.62495 139.625 4.51244 139.018C4.39994 138.41 4.40828 137.786 4.53696 137.181C4.66564 136.576 4.91209 136.003 5.26236 135.493C5.61264 134.984 6.05986 134.549 6.5784 134.212C7.09695 133.876 7.6767 133.644 8.28457 133.532L39.0767 127.814C42.081 127.249 45.1883 127.774 47.8408 129.293C50.4934 130.813 52.5174 133.228 53.55 136.105L95.671 252.683C96.8975 255.796 98.7443 258.626 101.099 261.002C103.454 263.378 106.268 265.25 109.369 266.504C112.47 267.758 115.794 268.368 119.138 268.297C122.483 268.225 125.778 267.475 128.823 266.09C134.734 263.383 139.341 258.456 141.646 252.377C143.95 246.297 143.768 239.555 141.137 233.609L127.128 201.851C126.135 199.613 125.652 197.182 125.713 194.735C125.775 192.287 126.38 189.884 127.485 187.699C128.59 185.514 130.166 183.602 132.101 182.102C134.036 180.601 136.28 179.55 138.671 179.023L144.759 177.461C145.358 177.307 145.981 177.272 146.593 177.36C147.205 177.447 147.794 177.654 148.326 177.968C148.858 178.283 149.323 178.7 149.694 179.194C150.065 179.688 150.336 180.251 150.489 180.85C150.643 181.449 150.677 182.072 150.59 182.684C150.503 183.296 150.296 183.885 149.981 184.417C149.667 184.949 149.25 185.414 148.756 185.785C148.261 186.156 147.699 186.426 147.1 186.58L140.924 188.162L140.736 188.206C139.701 188.424 138.727 188.871 137.887 189.514C137.047 190.157 136.361 190.98 135.88 191.922C135.398 192.864 135.134 193.902 135.105 194.96C135.077 196.017 135.285 197.068 135.715 198.035L149.73 229.793C152.029 234.982 152.999 240.663 152.549 246.321C152.1 251.979 150.247 257.436 147.157 262.197C144.067 266.958 139.839 270.873 134.854 273.588C129.87 276.303 124.287 277.732 118.611 277.745L118.63 277.72Z" fill="#333333"/>
<path d="M116.999 246.545C116.067 246.545 115.156 246.269 114.38 245.752C113.605 245.235 113 244.499 112.643 243.639L86.0749 179.381C84.2953 175.158 83.3885 170.618 83.4093 166.036C83.43 161.453 84.3777 156.922 86.1955 152.716C88.0133 148.509 90.6636 144.714 93.9866 141.558C97.3097 138.402 101.237 135.952 105.532 134.354C106.116 134.114 106.742 133.994 107.373 134.002C108.004 134.009 108.628 134.143 109.206 134.396C109.784 134.65 110.306 135.016 110.739 135.475C111.173 135.934 111.51 136.475 111.73 137.067C111.95 137.658 112.049 138.288 112.021 138.919C111.993 139.549 111.838 140.168 111.566 140.737C111.294 141.307 110.91 141.816 110.438 142.234C109.965 142.653 109.413 142.972 108.814 143.172C105.708 144.329 102.868 146.102 100.465 148.386C98.063 150.67 96.1477 153.416 94.8352 156.46C93.5227 159.504 92.8401 162.782 92.8285 166.096C92.8169 169.411 93.4766 172.694 94.7678 175.747L121.355 240.042C121.65 240.757 121.764 241.534 121.687 242.303C121.611 243.073 121.346 243.812 120.916 244.454C120.486 245.097 119.904 245.624 119.222 245.989C118.54 246.353 117.778 246.544 117.005 246.545H116.999Z" fill="#333333"/>
<path d="M72.4985 138.998C71.5556 139.004 70.6326 138.726 69.8493 138.202C69.0659 137.677 68.4583 136.929 68.105 136.054L62.632 122.51C61.7304 120.68 60.2522 119.197 58.4251 118.29C56.5981 117.383 54.5234 117.101 52.5206 117.489L17.4229 124.205C16.8155 124.321 16.1911 124.316 15.5854 124.191C14.9797 124.066 14.4046 123.823 13.8929 123.476C13.3812 123.128 12.9429 122.683 12.6031 122.167C12.2632 121.65 12.0285 121.071 11.9123 120.464C11.7961 119.856 11.8006 119.232 11.9257 118.626C12.0508 118.021 12.2939 117.445 12.6413 116.934C12.9886 116.422 13.4335 115.984 13.9502 115.644C14.4669 115.304 15.0455 115.069 15.653 114.953L50.7444 108.244C54.8225 107.459 59.0459 108.053 62.7492 109.932C66.4526 111.812 69.4254 114.87 71.1992 118.625C71.2369 118.707 71.2745 118.788 71.3059 118.87L76.8354 132.552C77.1257 133.267 77.2359 134.041 77.1562 134.808C77.0765 135.575 76.8093 136.311 76.3783 136.95C75.9474 137.589 75.3658 138.113 74.6848 138.474C74.0038 138.836 73.2444 139.024 72.4734 139.023L72.4985 138.998Z" fill="#333333"/>
<path d="M73.1204 155.944C70.5756 155.944 68.088 155.19 65.9721 153.776C63.8562 152.362 62.2069 150.352 61.2331 148.001C60.2592 145.65 60.0044 143.063 60.5009 140.567C60.9974 138.072 62.2228 135.779 64.0222 133.979C65.8216 132.18 68.1142 130.955 70.6101 130.458C73.106 129.962 75.6931 130.216 78.0442 131.19C80.3953 132.164 82.4048 133.813 83.8186 135.929C85.2324 138.045 85.987 140.533 85.987 143.078C85.9837 146.489 84.627 149.76 82.2147 152.172C79.8025 154.584 76.5318 155.941 73.1204 155.944ZM73.1204 139.626C72.4376 139.626 71.7702 139.828 71.2025 140.207C70.6348 140.587 70.1924 141.126 69.9312 141.757C69.6699 142.387 69.6015 143.081 69.7347 143.751C69.8679 144.421 70.1966 145.036 70.6794 145.519C71.1622 146.001 71.7773 146.33 72.4469 146.463C73.1166 146.596 73.8106 146.528 74.4414 146.267C75.0722 146.006 75.6113 145.563 75.9906 144.995C76.3699 144.428 76.5724 143.76 76.5724 143.078C76.5708 142.163 76.2064 141.285 75.5594 140.638C74.9124 139.991 74.0354 139.627 73.1204 139.626Z" fill="#333333"/>
<path d="M83.1622 182.305C81.1906 182.305 79.2454 181.851 77.4769 180.98C75.7085 180.108 74.164 178.842 72.9626 177.279C71.7612 175.716 70.9349 173.897 70.5479 171.964C70.1609 170.031 70.2234 168.035 70.7304 166.129C71.2375 164.224 72.1755 162.461 73.4722 160.976C74.7689 159.491 76.3896 158.323 78.2091 157.564C80.0286 156.805 81.9983 156.474 83.966 156.597C85.9338 156.72 87.8469 157.293 89.5578 158.273C90.1195 158.566 90.616 158.97 91.0178 159.46C91.4196 159.951 91.7183 160.517 91.896 161.125C92.0736 161.733 92.1266 162.371 92.0517 163.001C91.9768 163.63 91.7756 164.238 91.4602 164.787C91.1448 165.337 90.7215 165.818 90.2159 166.2C89.7104 166.582 89.1329 166.858 88.518 167.012C87.9031 167.165 87.2635 167.193 86.6377 167.093C86.0118 166.994 85.4125 166.769 84.8756 166.432C84.3549 166.132 83.7634 165.976 83.1622 165.98C82.5946 165.98 82.0357 166.12 81.5352 166.388C81.0346 166.656 80.6079 167.043 80.2926 167.515C79.9773 167.987 79.7833 168.529 79.7278 169.094C79.6722 169.659 79.7568 170.229 79.974 170.753C80.1913 171.278 80.5345 171.74 80.9733 172.101C81.412 172.461 81.9328 172.707 82.4895 172.818C83.0462 172.929 83.6216 172.9 84.1648 172.736C84.708 172.571 85.2022 172.275 85.6036 171.874C86.4867 170.991 87.6844 170.495 88.9332 170.495C90.1821 170.495 91.3799 170.991 92.263 171.874C93.1461 172.757 93.6421 173.954 93.6421 175.203C93.6421 176.452 93.1461 177.65 92.263 178.533C91.0709 179.732 89.6526 180.683 88.0905 181.331C86.5283 181.978 84.8532 182.309 83.1622 182.305Z" fill="#333333"/>
<path d="M93.2048 209.921C89.7923 209.921 86.5195 208.566 84.1066 206.153C81.6936 203.74 80.3381 200.467 80.3381 197.055C80.3381 193.642 81.6936 190.369 84.1066 187.957C86.5195 185.544 89.7923 184.188 93.2048 184.188C94.4532 184.188 95.6505 184.684 96.5333 185.567C97.4161 186.449 97.9121 187.647 97.9121 188.895C97.9121 190.144 97.4161 191.341 96.5333 192.224C95.6505 193.107 94.4532 193.603 93.2048 193.603C92.6372 193.603 92.0783 193.743 91.5778 194.011C91.0772 194.278 90.6504 194.665 90.3352 195.137C90.0199 195.609 89.8259 196.152 89.7704 196.717C89.7148 197.282 89.7994 197.851 90.0166 198.376C90.2339 198.9 90.5771 199.363 91.0158 199.723C91.4546 200.083 91.9754 200.329 92.5321 200.44C93.0888 200.551 93.6642 200.523 94.2074 200.358C94.7506 200.193 95.2448 199.897 95.6462 199.496C96.5293 198.613 97.727 198.117 98.9758 198.117C100.225 198.117 101.422 198.613 102.306 199.496C103.189 200.379 103.685 201.577 103.685 202.826C103.685 204.075 103.189 205.272 102.306 206.155C101.113 207.354 99.6944 208.303 98.1323 208.95C96.5701 209.596 94.8954 209.926 93.2048 209.921Z" fill="#333333"/>
<path d="M103.875 237.537C100.462 237.537 97.1895 236.182 94.7765 233.769C92.3635 231.356 91.0081 228.083 91.0081 224.671C91.0081 221.258 92.3635 217.986 94.7765 215.573C97.1895 213.16 100.462 211.804 103.875 211.804C105.123 211.804 106.32 212.3 107.203 213.183C108.086 214.066 108.582 215.263 108.582 216.512C108.582 217.76 108.086 218.957 107.203 219.84C106.32 220.723 105.123 221.219 103.875 221.219C103.307 221.219 102.748 221.359 102.248 221.627C101.747 221.895 101.32 222.282 101.005 222.754C100.69 223.226 100.496 223.768 100.44 224.333C100.385 224.898 100.469 225.468 100.687 225.992C100.904 226.516 101.247 226.979 101.686 227.339C102.125 227.699 102.645 227.946 103.202 228.056C103.759 228.167 104.334 228.139 104.877 227.974C105.42 227.81 105.915 227.514 106.316 227.112C107.199 226.229 108.397 225.733 109.646 225.733C110.895 225.733 112.092 226.229 112.975 227.112C113.859 227.995 114.355 229.193 114.355 230.442C114.355 231.691 113.859 232.889 112.975 233.772C111.783 234.97 110.364 235.92 108.802 236.566C107.24 237.212 105.565 237.543 103.875 237.537Z" fill="#333333"/>
<path d="M164.756 178.54C163.827 178.542 162.919 178.269 162.145 177.755C161.371 177.242 160.767 176.51 160.408 175.654C160.05 174.797 159.953 173.853 160.13 172.941C160.307 172.03 160.751 171.191 161.404 170.531C162.796 168.867 163.814 166.923 164.392 164.832C165.741 160.131 164.907 155.066 161.919 149.769C153.703 135.264 144.295 138.258 143.253 138.647H143.316L139.751 129.935C145.858 127.425 160.055 127.425 170.11 145.149C175.602 154.846 174.855 162.943 173.248 168.033C172.229 171.411 170.47 174.52 168.101 177.134C167.664 177.578 167.144 177.931 166.57 178.172C165.995 178.413 165.379 178.538 164.756 178.54Z" fill="#333333"/>
<path d="M113.295 198.624C112.377 198.624 111.479 198.356 110.711 197.853C109.943 197.35 109.338 196.634 108.971 195.793L108.475 194.651C107.976 193.506 107.952 192.209 108.408 191.046C108.865 189.883 109.765 188.949 110.91 188.45C112.056 187.95 113.352 187.926 114.515 188.383C115.678 188.84 116.612 189.74 117.111 190.885L117.607 192.034C117.919 192.749 118.047 193.531 117.981 194.308C117.915 195.086 117.656 195.835 117.229 196.488C116.801 197.14 116.217 197.676 115.531 198.047C114.844 198.418 114.076 198.612 113.295 198.611V198.624Z" fill="#333333"/>
<path d="M107.647 185.443C106.726 185.444 105.824 185.174 105.055 184.667C104.285 184.161 103.681 183.44 103.316 182.594L100.806 176.813C98.8649 172.236 98.4512 167.155 99.6259 162.324C100.801 157.493 103.501 153.169 107.327 149.994C108.292 149.201 109.532 148.823 110.775 148.945C112.018 149.066 113.162 149.676 113.955 150.641C114.748 151.605 115.126 152.845 115.004 154.088C114.883 155.331 114.273 156.475 113.308 157.268C111.048 159.142 109.453 161.695 108.76 164.548C108.066 167.401 108.312 170.402 109.461 173.104L111.94 178.884C112.184 179.452 112.313 180.062 112.32 180.68C112.328 181.298 112.214 181.911 111.984 182.485C111.754 183.059 111.414 183.581 110.982 184.023C110.55 184.465 110.035 184.818 109.467 185.06C108.893 185.31 108.274 185.44 107.647 185.443Z" fill="#333333"/>
<path d="M217.866 89.0941C208.835 89.0941 201.485 82.6294 201.485 74.6584C201.485 66.6874 208.835 60.2227 217.866 60.2227C226.898 60.2227 234.254 66.6811 234.254 74.6584C234.254 82.6357 226.904 89.0941 217.866 89.0941ZM217.866 69.7C214.101 69.7 210.9 71.9846 210.9 74.7211C210.9 77.4577 214.094 79.7423 217.866 79.7423C221.639 79.7423 224.84 77.4577 224.84 74.7211C224.84 71.9846 221.645 69.7063 217.866 69.7063V69.7Z" fill="#333333"/>
<path d="M263.848 73.6669C254.816 73.6669 247.467 67.2022 247.467 59.2312C247.467 51.2601 254.816 44.7954 263.848 44.7954C272.88 44.7954 280.236 51.2601 280.236 59.2312C280.236 67.2022 272.886 73.6669 263.848 73.6669ZM263.848 54.2665C260.082 54.2665 256.881 56.5511 256.881 59.2876C256.881 62.0241 260.076 64.3088 263.848 64.3088C267.62 64.3088 270.821 62.0241 270.821 59.2876C270.821 56.5511 267.626 54.2665 263.848 54.2665Z" fill="#333333"/>
<path d="M229.547 79.4038C228.299 79.4038 227.102 78.9078 226.219 78.025C225.336 77.1423 224.84 75.945 224.84 74.6965V21.5667C224.846 20.6078 225.144 19.6736 225.695 18.8886C226.245 18.1036 227.022 17.5051 227.922 17.1732L273.903 0.289643C274.612 0.0285213 275.374 -0.0578554 276.124 0.0378814C276.874 0.133618 277.59 0.408676 278.212 0.839671C278.833 1.27067 279.341 1.84495 279.694 2.51397C280.046 3.18299 280.232 3.92703 280.236 4.68313V57.8192C280.236 59.0677 279.74 60.265 278.857 61.1478C277.974 62.0306 276.777 62.5266 275.528 62.5266C274.28 62.5266 273.083 62.0306 272.2 61.1478C271.317 60.265 270.821 59.0677 270.821 57.8192V11.424L234.255 24.8555V74.6965C234.255 75.945 233.759 77.1423 232.876 78.025C231.993 78.9078 230.796 79.4038 229.547 79.4038Z" fill="#333333"/>
<path d="M229.547 42.9819C228.441 42.9839 227.369 42.5963 226.52 41.887C225.671 41.1778 225.099 40.1922 224.905 39.1032C224.71 38.0142 224.905 36.8915 225.455 35.932C226.006 34.9724 226.877 34.2374 227.915 33.856L273.902 16.9096C275.074 16.4785 276.369 16.5306 277.503 17.0544C278.636 17.5782 279.516 18.5307 279.947 19.7026C280.378 20.8745 280.326 22.1697 279.802 23.3032C279.278 24.4367 278.325 25.3157 277.154 25.7468L231.173 42.6931C230.652 42.8858 230.102 42.9836 229.547 42.9819Z" fill="#333333"/>
<path d="M235.686 156.572C234.675 156.573 233.69 156.249 232.878 155.648C232.066 155.046 231.469 154.199 231.175 153.232C230.882 152.265 230.907 151.229 231.248 150.277C231.589 149.326 232.227 148.509 233.068 147.948L253.981 134.009C256.63 132.247 258.749 129.797 260.111 126.922C261.474 124.047 262.028 120.856 261.714 117.69C261.281 113.083 262.034 108.443 263.902 104.21C265.769 99.9766 268.689 96.2921 272.384 93.5068L292.468 78.4434C292.963 78.0725 293.526 77.8027 294.124 77.6492C294.723 77.4958 295.346 77.4618 295.958 77.5493C296.57 77.6367 297.159 77.8438 297.691 78.1587C298.223 78.4737 298.688 78.8904 299.058 79.3849C299.429 79.8794 299.699 80.4422 299.853 81.041C300.006 81.6399 300.04 82.2631 299.953 82.875C299.865 83.487 299.658 84.0757 299.343 84.6076C299.028 85.1395 298.612 85.6042 298.117 85.9751L278.032 101.039C275.629 102.852 273.73 105.251 272.515 108.006C271.301 110.762 270.813 113.782 271.097 116.78C271.576 121.64 270.723 126.539 268.63 130.952C266.537 135.365 263.283 139.125 259.216 141.829L238.303 155.769C237.53 156.292 236.619 156.572 235.686 156.572Z" fill="#333333"/>
<path d="M196.772 149.041C195.746 149.046 194.747 148.717 193.926 148.103C193.105 147.489 192.507 146.623 192.223 145.638C191.939 144.653 191.984 143.602 192.352 142.645C192.72 141.687 193.39 140.877 194.261 140.335L222.637 122.674C225.267 120.909 227.37 118.464 228.722 115.599C230.073 112.735 230.623 109.557 230.313 106.405C230.253 105.79 230.315 105.169 230.495 104.577C230.676 103.986 230.971 103.436 231.363 102.959C231.756 102.481 232.239 102.086 232.785 101.796C233.33 101.505 233.928 101.324 234.543 101.265C235.158 101.205 235.779 101.267 236.371 101.447C236.962 101.627 237.512 101.922 237.99 102.315C238.467 102.708 238.862 103.191 239.153 103.737C239.443 104.282 239.624 104.88 239.684 105.495C240.162 110.355 239.31 115.255 237.217 119.667C235.123 124.08 231.869 127.84 227.802 130.544L227.677 130.626L199.238 148.332C198.498 148.792 197.644 149.038 196.772 149.041Z" fill="#333333"/>
<path d="M172.287 34.3266C171.039 34.3266 169.842 33.8307 168.959 32.9479C168.076 32.0651 167.58 30.8678 167.58 29.6193V24.4475C167.58 23.1991 168.076 22.0017 168.959 21.1189C169.842 20.2362 171.039 19.7402 172.287 19.7402C173.536 19.7402 174.733 20.2362 175.616 21.1189C176.499 22.0017 176.995 23.1991 176.995 24.4475V29.613C176.996 30.2319 176.876 30.8451 176.64 31.4173C176.404 31.9895 176.057 32.5096 175.62 32.9475C175.183 33.3855 174.663 33.7327 174.091 33.9693C173.519 34.206 172.906 34.3274 172.287 34.3266Z" fill="#333333"/>
<path d="M172.287 61.1709C171.039 61.1709 169.842 60.675 168.959 59.7922C168.076 58.9094 167.58 57.7121 167.58 56.4636V51.2981C167.58 50.0497 168.076 48.8523 168.959 47.9695C169.842 47.0867 171.039 46.5908 172.287 46.5908C173.536 46.5908 174.733 47.0867 175.616 47.9695C176.499 48.8523 176.995 50.0497 176.995 51.2981V56.4573C176.996 57.076 176.874 57.6888 176.638 58.2606C176.402 58.8325 176.055 59.3522 175.618 59.79C175.181 60.2278 174.662 60.575 174.09 60.812C173.519 61.0489 172.906 61.1709 172.287 61.1709Z" fill="#333333"/>
<path d="M161.454 45.1597H156.283C155.034 45.1597 153.837 44.6638 152.954 43.781C152.071 42.8982 151.575 41.7009 151.575 40.4524C151.575 39.204 152.071 38.0066 152.954 37.1238C153.837 36.241 155.034 35.7451 156.283 35.7451H161.454C162.703 35.7451 163.9 36.241 164.783 37.1238C165.666 38.0066 166.162 39.204 166.162 40.4524C166.162 41.7009 165.666 42.8982 164.783 43.781C163.9 44.6638 162.703 45.1597 161.454 45.1597Z" fill="#333333"/>
<path d="M188.292 45.1597H183.126C181.878 45.1597 180.681 44.6638 179.798 43.781C178.915 42.8982 178.419 41.7009 178.419 40.4524C178.419 39.204 178.915 38.0066 179.798 37.1238C180.681 36.241 181.878 35.7451 183.126 35.7451H188.292C189.54 35.7451 190.738 36.241 191.62 37.1238C192.503 38.0066 192.999 39.204 192.999 40.4524C192.999 41.7009 192.503 42.8982 191.62 43.781C190.738 44.6638 189.54 45.1597 188.292 45.1597Z" fill="#333333"/>
</svg>
