<svg width="301" height="280" viewBox="0 0 301 280" fill="none" xmlns="http://www.w3.org/2000/svg">
<g clip-path="url(#clip0_106_75)">
<path d="M224.289 19.64C296.152 60.584 321.303 152.373 280.365 224.227C267.504 246.814 248.996 265.671 226.65 278.953C226.045 279.367 225.361 279.652 224.634 279.793C223.917 279.931 223.173 279.92 222.456 279.76C221.739 279.601 221.061 279.297 220.47 278.865C219.874 278.433 219.376 277.885 219.001 277.252C218.628 276.619 218.388 275.919 218.296 275.189C218.204 274.463 218.263 273.722 218.466 273.015C218.673 272.31 219.021 271.656 219.489 271.089C219.958 270.526 220.54 270.062 221.192 269.728C241.926 257.394 259.1 239.886 271.028 218.916C309.044 152.197 285.684 66.988 218.971 28.978C152.257 -9.03103 67.0501 14.317 29.0371 81.039C14.7441 105.997 8.58215 134.789 11.4141 163.405C11.4801 164.109 11.4121 164.819 11.2051 165.492C11.0001 166.164 10.6641 166.795 10.2191 167.339C9.31715 168.441 8.01015 169.136 6.59415 169.277C5.17415 169.415 3.76215 168.986 2.65815 168.08C1.55815 167.178 0.863149 165.873 0.722149 164.455C-2.32285 133.623 4.31015 102.608 19.7041 75.725C60.6542 3.84997 152.427 -21.303 224.289 19.64Z" fill="#333333"/>
<path d="M241.573 223.246H189.242C186.757 223.246 184.742 221.231 184.742 218.746C184.742 216.261 186.757 214.246 189.242 214.246H241.573C241.848 214.246 242.073 214.021 242.073 213.746V73.7461C242.073 73.4701 241.848 73.2461 241.573 73.2461H58.2402C57.9642 73.2461 57.7402 73.4701 57.7402 73.7461V213.746C57.7402 214.021 57.9642 214.246 58.2402 214.246H107.241C109.726 214.246 111.741 216.261 111.741 218.746C111.741 221.231 109.726 223.246 107.241 223.246H58.2402C53.0022 223.246 48.7402 218.984 48.7402 213.746V73.7461C48.7402 68.5081 53.0022 64.2461 58.2402 64.2461H241.573C246.811 64.2461 251.073 68.5081 251.073 73.7461V213.746C251.073 218.984 246.811 223.246 241.573 223.246Z" fill="#333333"/>
<path d="M175.101 258.612C153.499 258.612 107.395 242.692 102.828 223.448C102.072 220.266 103.443 216.686 107.272 211.841C118.828 197.22 156.44 168.713 169.298 168.713C170.37 168.713 171.361 168.883 172.243 169.218C174.217 169.967 179.462 171.958 186.017 196.995C189.676 210.967 192.153 226.469 192.481 237.45C192.818 248.717 190.979 254.635 186.517 256.64C183.608 257.949 179.767 258.612 175.101 258.612ZM111.666 221.677C114.959 233.022 152.474 249.613 175.101 249.613C178.89 249.613 181.142 249.094 182.428 248.598C183.249 247.057 184.521 240.289 182.187 223.606C179.01 200.894 172.292 181.001 169.032 177.73C164.858 178.093 152.07 185.086 137.073 196.582C120.523 209.267 112.366 218.754 111.666 221.677Z" fill="#333333"/>
<path d="M153.522 237.375C151.184 237.375 148.882 236.952 146.681 236.116C136.741 232.34 131.725 221.182 135.499 211.242C138.323 203.801 145.569 198.8 153.529 198.8C155.867 198.8 158.17 199.224 160.371 200.06C165.187 201.889 169.002 205.483 171.114 210.181C173.225 214.878 173.382 220.118 171.553 224.933C168.728 232.375 161.482 237.375 153.522 237.375ZM153.529 207.8C149.284 207.8 145.42 210.467 143.913 214.437C141.9 219.739 144.576 225.689 149.876 227.703C151.052 228.149 152.279 228.376 153.522 228.376C157.767 228.376 161.632 225.709 163.14 221.738C164.116 219.171 164.032 216.377 162.906 213.871C161.78 211.366 159.745 209.449 157.177 208.475C156 208.026 154.772 207.8 153.529 207.8Z" fill="#333333"/>
<path d="M239.886 114.325C236.144 114.325 232.625 112.867 229.979 110.219C228.548 108.786 227.472 107.099 226.782 105.279C225.636 105.577 224.446 105.731 223.231 105.731C223.231 105.731 223.231 105.731 223.23 105.731C219.488 105.731 215.969 104.273 213.324 101.624C209.756 98.0509 208.519 93.0129 209.617 88.4249C208.004 87.7309 206.517 86.7349 205.253 85.4689C199.794 80.0049 199.793 71.1129 205.252 65.6469C207.008 63.8889 209.857 63.8869 211.615 65.6429C213.374 67.3989 213.376 70.2489 211.619 72.0069C209.664 73.9649 209.664 77.1499 211.621 79.1079C212.744 80.2329 214.295 80.7509 215.871 80.5249C217.784 80.2499 219.663 81.2349 220.53 82.9659C221.396 84.6969 221.058 86.7889 219.69 88.1589C217.735 90.1169 217.736 93.3039 219.691 95.2619C220.636 96.2089 221.894 96.7299 223.231 96.7299C224.568 96.7299 225.825 96.2089 226.771 95.2619C226.93 95.1029 227.082 94.9279 227.234 94.7269C228.557 92.9859 230.94 92.4499 232.881 93.4529C234.823 94.4559 235.763 96.7099 235.11 98.7959C234.547 100.592 235.021 102.531 236.345 103.857C237.291 104.803 238.549 105.325 239.886 105.325C241.223 105.325 242.481 104.803 243.428 103.856C245.183 102.099 248.034 102.098 249.791 103.854C251.549 105.611 251.55 108.46 249.793 110.218C247.147 112.866 243.628 114.325 239.886 114.325Z" fill="#333333"/>
<path d="M60.606 114.948C57.017 114.948 53.428 113.583 50.695 110.852C48.937 109.095 48.936 106.246 50.694 104.488C52.45 102.731 55.299 102.729 57.058 104.487C59.015 106.443 62.199 106.442 64.156 104.487C65.281 103.362 65.798 101.813 65.573 100.237C65.3 98.3201 66.283 96.4441 68.014 95.5771C69.744 94.7121 71.836 95.0491 73.207 96.4171C75.165 98.3731 78.352 98.3721 80.311 96.4161C81.257 95.4711 81.778 94.2141 81.778 92.8761C81.778 91.5381 81.257 90.2821 80.31 89.3361C80.152 89.1781 79.975 89.0251 79.78 88.8781C78.038 87.5561 77.498 85.1731 78.5 83.2301C79.502 81.2871 81.759 80.3431 83.843 80.9981C85.641 81.5591 87.579 81.0861 88.906 79.7611C89.851 78.8171 90.373 77.5591 90.373 76.2211C90.373 74.8841 89.851 73.6271 88.904 72.6811C87.145 70.9251 87.143 68.0761 88.9 66.3171C90.656 64.5581 93.505 64.5561 95.264 66.3131C97.914 68.9591 99.373 72.4781 99.373 76.2211C99.373 79.9631 97.915 83.4811 95.267 86.1281C93.834 87.5591 92.146 88.6341 90.326 89.3251C90.624 90.4711 90.778 91.6611 90.778 92.8761C90.778 96.6191 89.32 100.137 86.671 102.783C83.097 106.352 78.058 107.588 73.471 106.49C72.778 108.102 71.782 109.59 70.517 110.854C67.785 113.583 64.195 114.948 60.606 114.948Z" fill="#333333"/>
<path d="M130.069 90.9231H109.965C107.48 90.9231 105.465 88.9081 105.465 86.4231C105.465 83.9381 107.48 81.9231 109.965 81.9231H130.069C132.554 81.9231 134.569 83.9381 134.569 86.4231C134.569 88.9081 132.554 90.9231 130.069 90.9231Z" fill="#333333"/>
<path d="M188.675 90.9231H168.571C166.086 90.9231 164.071 88.9081 164.071 86.4231C164.071 83.9381 166.086 81.9231 168.571 81.9231H188.675C191.16 81.9231 193.175 83.9381 193.175 86.4231C193.175 88.9081 191.161 90.9231 188.675 90.9231Z" fill="#333333"/>
<path d="M148.99 99.6121C146.505 99.6121 144.49 97.5971 144.49 95.1121V86.4241C144.49 83.9391 146.505 81.9241 148.99 81.9241C151.475 81.9241 153.49 83.9391 153.49 86.4241V95.1121C153.49 97.5971 151.475 99.6121 148.99 99.6121Z" fill="#333333"/>
<path d="M79.9251 148.355C78.1441 148.355 76.4581 147.292 75.7511 145.539L72.4991 137.483C71.5691 135.178 72.6831 132.556 74.9871 131.626C77.2941 130.697 79.9141 131.81 80.8441 134.114L84.0961 142.17C85.0261 144.475 83.9121 147.097 81.6081 148.027C81.0561 148.25 80.4861 148.355 79.9251 148.355Z" fill="#333333"/>
<path d="M102.742 141.287C100.755 141.287 98.9364 139.961 98.3984 137.95L96.1514 129.558C95.5084 127.157 96.9334 124.69 99.3344 124.047C101.735 123.403 104.202 124.829 104.845 127.23L107.092 135.622C107.735 138.022 106.31 140.49 103.909 141.133C103.519 141.237 103.127 141.287 102.742 141.287Z" fill="#333333"/>
<path d="M126.252 137.053C124.044 137.053 122.117 135.426 121.801 133.177L120.595 124.573C120.25 122.112 121.966 119.837 124.427 119.492C126.885 119.144 129.163 120.863 129.508 123.324L130.714 131.927C131.059 134.389 129.343 136.663 126.882 137.008C126.671 137.038 126.46 137.053 126.252 137.053Z" fill="#333333"/>
<path d="M150.111 135.715C147.661 135.715 145.655 133.751 145.613 131.292L145.464 122.605C145.422 120.12 147.401 118.071 149.886 118.028C152.387 117.975 154.42 119.965 154.463 122.45L154.612 131.137C154.654 133.621 152.675 135.671 150.19 135.713C150.164 135.715 150.137 135.715 150.111 135.715Z" fill="#333333"/>
<path d="M173.958 137.296C173.8 137.296 173.641 137.288 173.48 137.272C171.008 137.011 169.216 134.796 169.476 132.325L170.386 123.685C170.647 121.213 172.872 119.418 175.333 119.681C177.805 119.941 179.597 122.156 179.337 124.627L178.427 133.268C178.184 135.579 176.232 137.296 173.958 137.296Z" fill="#333333"/>
<path d="M197.426 141.77C197.091 141.77 196.75 141.732 196.409 141.654C193.987 141.094 192.477 138.678 193.037 136.257L194.992 127.793C195.552 125.373 197.966 123.864 200.389 124.421C202.811 124.981 204.321 127.397 203.761 129.818L201.806 138.282C201.327 140.362 199.474 141.77 197.426 141.77Z" fill="#333333"/>
<path d="M218.145 151.046C217.477 151.046 216.799 150.897 216.16 150.582C213.931 149.483 213.014 146.786 214.111 144.557L219.105 134.417C220.204 132.188 222.902 131.272 225.13 132.368C227.359 133.467 228.276 136.164 227.179 138.393L222.185 148.533C221.402 150.123 219.805 151.046 218.145 151.046Z" fill="#333333"/>
<path d="M95.9062 271.246H83.9072C81.4222 271.246 79.4072 269.231 79.4072 266.746C79.4072 264.261 81.4222 262.246 83.9072 262.246H95.9062C98.3912 262.246 100.406 264.261 100.406 266.746C100.406 269.231 98.3912 271.246 95.9062 271.246Z" fill="#333333"/>
<path d="M138.74 271.246H116.572C114.087 271.246 112.072 269.231 112.072 266.746C112.072 264.261 114.087 262.246 116.572 262.246H138.74C141.225 262.246 143.24 264.261 143.24 266.746C143.24 269.231 141.225 271.246 138.74 271.246Z" fill="#333333"/>
<path d="M130.069 181.245H107.135C104.65 181.245 102.635 179.23 102.635 176.745C102.635 174.26 104.65 172.245 107.135 172.245H130.069C132.554 172.245 134.569 174.26 134.569 176.745C134.569 179.23 132.554 181.245 130.069 181.245Z" fill="#333333"/>
<path d="M107.135 201.245H69.5732C67.0882 201.245 65.0732 199.23 65.0732 196.745C65.0732 194.26 67.0882 192.245 69.5732 192.245H107.136C109.621 192.245 111.636 194.26 111.636 196.745C111.636 199.23 109.621 201.245 107.135 201.245Z" fill="#333333"/>
</g>
<defs>
<clipPath id="clip0_106_75">
<rect width="300.002" height="279.888" fill="white"/>
</clipPath>
</defs>
</svg>
