<svg width="330" height="301" viewBox="0 0 330 301" fill="none" xmlns="http://www.w3.org/2000/svg">
<g clip-path="url(#clip0_106_634)">
<path d="M231.618 25.789C231.429 25.079 231.093 24.414 230.639 23.842C230.178 23.263 229.612 22.79 228.963 22.444C206.856 8.76704 181.583 1.07104 155.606 0.106038C72.9671 -2.97996 3.19806 61.751 0.106063 144.399C-2.98194 227.048 61.7411 296.803 144.403 299.891C147.028 299.995 149.677 300.356 152.267 299.98C159.636 298.912 159.324 289.849 152.836 289.193C150.163 289.255 147.486 289.264 144.803 289.158C68.0671 286.293 7.97706 221.528 10.8441 144.8C13.7131 68.069 78.4771 7.97004 155.213 10.838C179.32 11.725 202.783 18.859 223.305 31.545C223.905 31.971 224.584 32.271 225.301 32.426C226.018 32.581 226.758 32.585 227.481 32.444C228.202 32.298 228.885 32.009 229.489 31.59C230.093 31.171 230.602 30.637 230.991 30.011C231.378 29.387 231.634 28.692 231.741 27.964C231.848 27.236 231.807 26.498 231.618 25.789Z" fill="#333333"/>
<path d="M167.44 189.625L123.148 176.01C119.827 175.906 117.216 173.132 117.317 169.807L120.024 81.9601C120.127 78.6361 122.905 76.0261 126.227 76.1271L214.815 54.7681C218.14 54.8711 220.75 57.6461 220.648 60.9721L216.778 186.488" stroke="#333333" stroke-width="9" stroke-miterlimit="10" stroke-linecap="round" stroke-linejoin="round"/>
<path d="M206.081 74.374L137.224 91.339" stroke="#333333" stroke-width="9" stroke-miterlimit="10" stroke-linecap="round" stroke-linejoin="round"/>
<path d="M117.734 164.923L120.158 86.265C120.295 81.849 116.824 78.159 112.407 78.021L57.8755 85.614C43.1995 91.276 32.5825 105.3 32.0685 122.013C31.5515 138.726 41.2835 153.376 55.5865 159.932L68.6835 171.414L88.5135 245.227C89.6635 249.493 94.0525 252.024 98.3205 250.876L108.559 248.127C112.825 246.979 115.358 242.59 114.209 238.322L96.4635 172.269L109.49 172.671C113.906 172.81 117.597 169.339 117.734 164.923Z" stroke="#333333" stroke-width="9" stroke-miterlimit="10" stroke-linecap="round" stroke-linejoin="round"/>
<path d="M233.971 146.785L260.121 142.323C264.539 142.458 268.228 138.989 268.366 134.572L268.946 115.781C269.08 111.364 265.612 107.674 261.194 107.536L235.369 101.472L233.971 146.785Z" stroke="#333333" stroke-width="9" stroke-miterlimit="10" stroke-linecap="round" stroke-linejoin="round"/>
<path d="M260.889 76.874L297.963 56.521" stroke="#333333" stroke-width="9" stroke-miterlimit="10" stroke-linecap="round" stroke-linejoin="round"/>
<path d="M293.981 125.956L325.437 126.926" stroke="#333333" stroke-width="9" stroke-miterlimit="10" stroke-linecap="round" stroke-linejoin="round"/>
<path d="M272.49 165.257L307.771 189.292" stroke="#333333" stroke-width="9" stroke-miterlimit="10" stroke-linecap="round" stroke-linejoin="round"/>
<path d="M263.693 286.13C263.557 290.547 259.868 294.017 255.449 293.88L171.565 291.293C167.146 291.157 163.678 287.468 163.815 283.05L166.591 192.945C166.728 188.527 170.418 185.058 174.835 185.194L258.72 187.781C263.138 187.918 266.608 191.607 266.47 196.023L263.693 286.13Z" stroke="#333333" stroke-width="9" stroke-miterlimit="10" stroke-linecap="round" stroke-linejoin="round"/>
<path d="M167.92 203.926L263.338 206.869" stroke="#333333" stroke-width="9" stroke-miterlimit="10" stroke-linecap="round" stroke-linejoin="round"/>
<path d="M193.557 237.191L215.511 266.134L245.67 224.449" stroke="#333333" stroke-width="9" stroke-miterlimit="10" stroke-linecap="round" stroke-linejoin="round"/>
</g>
<defs>
<clipPath id="clip0_106_634">
<rect width="329.937" height="300.147" fill="white"/>
</clipPath>
</defs>
</svg>
