<svg width="300" height="302" viewBox="0 0 300 302" fill="none" xmlns="http://www.w3.org/2000/svg">
<path d="M158.075 302C139.44 302.001 120.988 298.342 103.772 291.232C86.5551 284.122 70.9119 273.701 57.7352 260.563C44.5584 247.425 34.1062 231.828 26.9754 214.662C19.8446 197.496 16.1749 179.098 16.1758 160.518C16.1751 155.691 16.4202 150.866 16.9102 146.064C16.962 145.407 17.1449 144.767 17.4482 144.181C17.7516 143.595 18.1692 143.076 18.6766 142.654C19.184 142.231 19.771 141.914 20.403 141.721C21.035 141.528 21.6994 141.462 22.3571 141.529C23.0148 141.595 23.6526 141.792 24.233 142.107C24.8134 142.423 25.3247 142.851 25.7369 143.366C26.1491 143.881 26.4539 144.474 26.6334 145.108C26.8129 145.742 26.8634 146.406 26.7821 147.06C26.3363 151.532 26.1155 156.024 26.1205 160.518C26.1205 233.086 85.3258 292.104 158.095 292.104C230.864 292.104 290.063 233.073 290.063 160.518C290.07 136.057 283.237 112.079 270.332 91.2749C257.428 70.4711 238.962 53.6661 217.009 42.7467C216.421 42.4596 215.896 42.0592 215.463 41.5687C215.031 41.0781 214.7 40.507 214.49 39.8885C214.281 39.2699 214.196 38.6161 214.24 37.9646C214.285 37.3131 214.459 36.677 214.751 36.0927C215.044 35.5085 215.449 34.9877 215.945 34.5605C216.44 34.1334 217.015 33.8083 217.637 33.6038C218.259 33.3994 218.916 33.3196 219.569 33.3693C220.222 33.419 220.859 33.5972 221.442 33.8934C250.057 48.1277 273.011 71.581 286.584 100.451C300.156 129.321 303.551 161.915 296.219 192.95C288.886 223.985 271.255 251.641 246.185 271.434C221.114 291.227 190.074 301.998 158.095 302H158.075Z" fill="#333333"/>
<path d="M137.174 266.389C136.781 266.388 136.391 266.342 136.009 266.25C134.953 265.996 134.01 265.404 133.325 264.563C132.64 263.723 132.251 262.682 132.218 261.599C131.999 254.811 122.842 233.093 105.361 213.962C102.668 211.019 99.7369 208.024 96.6337 204.884C82.6198 190.667 66.74 174.537 64.3646 152.43C64.2576 151.143 64.6596 149.866 65.4847 148.87C66.3098 147.874 67.4927 147.24 68.7807 147.102C70.0686 146.964 71.3594 147.334 72.3776 148.133C73.3958 148.931 74.0606 150.094 74.23 151.375C76.215 170.064 90.8376 184.882 103.713 197.951C106.883 201.176 109.88 204.218 112.692 207.292C125.667 221.489 135.632 238.813 139.886 251.136C149.944 242.382 167.855 232.005 184.734 225.658C189.59 223.838 194.659 222.274 200.058 220.611C222.686 213.638 246.089 206.428 252.772 180.033C256.358 165.882 255.922 152.681 251.502 141.862C247.585 132.257 240.783 124.888 231.844 120.547C222.823 116.267 212.557 115.374 202.929 118.033C191.972 120.956 181.902 128.015 173.816 138.438C173.222 139.202 172.416 139.776 171.498 140.089C170.58 140.402 169.591 140.439 168.652 140.197C167.712 139.955 166.865 139.444 166.214 138.727C165.564 138.009 165.138 137.118 164.99 136.162C161.853 115.81 151.26 100.604 135.923 94.4352C134.72 93.9327 133.763 92.9779 133.261 91.7774C132.758 90.5769 132.75 89.2274 133.238 88.0209C133.726 86.8145 134.671 85.8483 135.868 85.3314C137.065 84.8144 138.419 84.7883 139.635 85.2587C155.64 91.6909 167.345 105.848 172.678 124.841C190.861 106.937 215.375 101.56 236.197 111.647C247.354 117.162 256.073 126.593 260.679 138.128C265.893 150.907 266.482 166.238 262.373 182.447C254.327 214.232 225.849 223.013 202.969 230.065C197.729 231.675 192.779 233.199 188.207 234.914C164.943 243.635 144.683 258.096 141.494 263.829C141.068 264.601 140.443 265.246 139.684 265.696C138.924 266.146 138.057 266.385 137.174 266.389Z" fill="#333333"/>
<path d="M93.1863 146.189C92.473 146.19 91.768 146.036 91.1195 145.74C90.4709 145.444 89.894 145.012 89.428 144.474C86.8409 141.492 73.8724 134.684 58.2903 132.322C55.8223 131.946 53.2087 131.663 50.4364 131.333C34.2324 129.486 14.0452 127.19 4.8349 106.541C-4.07765 86.6175 -0.458429 67.0109 13.9591 56.5875C20.6327 51.8369 28.8269 49.7022 36.9783 50.5907C43.2633 51.2911 49.303 53.4219 54.6314 56.8184C57.5824 39.5604 69.5716 29.2557 81.627 26.4718C98.8831 22.4805 115.855 32.4618 124.873 51.8903C134.044 71.6816 123.226 87.7455 114.531 100.709C112.619 103.559 110.806 106.25 109.238 108.863C101.358 122.255 97.4539 137.105 98.0362 140.41C98.2269 141.477 98.0608 142.576 97.5634 143.539C97.0661 144.502 96.2651 145.276 95.2837 145.741C94.6248 146.038 93.9096 146.191 93.1863 146.189ZM33.2862 60.2885C28.4365 60.2548 23.7028 61.7663 19.7751 64.6029C9.28784 72.1698 6.97864 87.0332 13.8996 102.51C20.8205 117.987 36.449 119.781 51.5613 121.503C54.4262 121.826 57.1324 122.163 59.7856 122.539C71.1331 124.261 81.8719 128.192 89.1237 132.236C91.0028 123.891 95.3366 112.973 100.709 103.829C102.397 100.966 104.289 98.1492 106.287 95.1739C114.723 82.6394 122.696 70.7646 115.868 56.0465C107.418 37.8451 93.7949 33.8208 83.87 36.11C69.6775 39.4086 63.6035 53.5594 63.8813 66.1533C63.9029 67.1215 63.639 68.0746 63.1224 68.8947C62.6059 69.7148 61.8593 70.3657 60.9752 70.7667C60.0911 71.1678 59.1085 71.3014 58.149 71.1509C57.1895 71.0004 56.2954 70.5725 55.5775 69.9202C48.5639 63.5672 40.6704 60.2885 33.2862 60.2885Z" fill="#333333"/>
<path d="M158.135 66.9057C157.779 66.9053 157.424 66.8655 157.076 66.787C156.015 66.5572 155.058 65.9859 154.354 65.1611C153.65 64.3362 153.237 63.3035 153.179 62.2219C153.027 60.7507 150.354 54.5955 144.968 48.9616C144.108 48.0644 143.148 47.1342 142.136 46.1512C136.002 40.2138 127.579 32.0467 130.702 19.3737C133.653 7.2812 142.275 -0.331921 152.669 0.0111286C160.874 0.275013 166.717 5.28881 170.018 11.5561C176.317 7.12281 183.973 6.12005 190.788 9.24707C197.92 12.5126 205.066 21.4715 201.738 35.9653C198.926 48.236 188.26 51.7983 180.472 54.3778C178.818 54.9254 177.263 55.4467 175.841 56.0008C168.9 58.7848 163.355 63.0663 162.449 64.3395C162.024 65.1117 161.401 65.7568 160.642 66.208C159.884 66.6592 159.018 66.9 158.135 66.9057ZM162.528 64.2669V64.3065V64.2669ZM152.054 9.90678C146.682 9.90678 142.129 14.5247 140.343 21.7287C138.708 28.4116 142.738 32.9438 149.057 39.0726C150.096 40.0819 151.168 41.1176 152.153 42.1534C155.325 45.5033 158.035 49.2594 160.212 53.3224C163.944 50.7226 167.954 48.5453 172.169 46.8308C173.836 46.171 175.609 45.5773 177.33 45.0033C185.521 42.2787 190.563 40.1611 192.065 33.7883C194.05 25.0933 190.576 20.0663 186.646 18.2719C182.894 16.55 176.78 16.8932 171.891 23.4969C171.314 24.2758 170.52 24.8687 169.609 25.2022C168.697 25.5358 167.707 25.5952 166.762 25.3733C165.816 25.1513 164.957 24.6578 164.291 23.9537C163.624 23.2495 163.179 22.3658 163.011 21.4121C161.807 14.6105 157.625 10.1047 152.352 9.9332L152.054 9.90678Z" fill="#333333"/>
</svg>
