<svg width="274" height="301" viewBox="0 0 274 301" fill="none" xmlns="http://www.w3.org/2000/svg">
<g clip-path="url(#clip0_106_610)">
<path d="M2.31533 176.18C-12.1147 94.741 42.4133 16.738 123.842 2.308C149.435 -2.234 175.766 -0.0469961 200.262 8.652C200.967 8.854 201.623 9.198 202.195 9.666C202.759 10.129 203.227 10.709 203.562 11.362C203.898 12.015 204.096 12.73 204.143 13.462C204.192 14.196 204.088 14.93 203.841 15.623C203.593 16.316 203.207 16.946 202.706 17.483C202.205 18.019 201.598 18.446 200.924 18.741C200.249 19.033 199.524 19.184 198.789 19.183C198.057 19.183 197.327 19.033 196.653 18.743C173.916 10.677 149.475 8.658 125.722 12.882C50.1113 26.279 -0.500671 98.699 12.8963 174.302C26.2943 249.906 98.7063 300.525 174.317 287.123C202.648 282.169 228.731 268.508 248.933 248.043C249.431 247.542 250.021 247.142 250.671 246.87C251.318 246.598 252.019 246.453 252.722 246.448C254.146 246.438 255.516 246.998 256.529 247.999C257.542 249.002 258.115 250.364 258.123 251.789C258.132 253.214 257.572 254.582 256.571 255.597C234.802 277.641 206.709 292.36 176.193 297.699C94.7423 312.133 16.7483 257.619 2.31533 176.18Z" fill="#333333"/>
<path d="M104.283 219.819C103.405 219.819 102.536 219.562 101.79 219.065C100.681 218.328 99.9572 217.136 99.8112 215.812C96.1382 182.522 53.9552 164.116 53.5292 163.934C51.8912 163.234 50.8212 161.632 50.7992 159.851C50.7772 158.07 51.8082 156.444 53.4292 155.703C61.7802 151.888 70.2902 149.954 78.7232 149.954C121.632 149.954 149.019 198.709 150.164 200.785C150.822 201.979 150.904 203.408 150.386 204.67C149.868 205.932 148.804 206.89 147.496 207.275L105.556 219.635C105.138 219.758 104.709 219.819 104.283 219.819ZM66.5722 160.532C79.7592 168.124 102.506 184.517 107.901 209.561L139.286 200.311C131.46 188.476 108.911 158.955 78.7222 158.955C74.6982 158.955 70.6352 159.483 66.5722 160.532Z" fill="#333333"/>
<path d="M190.767 194.33C189.859 194.33 188.96 194.055 188.199 193.525C187.079 192.746 186.373 191.502 186.278 190.14C186.221 189.321 184.958 169.828 191.069 148.964C199.392 120.549 217.383 103.549 243.099 99.801C244.799 99.555 246.501 100.3 247.47 101.726C248.439 103.152 248.507 105.006 247.647 106.499C247.407 106.918 223.615 148.921 237.443 175.145C238.072 176.338 238.133 177.75 237.608 178.994C237.084 180.237 236.029 181.179 234.735 181.56L192.04 194.144C191.621 194.269 191.192 194.33 190.767 194.33ZM235.427 110.738C218.091 116.197 206.117 129.795 199.77 151.277C195.956 164.186 195.216 176.817 195.151 183.846L227.261 174.382C218.967 152.181 229.053 124.584 235.427 110.738Z" fill="#333333"/>
<path d="M146.222 207.458C145.301 207.458 144.391 207.175 143.622 206.632C142.497 205.835 141.799 204.568 141.727 203.191L136.496 102.033C136.389 99.956 137.719 98.075 139.714 97.486C141.708 96.893 143.848 97.75 144.888 99.551L195.53 187.282C196.219 188.476 196.323 189.921 195.811 191.201C195.3 192.481 194.23 193.457 192.909 193.847L147.499 207.274C147.079 207.398 146.649 207.458 146.222 207.458ZM146.451 120.262L150.421 197.024L184.88 186.836L146.451 120.262Z" fill="#333333"/>
<path d="M137.183 105.821C129.831 105.821 123.244 100.892 121.162 93.835C119.901 89.555 120.382 85.04 122.516 81.122C124.651 77.204 128.183 74.351 132.462 73.09C134.004 72.635 135.595 72.405 137.191 72.405C144.543 72.405 151.13 77.334 153.21 84.39C155.814 93.224 150.744 102.531 141.909 105.136C140.368 105.591 138.778 105.821 137.183 105.821ZM137.191 81.405C136.457 81.405 135.721 81.512 135.006 81.723C133.032 82.305 131.403 83.62 130.419 85.427C129.434 87.234 129.212 89.317 129.794 91.29C130.754 94.546 133.792 96.82 137.182 96.82C137.915 96.82 138.65 96.714 139.365 96.503C143.439 95.301 145.778 91.009 144.577 86.934C143.618 83.679 140.58 81.405 137.191 81.405Z" fill="#333333"/>
<path d="M256.378 118.29C249.025 118.29 242.438 113.362 240.359 106.305C237.755 97.47 242.825 88.163 251.66 85.558C253.202 85.104 254.792 84.873 256.388 84.873C263.742 84.873 270.328 89.803 272.407 96.861C275.01 105.695 269.94 115.001 261.106 117.605C259.564 118.06 257.974 118.29 256.378 118.29ZM256.388 93.874C255.655 93.874 254.92 93.981 254.205 94.191C250.13 95.393 247.791 99.686 248.992 103.761C249.951 107.016 252.988 109.289 256.378 109.289C257.112 109.289 257.847 109.182 258.562 108.972C262.636 107.771 264.974 103.479 263.774 99.404C262.814 96.148 259.777 93.874 256.388 93.874Z" fill="#333333"/>
<path d="M43.4833 181.037C36.1313 181.037 29.5443 176.109 27.4653 169.052C26.2033 164.774 26.6833 160.258 28.8173 156.339C30.9513 152.42 34.4843 149.567 38.7633 148.305C40.3053 147.851 41.8943 147.621 43.4903 147.621C50.8423 147.621 57.4303 152.55 59.5113 159.606C62.1153 168.44 57.0453 177.748 48.2103 180.353C46.6673 180.807 45.0783 181.037 43.4833 181.037ZM43.4893 156.621C42.7553 156.621 42.0213 156.727 41.3063 156.938C39.3333 157.519 37.7053 158.834 36.7213 160.642C35.7373 162.45 35.5153 164.533 36.0973 166.506C37.0573 169.763 40.0943 172.036 43.4833 172.036C44.2163 172.036 44.9503 171.93 45.6643 171.72C49.7393 170.518 52.0783 166.225 50.8773 162.151C49.9173 158.895 46.8793 156.621 43.4893 156.621Z" fill="#333333"/>
<path d="M117.615 259.029C113.435 259.029 109.689 256.227 108.504 252.216L102.992 233.509C102.274 231.075 102.548 228.508 103.762 226.279C104.976 224.05 106.986 222.428 109.42 221.713L231.879 185.619C232.77 185.356 233.689 185.223 234.611 185.223C238.816 185.223 242.577 188.019 243.757 192.021L249.271 210.726C250.751 215.752 247.832 221.056 242.763 222.548L120.303 258.641C119.426 258.898 118.522 259.029 117.615 259.029ZM234.61 194.222C234.548 194.222 234.485 194.232 234.422 194.25L111.962 230.344C111.83 230.383 111.73 230.463 111.665 230.583C111.599 230.704 111.585 230.832 111.624 230.964L117.136 249.669C117.227 249.979 117.519 250.078 117.758 250.007L240.218 213.914C240.528 213.823 240.715 213.533 240.637 213.268L235.123 194.564C235.054 194.33 234.809 194.222 234.61 194.222Z" fill="#333333"/>
<path d="M104.02 144.156C103.195 144.156 102.361 143.929 101.613 143.455L60.8677 117.589C59.2717 116.575 58.4787 114.672 58.8837 112.826C59.2887 110.979 60.8047 109.582 62.6787 109.33L90.5067 105.583L55.7727 74.4C53.9237 72.739 53.7707 69.895 55.4307 68.045C57.0917 66.196 59.9367 66.044 61.7857 67.703L103.768 105.395C105.074 106.567 105.579 108.392 105.062 110.069C104.545 111.746 103.101 112.969 101.362 113.204L76.1067 116.604L106.436 135.857C108.534 137.189 109.156 139.97 107.824 142.068C106.966 143.417 105.509 144.156 104.02 144.156Z" fill="#333333"/>
<path d="M179.521 120.602C179.311 120.602 179.099 120.587 178.886 120.557C176.425 120.21 174.711 117.933 175.059 115.472L181.346 70.949C181.586 69.248 182.775 67.832 184.409 67.3C186.044 66.766 187.838 67.213 189.034 68.446L202.496 82.334L213.409 33.89C213.955 31.466 216.361 29.945 218.788 30.489C221.212 31.035 222.735 33.444 222.188 35.868L209.447 92.43C209.084 94.042 207.867 95.326 206.276 95.773C204.686 96.221 202.978 95.76 201.826 94.573L188.972 81.313L183.971 116.731C183.653 118.978 181.727 120.602 179.521 120.602Z" fill="#333333"/>
<path d="M158.284 75.552C158.083 75.552 157.881 75.539 157.676 75.511C155.213 75.178 153.487 72.912 153.819 70.449L156.818 48.244L142.993 55.107C141.466 55.866 139.641 55.695 138.281 54.668C136.921 53.641 136.257 51.933 136.567 50.257L141.798 22.007C142.251 19.564 144.591 17.951 147.042 18.402C149.485 18.855 151.1 21.202 150.647 23.646L147.055 43.042L160.409 36.413C161.901 35.673 163.679 35.816 165.032 36.787C166.386 37.757 167.093 39.395 166.87 41.046L162.737 71.654C162.433 73.912 160.502 75.552 158.284 75.552Z" fill="#333333"/>
</g>
<defs>
<clipPath id="clip0_106_610">
<rect width="273.089" height="300.016" fill="white"/>
</clipPath>
</defs>
</svg>
