<svg width="301" height="286" viewBox="0 0 301 286" fill="none" xmlns="http://www.w3.org/2000/svg">
<g clip-path="url(#clip0_106_585)">
<path d="M147.373 285.43C64.6813 283.982 -1.42466 215.511 0.0233412 132.827C0.472341 106.839 7.66634 81.413 20.9013 59.041C21.2343 58.387 21.6973 57.808 22.2653 57.339C22.8303 56.873 23.4883 56.526 24.1923 56.321C24.8973 56.117 25.6373 56.059 26.3663 56.153C27.0953 56.245 27.7973 56.488 28.4293 56.862C29.0603 57.238 29.6073 57.738 30.0383 58.334C30.4673 58.928 30.7703 59.605 30.9303 60.324C31.0873 61.04 31.0973 61.782 30.9553 62.503C30.8143 63.224 30.5283 63.91 30.1143 64.515C17.8393 85.284 11.1713 108.886 10.7613 133.007C9.41734 209.786 70.7913 273.34 147.561 274.686C224.332 276.031 287.894 214.664 289.239 137.886C289.809 109.132 281.402 80.915 265.188 57.162C264.792 56.579 264.512 55.923 264.37 55.232C264.225 54.543 264.219 53.829 264.35 53.137C264.615 51.737 265.425 50.5 266.603 49.699C267.78 48.897 269.227 48.596 270.626 48.861C272.026 49.128 273.263 49.938 274.065 51.115C291.528 76.705 300.586 107.1 299.976 138.074C298.528 220.779 230.071 286.879 147.373 285.43Z" fill="#333333"/>
<path d="M84.4137 177.84C83.5657 177.84 82.7057 177.624 81.9187 177.169L58.4307 163.608C56.8837 162.714 55.9307 161.064 55.9307 159.278V56.426C55.9307 54.64 56.8837 52.989 58.4307 52.096L147.503 0.670012C149.05 -0.223988 150.956 -0.223988 152.503 0.670012L241.576 52.096C243.123 52.989 244.076 54.639 244.076 56.426L244.077 159.278C244.077 161.064 243.124 162.715 241.577 163.608L220.873 175.562C218.48 176.942 215.422 176.123 214.043 173.732C212.662 171.34 213.481 168.283 215.873 166.902L234.077 156.391L234.076 59.312L150.003 10.773L65.9307 59.313V156.392L86.9187 168.51C89.3107 169.891 90.1297 172.948 88.7487 175.34C87.8227 176.944 86.1417 177.84 84.4137 177.84Z" fill="#333333"/>
<path d="M136.356 216.912C136.349 216.912 136.343 216.912 136.336 216.912L110.621 216.811C107.867 216.8 105.641 214.565 105.641 211.811V184.296L94.973 170.598C94.289 169.72 93.918 168.639 93.918 167.526V99.7491C93.918 90.5281 101.42 83.0261 110.641 83.0261C119.862 83.0261 127.363 90.5281 127.363 99.7491V118.613C127.363 121.374 125.124 123.613 122.363 123.613C119.602 123.613 117.363 121.374 117.363 118.613V99.7491C117.363 96.0421 114.347 93.0261 110.641 93.0261C106.934 93.0261 103.918 96.0421 103.918 99.7491V165.808L114.586 179.506C115.27 180.384 115.641 181.465 115.641 182.578V206.83L136.375 206.911C139.136 206.922 141.366 209.169 141.355 211.931C141.345 214.686 139.108 216.912 136.356 216.912Z" fill="#333333"/>
<path d="M190.522 217.121C190.515 217.121 190.509 217.121 190.502 217.121L165.711 217.025C162.95 217.014 160.72 214.767 160.731 212.005C160.742 209.25 162.978 207.025 165.731 207.025C165.737 207.025 165.744 207.025 165.751 207.025L185.522 207.101V183.627C185.522 182.207 186.126 180.855 187.181 179.906C187.283 179.814 198.274 169.698 196.38 159.181C196.144 157.87 196.441 156.521 197.204 155.429L217.656 126.189C218.124 124.521 219.067 119.626 214.914 117.326C211.846 115.629 208.934 119.129 208.61 119.533C208.589 119.559 208.537 119.625 208.515 119.651L196.369 134.271C195.022 135.892 192.803 136.494 190.825 135.778C188.844 135.062 187.523 133.182 187.523 131.075V80.203C187.523 76.496 184.507 73.48 180.8 73.48C177.093 73.48 174.077 76.496 174.077 80.203C174.077 81.418 173.995 117.411 173.995 117.411L163.995 117.389C163.995 117.389 164.077 81.417 164.077 80.203C164.077 70.982 171.579 63.48 180.8 63.48C190.021 63.48 197.523 70.982 197.523 80.203V117.235L200.768 113.329C203.684 109.59 211.302 103.898 219.757 108.579C229.667 114.067 228.748 125.1 226.877 130.168C226.729 130.57 226.529 130.951 226.283 131.302L206.508 159.573C207.55 171.626 199.197 181.841 195.521 185.709V212.12C195.521 213.449 194.992 214.724 194.049 215.662C193.114 216.596 191.845 217.121 190.522 217.121Z" fill="#333333"/>
<path d="M122.512 121.793C119.75 121.793 117.512 119.554 117.512 116.792C117.518 77.8789 117.55 57.8789 117.606 57.3479C118.524 48.8319 125.671 42.4189 134.233 42.4189C143.454 42.4189 150.956 49.9199 150.956 59.1409C150.956 59.4949 150.838 71.8369 150.838 71.8369L140.838 71.7399C140.838 71.7399 140.955 59.6449 140.957 59.1339C140.957 55.4339 137.941 52.4189 134.234 52.4189C130.856 52.4189 128.026 54.8979 127.574 58.2179C127.535 62.0779 127.514 112.331 127.513 116.794C127.512 119.555 125.273 121.793 122.512 121.793Z" fill="#333333"/>
<path d="M150.758 228.793C140.995 228.793 133.052 220.851 133.052 211.088C133.052 201.325 140.995 193.382 150.758 193.382C160.521 193.382 168.464 201.325 168.464 211.088C168.464 220.851 160.521 228.793 150.758 228.793ZM150.758 203.382C146.509 203.382 143.052 206.839 143.052 211.088C143.052 215.337 146.509 218.793 150.758 218.793C155.007 218.793 158.464 215.337 158.464 211.088C158.464 206.839 155.007 203.382 150.758 203.382Z" fill="#333333"/>
<path d="M150.752 203.383C148.453 203.383 146.383 201.787 145.872 199.449L140.952 176.931C140.875 176.58 140.837 176.222 140.837 175.864V71.25C140.837 68.489 143.076 66.25 145.837 66.25C148.598 66.25 150.837 68.489 150.837 71.25V175.325L155.642 197.315C156.232 200.013 154.522 202.677 151.825 203.267C151.465 203.345 151.105 203.383 150.752 203.383Z" fill="#333333"/>
<path d="M145.67 111.323C142.909 111.323 140.67 109.084 140.67 106.323C140.67 103.942 140.671 47.998 140.768 47.111C141.683 38.612 148.831 32.199 157.394 32.199C166.615 32.199 174.116 39.701 174.116 48.922C174.116 51.683 171.878 53.922 169.116 53.922C166.354 53.922 164.116 51.683 164.116 48.922C164.116 45.215 161.1 42.199 157.394 42.199C154.015 42.199 151.184 44.679 150.733 47.998C150.694 51.895 150.67 103.73 150.67 106.323C150.67 109.084 148.431 111.323 145.67 111.323Z" fill="#333333"/>
<path d="M169.115 86.8281C166.353 86.8281 164.115 84.5891 164.115 81.8281V50.2981C164.115 47.5371 166.353 45.2981 169.115 45.2981C171.877 45.2981 174.115 47.5371 174.115 50.2981V81.8281C174.115 84.5891 171.877 86.8281 169.115 86.8281Z" fill="#333333"/>
<path d="M161.821 178.875H130.967C128.736 178.875 126.774 177.396 126.16 175.251L117.762 145.91H99.9961C97.2351 145.91 94.9961 143.671 94.9961 140.91C94.9961 138.149 97.2351 135.91 99.9961 135.91H121.532C123.763 135.91 125.725 137.389 126.339 139.534L134.737 168.875H157.815L164.236 140.128C164.747 137.843 166.774 136.218 169.116 136.218H181.953L189.473 127.019C191.221 124.881 194.371 124.565 196.508 126.312C198.647 128.06 198.963 131.209 197.215 133.348L188.195 144.382C187.246 145.544 185.825 146.218 184.324 146.218H173.123L166.702 174.965C166.19 177.25 164.163 178.875 161.821 178.875Z" fill="#333333"/>
<path d="M190.523 239.877H110.642C107.881 239.877 105.642 237.639 105.642 234.877V211.811C105.642 209.049 107.881 206.811 110.642 206.811C113.403 206.811 115.642 209.049 115.642 211.811V229.877H185.523V208.96C185.523 206.198 187.761 203.96 190.523 203.96C193.285 203.96 195.523 206.198 195.523 208.96V234.877C195.523 237.639 193.285 239.877 190.523 239.877Z" fill="#333333"/>
</g>
<defs>
<clipPath id="clip0_106_585">
<rect width="300.005" height="285.454" fill="white"/>
</clipPath>
</defs>
</svg>
