<svg width="315" height="300" viewBox="0 0 315 300" fill="none" xmlns="http://www.w3.org/2000/svg">
<g clip-path="url(#clip0_106_535)">
<path d="M53.6497 127.443C51.8517 127.443 50.1897 126.477 49.3007 124.909L45.2127 117.697L37.8767 113.837C36.2587 112.986 35.2347 111.32 35.2057 109.493C35.1767 107.666 36.1457 105.968 37.7357 105.065L44.9547 100.964L48.8267 93.616C49.6787 91.999 51.3457 90.976 53.1737 90.948C54.9907 90.944 56.6987 91.891 57.5997 93.482L61.6887 100.696L69.0237 104.556C70.6407 105.407 71.6647 107.073 71.6947 108.9C71.7237 110.727 70.7547 112.425 69.1657 113.328L61.9457 117.431L58.0747 124.777C57.2227 126.394 55.5557 127.417 53.7277 127.445C53.7017 127.443 53.6757 127.443 53.6497 127.443ZM50.6227 109.243L51.1667 109.53C52.0147 109.976 52.7157 110.656 53.1877 111.489L53.4897 112.022L53.7797 111.473C54.2247 110.628 54.9027 109.929 55.7327 109.457L56.2767 109.147L55.7327 108.861C54.8857 108.415 54.1837 107.735 53.7117 106.902L53.4087 106.368L53.1177 106.919C52.6727 107.764 51.9947 108.463 51.1637 108.936L50.6227 109.243Z" fill="#333333"/>
<path d="M101.36 94.246C99.5332 94.246 97.8522 93.25 96.9742 91.647L89.1362 77.332L74.8062 69.519C73.2022 68.644 72.2022 66.963 72.2002 65.135C72.1982 63.307 73.1932 61.624 74.7952 60.745L89.1222 52.885L96.9552 38.541C97.8312 36.937 99.5132 35.938 101.34 35.937C101.341 35.937 101.342 35.937 101.343 35.937C103.17 35.937 104.851 36.933 105.729 38.536L113.568 52.855L127.895 60.667C129.499 61.542 130.499 63.223 130.501 65.05C130.503 66.877 129.508 68.561 127.906 69.44L113.579 77.301L105.747 91.641C104.871 93.245 103.189 94.244 101.362 94.245C101.362 94.246 101.361 94.246 101.36 94.246ZM87.6202 65.116L95.2112 69.254C96.0522 69.712 96.7432 70.403 97.2032 71.243L101.354 78.825L105.504 71.226C105.962 70.388 106.65 69.698 107.487 69.239L115.082 65.072L107.494 60.934C106.653 60.476 105.962 59.786 105.502 58.946L101.35 51.362L97.1982 58.965C96.7402 59.803 96.0522 60.493 95.2152 60.952L87.6202 65.116Z" fill="#333333"/>
<path d="M16.3966 218.249C-21.2244 144.597 8.10062 54.051 81.7466 16.434C104.892 4.60498 130.713 -1.00602 156.68 0.147982C157.415 0.134982 158.144 0.271982 158.824 0.550982C159.503 0.831982 160.117 1.24698 160.631 1.77298C161.141 2.29998 161.541 2.92498 161.801 3.61198C162.062 4.29898 162.178 5.03198 162.145 5.76598C162.11 6.49998 161.925 7.21798 161.603 7.87898C161.28 8.53698 160.826 9.12498 160.266 9.60198C159.707 10.078 159.057 10.436 158.356 10.65C157.653 10.866 156.914 10.936 156.184 10.853C132.082 9.79298 108.118 15.011 86.6396 25.996C18.2526 60.926 -8.95937 144.982 25.9676 213.36C60.8956 281.739 144.948 308.962 213.334 274.031C238.976 261.008 259.921 240.315 273.255 214.833C273.584 214.21 274.029 213.655 274.572 213.204C275.113 212.753 275.739 212.411 276.412 212.201C277.771 211.776 279.244 211.91 280.506 212.571C281.768 213.233 282.713 214.369 283.139 215.728C283.562 217.088 283.429 218.561 282.768 219.824C268.401 247.272 245.84 269.563 218.219 283.596C144.556 321.223 54.0216 291.907 16.3966 218.249Z" fill="#333333"/>
<path d="M229.899 199.138C207.362 199.138 186.173 190.362 170.238 174.425C137.341 141.528 137.341 88 170.238 55.103C186.175 39.167 207.362 30.391 229.899 30.391C252.436 30.391 273.624 39.167 289.56 55.103C322.457 88 322.457 141.528 289.56 174.425C273.625 190.361 252.436 199.138 229.899 199.138ZM229.899 40.39C210.033 40.39 191.356 48.126 177.308 62.174C148.31 91.172 148.31 138.356 177.308 167.355C191.356 181.402 210.033 189.138 229.899 189.138C249.765 189.138 268.442 181.402 282.49 167.355C311.488 138.356 311.488 91.172 282.49 62.174C268.442 48.126 249.765 40.39 229.899 40.39Z" fill="#333333"/>
<path d="M212.647 207.842C191.925 207.842 171.335 200.198 155.427 185.363C121.656 153.866 119.804 100.766 151.3 66.9941C159.41 58.2981 169.032 51.5611 179.901 46.9691C182.446 45.8971 185.38 47.0851 186.453 49.6291C187.528 52.1731 186.337 55.1061 183.794 56.1811C174.23 60.2221 165.758 66.1551 158.613 73.8151C130.878 103.554 132.509 150.314 162.248 178.051C186.513 200.679 223.139 204.309 251.315 186.878C253.663 185.425 256.745 186.151 258.197 188.5C259.65 190.848 258.924 193.93 256.575 195.382C243.05 203.747 227.813 207.842 212.647 207.842Z" fill="#333333"/>
<path d="M229.895 122.875C227.657 122.875 225.553 122.004 223.972 120.421C222.391 118.841 221.519 116.737 221.519 114.5C221.519 112.262 222.391 110.159 223.973 108.577C225.553 106.996 227.657 106.125 229.895 106.125C232.132 106.125 234.235 106.996 235.817 108.579C237.398 110.159 238.27 112.263 238.27 114.5C238.27 116.737 237.398 118.841 235.816 120.422C234.236 122.004 232.132 122.875 229.895 122.875ZM229.895 112.875C229.466 112.875 229.047 113.049 228.745 113.352C228.443 113.653 228.27 114.072 228.27 114.5C228.27 114.928 228.443 115.347 228.746 115.649C229.349 116.252 230.438 116.255 231.045 115.648C231.347 115.347 231.52 114.928 231.52 114.5C231.52 114.072 231.347 113.653 231.044 113.35C230.742 113.049 230.323 112.875 229.895 112.875Z" fill="#333333"/>
<path d="M198.174 103.581C192.742 103.581 187.637 101.466 183.796 97.625C179.956 93.785 177.841 88.679 177.841 83.248C177.84 77.817 179.956 72.71 183.797 68.87C187.637 65.03 192.742 62.915 198.173 62.915C203.605 62.915 208.711 65.03 212.551 68.871C216.392 72.711 218.507 77.817 218.507 83.248C218.507 88.679 216.392 93.785 212.551 97.626C208.711 101.466 203.605 103.581 198.174 103.581ZM198.173 72.915C195.413 72.915 192.819 73.99 190.868 75.941C188.915 77.893 187.841 80.488 187.841 83.248C187.841 86.008 188.916 88.603 190.867 90.555C192.819 92.507 195.414 93.582 198.174 93.582C200.934 93.582 203.528 92.507 205.481 90.555C207.432 88.603 208.507 86.009 208.507 83.248C208.507 80.488 207.432 77.894 205.481 75.942C203.529 73.989 200.934 72.915 198.173 72.915Z" fill="#333333"/>
<path d="M190.379 155.348C182.687 155.348 175.74 151.093 172.25 144.243C167.161 134.253 171.147 121.985 181.138 116.895C183.988 115.443 187.175 114.676 190.357 114.676C198.049 114.676 204.996 118.931 208.485 125.781C210.951 130.62 211.385 136.13 209.707 141.296C208.029 146.462 204.439 150.664 199.6 153.129C196.75 154.58 193.561 155.348 190.379 155.348ZM190.357 124.675C188.723 124.675 187.149 125.055 185.677 125.804C180.601 128.391 178.574 134.625 181.16 139.702C182.934 143.184 186.467 145.347 190.379 145.347C192.014 145.347 193.588 144.967 195.06 144.217C197.519 142.964 199.343 140.828 200.196 138.203C201.05 135.578 200.829 132.778 199.575 130.318C197.801 126.837 194.269 124.675 190.357 124.675Z" fill="#333333"/>
<path d="M237.167 178.766C227.115 178.766 218.677 171.552 217.104 161.612C216.254 156.248 217.544 150.874 220.736 146.48C223.928 142.086 228.64 139.198 234.006 138.349C235.065 138.182 236.141 138.097 237.206 138.097C247.258 138.097 255.696 145.312 257.269 155.253C258.119 160.617 256.829 165.991 253.636 170.385C250.443 174.779 245.731 177.666 240.366 178.516C239.308 178.682 238.232 178.766 237.167 178.766ZM237.206 148.095C236.663 148.095 236.113 148.138 235.57 148.224C232.843 148.656 230.449 150.123 228.827 152.356C227.205 154.589 226.55 157.32 226.981 160.046C227.781 165.099 232.065 168.765 237.168 168.765C237.711 168.765 238.261 168.722 238.803 168.636C241.53 168.204 243.924 166.737 245.547 164.504C247.169 162.272 247.824 159.54 247.393 156.814C246.592 151.762 242.308 148.095 237.206 148.095Z" fill="#333333"/>
<path d="M273.947 141.477C272.882 141.477 271.804 141.392 270.746 141.225C259.672 139.47 252.091 129.034 253.845 117.961C255.419 108.022 263.857 100.807 273.908 100.807C274.973 100.807 276.05 100.892 277.108 101.059C282.472 101.909 287.185 104.796 290.378 109.19C293.57 113.584 294.86 118.959 294.01 124.323C292.437 134.262 284 141.477 273.947 141.477ZM273.908 110.807C268.805 110.807 264.521 114.474 263.721 119.525C262.829 125.153 266.683 130.456 272.31 131.348C272.853 131.434 273.404 131.477 273.947 131.477C279.05 131.477 283.334 127.811 284.133 122.76C284.566 120.032 283.91 117.301 282.288 115.069C280.665 112.836 278.27 111.369 275.544 110.937C275 110.85 274.451 110.807 273.908 110.807Z" fill="#333333"/>
<path d="M249.803 95.0121C246.621 95.0121 243.434 94.2441 240.584 92.7921C235.745 90.3271 232.156 86.1251 230.478 80.9591C228.8 75.7941 229.234 70.2841 231.7 65.4451C235.19 58.5951 242.137 54.3401 249.828 54.3401C253.01 54.3401 256.198 55.1081 259.048 56.5601C263.888 59.0261 267.477 63.2281 269.155 68.3931C270.833 73.5581 270.399 79.0681 267.933 83.9081C264.441 90.7571 257.495 95.0121 249.803 95.0121ZM249.828 64.3391C245.917 64.3391 242.385 66.5021 240.61 69.9851C239.357 72.4441 239.136 75.2441 239.989 77.8691C240.843 80.4941 242.666 82.6291 245.125 83.8821C246.597 84.6321 248.17 85.0121 249.804 85.0121C253.716 85.0121 257.249 82.8481 259.025 79.3661C260.278 76.9071 260.499 74.1071 259.645 71.4821C258.792 68.8571 256.968 66.7221 254.509 65.4691C253.037 64.7191 251.461 64.3391 249.828 64.3391Z" fill="#333333"/>
<path d="M61.781 191.579C60.501 191.579 59.222 191.091 58.245 190.114C56.292 188.162 56.292 184.996 58.245 183.044L109.392 131.896C111.345 129.944 114.51 129.944 116.463 131.896C118.416 133.849 118.416 137.015 116.463 138.967L65.316 190.114C64.34 191.091 63.061 191.579 61.781 191.579Z" fill="#333333"/>
<path d="M153.042 217.642C151.763 217.642 150.482 217.154 149.507 216.177C147.554 214.225 147.554 211.059 149.507 209.107L190.991 167.623C192.942 165.67 196.11 165.67 198.061 167.623C200.014 169.575 200.014 172.741 198.061 174.693L156.577 216.177C155.601 217.153 154.321 217.642 153.042 217.642Z" fill="#333333"/>
<path d="M119.943 250.74C118.663 250.74 117.384 250.252 116.407 249.275C114.454 247.323 114.454 244.157 116.407 242.205L130.178 228.434C132.131 226.481 135.296 226.481 137.249 228.434C139.202 230.386 139.202 233.552 137.249 235.504L123.478 249.275C122.502 250.252 121.223 250.74 119.943 250.74Z" fill="#333333"/>
<path d="M85.1267 249.258C83.8467 249.258 82.5677 248.77 81.5907 247.793C79.6377 245.841 79.6377 242.675 81.5907 240.723L133.007 189.308C134.961 187.355 138.126 187.356 140.078 189.308C142.03 191.26 142.031 194.426 140.078 196.378L88.6617 247.793C87.6867 248.77 86.4067 249.258 85.1267 249.258Z" fill="#333333"/>
<path d="M177.083 254.411C175.804 254.411 174.523 253.923 173.548 252.946C171.595 250.994 171.595 247.828 173.548 245.876L200.653 218.771C202.604 216.818 205.772 216.818 207.723 218.771C209.676 220.723 209.676 223.889 207.723 225.841L180.618 252.946C179.643 253.923 178.363 254.411 177.083 254.411Z" fill="#333333"/>
</g>
<defs>
<clipPath id="clip0_106_535">
<rect width="314.234" height="299.999" fill="white"/>
</clipPath>
</defs>
</svg>
