<svg width="298" height="306" viewBox="0 0 298 306" fill="none" xmlns="http://www.w3.org/2000/svg">
<g clip-path="url(#clip0_106_484)">
<path d="M42.0179 259.397C-15.4301 199.901 -13.7581 104.741 45.7329 47.298C64.4269 29.24 87.4929 16.348 112.67 9.88704C113.368 9.66004 114.105 9.57804 114.838 9.64804C115.568 9.71804 116.277 9.93804 116.92 10.291C117.563 10.645 118.128 11.128 118.576 11.709C119.026 12.29 119.35 12.958 119.533 13.669C119.713 14.381 119.746 15.122 119.63 15.848C119.513 16.571 119.249 17.265 118.853 17.886C118.458 18.504 117.939 19.035 117.33 19.445C116.721 19.856 116.034 20.138 115.313 20.273C91.9469 26.279 70.5429 38.253 53.1969 55.02C-2.04411 108.359 -3.58611 196.697 49.7469 251.933C103.082 307.17 191.42 308.722 246.66 255.382C267.396 235.452 281.404 209.556 286.734 181.294C286.867 180.603 287.132 179.94 287.521 179.353C287.906 178.763 288.406 178.253 288.988 177.857C290.165 177.054 291.613 176.753 293.011 177.019C294.411 177.285 295.647 178.095 296.449 179.271C297.251 180.45 297.552 181.898 297.288 183.297C291.54 213.741 276.453 241.638 254.12 263.109C194.616 320.565 99.4699 318.898 42.0179 259.397Z" fill="#333333"/>
<path d="M103.776 268.19C97.6187 268.19 92.2037 264.253 90.3017 258.394L58.5037 160.486C57.6507 157.86 59.0877 155.039 61.7147 154.186L227.515 100.338C228.778 99.9289 230.15 100.036 231.33 100.639C232.512 101.241 233.405 102.288 233.815 103.549L265.613 201.457C266.782 205.059 266.479 208.898 264.76 212.27C263.041 215.643 260.112 218.143 256.511 219.311L108.153 267.495C106.734 267.956 105.261 268.19 103.776 268.19ZM69.5587 162.153L99.8117 255.305C100.372 257.031 101.965 258.19 103.775 258.19C104.209 258.19 104.643 258.121 105.064 257.983L253.424 209.8C254.485 209.456 255.346 208.721 255.852 207.73C256.358 206.738 256.447 205.608 256.102 204.547L225.849 111.394L69.5587 162.153Z" fill="#333333"/>
<path d="M60.7632 164.436C54.6062 164.436 49.1922 160.5 47.2892 154.641L46.0572 150.849C43.6442 143.417 47.7272 135.409 55.1572 132.995L223.757 78.238C225.179 77.777 226.652 77.543 228.136 77.543C234.293 77.543 239.708 81.479 241.612 87.338L242.843 91.133C244.012 94.732 243.709 98.571 241.991 101.943C240.272 105.315 237.343 107.816 233.743 108.985L65.1422 163.74C63.7212 164.202 62.2482 164.436 60.7632 164.436ZM228.135 87.542C227.7 87.542 227.267 87.611 226.845 87.749L58.2452 142.505C56.0582 143.215 54.8572 145.572 55.5672 147.758L56.7992 151.55C57.3592 153.276 58.9522 154.435 60.7612 154.435C61.1962 154.435 61.6302 154.365 62.0522 154.228L230.653 99.471C231.713 99.127 232.574 98.391 233.08 97.4C233.586 96.408 233.675 95.278 233.33 94.218L232.099 90.423C231.54 88.701 229.946 87.542 228.135 87.542Z" fill="#333333"/>
<path d="M78.7104 159.076C77.6134 159.076 76.5094 158.717 75.5874 157.978L54.7374 141.275C52.5824 139.548 52.2344 136.401 53.9614 134.247C55.6894 132.091 58.8354 131.746 60.9894 133.471L81.8394 150.174C83.9944 151.901 84.3424 155.048 82.6154 157.202C81.6284 158.435 80.1764 159.076 78.7104 159.076Z" fill="#333333"/>
<path d="M105.005 150.537C103.908 150.537 102.805 150.178 101.882 149.439L81.0319 132.735C78.8769 131.008 78.5299 127.861 80.2559 125.706C81.9829 123.552 85.1289 123.204 87.2849 124.93L108.135 141.634C110.29 143.361 110.637 146.508 108.911 148.663C107.923 149.896 106.471 150.537 105.005 150.537Z" fill="#333333"/>
<path d="M131.301 141.996C130.204 141.996 129.1 141.637 128.178 140.898L107.328 124.195C105.173 122.468 104.825 119.321 106.552 117.167C108.279 115.011 111.426 114.665 113.58 116.391L134.43 133.094C136.585 134.821 136.933 137.968 135.206 140.122C134.218 141.354 132.766 141.996 131.301 141.996Z" fill="#333333"/>
<path d="M157.595 133.457C156.498 133.457 155.394 133.098 154.472 132.359L133.622 115.655C131.467 113.928 131.12 110.781 132.846 108.626C134.572 106.471 137.719 106.124 139.875 107.85L160.724 124.554C162.879 126.281 163.227 129.428 161.5 131.583C160.513 132.815 159.06 133.457 157.595 133.457Z" fill="#333333"/>
<path d="M183.89 124.917C182.793 124.917 181.689 124.558 180.767 123.819L159.917 107.115C157.762 105.388 157.414 102.241 159.141 100.086C160.868 97.931 164.017 97.586 166.169 99.31L187.019 116.014C189.174 117.741 189.522 120.888 187.795 123.043C186.808 124.275 185.355 124.917 183.89 124.917Z" fill="#333333"/>
<path d="M208.763 115.238C207.666 115.238 206.562 114.879 205.64 114.14L186.212 98.575C184.057 96.848 183.709 93.702 185.436 91.547C187.165 89.392 190.312 89.046 192.464 90.772L211.892 106.337C214.047 108.064 214.395 111.21 212.668 113.365C211.68 114.597 210.228 115.238 208.763 115.238Z" fill="#333333"/>
<path d="M234.404 106.173C233.307 106.173 232.203 105.814 231.281 105.075L212.509 90.0351C210.354 88.3081 210.006 85.1611 211.733 83.0061C213.46 80.8521 216.609 80.5051 218.761 82.2301L237.533 97.2701C239.688 98.9971 240.036 102.144 238.309 104.299C237.322 105.532 235.869 106.173 234.404 106.173Z" fill="#333333"/>
<path d="M49.6361 135.491C45.1001 135.491 40.8051 133.299 38.1491 129.626L35.8111 126.397C33.5911 123.329 32.7001 119.582 33.2991 115.845C33.8981 112.108 35.9171 108.828 38.9841 106.61L182.599 2.691C185.031 0.931 187.9 0 190.897 0C195.432 0 199.726 2.192 202.383 5.863L204.722 9.094C209.302 15.425 207.878 24.301 201.55 28.88L57.9351 132.8C55.5011 134.561 52.6321 135.491 49.6361 135.491ZM190.897 10C190.019 10 189.177 10.274 188.461 10.792L44.8461 114.712C43.9431 115.365 43.3491 116.33 43.1731 117.429C42.9971 118.528 43.2591 119.631 43.9121 120.534L46.2501 123.763C47.0451 124.861 48.2781 125.491 49.6361 125.491C50.5131 125.491 51.3561 125.217 52.0731 124.699L195.689 20.779C197.55 19.432 197.969 16.82 196.622 14.957L194.283 11.727C193.488 10.629 192.254 10 190.897 10Z" fill="#333333"/>
<path d="M67.8777 124.434C67.2877 124.434 66.6877 124.329 66.1027 124.107L41.1287 114.62C38.5477 113.639 37.2497 110.751 38.2307 108.17C39.2117 105.589 42.0967 104.293 44.6807 105.272L69.6547 114.759C72.2357 115.74 73.5337 118.628 72.5527 121.209C71.7937 123.205 69.8947 124.434 67.8777 124.434Z" fill="#333333"/>
<path d="M90.2763 108.228C89.6863 108.228 89.0863 108.123 88.5013 107.9L63.5263 98.411C60.9443 97.431 59.6473 94.543 60.6283 91.961C61.6093 89.379 64.4963 88.083 67.0783 89.063L92.0533 98.552C94.6353 99.532 95.9323 102.42 94.9513 105.002C94.1923 106.999 92.2923 108.228 90.2763 108.228Z" fill="#333333"/>
<path d="M112.676 92.0199C112.086 92.0199 111.486 91.9149 110.901 91.6919L85.9266 82.2039C83.3456 81.2239 82.0476 78.3359 83.0286 75.7539C84.0086 73.1729 86.8966 71.8739 89.4786 72.8559L114.453 82.3439C117.035 83.3239 118.332 86.2119 117.351 88.7939C116.592 90.7909 114.692 92.0199 112.676 92.0199Z" fill="#333333"/>
<path d="M135.072 75.8129C134.482 75.8129 133.882 75.7079 133.297 75.4849L108.323 65.9969C105.741 65.0169 104.444 62.1289 105.425 59.5469C106.405 56.9659 109.294 55.6679 111.875 56.6489L136.849 66.1369C139.431 67.1169 140.728 70.0049 139.747 72.5869C138.989 74.5829 137.089 75.8129 135.072 75.8129Z" fill="#333333"/>
<path d="M157.47 59.6041C156.88 59.6041 156.28 59.4991 155.696 59.2771L130.722 49.7901C128.141 48.8091 126.843 45.9211 127.824 43.3401C128.804 40.7591 131.691 39.4631 134.274 40.4421L159.247 49.9291C161.829 50.9101 163.126 53.7981 162.145 56.3791C161.386 58.3751 159.487 59.6041 157.47 59.6041Z" fill="#333333"/>
<path d="M178.166 42.75C177.576 42.75 176.976 42.645 176.392 42.422L153.121 33.581C150.539 32.601 149.242 29.713 150.223 27.131C151.203 24.55 154.091 23.251 156.672 24.233L179.943 33.074C182.525 34.054 183.822 36.942 182.841 39.524C182.082 41.521 180.182 42.75 178.166 42.75Z" fill="#333333"/>
<path d="M199.781 26.245C199.191 26.245 198.591 26.14 198.007 25.917L175.52 17.373C172.938 16.393 171.64 13.505 172.622 10.923C173.602 8.34196 176.49 7.04296 179.071 8.02496L201.558 16.569C204.14 17.549 205.437 20.437 204.456 23.019C203.697 25.017 201.797 26.245 199.781 26.245Z" fill="#333333"/>
<path d="M149.065 232.562C144.874 232.562 141.345 230.861 138.861 227.642C135.589 223.402 130.437 217.327 127.544 213.952L116.044 217.687C114.783 218.095 113.411 217.988 112.229 217.386C111.047 216.783 110.154 215.737 109.744 214.475L102.796 193.08C101.943 190.454 103.38 187.634 106.007 186.78L117.506 183.046C117.864 178.615 118.464 170.671 118.619 165.318C118.907 155.44 128.994 152.1 134.286 151.714C136.588 151.554 138.695 152.968 139.405 155.156L161.651 223.651C162.362 225.84 161.486 228.232 159.53 229.445C159.018 229.765 154.355 232.562 149.065 232.562ZM129.16 203.169C130.583 203.169 131.967 203.777 132.933 204.888C133.296 205.305 141.87 215.173 146.777 221.533C147.255 222.151 147.826 222.562 149.064 222.562C149.606 222.562 150.168 222.481 150.716 222.356L131.315 162.618C129.921 163.207 128.658 164.144 128.615 165.61C128.381 173.641 127.241 186.663 127.193 187.214C127.017 189.212 125.664 190.911 123.756 191.531L113.851 194.748L117.71 206.632L127.615 203.414C128.124 203.249 128.645 203.169 129.16 203.169Z" fill="#333333"/>
<path d="M174.753 201.285C173.989 201.285 173.214 201.109 172.486 200.739C170.026 199.485 169.048 196.473 170.301 194.013L192.024 151.393C193.279 148.933 196.289 147.953 198.75 149.209C201.21 150.463 202.188 153.474 200.935 155.934L179.212 198.554C178.329 200.287 176.574 201.285 174.753 201.285Z" fill="#333333"/>
<path d="M206.923 190.836C206.159 190.836 205.384 190.66 204.656 190.29L162.038 168.567C159.578 167.313 158.6 164.301 159.853 161.841C161.106 159.381 164.117 158.402 166.579 159.657L209.197 181.379C211.657 182.633 212.635 185.645 211.382 188.105C210.499 189.839 208.744 190.836 206.923 190.836Z" fill="#333333"/>
<path d="M220.779 37.4259C219.886 37.4259 218.983 37.1869 218.167 36.6859C215.813 35.2399 215.078 32.1609 216.524 29.8079L228.647 10.0769C230.091 7.72494 233.169 6.98794 235.524 8.43394C237.878 9.87994 238.613 12.9589 237.167 15.3119L225.044 35.0429C224.1 36.5799 222.459 37.4259 220.779 37.4259Z" fill="#333333"/>
<path d="M234.412 54.86C232.773 54.86 231.169 54.056 230.211 52.579C228.71 50.262 229.371 47.165 231.689 45.664L258.59 28.23C260.906 26.727 264.002 27.389 265.505 29.707C267.006 32.024 266.345 35.121 264.027 36.622L237.125 54.056C236.286 54.6 235.343 54.86 234.412 54.86Z" fill="#333333"/>
<path d="M243.631 75.812C241.244 75.812 239.132 74.098 238.71 71.666C238.238 68.945 240.062 66.357 242.782 65.885L260.454 62.82C263.179 62.349 265.764 64.171 266.235 66.892C266.706 69.613 264.883 72.201 262.163 72.673L244.491 75.738C244.203 75.788 243.915 75.812 243.631 75.812Z" fill="#333333"/>
</g>
<defs>
<clipPath id="clip0_106_484">
<rect width="297.382" height="305.136" fill="white"/>
</clipPath>
</defs>
</svg>
