<svg width="301" height="289" viewBox="0 0 301 289" fill="none" xmlns="http://www.w3.org/2000/svg">
<g clip-path="url(#clip0_106_427)">
<path d="M152.633 0.0229771C235.325 1.47098 301.431 69.942 299.983 152.627C299.534 178.615 292.34 204.041 279.105 226.412C278.772 227.066 278.309 227.644 277.741 228.114C277.176 228.58 276.518 228.927 275.814 229.132C275.109 229.336 274.369 229.395 273.64 229.3C272.911 229.207 272.209 228.965 271.577 228.59C270.946 228.215 270.399 227.714 269.968 227.118C269.539 226.523 269.236 225.847 269.076 225.128C268.919 224.412 268.909 223.67 269.051 222.949C269.192 222.228 269.478 221.543 269.892 220.937C282.167 200.167 288.835 176.566 289.245 152.445C290.59 75.667 229.216 12.112 152.446 10.767C75.6729 9.42298 12.1119 70.79 10.7679 147.567C10.1979 176.321 18.6039 204.539 34.8189 228.292C35.2149 228.876 35.4949 229.53 35.6369 230.222C35.7819 230.911 35.7879 231.624 35.6569 232.317C35.3919 233.716 34.5809 234.954 33.4039 235.755C32.2269 236.556 30.7799 236.858 29.3799 236.593C27.9799 236.326 26.7429 235.517 25.9409 234.339C8.47788 208.749 -0.580118 178.355 0.0298822 147.38C1.47788 64.675 69.9349 -1.42502 152.633 0.0229771Z" fill="#333333"/>
<path d="M185.3 246.477C182.14 246.477 179.569 243.907 179.569 240.747C179.569 240.311 179.569 239.899 180.379 235.371C180.805 232.987 182.878 231.251 185.3 231.251C187.722 231.251 189.796 232.986 190.223 235.37C191.034 239.898 191.034 240.31 191.034 240.747C191.032 243.907 188.461 246.477 185.3 246.477Z" fill="#333333"/>
<path d="M147.102 288.917C143.942 288.917 141.371 286.347 141.371 283.187C141.371 282.751 141.371 282.339 142.181 277.811C142.607 275.427 144.681 273.691 147.102 273.691C149.523 273.691 151.598 275.426 152.024 277.81C152.835 282.338 152.835 282.75 152.835 283.187C152.834 286.346 150.262 288.917 147.102 288.917Z" fill="#333333"/>
<path d="M165.673 276.661C161.929 276.661 158.882 273.614 158.882 269.87C158.882 269.405 158.882 268.437 160.751 257.982C161.177 255.598 163.25 253.862 165.672 253.862C168.094 253.862 170.168 255.597 170.595 257.981C172.467 268.436 172.467 269.405 172.467 269.87C172.467 273.614 169.419 276.661 165.673 276.661Z" fill="#333333"/>
<path d="M123.473 252.167C119.728 252.167 116.682 249.12 116.682 245.376C116.682 244.911 116.682 243.944 118.551 233.49C118.977 231.106 121.051 229.37 123.472 229.37C125.893 229.37 127.968 231.105 128.394 233.489C130.266 243.943 130.266 244.911 130.266 245.376C130.267 249.12 127.219 252.167 123.473 252.167Z" fill="#333333"/>
<path d="M154.984 232.364C154.159 232.364 146.879 232.343 145.093 231.594C108.38 216.288 98.8101 167.947 98.4211 165.896C98.3641 165.599 98.3351 165.296 98.3331 164.994L98.0001 110.327C97.9921 108.923 98.5741 107.58 99.6041 106.626C100.634 105.672 102.018 105.195 103.418 105.314C103.709 105.338 132.703 107.754 153 107.754C173.293 107.754 201.793 105.338 202.078 105.314C203.485 105.195 204.865 105.67 205.896 106.623C206.928 107.577 207.512 108.921 207.503 110.326L207.17 164.993C207.168 165.296 207.139 165.597 207.082 165.895C206.69 167.96 197.053 216.647 159.995 231.764C158.911 232.208 157.6 232.364 154.984 232.364ZM148.319 222.1C149.566 222.198 152.616 222.364 154.984 222.364C155.88 222.364 156.396 222.341 156.666 222.321C186.656 209.722 196.196 168.99 197.174 164.438L197.471 115.714C188.09 116.426 168.503 117.755 153 117.755C137.448 117.755 117.518 116.418 108.033 115.708L108.33 164.438C109.297 168.942 118.729 209.253 148.319 222.1Z" fill="#333333"/>
<path d="M136.089 173.524C127.813 173.524 117.488 166.754 116.338 165.982C114.981 165.072 114.155 163.555 114.126 161.921L113.813 144.657C113.782 142.957 114.617 141.358 116.029 140.412C117.442 139.466 119.238 139.302 120.798 139.977L147.236 151.415C149.243 152.283 150.453 154.354 150.223 156.529C150.051 158.157 148.231 172.467 137.461 173.461C137.013 173.503 136.554 173.524 136.089 173.524ZM124.074 159.022C127.696 161.129 132.854 163.524 136.089 163.524C136.242 163.524 136.393 163.518 136.539 163.504C137.614 163.404 138.766 161.37 139.52 158.974L123.951 152.239L124.074 159.022Z" fill="#333333"/>
<path d="M170.973 173.524C170.972 173.524 170.973 173.524 170.973 173.524C170.506 173.523 170.048 173.503 169.602 173.461C158.831 172.467 157.011 158.157 156.839 156.529C156.61 154.354 157.819 152.283 159.826 151.415L186.264 139.977C187.826 139.302 189.621 139.466 191.033 140.412C192.445 141.358 193.28 142.957 193.249 144.657L192.936 161.921C192.907 163.555 192.081 165.071 190.723 165.982C189.573 166.754 179.249 173.524 170.973 173.524ZM167.539 158.974C168.293 161.368 169.445 163.405 170.521 163.504C170.667 163.518 170.819 163.523 170.972 163.524C174.28 163.524 179.555 161.002 182.986 159.016L183.109 152.239L167.539 158.974Z" fill="#333333"/>
<path d="M140.333 139.13C137.572 139.13 135.333 136.891 135.333 134.13V131.297C135.333 128.536 137.572 126.297 140.333 126.297C143.094 126.297 145.333 128.536 145.333 131.297V134.13C145.333 136.891 143.094 139.13 140.333 139.13Z" fill="#333333"/>
<path d="M153.255 143.963C150.494 143.963 148.255 141.724 148.255 138.963V136.13C148.255 133.369 150.494 131.13 153.255 131.13C156.017 131.13 158.255 133.369 158.255 136.13V138.963C158.255 141.725 156.017 143.963 153.255 143.963Z" fill="#333333"/>
<path d="M126.875 190.13C124.114 190.13 121.875 187.892 121.875 185.13V182.297C121.875 179.535 124.114 177.297 126.875 177.297C129.636 177.297 131.875 179.535 131.875 182.297V185.13C131.875 187.892 129.636 190.13 126.875 190.13Z" fill="#333333"/>
<path d="M140.713 195.338C137.952 195.338 135.713 193.1 135.713 190.338V187.505C135.713 184.743 137.952 182.505 140.713 182.505C143.474 182.505 145.713 184.743 145.713 187.505V190.338C145.713 193.1 143.474 195.338 140.713 195.338Z" fill="#333333"/>
<path d="M140.333 212.088C137.572 212.088 135.333 209.85 135.333 207.088V204.255C135.333 201.493 137.572 199.255 140.333 199.255C143.094 199.255 145.333 201.493 145.333 204.255V207.088C145.333 209.85 143.094 212.088 140.333 212.088Z" fill="#333333"/>
<path d="M153.132 201.797C150.371 201.797 148.132 199.559 148.132 196.797V193.963C148.132 191.201 150.371 188.963 153.132 188.963C155.894 188.963 158.132 191.201 158.132 193.963V196.797C158.132 199.559 155.894 201.797 153.132 201.797Z" fill="#333333"/>
<path d="M179.132 190.13C176.37 190.13 174.132 187.892 174.132 185.13V182.297C174.132 179.535 176.37 177.297 179.132 177.297C181.894 177.297 184.132 179.535 184.132 182.297V185.13C184.132 187.892 181.894 190.13 179.132 190.13Z" fill="#333333"/>
<path d="M165.674 195.338C162.912 195.338 160.674 193.1 160.674 190.338V187.505C160.674 184.743 162.912 182.505 165.674 182.505C168.436 182.505 170.674 184.743 170.674 187.505V190.338C170.674 193.1 168.436 195.338 165.674 195.338Z" fill="#333333"/>
<path d="M165.674 212.088C162.912 212.088 160.674 209.85 160.674 207.088V204.255C160.674 201.493 162.912 199.255 165.674 199.255C168.436 199.255 170.674 201.493 170.674 204.255V207.088C170.674 209.85 168.436 212.088 165.674 212.088Z" fill="#333333"/>
<path d="M153.255 219.797C150.494 219.797 148.255 217.559 148.255 214.797V211.963C148.255 209.201 150.494 206.963 153.255 206.963C156.017 206.963 158.255 209.201 158.255 211.963V214.797C158.255 217.559 156.017 219.797 153.255 219.797Z" fill="#333333"/>
<path d="M166.333 138.296C163.571 138.296 161.333 136.057 161.333 133.296V130.463C161.333 127.702 163.571 125.463 166.333 125.463C169.095 125.463 171.333 127.702 171.333 130.463V133.296C171.333 136.058 169.095 138.296 166.333 138.296Z" fill="#333333"/>
<path d="M219.997 217.754C218.912 217.754 217.819 217.403 216.902 216.679L189.822 195.306C187.654 193.595 187.284 190.452 188.995 188.284C190.705 186.116 193.851 185.746 196.017 187.457L223.097 208.83C225.265 210.541 225.635 213.684 223.924 215.852C222.938 217.102 221.475 217.754 219.997 217.754Z" fill="#333333"/>
<path d="M100.747 151.629C99.6022 151.629 98.4532 151.238 97.5122 150.44L59.2622 117.94C58.8412 117.582 58.4822 117.157 58.2002 116.682C48.1162 99.6982 47.9902 74.1982 47.9902 73.1212C47.9892 71.1632 49.1312 69.3852 50.9112 68.5722C52.6912 67.7582 54.7832 68.0571 56.2632 69.3401L105.306 111.816C107.393 113.624 107.62 116.781 105.812 118.869C104.005 120.957 100.846 121.183 98.7592 119.375L58.8542 84.8132C59.8352 92.6622 61.9282 102.97 66.3932 110.877L103.986 142.818C106.09 144.606 106.347 147.761 104.559 149.866C103.57 151.031 102.163 151.629 100.747 151.629Z" fill="#333333"/>
<path d="M210.663 229.963C209.636 229.963 208.599 229.648 207.707 228.992L183.374 211.117C181.148 209.482 180.67 206.353 182.305 204.128C183.939 201.901 187.069 201.423 189.294 203.059L213.627 220.934C215.853 222.569 216.331 225.698 214.696 227.923C213.717 229.257 212.2 229.963 210.663 229.963Z" fill="#333333"/>
<path d="M254.832 267.327C254.54 267.327 254.245 267.302 253.95 267.249C251.869 266.877 250.248 265.236 249.899 263.151L249.039 258.001C244.218 253.854 228.089 239.972 222.989 235.547C222.076 234.755 220.323 234.319 218.052 234.319C213.476 234.319 208.635 236.024 208.587 236.042C206.697 236.724 204.584 236.212 203.219 234.738C201.854 233.265 201.502 231.119 202.326 229.287C204.33 224.837 215.761 211.723 219.216 207.808C221.016 205.77 224.113 205.544 226.191 207.298L267.424 242.138C269.268 243.696 269.736 246.347 268.537 248.441L259.17 264.81C258.27 266.384 256.603 267.327 254.832 267.327ZM218.271 224.32C222.983 224.357 226.774 225.592 229.542 227.994C234.708 232.475 251.246 246.709 255.777 250.607L257.79 247.088L223.499 218.114C221.697 220.209 219.904 222.335 218.271 224.32Z" fill="#333333"/>
<path d="M84.4799 217.754C83.0019 217.754 81.5389 217.102 80.5519 215.852C78.8409 213.684 79.2119 210.54 81.3789 208.83L108.459 187.457C110.626 185.747 113.77 186.117 115.481 188.284C117.192 190.452 116.821 193.596 114.654 195.306L87.5739 216.679C86.6569 217.403 85.5639 217.754 84.4799 217.754Z" fill="#333333"/>
<path d="M203.728 151.629C202.312 151.629 200.905 151.03 199.915 149.866C198.127 147.762 198.384 144.606 200.488 142.818L238.073 110.883C242.67 102.574 243.011 91.4931 242.493 83.6831L205.925 119.182C203.946 121.106 200.779 121.059 198.855 119.078C196.932 117.097 196.979 113.931 198.96 112.008L242.716 69.5321C244.023 68.2621 245.918 67.8051 247.657 68.3371C249.399 68.8681 250.715 70.3051 251.091 72.0871C251.322 73.1861 256.652 99.2061 246.275 116.682C245.994 117.157 245.634 117.582 245.213 117.94L206.963 150.44C206.022 151.239 204.872 151.629 203.728 151.629Z" fill="#333333"/>
<path d="M93.8124 229.963C92.2754 229.963 90.7584 229.257 89.7784 227.923C88.1434 225.697 88.6224 222.569 90.8484 220.934L115.181 203.059C117.406 201.424 120.535 201.902 122.171 204.128C123.806 206.354 123.327 209.482 121.101 211.117L96.7694 228.993C95.8774 229.648 94.8404 229.963 93.8124 229.963Z" fill="#333333"/>
<path d="M49.6436 267.327C47.8736 267.327 46.2066 266.385 45.3056 264.81L35.9386 248.441C34.7406 246.347 35.2086 243.696 37.0516 242.138L78.2846 207.298C80.3616 205.545 83.4586 205.769 85.2596 207.808C88.7156 211.722 100.146 224.836 102.149 229.287C102.974 231.119 102.622 233.266 101.257 234.738C99.8906 236.211 97.7766 236.721 95.8886 236.042C95.8486 236.027 91.0176 234.319 86.4236 234.319C84.1526 234.319 82.4006 234.755 81.4866 235.547C76.3866 239.972 60.2576 253.854 55.4376 258.001L54.5766 263.151C54.2276 265.236 52.6066 266.877 50.5256 267.249C50.2306 267.301 49.9366 267.327 49.6436 267.327ZM46.6866 247.088L48.6996 250.607C53.2306 246.709 69.7686 232.475 74.9346 227.994C77.7026 225.593 81.4936 224.357 86.2056 224.32C84.5726 222.336 82.7796 220.21 80.9776 218.115L46.6866 247.088Z" fill="#333333"/>
</g>
<defs>
<clipPath id="clip0_106_427">
<rect width="300.006" height="288.917" fill="white"/>
</clipPath>
</defs>
</svg>
