<svg width="300" height="300" viewBox="0 0 300 300" fill="none" xmlns="http://www.w3.org/2000/svg">
<path d="M155.544 299.318C119.787 299.317 85.3015 286.056 58.7569 262.1C32.2122 238.143 15.4953 205.194 11.8396 169.624C11.7548 168.941 11.8075 168.247 11.9946 167.584C12.1817 166.921 12.4993 166.302 12.9289 165.763C13.3585 165.225 13.8913 164.778 14.4962 164.448C15.101 164.118 15.7656 163.912 16.451 163.843C17.1364 163.774 17.8288 163.842 18.4874 164.044C19.1461 164.246 19.7577 164.577 20.2865 165.019C20.8153 165.46 21.2505 166.003 21.5666 166.615C21.8827 167.227 22.0734 167.896 22.1273 168.583C25.5295 201.601 41.0527 232.185 65.6957 254.422C90.3387 276.66 122.351 288.97 155.544 288.975C229.496 288.975 289.657 228.813 289.657 154.862C289.658 121.667 277.348 89.6524 255.11 65.0084C232.872 40.3645 202.286 24.8426 169.266 21.4448C167.901 21.3059 166.647 20.6302 165.779 19.5667C164.912 18.5031 164.503 17.1387 164.642 15.7735C164.781 14.4083 165.457 13.1543 166.521 12.2872C167.584 11.4202 168.949 11.0112 170.314 11.1502C205.881 14.8104 238.827 31.529 262.781 58.0728C286.736 84.6167 299.997 119.1 300 154.855C300 234.516 235.198 299.318 155.544 299.318Z" fill="#333333"/>
<path d="M87.7701 175.54C70.4108 175.54 53.4414 170.392 39.0077 160.748C24.5739 151.104 13.3242 137.396 6.68113 121.358C0.0380288 105.32 -1.70011 87.6727 1.68652 70.647C5.07314 53.6213 13.4324 37.9821 25.7073 25.7073C37.9821 13.4324 53.6213 5.07314 70.647 1.68652C87.6727 -1.70011 105.32 0.0380281 121.358 6.68113C137.396 13.3242 151.104 24.5739 160.748 39.0076C170.392 53.4413 175.54 70.4108 175.54 87.77C175.548 93.7425 174.952 99.7005 173.761 105.553C173.453 106.862 172.646 107.999 171.514 108.723C170.381 109.447 169.01 109.702 167.693 109.433C166.376 109.164 165.215 108.392 164.457 107.282C163.698 106.171 163.403 104.809 163.632 103.484C166.875 87.8269 165.192 71.5494 158.814 56.8867C152.436 42.224 141.675 29.8952 128.01 21.5929C114.344 13.2907 98.4437 9.42208 82.4915 10.5183C66.5393 11.6146 51.3175 17.6218 38.9161 27.7154C26.5148 37.809 17.5419 51.494 13.2294 66.8914C8.91701 82.2887 9.47651 98.6434 14.8311 113.71C20.1857 128.777 30.0729 141.816 43.1351 151.039C56.1973 160.261 71.794 165.214 87.7839 165.218C99.5722 165.251 111.209 162.566 121.791 157.371C123.023 156.768 124.444 156.678 125.742 157.122C127.039 157.566 128.107 158.508 128.711 159.74C129.314 160.971 129.404 162.392 128.96 163.69C128.515 164.987 127.574 166.055 126.342 166.659C114.339 172.548 101.14 175.587 87.7701 175.54Z" fill="#333333"/>
<path d="M141.843 155.392C140.788 155.392 139.759 155.07 138.893 154.468C138.027 153.867 137.365 153.015 136.997 152.027C136.628 151.039 136.571 149.962 136.832 148.94C137.093 147.919 137.66 147.001 138.457 146.311C146.18 139.643 152.507 131.514 157.075 122.391C157.695 121.176 158.771 120.255 160.068 119.83C161.365 119.405 162.777 119.509 163.997 120.12C165.217 120.732 166.146 121.801 166.581 123.094C167.016 124.387 166.923 125.8 166.321 127.025C161.15 137.375 153.981 146.599 145.228 154.165C144.284 154.968 143.082 155.404 141.843 155.392Z" fill="#333333"/>
<path d="M109.146 122.895H66.3948C65.2957 122.895 64.2253 122.545 63.3388 121.895C62.4523 121.245 61.7958 120.33 61.4647 119.282L49.6461 82.0132C49.3379 81.0391 49.3246 79.9957 49.608 79.0141C49.8915 78.0325 50.4589 77.1568 51.239 76.497L84.4535 48.4745C85.3857 47.6866 86.5668 47.2544 87.7874 47.2544C89.0079 47.2544 90.1891 47.6866 91.1213 48.4745L124.329 76.497C125.11 77.1556 125.679 78.0314 125.963 79.0133C126.246 79.9953 126.232 81.0393 125.922 82.0132L114.089 119.282C113.758 120.332 113.099 121.249 112.21 121.899C111.32 122.549 110.247 122.898 109.146 122.895ZM70.1803 112.552H105.346L115 82.1718L87.7633 59.1898L60.5269 82.1718L70.1803 112.552Z" fill="#333333"/>
<path d="M87.7697 25.0576C87.2845 25.0598 86.8015 24.9924 86.3355 24.8576L55.6928 16.0179C54.393 15.6223 53.301 14.7311 52.653 13.5369C52.0049 12.3427 51.8529 10.9414 52.2298 9.63601C52.6066 8.33061 53.4821 7.22593 54.6669 6.56083C55.8517 5.89573 57.2506 5.72364 58.5613 6.08173L87.7283 14.4939L115.034 6.10934C115.69 5.88164 116.386 5.78854 117.079 5.83561C117.772 5.88269 118.449 6.06897 119.068 6.38331C119.688 6.69766 120.238 7.13366 120.685 7.66524C121.132 8.19681 121.468 8.81309 121.672 9.47727C121.876 10.1414 121.944 10.8399 121.872 11.531C121.8 12.222 121.59 12.8915 121.253 13.4994C120.917 14.1073 120.461 14.6411 119.914 15.0691C119.367 15.497 118.739 15.8103 118.068 15.9902L89.2866 24.83C88.7952 24.9812 88.2839 25.0578 87.7697 25.0576Z" fill="#333333"/>
<path d="M170.031 95.4371C169.222 95.4408 168.424 95.2558 167.7 94.8967C166.976 94.5375 166.345 94.0142 165.859 93.3685L150.903 73.0757C150.185 72.0986 149.831 70.9008 149.903 69.6901L151.531 43.0881C151.572 42.409 151.747 41.7447 152.046 41.1332C152.344 40.5217 152.76 39.975 153.27 39.5243C153.779 39.0735 154.373 38.7275 155.016 38.5061C155.659 38.2847 156.34 38.1922 157.019 38.2338C157.698 38.2755 158.363 38.4505 158.974 38.7489C159.586 39.0473 160.132 39.4631 160.583 39.9728C161.034 40.4825 161.38 41.0759 161.601 41.7193C161.823 42.3626 161.915 43.0433 161.874 43.7225L160.363 68.4489L174.209 87.2317C174.776 88.0001 175.118 88.9103 175.199 89.8614C175.28 90.8125 175.096 91.7675 174.668 92.6206C174.24 93.4737 173.584 94.1917 172.772 94.6948C171.961 95.198 171.027 95.4668 170.072 95.4716L170.031 95.4371Z" fill="#333333"/>
<path d="M104.119 173.623C103.137 173.621 102.177 173.341 101.349 172.814C100.521 172.286 99.8603 171.535 99.4439 170.646C99.0274 169.757 98.8723 168.769 98.9969 167.795C99.1214 166.822 99.5204 165.904 100.147 165.149L110.856 152.247C111.286 151.713 111.817 151.27 112.42 150.943C113.023 150.616 113.685 150.413 114.367 150.344C115.05 150.276 115.739 150.344 116.395 150.544C117.05 150.744 117.66 151.073 118.188 151.511C118.715 151.949 119.15 152.487 119.468 153.095C119.786 153.703 119.979 154.368 120.037 155.051C120.095 155.734 120.017 156.422 119.807 157.075C119.597 157.728 119.259 158.332 118.813 158.853L108.104 171.754C107.619 172.341 107.01 172.813 106.321 173.136C105.632 173.459 104.88 173.625 104.119 173.623Z" fill="#333333"/>
<path d="M6.3783 95.4384C5.42372 95.4336 4.48908 95.1648 3.67789 94.6616C2.86669 94.1584 2.21059 93.4406 1.78226 92.5875C1.35393 91.7344 1.17008 90.7793 1.25107 89.8282C1.33206 88.8771 1.67473 87.9669 2.24113 87.1985L16.0869 68.4158L14.5768 43.6893C14.5351 43.0102 14.6276 42.3295 14.8491 41.6862C15.0705 41.0428 15.4164 40.4493 15.8672 39.9396C16.3179 39.4299 16.8647 39.014 17.4762 38.7157C18.0877 38.4173 18.7519 38.2423 19.4311 38.2006C20.1102 38.159 20.7909 38.2515 21.4342 38.4729C22.0776 38.6943 22.6711 39.0403 23.1807 39.4911C23.6904 39.9418 24.1063 40.4886 24.4047 41.1001C24.703 41.7116 24.878 42.3758 24.9197 43.0549L26.547 69.6569C26.6229 70.868 26.2688 72.067 25.5472 73.0425L10.5913 93.3354C10.1056 93.9943 9.47047 94.5286 8.73805 94.8942C8.00562 95.2598 7.19687 95.4463 6.3783 95.4384Z" fill="#333333"/>
<path d="M72.2556 173.624C71.5195 173.625 70.7915 173.469 70.1208 173.166C69.45 172.862 68.8519 172.419 68.3667 171.865L52.9626 154.337L28.4844 150.545C27.1549 150.308 25.971 149.559 25.1858 148.461C24.4007 147.362 24.0766 145.999 24.2828 144.664C24.4891 143.33 25.2093 142.129 26.2895 141.318C27.3697 140.507 28.7242 140.151 30.0634 140.326L56.4034 144.401C57.6003 144.587 58.6939 145.187 59.4925 146.098L76.1377 165.039C76.586 165.549 76.9295 166.142 77.1482 166.785C77.367 167.428 77.4569 168.108 77.4127 168.785C77.3685 169.463 77.1911 170.125 76.8907 170.734C76.5903 171.343 76.1727 171.887 75.6619 172.334C74.7238 173.168 73.511 173.627 72.2556 173.624Z" fill="#333333"/>
<path d="M54.5627 85.6185C54.0339 85.6194 53.5082 85.538 53.0044 85.3772L19.783 74.9033C18.4745 74.4909 17.3834 73.5756 16.7498 72.3588C16.1162 71.142 15.9919 69.7233 16.4043 68.4148C16.8166 67.1063 17.7319 66.0153 18.9487 65.3816C20.1656 64.748 21.5843 64.6237 22.8927 65.0361L56.1211 75.5169C57.2979 75.8896 58.3025 76.671 58.9535 77.7197C59.6045 78.7685 59.8589 80.0156 59.6707 81.2356C59.4825 82.4555 58.8642 83.5679 57.9274 84.3718C56.9906 85.1756 55.7971 85.6178 54.5627 85.6185Z" fill="#333333"/>
<path d="M87.5699 57.7412C86.1983 57.7412 84.883 57.1963 83.9131 56.2265C82.9433 55.2566 82.3984 53.9413 82.3984 52.5698V19.9068C82.3984 18.5353 82.9433 17.2198 83.9131 16.25C84.883 15.2802 86.1983 14.7354 87.5699 14.7354C88.9415 14.7354 90.2568 15.2802 91.2267 16.25C92.1965 17.2198 92.7414 18.5353 92.7414 19.9068V52.5698C92.7414 53.9413 92.1965 55.2566 91.2267 56.2265C90.2568 57.1963 88.9415 57.7412 87.5699 57.7412Z" fill="#333333"/>
<path d="M120.977 85.6184C119.739 85.6183 118.541 85.1738 117.603 84.3655C116.664 83.5572 116.047 82.4388 115.863 81.2139C115.68 79.9889 115.942 78.7388 116.602 77.6907C117.262 76.6427 118.276 75.8664 119.46 75.503L153.544 65.0291C154.84 64.6723 156.225 64.8346 157.404 65.4815C158.582 66.1284 159.463 67.2089 159.859 68.4941C160.254 69.7793 160.133 71.168 159.522 72.3657C158.911 73.5635 157.857 74.4761 156.585 74.9101L122.501 85.3908C122.008 85.5433 121.494 85.62 120.977 85.6184Z" fill="#333333"/>
<path d="M116.248 142.105C115.195 142.101 114.168 141.775 113.305 141.172C112.443 140.568 111.785 139.715 111.421 138.726L104.326 119.509C104.074 118.869 103.953 118.184 103.969 117.496C103.985 116.808 104.139 116.13 104.42 115.502C104.702 114.874 105.106 114.309 105.609 113.839C106.112 113.369 106.704 113.004 107.35 112.766C107.995 112.528 108.682 112.421 109.37 112.452C110.057 112.483 110.732 112.65 111.354 112.945C111.976 113.24 112.533 113.655 112.992 114.168C113.451 114.681 113.803 115.28 114.028 115.931L121.123 135.141C121.413 135.921 121.51 136.759 121.406 137.585C121.302 138.41 121.001 139.199 120.527 139.883C120.053 140.566 119.421 141.126 118.684 141.513C117.947 141.9 117.128 142.103 116.296 142.105H116.248Z" fill="#333333"/>
<path d="M55.6103 154.682C54.7887 154.681 53.9789 154.485 53.2481 154.11C52.5173 153.734 51.8865 153.19 51.408 152.522C50.9295 151.854 50.617 151.082 50.4964 150.269C50.3758 149.456 50.4507 148.627 50.7147 147.848L61.4989 116.061C61.7004 115.398 62.033 114.783 62.4771 114.251C62.9211 113.719 63.4675 113.282 64.0838 112.965C64.7 112.648 65.3737 112.459 66.0646 112.408C66.7556 112.356 67.4498 112.445 68.106 112.667C68.7623 112.889 69.3671 113.241 69.8847 113.702C70.4023 114.162 70.8221 114.722 71.1191 115.348C71.4161 115.974 71.5843 116.653 71.6137 117.346C71.6431 118.038 71.5331 118.729 71.2902 119.378L60.506 151.172C60.1588 152.195 59.5 153.084 58.6219 153.713C57.7439 154.343 56.6907 154.681 55.6103 154.682Z" fill="#333333"/>
<path d="M167.266 225.538C166.471 225.538 165.688 225.354 164.977 225L143.167 214.216C142.558 213.915 142.014 213.497 141.567 212.985C141.119 212.474 140.777 211.88 140.559 211.236C140.342 210.593 140.253 209.913 140.298 209.235C140.343 208.557 140.521 207.895 140.822 207.286C141.124 206.677 141.542 206.133 142.053 205.686C142.564 205.239 143.158 204.896 143.802 204.679C144.445 204.461 145.125 204.372 145.803 204.417C146.481 204.462 147.143 204.64 147.752 204.942L169.562 215.733C170.607 216.251 171.447 217.107 171.944 218.162C172.441 219.217 172.567 220.41 172.301 221.545C172.035 222.681 171.393 223.694 170.479 224.418C169.565 225.143 168.432 225.538 167.266 225.538Z" fill="#333333"/>
<path d="M125.639 204.866C124.827 204.867 124.026 204.676 123.302 204.307L48.4189 166.266C47.811 165.96 47.2695 165.537 46.8256 165.02C46.3817 164.504 46.044 163.906 45.832 163.259C45.6199 162.612 45.5377 161.93 45.59 161.251C45.6423 160.572 45.828 159.91 46.1366 159.304C46.4452 158.697 46.8706 158.157 47.3883 157.715C47.9061 157.273 48.506 156.938 49.1536 156.728C49.8013 156.518 50.484 156.439 51.1625 156.493C51.841 156.548 52.502 156.736 53.1077 157.047L127.984 195.082C129.021 195.607 129.851 196.468 130.339 197.523C130.828 198.579 130.946 199.768 130.675 200.9C130.404 202.031 129.759 203.037 128.846 203.757C127.932 204.477 126.802 204.868 125.639 204.866Z" fill="#333333"/>
<path d="M274.839 231.744C273.974 231.744 273.122 231.528 272.362 231.115C271.602 230.702 270.958 230.105 270.488 229.379L232.964 171.258C232.595 170.688 232.343 170.05 232.221 169.382C232.098 168.714 232.109 168.029 232.252 167.365C232.395 166.701 232.667 166.071 233.053 165.513C233.439 164.954 233.931 164.476 234.502 164.108C235.072 163.739 235.709 163.487 236.378 163.365C237.046 163.242 237.731 163.253 238.395 163.396C239.059 163.539 239.689 163.811 240.247 164.197C240.806 164.583 241.283 165.075 241.652 165.646L279.176 223.766C279.68 224.546 279.965 225.448 280 226.377C280.035 227.305 279.82 228.226 279.376 229.042C278.932 229.859 278.276 230.54 277.478 231.016C276.68 231.491 275.768 231.743 274.839 231.744Z" fill="#333333"/>
<path d="M225.09 154.682C224.224 154.685 223.372 154.469 222.612 154.056C221.851 153.643 221.207 153.045 220.739 152.317L158.198 55.4521C157.81 54.8819 157.539 54.2396 157.403 53.5632C157.266 52.8867 157.266 52.1898 157.403 51.5134C157.54 50.837 157.811 50.1949 158.2 49.6249C158.589 49.0548 159.088 48.5684 159.668 48.1942C160.248 47.8201 160.897 47.5658 161.576 47.4463C162.256 47.3268 162.953 47.3445 163.625 47.4985C164.298 47.6524 164.933 47.9395 165.493 48.3427C166.053 48.7459 166.527 49.2571 166.886 49.8463L229.427 146.704C229.931 147.485 230.216 148.387 230.251 149.315C230.286 150.244 230.07 151.164 229.626 151.981C229.183 152.797 228.527 153.479 227.729 153.954C226.93 154.429 226.019 154.681 225.09 154.682Z" fill="#333333"/>
<path d="M198.984 212.437C198.009 212.44 197.053 212.167 196.226 211.651L190.71 208.203C190.134 207.843 189.635 207.373 189.24 206.82C188.846 206.267 188.564 205.642 188.412 204.98C188.259 204.319 188.238 203.633 188.35 202.964C188.462 202.294 188.705 201.653 189.065 201.077C189.425 200.501 189.895 200.001 190.448 199.607C191.001 199.213 191.626 198.931 192.288 198.778C192.95 198.626 193.635 198.605 194.305 198.717C194.975 198.829 195.616 199.072 196.192 199.432L201.708 202.88C202.661 203.476 203.395 204.366 203.797 205.416C204.199 206.466 204.248 207.619 203.936 208.699C203.624 209.779 202.969 210.729 202.069 211.403C201.169 212.078 200.074 212.44 198.95 212.437H198.984Z" fill="#333333"/>
<path d="M176.871 198.798C175.895 198.801 174.938 198.526 174.113 198.005L96.9475 149.587C95.7862 148.855 94.9631 147.692 94.6592 146.354C94.3553 145.015 94.5956 143.611 95.3271 142.45C96.0586 141.289 97.2214 140.466 98.5598 140.162C99.8982 139.858 101.302 140.098 102.464 140.83L179.643 189.248C180.593 189.845 181.323 190.736 181.723 191.784C182.123 192.833 182.171 193.983 181.859 195.062C181.548 196.14 180.894 197.088 179.997 197.762C179.099 198.436 178.007 198.799 176.884 198.798H176.871Z" fill="#333333"/>
<path d="M239.673 215.885C238.945 215.885 238.225 215.73 237.561 215.432C236.896 215.134 236.303 214.698 235.819 214.154L234.805 213.023C233.891 212 233.42 210.655 233.497 209.285C233.574 207.915 234.192 206.632 235.216 205.717C236.239 204.803 237.583 204.333 238.953 204.41C240.323 204.486 241.607 205.105 242.521 206.128L243.535 207.265C244.198 208.01 244.632 208.93 244.785 209.915C244.937 210.9 244.802 211.909 244.394 212.819C243.987 213.729 243.325 214.502 242.489 215.044C241.653 215.587 240.677 215.876 239.68 215.878L239.673 215.885Z" fill="#333333"/>
<path d="M226.71 201.342C225.981 201.343 225.259 201.189 224.594 200.891C223.928 200.593 223.333 200.156 222.849 199.611L187.876 160.37C187.423 159.863 187.075 159.272 186.85 158.63C186.626 157.988 186.53 157.309 186.569 156.63C186.607 155.951 186.779 155.287 187.074 154.675C187.369 154.062 187.782 153.514 188.289 153.061C188.797 152.609 189.388 152.26 190.03 152.036C190.671 151.812 191.351 151.716 192.03 151.754C192.708 151.793 193.373 151.965 193.985 152.26C194.597 152.555 195.146 152.968 195.598 153.475L230.564 192.702C231.228 193.447 231.662 194.367 231.814 195.352C231.967 196.337 231.831 197.346 231.424 198.256C231.017 199.166 230.355 199.938 229.519 200.481C228.682 201.024 227.707 201.313 226.71 201.314V201.342Z" fill="#333333"/>
<path d="M176.285 144.78C175.555 144.782 174.833 144.628 174.168 144.33C173.502 144.032 172.907 143.595 172.423 143.049L128.252 93.4859C127.799 92.9792 127.451 92.3884 127.226 91.7471C127.002 91.1057 126.906 90.4265 126.944 89.7481C126.982 89.0697 127.154 88.4055 127.448 87.7933C127.743 87.1811 128.156 86.6331 128.662 86.1803C129.169 85.7276 129.76 85.379 130.401 85.1546C131.042 84.9302 131.722 84.8343 132.4 84.8724C133.078 84.9105 133.743 85.0819 134.355 85.3767C134.967 85.6715 135.515 86.0839 135.968 86.5906L180.153 136.154C180.817 136.899 181.251 137.819 181.403 138.805C181.555 139.791 181.419 140.8 181.011 141.71C180.603 142.621 179.94 143.393 179.103 143.936C178.265 144.478 177.289 144.766 176.291 144.766L176.285 144.78Z" fill="#333333"/>
<path d="M155.544 299.318C119.787 299.317 85.3015 286.056 58.7569 262.1C32.2122 238.143 15.4953 205.194 11.8396 169.624C11.7548 168.941 11.8075 168.247 11.9946 167.584C12.1817 166.921 12.4993 166.302 12.9289 165.763C13.3585 165.225 13.8913 164.778 14.4962 164.448C15.101 164.118 15.7656 163.912 16.451 163.843C17.1364 163.774 17.8288 163.842 18.4874 164.044C19.1461 164.246 19.7577 164.577 20.2865 165.019C20.8153 165.46 21.2505 166.003 21.5666 166.615C21.8827 167.227 22.0734 167.896 22.1273 168.583C25.5295 201.601 41.0527 232.185 65.6957 254.422C90.3387 276.66 122.351 288.97 155.544 288.975C229.496 288.975 289.657 228.813 289.657 154.862C289.658 121.667 277.348 89.6524 255.11 65.0084C232.872 40.3645 202.286 24.8426 169.266 21.4448C167.901 21.3059 166.647 20.6302 165.779 19.5667C164.912 18.5031 164.503 17.1387 164.642 15.7735C164.781 14.4083 165.457 13.1543 166.521 12.2872C167.584 11.4202 168.949 11.0112 170.314 11.1502C205.881 14.8104 238.827 31.529 262.781 58.0728C286.736 84.6167 299.997 119.1 300 154.855C300 234.516 235.198 299.318 155.544 299.318Z" fill="#333333"/>
<path d="M87.7701 175.54C70.4108 175.54 53.4414 170.392 39.0077 160.748C24.5739 151.104 13.3242 137.396 6.68113 121.358C0.0380288 105.32 -1.70011 87.6727 1.68652 70.647C5.07314 53.6213 13.4324 37.9821 25.7073 25.7073C37.9821 13.4324 53.6213 5.07314 70.647 1.68652C87.6727 -1.70011 105.32 0.0380281 121.358 6.68113C137.396 13.3242 151.104 24.5739 160.748 39.0076C170.392 53.4413 175.54 70.4108 175.54 87.77C175.548 93.7425 174.952 99.7005 173.761 105.553C173.453 106.862 172.646 107.999 171.514 108.723C170.381 109.447 169.01 109.702 167.693 109.433C166.376 109.164 165.215 108.392 164.457 107.282C163.698 106.171 163.403 104.809 163.632 103.484C166.875 87.8269 165.192 71.5494 158.814 56.8867C152.436 42.224 141.675 29.8952 128.01 21.5929C114.344 13.2907 98.4437 9.42208 82.4915 10.5183C66.5393 11.6146 51.3175 17.6218 38.9161 27.7154C26.5148 37.809 17.5419 51.494 13.2294 66.8914C8.91701 82.2887 9.47651 98.6434 14.8311 113.71C20.1857 128.777 30.0729 141.816 43.1351 151.039C56.1973 160.261 71.794 165.214 87.7839 165.218C99.5722 165.251 111.209 162.566 121.791 157.371C123.023 156.768 124.444 156.678 125.742 157.122C127.039 157.566 128.107 158.508 128.711 159.74C129.314 160.971 129.404 162.392 128.96 163.69C128.515 164.987 127.574 166.055 126.342 166.659C114.339 172.548 101.14 175.587 87.7701 175.54Z" fill="#333333"/>
<path d="M141.843 155.392C140.788 155.392 139.759 155.07 138.893 154.468C138.027 153.867 137.365 153.015 136.997 152.027C136.628 151.039 136.571 149.962 136.832 148.94C137.093 147.919 137.66 147.001 138.457 146.311C146.18 139.643 152.507 131.514 157.075 122.391C157.695 121.176 158.771 120.255 160.068 119.83C161.365 119.405 162.777 119.509 163.997 120.12C165.217 120.732 166.146 121.801 166.581 123.094C167.016 124.387 166.923 125.8 166.321 127.025C161.15 137.375 153.981 146.599 145.228 154.165C144.284 154.968 143.082 155.404 141.843 155.392Z" fill="#333333"/>
<path d="M109.146 122.895H66.3948C65.2957 122.895 64.2253 122.545 63.3388 121.895C62.4523 121.245 61.7958 120.33 61.4647 119.282L49.6461 82.0132C49.3379 81.0391 49.3246 79.9957 49.608 79.0141C49.8915 78.0325 50.4589 77.1568 51.239 76.497L84.4535 48.4745C85.3857 47.6866 86.5668 47.2544 87.7874 47.2544C89.0079 47.2544 90.1891 47.6866 91.1213 48.4745L124.329 76.497C125.11 77.1556 125.679 78.0314 125.963 79.0133C126.246 79.9953 126.232 81.0393 125.922 82.0132L114.089 119.282C113.758 120.332 113.099 121.249 112.21 121.899C111.32 122.549 110.247 122.898 109.146 122.895ZM70.1803 112.552H105.346L115 82.1718L87.7633 59.1898L60.5269 82.1718L70.1803 112.552Z" fill="#333333"/>
<path d="M87.7697 25.0576C87.2845 25.0598 86.8015 24.9924 86.3355 24.8576L55.6928 16.0179C54.393 15.6223 53.301 14.7311 52.653 13.5369C52.0049 12.3427 51.8529 10.9414 52.2298 9.63601C52.6066 8.33061 53.4821 7.22593 54.6669 6.56083C55.8517 5.89573 57.2506 5.72364 58.5613 6.08173L87.7283 14.4939L115.034 6.10934C115.69 5.88164 116.386 5.78854 117.079 5.83561C117.772 5.88269 118.449 6.06897 119.068 6.38331C119.688 6.69766 120.238 7.13366 120.685 7.66524C121.132 8.19681 121.468 8.81309 121.672 9.47727C121.876 10.1414 121.944 10.8399 121.872 11.531C121.8 12.222 121.59 12.8915 121.253 13.4994C120.917 14.1073 120.461 14.6411 119.914 15.0691C119.367 15.497 118.739 15.8103 118.068 15.9902L89.2866 24.83C88.7952 24.9812 88.2839 25.0578 87.7697 25.0576Z" fill="#333333"/>
<path d="M170.031 95.4371C169.222 95.4408 168.424 95.2558 167.7 94.8967C166.976 94.5375 166.345 94.0142 165.859 93.3685L150.903 73.0757C150.185 72.0986 149.831 70.9008 149.903 69.6901L151.531 43.0881C151.572 42.409 151.747 41.7447 152.046 41.1332C152.344 40.5217 152.76 39.975 153.27 39.5243C153.779 39.0735 154.373 38.7275 155.016 38.5061C155.659 38.2847 156.34 38.1922 157.019 38.2338C157.698 38.2755 158.363 38.4505 158.974 38.7489C159.586 39.0473 160.132 39.4631 160.583 39.9728C161.034 40.4825 161.38 41.0759 161.601 41.7193C161.823 42.3626 161.915 43.0433 161.874 43.7225L160.363 68.4489L174.209 87.2317C174.776 88.0001 175.118 88.9103 175.199 89.8614C175.28 90.8125 175.096 91.7675 174.668 92.6206C174.24 93.4737 173.584 94.1917 172.772 94.6948C171.961 95.198 171.027 95.4668 170.072 95.4716L170.031 95.4371Z" fill="#333333"/>
<path d="M104.119 173.623C103.137 173.621 102.177 173.341 101.349 172.814C100.521 172.286 99.8603 171.535 99.4439 170.646C99.0274 169.757 98.8723 168.769 98.9969 167.795C99.1214 166.822 99.5204 165.904 100.147 165.149L110.856 152.247C111.286 151.713 111.817 151.27 112.42 150.943C113.023 150.616 113.685 150.413 114.367 150.344C115.05 150.276 115.739 150.344 116.395 150.544C117.05 150.744 117.66 151.073 118.188 151.511C118.715 151.949 119.15 152.487 119.468 153.095C119.786 153.703 119.979 154.368 120.037 155.051C120.095 155.734 120.017 156.422 119.807 157.075C119.597 157.728 119.259 158.332 118.813 158.853L108.104 171.754C107.619 172.341 107.01 172.813 106.321 173.136C105.632 173.459 104.88 173.625 104.119 173.623Z" fill="#333333"/>
<path d="M6.3783 95.4384C5.42372 95.4336 4.48908 95.1648 3.67789 94.6616C2.86669 94.1584 2.21059 93.4406 1.78226 92.5875C1.35393 91.7344 1.17008 90.7793 1.25107 89.8282C1.33206 88.8771 1.67473 87.9669 2.24113 87.1985L16.0869 68.4158L14.5768 43.6893C14.5351 43.0102 14.6276 42.3295 14.8491 41.6862C15.0705 41.0428 15.4164 40.4493 15.8672 39.9396C16.3179 39.4299 16.8647 39.014 17.4762 38.7157C18.0877 38.4173 18.7519 38.2423 19.4311 38.2006C20.1102 38.159 20.7909 38.2515 21.4342 38.4729C22.0776 38.6943 22.6711 39.0403 23.1807 39.4911C23.6904 39.9418 24.1063 40.4886 24.4047 41.1001C24.703 41.7116 24.878 42.3758 24.9197 43.0549L26.547 69.6569C26.6229 70.868 26.2688 72.067 25.5472 73.0425L10.5913 93.3354C10.1056 93.9943 9.47047 94.5286 8.73805 94.8942C8.00562 95.2598 7.19687 95.4463 6.3783 95.4384Z" fill="#333333"/>
<path d="M72.2556 173.624C71.5195 173.625 70.7915 173.469 70.1208 173.166C69.45 172.862 68.8519 172.419 68.3667 171.865L52.9626 154.337L28.4844 150.545C27.1549 150.308 25.971 149.559 25.1858 148.461C24.4007 147.362 24.0766 145.999 24.2828 144.664C24.4891 143.33 25.2093 142.129 26.2895 141.318C27.3697 140.507 28.7242 140.151 30.0634 140.326L56.4034 144.401C57.6003 144.587 58.6939 145.187 59.4925 146.098L76.1377 165.039C76.586 165.549 76.9295 166.142 77.1482 166.785C77.367 167.428 77.4569 168.108 77.4127 168.785C77.3685 169.463 77.1911 170.125 76.8907 170.734C76.5903 171.343 76.1727 171.887 75.6619 172.334C74.7238 173.168 73.511 173.627 72.2556 173.624Z" fill="#333333"/>
<path d="M54.5627 85.6185C54.0339 85.6194 53.5082 85.538 53.0044 85.3772L19.783 74.9033C18.4745 74.4909 17.3834 73.5756 16.7498 72.3588C16.1162 71.142 15.9919 69.7233 16.4043 68.4148C16.8166 67.1063 17.7319 66.0153 18.9487 65.3816C20.1656 64.748 21.5843 64.6237 22.8927 65.0361L56.1211 75.5169C57.2979 75.8896 58.3025 76.671 58.9535 77.7197C59.6045 78.7685 59.8589 80.0156 59.6707 81.2356C59.4825 82.4555 58.8642 83.5679 57.9274 84.3718C56.9906 85.1756 55.7971 85.6178 54.5627 85.6185Z" fill="#333333"/>
<path d="M87.5699 57.7412C86.1983 57.7412 84.883 57.1963 83.9131 56.2265C82.9433 55.2566 82.3984 53.9413 82.3984 52.5698V19.9068C82.3984 18.5353 82.9433 17.2198 83.9131 16.25C84.883 15.2802 86.1983 14.7354 87.5699 14.7354C88.9415 14.7354 90.2568 15.2802 91.2267 16.25C92.1965 17.2198 92.7414 18.5353 92.7414 19.9068V52.5698C92.7414 53.9413 92.1965 55.2566 91.2267 56.2265C90.2568 57.1963 88.9415 57.7412 87.5699 57.7412Z" fill="#333333"/>
<path d="M120.977 85.6184C119.739 85.6183 118.541 85.1738 117.603 84.3655C116.664 83.5572 116.047 82.4388 115.863 81.2139C115.68 79.9889 115.942 78.7388 116.602 77.6907C117.262 76.6427 118.276 75.8664 119.46 75.503L153.544 65.0291C154.84 64.6723 156.225 64.8346 157.404 65.4815C158.582 66.1284 159.463 67.2089 159.859 68.4941C160.254 69.7793 160.133 71.168 159.522 72.3657C158.911 73.5635 157.857 74.4761 156.585 74.9101L122.501 85.3908C122.008 85.5433 121.494 85.62 120.977 85.6184Z" fill="#333333"/>
<path d="M116.248 142.105C115.195 142.101 114.168 141.775 113.305 141.172C112.443 140.568 111.785 139.715 111.421 138.726L104.326 119.509C104.074 118.869 103.953 118.184 103.969 117.496C103.985 116.808 104.139 116.13 104.42 115.502C104.702 114.874 105.106 114.309 105.609 113.839C106.112 113.369 106.704 113.004 107.35 112.766C107.995 112.528 108.682 112.421 109.37 112.452C110.057 112.483 110.732 112.65 111.354 112.945C111.976 113.24 112.533 113.655 112.992 114.168C113.451 114.681 113.803 115.28 114.028 115.931L121.123 135.141C121.413 135.921 121.51 136.759 121.406 137.585C121.302 138.41 121.001 139.199 120.527 139.883C120.053 140.566 119.421 141.126 118.684 141.513C117.947 141.9 117.128 142.103 116.296 142.105H116.248Z" fill="#333333"/>
<path d="M55.6103 154.682C54.7887 154.681 53.9789 154.485 53.2481 154.11C52.5173 153.734 51.8865 153.19 51.408 152.522C50.9295 151.854 50.617 151.082 50.4964 150.269C50.3758 149.456 50.4507 148.627 50.7147 147.848L61.4989 116.061C61.7004 115.398 62.033 114.783 62.4771 114.251C62.9211 113.719 63.4675 113.282 64.0838 112.965C64.7 112.648 65.3737 112.459 66.0646 112.408C66.7556 112.356 67.4498 112.445 68.106 112.667C68.7623 112.889 69.3671 113.241 69.8847 113.702C70.4023 114.162 70.8221 114.722 71.1191 115.348C71.4161 115.974 71.5843 116.653 71.6137 117.346C71.6431 118.038 71.5331 118.729 71.2902 119.378L60.506 151.172C60.1588 152.195 59.5 153.084 58.6219 153.713C57.7439 154.343 56.6907 154.681 55.6103 154.682Z" fill="#333333"/>
<path d="M167.266 225.538C166.471 225.538 165.688 225.354 164.977 225L143.167 214.216C142.558 213.915 142.014 213.497 141.567 212.985C141.119 212.474 140.777 211.88 140.559 211.236C140.342 210.593 140.253 209.913 140.298 209.235C140.343 208.557 140.521 207.895 140.822 207.286C141.124 206.677 141.542 206.133 142.053 205.686C142.564 205.239 143.158 204.896 143.802 204.679C144.445 204.461 145.125 204.372 145.803 204.417C146.481 204.462 147.143 204.64 147.752 204.942L169.562 215.733C170.607 216.251 171.447 217.107 171.944 218.162C172.441 219.217 172.567 220.41 172.301 221.545C172.035 222.681 171.393 223.694 170.479 224.418C169.565 225.143 168.432 225.538 167.266 225.538Z" fill="#333333"/>
<path d="M125.639 204.866C124.827 204.867 124.026 204.676 123.302 204.307L48.4189 166.266C47.811 165.96 47.2695 165.537 46.8256 165.02C46.3817 164.504 46.044 163.906 45.832 163.259C45.6199 162.612 45.5377 161.93 45.59 161.251C45.6423 160.572 45.828 159.91 46.1366 159.304C46.4452 158.697 46.8706 158.157 47.3883 157.715C47.9061 157.273 48.506 156.938 49.1536 156.728C49.8013 156.518 50.484 156.439 51.1625 156.493C51.841 156.548 52.502 156.736 53.1077 157.047L127.984 195.082C129.021 195.607 129.851 196.468 130.339 197.523C130.828 198.579 130.946 199.768 130.675 200.9C130.404 202.031 129.759 203.037 128.846 203.757C127.932 204.477 126.802 204.868 125.639 204.866Z" fill="#333333"/>
<path d="M274.839 231.744C273.974 231.744 273.122 231.528 272.362 231.115C271.602 230.702 270.958 230.105 270.488 229.379L232.964 171.258C232.595 170.688 232.343 170.05 232.221 169.382C232.098 168.714 232.109 168.029 232.252 167.365C232.395 166.701 232.667 166.071 233.053 165.513C233.439 164.954 233.931 164.476 234.502 164.108C235.072 163.739 235.709 163.487 236.378 163.365C237.046 163.242 237.731 163.253 238.395 163.396C239.059 163.539 239.689 163.811 240.247 164.197C240.806 164.583 241.283 165.075 241.652 165.646L279.176 223.766C279.68 224.546 279.965 225.448 280 226.377C280.035 227.305 279.82 228.226 279.376 229.042C278.932 229.859 278.276 230.54 277.478 231.016C276.68 231.491 275.768 231.743 274.839 231.744Z" fill="#333333"/>
<path d="M225.09 154.682C224.224 154.685 223.372 154.469 222.612 154.056C221.851 153.643 221.207 153.045 220.739 152.317L158.198 55.4521C157.81 54.8819 157.539 54.2396 157.403 53.5632C157.266 52.8867 157.266 52.1898 157.403 51.5134C157.54 50.837 157.811 50.1949 158.2 49.6249C158.589 49.0548 159.088 48.5684 159.668 48.1942C160.248 47.8201 160.897 47.5658 161.576 47.4463C162.256 47.3268 162.953 47.3445 163.625 47.4985C164.298 47.6524 164.933 47.9395 165.493 48.3427C166.053 48.7459 166.527 49.2571 166.886 49.8463L229.427 146.704C229.931 147.485 230.216 148.387 230.251 149.315C230.286 150.244 230.07 151.164 229.626 151.981C229.183 152.797 228.527 153.479 227.729 153.954C226.93 154.429 226.019 154.681 225.09 154.682Z" fill="#333333"/>
<path d="M198.984 212.437C198.009 212.44 197.053 212.167 196.226 211.651L190.71 208.203C190.134 207.843 189.635 207.373 189.24 206.82C188.846 206.267 188.564 205.642 188.412 204.98C188.259 204.319 188.238 203.633 188.35 202.964C188.462 202.294 188.705 201.653 189.065 201.077C189.425 200.501 189.895 200.001 190.448 199.607C191.001 199.213 191.626 198.931 192.288 198.778C192.95 198.626 193.635 198.605 194.305 198.717C194.975 198.829 195.616 199.072 196.192 199.432L201.708 202.88C202.661 203.476 203.395 204.366 203.797 205.416C204.199 206.466 204.248 207.619 203.936 208.699C203.624 209.779 202.969 210.729 202.069 211.403C201.169 212.078 200.074 212.44 198.95 212.437H198.984Z" fill="#333333"/>
<path d="M176.871 198.798C175.895 198.801 174.938 198.526 174.113 198.005L96.9475 149.587C95.7862 148.855 94.9631 147.692 94.6592 146.354C94.3553 145.015 94.5956 143.611 95.3271 142.45C96.0586 141.289 97.2214 140.466 98.5598 140.162C99.8982 139.858 101.302 140.098 102.464 140.83L179.643 189.248C180.593 189.845 181.323 190.736 181.723 191.784C182.123 192.833 182.171 193.983 181.859 195.062C181.548 196.14 180.894 197.088 179.997 197.762C179.099 198.436 178.007 198.799 176.884 198.798H176.871Z" fill="#333333"/>
<path d="M239.673 215.885C238.945 215.885 238.225 215.73 237.561 215.432C236.896 215.134 236.303 214.698 235.819 214.154L234.805 213.023C233.891 212 233.42 210.655 233.497 209.285C233.574 207.915 234.192 206.632 235.216 205.717C236.239 204.803 237.583 204.333 238.953 204.41C240.323 204.486 241.607 205.105 242.521 206.128L243.535 207.265C244.198 208.01 244.632 208.93 244.785 209.915C244.937 210.9 244.802 211.909 244.394 212.819C243.987 213.729 243.325 214.502 242.489 215.044C241.653 215.587 240.677 215.876 239.68 215.878L239.673 215.885Z" fill="#333333"/>
<path d="M226.71 201.342C225.981 201.343 225.259 201.189 224.594 200.891C223.928 200.593 223.333 200.156 222.849 199.611L187.876 160.37C187.423 159.863 187.075 159.272 186.85 158.63C186.626 157.988 186.53 157.309 186.569 156.63C186.607 155.951 186.779 155.287 187.074 154.675C187.369 154.062 187.782 153.514 188.289 153.061C188.797 152.609 189.388 152.26 190.03 152.036C190.671 151.812 191.351 151.716 192.03 151.754C192.708 151.793 193.373 151.965 193.985 152.26C194.597 152.555 195.146 152.968 195.598 153.475L230.564 192.702C231.228 193.447 231.662 194.367 231.814 195.352C231.967 196.337 231.831 197.346 231.424 198.256C231.017 199.166 230.355 199.938 229.519 200.481C228.682 201.024 227.707 201.313 226.71 201.314V201.342Z" fill="#333333"/>
<path d="M176.285 144.78C175.555 144.782 174.833 144.628 174.168 144.33C173.502 144.032 172.907 143.595 172.423 143.049L128.252 93.4859C127.799 92.9792 127.451 92.3884 127.226 91.7471C127.002 91.1057 126.906 90.4265 126.944 89.7481C126.982 89.0697 127.154 88.4055 127.448 87.7933C127.743 87.1811 128.156 86.6331 128.662 86.1803C129.169 85.7276 129.76 85.379 130.401 85.1546C131.042 84.9302 131.722 84.8343 132.4 84.8724C133.078 84.9105 133.743 85.0819 134.355 85.3767C134.967 85.6715 135.515 86.0839 135.968 86.5906L180.153 136.154C180.817 136.899 181.251 137.819 181.403 138.805C181.555 139.791 181.419 140.8 181.011 141.71C180.603 142.621 179.94 143.393 179.103 143.936C178.265 144.478 177.289 144.766 176.291 144.766L176.285 144.78Z" fill="#333333"/>
</svg>
