<svg width="259" height="301" viewBox="0 0 259 301" fill="none" xmlns="http://www.w3.org/2000/svg">
<g clip-path="url(#clip0_106_670)">
<path d="M2.31533 176.18C-12.1147 94.741 42.4133 16.738 123.842 2.308C149.435 -2.234 175.766 -0.0469961 200.262 8.652C200.967 8.854 201.623 9.198 202.195 9.666C202.759 10.129 203.227 10.709 203.562 11.362C203.898 12.015 204.096 12.73 204.143 13.462C204.192 14.196 204.088 14.93 203.841 15.623C203.593 16.316 203.207 16.946 202.706 17.483C202.205 18.019 201.598 18.446 200.924 18.741C200.249 19.033 199.524 19.184 198.789 19.183C198.057 19.183 197.327 19.033 196.653 18.743C173.916 10.677 149.475 8.658 125.722 12.882C50.1113 26.279 -0.500671 98.699 12.8963 174.302C26.2943 249.906 98.7063 300.525 174.317 287.123C202.648 282.169 228.731 268.508 248.933 248.043C249.431 247.542 250.021 247.142 250.671 246.87C251.318 246.598 252.019 246.453 252.722 246.448C254.146 246.438 255.516 246.998 256.529 247.999C257.542 249.002 258.115 250.364 258.123 251.789C258.132 253.214 257.572 254.582 256.571 255.597C234.802 277.641 206.709 292.36 176.193 297.699C94.7423 312.133 16.7483 257.619 2.31533 176.18Z" fill="#333333"/>
<path d="M144.141 277.006C142.697 277.006 141.317 276.411 140.257 275.331C138.45 273.489 136.636 270.096 136.032 251.02C135.857 245.495 135.84 240.184 135.856 236.648L100.602 234.305C98.8949 234.192 97.401 233.12 96.745 231.541C96.089 229.962 96.384 228.147 97.508 226.858C100.63 223.275 174.752 138.925 242.894 123.278C244.774 122.845 246.735 123.667 247.744 125.322C248.752 126.976 248.588 129.09 247.337 130.57C246.555 131.495 168.904 223.593 151.384 269.578C150.464 271.99 148.553 277.006 144.141 277.006ZM110.535 225.946L140.7 227.951C143.096 228.11 144.945 230.124 144.9 232.526C144.722 242.025 144.932 252.742 145.515 260.255C162.748 221.659 210.443 161.335 230.971 136.216C180.567 154.558 128.21 207.098 110.535 225.946Z" fill="#333333"/>
<path d="M121.037 197.057C118.552 197.057 116.537 195.042 116.537 192.557C116.537 191.994 116.522 191.508 116.499 191.093L103.55 195.055C102.155 195.484 100.644 195.207 99.4886 194.319C98.3336 193.431 97.6806 192.039 97.7356 190.583C98.2706 176.391 99.0666 154.679 99.0666 153.035C99.0666 150.55 101.082 148.535 103.567 148.535C106.052 148.535 108.067 150.55 108.067 153.035C108.067 154.836 107.357 174.133 106.967 184.598L115.715 181.92C117.161 181.155 119.185 180.78 121.196 181.746C125.044 183.596 125.537 188.495 125.537 192.557C125.537 195.042 123.522 197.057 121.037 197.057Z" fill="#333333"/>
<path d="M202.233 134.499C199.748 134.499 197.733 132.484 197.733 129.999V122.332C197.733 119.847 199.748 117.832 202.233 117.832C204.718 117.832 206.733 119.847 206.733 122.332V129.999C206.733 132.484 204.719 134.499 202.233 134.499Z" fill="#333333"/>
<path d="M74.3517 147.966C64.8857 147.966 58.0777 146.606 53.5387 143.808C47.8277 140.287 46.7847 135.885 46.9157 132.812C47.4297 120.733 68.5907 108.252 76.9037 103.807L78.1917 63.985C77.3367 58.836 79.6987 50.939 89.8897 48.592L92.6867 47.953C131.03 39.228 154.752 32.474 163.193 27.879C165.865 26.424 168.649 25.686 171.466 25.686C179.11 25.686 184.721 30.994 186.119 35.987C186.753 37.891 193.857 52.674 199.336 63.872C219.331 64.447 227.298 71.024 228.174 71.805C228.238 71.863 228.302 71.922 228.362 71.983C232.712 76.333 233.828 81.816 231.506 87.423C224.227 104.996 182.95 121.616 165.541 127.946C132.098 140.107 96.3027 147.966 74.3517 147.966ZM171.468 34.687C170.17 34.687 168.835 35.056 167.497 35.784C155.116 42.525 120.012 50.966 94.6837 56.729L91.9097 57.362C86.4637 58.616 86.9417 61.961 87.0927 62.619C87.1797 62.997 87.2177 63.385 87.2047 63.772L85.8147 106.728C85.7617 108.373 84.8137 109.857 83.3457 110.6C70.3317 117.175 56.1417 127.684 55.9077 133.196C55.8907 133.596 55.8457 134.658 58.2617 136.147C60.3477 137.433 64.8327 138.966 74.3517 138.966C121.479 138.966 214.679 104.535 223.193 83.979C224.105 81.777 223.81 80.222 222.133 78.483C221.442 77.964 214.175 72.832 196.511 72.832C194.795 72.832 193.228 71.856 192.472 70.315C188.213 61.641 178.226 41.169 177.454 38.414C177.08 37.077 174.759 34.687 171.468 34.687Z" fill="#333333"/>
<path d="M90.4947 110.45C86.6147 110.45 83.2477 110.163 80.4887 109.617C78.0507 109.135 76.4657 106.767 76.9477 104.329C77.4307 101.891 79.7987 100.31 82.2357 100.788C97.9807 103.906 146.444 96.3971 192.349 64.2891C194.386 62.8641 197.192 63.3621 198.616 65.3971C200.041 67.4341 199.545 70.2391 197.508 71.6641C157.549 99.6131 114.352 110.45 90.4947 110.45Z" fill="#333333"/>
</g>
<defs>
<clipPath id="clip0_106_670">
<rect width="258.123" height="300.016" fill="white"/>
</clipPath>
</defs>
</svg>
