<svg width="300" height="318" viewBox="0 0 300 318" fill="none" xmlns="http://www.w3.org/2000/svg">
<g clip-path="url(#clip0_106_404)">
<path d="M93.1879 27.8721C94.0439 23.6941 94.5859 19.3151 95.7019 15.1741C39.7519 36.9761 -0.00013952 91.4311 -0.00013952 155.005C-0.0671395 185.985 9.52086 216.216 27.4299 241.497C28.2529 242.659 29.5039 243.448 30.9089 243.69C32.3129 243.93 33.7549 243.604 34.9169 242.782C36.0799 241.96 36.8689 240.708 37.1089 239.303C37.2279 238.61 37.2089 237.897 37.0519 237.209C36.8979 236.521 36.6069 235.871 36.1999 235.295C19.5729 211.828 10.6729 183.764 10.7399 155.004C10.7409 98.4411 44.6419 49.6511 93.1879 27.8721Z" fill="#333333"/>
<path d="M251.257 44.528C251.278 44.516 251.298 44.508 251.319 44.498C224.607 19.985 189.021 4.99902 150 4.99902C136.374 4.99902 123.17 6.83602 110.613 10.257C111.143 11.129 111.47 12.129 111.528 13.224C112.75 15.53 113.936 17.851 115.034 20.21C126.213 17.307 137.926 15.745 150 15.745C184.883 15.745 216.812 28.64 241.272 49.912C244.582 48.099 247.957 46.366 251.257 44.528Z" fill="#333333"/>
<path d="M260.899 54.108C260.323 55.669 259.202 57.086 257.409 58.085C255.782 58.991 254.096 59.858 252.396 60.729C275.267 85.55 289.259 118.671 289.259 155.004C289.272 179.129 283.018 202.844 271.11 223.825C270.705 224.437 270.43 225.128 270.303 225.851C270.174 226.574 270.198 227.316 270.367 228.029C270.537 228.745 270.853 229.417 271.293 230.004C271.734 230.592 272.29 231.083 272.928 231.447C273.567 231.81 274.272 232.041 275.002 232.121C275.732 232.202 276.471 232.131 277.172 231.915C277.874 231.697 278.524 231.34 279.082 230.863C279.641 230.384 280.094 229.798 280.416 229.137C293.257 206.537 300.005 180.99 299.999 154.997C300 116.189 285.178 80.771 260.899 54.108Z" fill="#333333"/>
<path d="M147.337 286.98C147.31 286.98 147.282 286.98 147.254 286.979C145.925 286.958 144.66 286.407 143.737 285.451L18.0328 155.059C16.1578 153.115 16.1668 150.034 18.0518 148.1L74.7248 89.936C75.6658 88.97 76.9568 88.425 78.3058 88.425H218.285C219.63 88.425 220.917 88.967 221.857 89.927L281.94 151.287C282.871 152.237 283.384 153.519 283.368 154.849C283.35 156.179 282.805 157.447 281.85 158.373L150.82 285.569C149.886 286.475 148.636 286.98 147.337 286.98ZM28.5958 151.607L147.454 274.898L271.281 154.695L216.182 98.424H80.4148L28.5958 151.607Z" fill="#333333"/>
<path d="M147.947 262.252C147.92 262.252 147.892 262.252 147.864 262.251C146.535 262.23 145.27 261.679 144.347 260.723L47.4508 160.212C45.5758 158.267 45.5848 155.186 47.4698 153.252L91.1548 108.415C92.0958 107.449 93.3868 106.904 94.7358 106.904H202.637C203.982 106.904 205.269 107.446 206.209 108.406L252.522 155.706C253.453 156.656 253.966 157.938 253.95 159.268C253.932 160.598 253.387 161.866 252.432 162.792L151.43 260.84C150.496 261.746 149.247 262.252 147.947 262.252ZM58.0138 156.76L148.065 250.17L241.864 159.114L200.536 116.904H96.8448L58.0138 156.76Z" fill="#333333"/>
<path d="M150.879 232.313C137.389 232.313 126.515 226.836 118.559 216.037C118.555 216.031 118.551 216.025 118.546 216.019C117.335 214.954 112.349 214.047 110.31 214.295C108.499 215.356 106.141 215.196 104.479 213.733C102.405 211.91 102.203 208.751 104.027 206.676C105.66 204.821 108.382 204.071 112.588 204.318C115.027 204.461 123.216 205.303 126.645 210.152C132.691 218.335 140.619 222.312 150.878 222.312C157.489 222.312 162.854 220.538 167.278 216.887C171.412 213.475 173.423 209.702 173.423 205.355C173.423 202.429 172.558 199.992 170.778 197.904C168.743 195.517 165.972 193.579 162.546 192.144C158.474 190.439 153.999 188.766 149.247 187.172L134.25 182.146C128.827 180.329 123.803 178.015 119.317 175.269C114.413 172.272 110.419 168.066 107.449 162.771C104.477 157.48 102.969 151.203 102.969 144.116C102.969 132.011 107.978 116.241 122.037 108.287C124.441 106.928 127.492 107.773 128.851 110.176C130.211 112.58 129.365 115.63 126.962 116.99C116.645 122.827 112.969 134.83 112.969 144.116C112.969 149.467 114.046 154.096 116.169 157.876C118.322 161.715 121.059 164.614 124.535 166.738C128.382 169.093 132.718 171.087 137.426 172.664L152.426 177.691C157.408 179.363 162.113 181.122 166.408 182.92C171.295 184.967 175.325 187.825 178.388 191.416C181.729 195.338 183.422 200.027 183.422 205.355C183.422 212.769 180.132 219.245 173.642 224.601C167.44 229.72 159.782 232.313 150.879 232.313ZM196.392 213.102C196.22 213.102 196.047 213.093 195.872 213.076C193.125 212.792 191.129 210.336 191.412 207.589C191.536 206.391 191.599 205.147 191.599 203.891C191.599 196.606 189.612 190.824 185.523 186.213C181.195 181.341 176.037 177.987 169.756 175.966L148.577 169.141C141.11 166.737 134.606 163.625 129.249 159.895C123.362 155.796 120.5 150.023 120.5 142.245C120.5 135.303 123.225 129.748 128.83 125.263C135.306 120.084 143.326 119.386 150.316 119.386C162.817 119.386 172.242 123.584 179.098 132.213C180.712 132.455 184.367 131.686 186.597 130.822C185.531 126.421 179.995 119.224 171.704 116.688C169.062 115.88 167.577 113.085 168.385 110.444C169.192 107.803 171.989 106.314 174.628 107.125C188.546 111.381 197.756 124.735 196.692 133.832C196.453 135.881 195.217 138.862 187.296 141.092C183.03 142.294 175.328 143.614 171.679 138.963C166.622 132.322 160.048 129.387 150.316 129.387C142.765 129.387 138.35 130.455 135.077 133.073C131.869 135.64 130.5 138.384 130.5 142.246C130.5 146.806 131.751 149.454 134.963 151.689C139.507 154.853 145.119 157.523 151.644 159.624L172.821 166.448C180.739 168.998 187.529 173.415 193.002 179.577C198.708 186.01 201.6 194.19 201.6 203.892C201.6 205.49 201.52 207.08 201.361 208.618C201.094 211.188 198.922 213.102 196.392 213.102Z" fill="#333333"/>
<path d="M57 98.425C54.239 98.425 52 96.186 52 93.425V62.474C52 60.773 52.865 59.189 54.295 58.268C55.725 57.347 57.524 57.217 59.074 57.924L78.703 66.873L97.541 3.57299C98.094 1.71599 99.67 0.344988 101.586 0.054988C103.503 -0.231012 105.413 0.608988 106.49 2.21999L145.585 60.689L165.462 29.77C166.459 28.22 168.243 27.35 170.063 27.49C171.9 27.636 173.507 28.779 174.248 30.466L190.914 68.465C192.023 70.994 190.872 73.943 188.343 75.052C185.813 76.161 182.864 75.01 181.756 72.481L168.834 43.019L149.874 72.511C148.962 73.928 147.398 74.791 145.713 74.807C143.999 74.827 142.448 73.987 141.512 72.586L104.093 16.623L86.65 75.233C86.237 76.619 85.244 77.759 83.928 78.358C82.611 78.957 81.099 78.955 79.783 78.356L62 70.249V93.425C62 96.186 59.761 98.425 57 98.425Z" fill="#333333"/>
<path d="M257.672 110.808C257.348 110.808 257.018 110.776 256.687 110.71C253.979 110.168 252.223 107.535 252.764 104.827L254.902 94.14H244.335C242.713 94.14 241.191 93.353 240.254 92.029C239.317 90.705 239.08 89.009 239.619 87.479L251.947 52.465L207.402 76.858C204.98 78.183 201.941 77.295 200.615 74.874C199.289 72.452 200.177 69.414 202.599 68.087L258.599 37.42C260.416 36.425 262.659 36.654 264.238 37.995C265.817 39.336 266.405 41.512 265.717 43.466L251.397 84.138H261C262.498 84.138 263.917 84.809 264.866 85.968C265.816 87.126 266.196 88.65 265.903 90.118L262.57 106.785C262.095 109.164 260.007 110.808 257.672 110.808Z" fill="#333333"/>
<path d="M51.0511 317.19C49.9881 317.19 48.9241 316.852 48.0311 316.175C46.2521 314.827 45.5821 312.464 46.3881 310.384L66.0061 259.74L44.9171 262.217C43.0781 262.441 41.2761 261.618 40.2231 260.098C39.1711 258.577 39.0431 256.601 39.8901 254.958L58.3101 219.266C59.5781 216.811 62.5931 215.852 65.0461 217.116C67.5001 218.383 68.4631 221.398 67.1961 223.852L53.0881 251.189L73.0821 248.84C74.8251 248.627 76.5451 249.358 77.6181 250.744C78.6921 252.13 78.9611 253.976 78.3281 255.611L62.0201 297.711L100.666 268.726C102.149 267.613 104.126 267.413 105.804 268.205C107.48 268.998 108.58 270.654 108.661 272.507L109.663 295.359L127.171 286.964C129.66 285.77 132.647 286.82 133.841 289.311C135.035 291.801 133.984 294.788 131.494 295.982L107.161 307.649C105.647 308.375 103.869 308.293 102.429 307.429C100.989 306.566 100.077 305.036 100.004 303.359L99.0861 282.412L54.0511 316.19C53.1621 316.857 52.1061 317.19 51.0511 317.19Z" fill="#333333"/>
<path d="M216.17 293.47C215.816 293.47 215.46 293.433 215.107 293.356L185.271 286.867C182.573 286.28 180.861 283.617 181.448 280.919C182.035 278.22 184.708 276.509 187.396 277.096L211.053 282.242L210.5 252.399C210.468 250.677 211.323 249.061 212.765 248.12C214.206 247.178 216.03 247.047 217.594 247.766L263.927 269.139L244.32 221.118C243.276 218.562 244.503 215.643 247.059 214.599C249.615 213.552 252.534 214.782 253.578 217.338L277.98 277.103C278.756 279.004 278.292 281.187 276.807 282.606C275.323 284.026 273.12 284.393 271.256 283.533L220.646 260.187L221.168 288.378C221.196 289.906 220.523 291.364 219.342 292.335C218.44 293.075 217.316 293.47 216.17 293.47Z" fill="#333333"/>
</g>
<defs>
<clipPath id="clip0_106_404">
<rect width="300" height="317.19" fill="white"/>
</clipPath>
</defs>
</svg>
