<svg width="300" height="349" viewBox="0 0 300 349" fill="none" xmlns="http://www.w3.org/2000/svg">
<g clip-path="url(#clip0_106_390)">
<path d="M150 348.775C67.296 348.775 3.99769e-06 281.472 3.99769e-06 198.775C-0.005996 172.783 6.742 147.235 19.583 124.636C19.905 123.976 20.358 123.389 20.917 122.91C21.476 122.433 22.125 122.076 22.827 121.858C23.528 121.642 24.266 121.571 24.997 121.652C25.727 121.732 26.433 121.963 27.071 122.326C27.709 122.69 28.264 123.181 28.706 123.769C29.145 124.356 29.462 125.028 29.632 125.744C29.802 126.457 29.825 127.199 29.696 127.922C29.569 128.646 29.295 129.336 28.889 129.948C16.981 150.93 10.728 174.645 10.74 198.77C10.74 275.559 73.218 338.03 150 338.03C226.783 338.03 289.26 275.559 289.26 198.77C289.326 170.011 280.427 141.945 263.799 118.479C263.393 117.903 263.102 117.252 262.947 116.564C262.791 115.877 262.771 115.165 262.89 114.47C263.13 113.066 263.919 111.815 265.082 110.992C266.245 110.169 267.686 109.844 269.091 110.084C270.495 110.326 271.746 111.114 272.57 112.277C290.478 137.557 300.067 167.789 300 198.769C300 281.486 232.711 348.775 150 348.775Z" fill="#333333"/>
<path d="M272.7 163.954C272.673 163.954 272.646 163.954 272.62 163.954L47.9499 160.449C45.1889 160.406 42.9859 158.133 43.0289 155.371C43.0719 152.61 45.3089 150.381 48.1069 150.45L272.777 153.955C275.538 153.998 277.741 156.271 277.698 159.033C277.655 161.767 275.425 163.954 272.7 163.954Z" fill="#333333"/>
<path d="M230.728 305.739C228.657 305.739 226.721 304.443 226.004 302.377L151.224 86.7659L78.611 277.254C77.629 279.835 74.738 281.129 72.158 280.145C69.577 279.162 68.283 276.273 69.267 273.692L146.773 70.3669C147.512 68.4269 149.373 67.1479 151.444 67.1479C151.47 67.1479 151.496 67.1479 151.521 67.1479C153.623 67.1799 155.48 68.5229 156.168 70.5089L235.451 299.1C236.356 301.709 234.974 304.558 232.366 305.462C231.823 305.65 231.271 305.739 230.728 305.739Z" fill="#333333"/>
<path d="M230.723 305.739C229.769 305.739 228.805 305.467 227.952 304.897L24.1672 168.877C21.8702 167.344 21.2512 164.239 22.7842 161.942C24.3182 159.645 27.4232 159.027 29.7192 160.559L233.504 296.578C235.801 298.111 236.42 301.216 234.888 303.513C233.923 304.958 232.338 305.739 230.723 305.739Z" fill="#333333"/>
<path d="M70.8622 305.738C69.2882 305.738 67.7392 304.998 66.7662 303.612C65.1792 301.352 65.7242 298.234 67.9832 296.646L269.824 154.862C272.083 153.275 275.201 153.819 276.79 156.079C278.377 158.339 277.832 161.457 275.572 163.044L73.7312 304.83C72.8572 305.443 71.8542 305.738 70.8622 305.738Z" fill="#333333"/>
<path d="M46.3652 141.833C43.6042 141.833 41.3652 139.594 41.3652 136.833C41.3652 134.072 43.6042 131.833 46.3652 131.833C56.2632 131.833 56.9152 122.043 56.9562 120.927H56.9612C57.1262 118.189 59.9082 86.502 93.8992 77.044C95.8922 76.489 98.0232 77.22 99.2552 78.883C100.487 80.546 100.569 82.796 99.4592 84.543C97.3962 87.811 92.0482 98.536 94.4982 104.658C94.8472 105.531 95.9092 108.185 101.313 109.545C103.912 110.198 110.159 107.766 114.667 101.656C117.616 97.659 121.636 89.427 115.426 79.212C98.7092 51.712 116.562 20.126 141.671 1.02104C143.384 -0.281959 145.739 -0.342959 147.518 0.870041C149.296 2.08404 150.098 4.29904 149.508 6.37004C147.374 13.899 143.373 35.483 150.4 44.778C152.673 47.785 156.06 49.247 160.752 49.247C163.56 49.247 165.431 48.662 166.315 47.508C167.591 45.841 168.457 41.419 165.326 29.813C164.351 26.201 165.993 23.728 167.854 22.618C171.258 20.588 175.819 22.249 181.408 27.551C190.751 36.412 198.864 52.067 190.986 67.025C182.352 83.417 181.502 92.245 187.735 100.764C188.214 101.416 189.101 102.632 191.997 101.828C198.743 99.957 208.939 88.694 210.221 74.601C210.471 71.86 212.883 69.84 215.627 70.072C217.335 70.218 218.77 71.207 219.555 72.595C219.806 72.854 220.189 73.233 220.515 73.556C225.584 78.569 241.008 93.825 229.645 112.597C227.657 115.883 228.078 119.171 230.773 121.394C234.578 124.533 242.169 124.744 249.845 117.793C251.892 115.939 255.054 116.097 256.908 118.144C258.761 120.191 258.604 123.353 256.556 125.207C244.477 136.143 231.426 134.895 224.41 129.109C217.847 123.696 216.513 114.98 221.09 107.419C226.111 99.123 223.122 91.885 218.056 85.64C213.615 99.021 203.524 109.009 194.67 111.464C188.596 113.148 183.127 111.4 179.665 106.669C169.598 92.91 173.373 79.007 182.139 62.364C184.712 57.478 184.822 52.058 182.462 46.255C181.087 42.874 179.129 39.949 177.169 37.624C177.927 43.624 177.495 49.358 174.254 53.59C171.379 57.344 166.836 59.248 160.753 59.248C152.93 59.248 146.588 56.326 142.415 50.798C135.91 42.181 135.769 28.867 136.988 18.53C121.551 34.587 112.87 55.755 123.972 74.019C130.722 85.124 130.264 97.362 122.715 107.595C116.351 116.221 106.323 121.123 98.8732 119.244C90.3032 117.087 86.7102 112.129 85.2052 108.349C83.0412 102.915 83.8172 96.754 85.4122 91.487C68.4932 101.916 66.9932 120.577 66.9532 121.203C66.9532 121.236 66.9522 121.269 66.9512 121.303C66.6842 128.403 62.0402 141.833 46.3652 141.833Z" fill="#333333"/>
</g>
<defs>
<clipPath id="clip0_106_390">
<rect width="300" height="348.775" fill="white"/>
</clipPath>
</defs>
</svg>
