<svg width="301" height="353" viewBox="0 0 301 353" fill="none" xmlns="http://www.w3.org/2000/svg">
<g clip-path="url(#clip0_106_371)">
<g clip-path="url(#clip1_106_371)">
<path d="M191.121 296.676H106.809C98.8141 296.676 92.3091 290.171 92.3091 282.176C92.3091 281.793 92.3581 281.411 92.4551 281.041L121.821 168.385C103.775 158.511 92.3091 139.387 92.3091 118.656C92.3091 87.416 117.725 62 148.965 62C180.205 62 205.621 87.416 205.621 118.656C205.621 139.386 194.155 158.51 176.11 168.385L205.475 281.041C205.572 281.411 205.621 281.793 205.621 282.176C205.621 290.171 199.116 296.676 191.121 296.676ZM101.331 282.669C101.581 285.472 103.942 287.676 106.809 287.676H191.121C193.987 287.676 196.35 285.472 196.6 282.669L166.486 167.141C165.937 165.034 166.974 162.836 168.95 161.922C185.761 154.142 196.622 137.159 196.622 118.656C196.621 92.378 175.243 71 148.965 71C122.687 71 101.309 92.378 101.309 118.656C101.309 137.158 112.171 154.141 128.981 161.922C130.957 162.837 131.995 165.034 131.445 167.141L101.331 282.669Z" fill="#333333"/>
<path d="M144.926 352.179C62.2691 349.38 -2.71092 279.839 0.0870756 197.189C0.961076 171.211 8.56908 145.907 22.1681 123.754C22.5131 123.105 22.9851 122.533 23.5601 122.074C24.1351 121.617 24.7961 121.281 25.5051 121.088C26.2131 120.896 26.9531 120.85 27.6811 120.955C28.4081 121.059 29.1051 121.314 29.7311 121.699C30.3561 122.084 30.8951 122.594 31.3161 123.196C31.7351 123.798 32.0291 124.48 32.1751 125.201C32.3211 125.92 32.3191 126.662 32.1661 127.38C32.0151 128.099 31.7171 128.779 31.2911 129.378C18.6801 149.944 11.6271 173.434 10.8231 197.546C8.22507 274.291 68.5531 338.84 145.291 341.438C222.031 344.037 286.585 283.715 289.183 206.97C290.222 178.229 282.278 149.878 266.454 125.864C266.067 125.274 265.799 124.614 265.668 123.921C265.535 123.23 265.539 122.517 265.682 121.827C265.97 120.431 266.801 119.208 267.991 118.426C269.181 117.644 270.634 117.366 272.028 117.654C273.424 117.944 274.647 118.774 275.43 119.964C292.473 145.836 301.034 176.375 299.918 207.335C297.117 290.004 227.59 354.978 144.926 352.179Z" fill="#333333"/>
<path d="M85.7812 230.82C84.0312 230.82 82.3672 229.793 81.6382 228.081L67.0442 193.785C61.7382 197.543 52.8322 202.567 43.8962 201.881C38.0242 201.429 33.0612 198.695 29.1432 193.756C22.4332 185.298 20.1772 176.879 22.4382 168.735C27.0282 152.208 48.9942 143.809 49.9272 143.46C52.2542 142.589 54.8482 143.768 55.7192 146.095C56.5912 148.421 55.4132 151.012 53.0882 151.886C52.8562 151.974 34.4462 159.065 31.1052 171.161C29.6452 176.444 31.3102 182.005 36.1932 188.161C38.5192 191.093 41.2572 192.644 44.5682 192.904C52.7382 193.548 62.6822 186.182 65.8252 183.291C66.9022 182.302 68.3962 181.895 69.8232 182.202C71.2522 182.51 72.4452 183.491 73.0172 184.836L89.9182 224.555C90.8912 226.841 89.8262 229.485 87.5402 230.457C86.9662 230.705 86.3692 230.82 85.7812 230.82Z" fill="#333333"/>
<path d="M66.9459 225.869C65.7749 225.869 64.6039 225.415 63.7219 224.51C61.9879 222.73 62.0249 219.88 63.8049 218.146L88.1929 194.387C89.9729 192.653 92.8229 192.691 94.5559 194.47C96.2899 196.25 96.2529 199.099 94.4729 200.833L70.0849 224.593C69.2109 225.444 68.0779 225.869 66.9459 225.869Z" fill="#333333"/>
<path d="M262.598 243.869C262.409 243.869 262.219 243.857 262.03 243.833L228.09 239.511C225.692 239.205 223.963 237.06 224.176 234.651L225.346 221.416L221.32 219.14C219.157 217.916 218.394 215.171 219.618 213.008C220.841 210.844 223.59 210.084 225.75 211.306L232.299 215.009C233.835 215.877 234.722 217.564 234.567 219.322L233.523 231.131L258.603 234.325L260.285 218.234C260.534 215.845 262.609 214.067 265.013 214.209L275.159 214.778C277.64 214.918 279.539 217.042 279.4 219.523C279.26 222.004 277.138 223.91 274.655 223.764L268.791 223.435L267.076 239.837C266.95 241.041 266.345 242.145 265.394 242.897C264.593 243.529 263.606 243.869 262.598 243.869Z" fill="#333333"/>
<path d="M228.261 297.231C227.62 297.231 226.969 297.093 226.351 296.803C224.101 295.746 223.134 293.066 224.191 290.817L234.311 269.274L243.432 218.866C243.874 216.421 246.217 214.788 248.661 215.239C251.107 215.681 252.73 218.022 252.288 220.468L243.062 271.456C242.993 271.841 242.874 272.215 242.708 272.568L232.338 294.643C231.57 296.274 229.951 297.231 228.261 297.231Z" fill="#333333"/>
<path d="M251.632 156.474C250.986 156.474 250.302 156.437 249.581 156.362C240.639 155.439 229.747 148.311 228.534 147.501C226.467 146.121 225.911 143.326 227.291 141.26C228.672 139.192 231.468 138.638 233.532 140.017C235.959 141.633 242.708 145.596 248.176 146.98C243.877 142.291 234.888 134.812 226.731 128.914C225.649 128.132 224.97 126.909 224.878 125.577C224.786 124.245 225.291 122.941 226.256 122.017L236.326 112.378L239.533 97.775L232.81 100.666C230.526 101.648 227.88 100.592 226.899 98.309C225.917 96.026 226.972 93.379 229.255 92.397L244.03 86.044C245.58 85.377 247.372 85.634 248.674 86.709C249.975 87.784 250.565 89.496 250.203 91.144L244.822 115.646C244.631 116.518 244.183 117.314 243.538 117.932L236.316 124.844C238.933 126.844 242.423 129.586 245.879 132.528C257.366 142.309 260.983 147.66 259.225 152.273C258.16 155.065 255.609 156.474 251.632 156.474Z" fill="#333333"/>
<path d="M248.984 119.181C248.551 119.181 248.133 119.12 247.737 119.006C245.752 118.639 234.516 116.876 227.575 115.8C225.119 115.42 223.436 113.12 223.816 110.664C224.197 108.207 226.497 106.527 228.952 106.906C228.952 106.906 234.145 107.71 239.338 108.529C241.94 108.939 244.54 109.352 246.49 109.67C247.481 109.832 248.307 109.969 248.885 110.069C253.327 110.84 253.586 113.79 253.49 115.023C253.311 117.368 251.336 119.181 248.984 119.181Z" fill="#333333"/>
</g>
</g>
<defs>
<clipPath id="clip0_106_371">
<rect width="300.013" height="352.122" fill="white"/>
</clipPath>
<clipPath id="clip1_106_371">
<rect width="300.013" height="290.266" fill="white" transform="translate(0 62)"/>
</clipPath>
</defs>
</svg>
