<svg width="293" height="289" viewBox="0 0 293 289" fill="none" xmlns="http://www.w3.org/2000/svg">
<g clip-path="url(#clip0_106_337)">
<path d="M264.096 212.207C267.131 213.854 270.237 215.364 273.386 216.788C297.643 174.713 300.197 121.378 275.407 75.631C258.37 44.197 230.282 20.197 196.574 8.27303C162.867 -3.65097 125.935 -2.65397 92.9208 11.073C91.6538 11.601 90.6488 12.611 90.1278 13.88C89.6048 15.15 89.6078 16.574 90.1368 17.84C90.6648 19.107 91.6748 20.111 92.9438 20.633C94.2128 21.155 95.6368 21.152 96.9038 20.623C127.554 7.87803 161.842 6.95303 193.134 18.025C224.427 29.098 250.503 51.38 266.318 80.565C289.446 123.249 286.937 173.053 264.096 212.207Z" fill="#333333"/>
<path d="M218.185 258.961C216.258 260.137 214.307 261.287 212.299 262.375C183.113 278.185 149.103 282.613 116.842 274.803C84.5808 266.993 56.3618 247.499 37.6388 220.09C37.2638 219.512 36.7778 219.014 36.2078 218.627C35.6388 218.239 34.9978 217.969 34.3228 217.834C33.6468 217.697 32.9508 217.697 32.2758 217.833C31.6008 217.969 30.9588 218.239 30.3898 218.627C29.8208 219.014 29.3338 219.512 28.9598 220.09C28.5848 220.668 28.3298 221.315 28.2078 221.992C28.0868 222.672 28.1028 223.367 28.2538 224.039C28.4058 224.711 28.6898 225.347 29.0898 225.906C49.2498 255.437 79.6468 276.442 114.399 284.859C149.151 293.275 185.789 288.503 217.227 271.466C219.061 270.473 220.85 269.429 222.622 268.364C221.303 265.142 219.901 261.961 218.185 258.961Z" fill="#333333"/>
<path d="M32.2348 182.536C22.0398 182.536 16.2588 182.063 15.7728 182.021C13.5068 181.829 11.7408 179.974 11.6578 177.702C11.5848 175.687 9.8768 128.2 11.3458 113.069C12.4128 102.061 4.0578 86.684 0.748804 81.687C-0.202196 80.251 -0.251196 78.399 0.623804 76.916C1.4988 75.433 3.1388 74.574 4.8598 74.717C5.2698 74.748 46.2598 77.762 68.0168 59.457C68.9818 58.645 70.2448 58.275 71.4958 58.438C72.7468 58.602 73.8718 59.282 74.5968 60.315C74.7078 60.473 86.1518 76.551 106.599 91.302C133.754 110.89 163.109 119.006 193.84 115.428C196.307 115.145 198.543 116.908 198.83 119.377C199.117 121.846 197.35 124.08 194.881 124.367C153.598 129.176 121.081 112.907 101.073 98.411C85.3308 87.007 74.8088 75.093 70.0778 69.21C51.6938 82.098 25.6248 83.936 12.4278 83.95C16.3048 91.417 21.3248 103.411 20.3038 113.937C19.1358 125.972 20.1278 161.211 20.5138 173.273C40.0258 174.085 128.806 174.793 233.635 128.86C235.912 127.862 238.565 128.899 239.563 131.175C240.56 133.451 239.523 136.106 237.247 137.103C174.31 164.68 117.537 175.426 80.9918 179.586C60.1508 181.958 43.4998 182.536 32.2348 182.536Z" fill="#333333"/>
<path d="M235.181 136.196C233.196 136.196 231.383 134.873 230.841 132.873C230.628 132.154 226.116 118.132 199.328 123.493C196.896 123.978 194.52 122.401 194.033 119.964C193.545 117.527 195.125 115.156 197.562 114.668C212.085 111.761 223.493 113.358 231.473 119.414C237.743 124.172 239.374 129.93 239.54 130.57C240.161 132.976 238.714 135.431 236.308 136.052C235.932 136.149 235.553 136.196 235.181 136.196Z" fill="#333333"/>
<path d="M192.715 154.123C190.801 154.123 189.027 152.893 188.423 150.971C182.255 131.333 192.916 117.222 193.373 116.632C194.893 114.666 197.719 114.304 199.686 115.823C201.647 117.339 202.012 120.153 200.507 122.118C200.141 122.604 192.299 133.276 197.009 148.273C197.754 150.644 196.436 153.17 194.065 153.915C193.615 154.056 193.161 154.123 192.715 154.123Z" fill="#333333"/>
<path d="M76.3848 91.3891C75.1858 91.3891 73.9908 90.9131 73.1048 89.9711C71.4028 88.1601 71.4908 85.3121 73.3018 83.6101L85.8308 71.8331C87.6418 70.1311 90.4888 70.2191 92.1918 72.0301C93.8938 73.8411 93.8058 76.6891 91.9948 78.3911L79.4658 90.1671C78.5978 90.9841 77.4898 91.3891 76.3848 91.3891Z" fill="#333333"/>
<path d="M93.0668 107.099C92.0168 107.099 90.9628 106.734 90.1088 105.989C88.2368 104.355 88.0438 101.512 89.6788 99.6399L101.044 86.6219C102.677 84.7499 105.52 84.5559 107.393 86.1919C109.265 87.8259 109.458 90.6689 107.823 92.5409L96.4578 105.559C95.5688 106.577 94.3218 107.099 93.0668 107.099Z" fill="#333333"/>
<path d="M110.5 120.107C109.633 120.107 108.756 119.857 107.984 119.335C105.925 117.943 105.384 115.146 106.776 113.087L117.418 97.343C118.81 95.283 121.607 94.744 123.666 96.135C125.725 97.527 126.266 100.324 124.874 102.383L114.232 118.127C113.363 119.414 111.944 120.107 110.5 120.107Z" fill="#333333"/>
<path d="M134.236 131.517C133.704 131.517 133.164 131.422 132.638 131.222C130.315 130.339 129.148 127.74 130.031 125.417L137.044 106.971C137.928 104.648 140.526 103.48 142.849 104.364C145.172 105.247 146.339 107.846 145.456 110.169L138.443 128.615C137.76 130.412 136.05 131.517 134.236 131.517Z" fill="#333333"/>
<path d="M160.612 135.643C160.388 135.643 160.163 135.626 159.935 135.592C157.477 135.221 155.786 132.929 156.157 130.471L158.753 113.261C159.123 110.803 161.42 109.11 163.873 109.482C166.331 109.853 168.022 112.145 167.651 114.603L165.055 131.813C164.72 134.043 162.801 135.643 160.612 135.643Z" fill="#333333"/>
<path d="M60.1259 156.352C47.7999 156.352 37.0959 147.568 34.6729 135.465C33.3109 128.66 34.6809 121.733 38.5289 115.958C42.3779 110.183 48.2449 106.253 55.0499 104.891C56.7379 104.553 58.4619 104.382 60.1709 104.382C72.4969 104.382 83.2009 113.166 85.6229 125.268C88.4339 139.315 79.2929 153.031 65.2469 155.842C63.5589 156.18 61.8349 156.352 60.1259 156.352ZM60.1709 113.382C59.0529 113.382 57.9249 113.494 56.8169 113.716C52.3689 114.606 48.5349 117.175 46.0189 120.949C43.5029 124.723 42.6079 129.251 43.4979 133.698C45.0809 141.609 52.0739 147.351 60.1249 147.351C61.2429 147.351 62.3719 147.239 63.4799 147.017C72.6609 145.179 78.6349 136.215 76.7969 127.033C75.2149 119.124 68.2229 113.382 60.1709 113.382Z" fill="#333333"/>
<path d="M16.4226 211.94C14.0126 211.94 12.0306 210.042 11.9266 207.633L11.1766 190.216C11.0696 187.734 12.9956 185.634 15.4786 185.527C17.9586 185.403 20.0616 187.346 20.1686 189.83L20.7296 202.867C44.1636 202.281 157.85 197.07 235.427 151.094L234.666 145.019C234.356 142.553 236.105 140.303 238.571 139.994C241.042 139.688 243.286 141.434 243.595 143.9L244.72 152.88C244.941 154.637 244.11 156.359 242.599 157.281C196.242 185.566 137.193 198.919 95.8196 205.139C51.1096 211.862 16.7646 211.94 16.4226 211.94Z" fill="#333333"/>
<path d="M157.432 89.2501C155.787 89.2501 154.273 88.3531 153.484 86.9091L143.437 68.5381L125.066 58.4911C123.623 57.7011 122.725 56.1881 122.725 54.5431C122.725 52.8981 123.622 51.3841 125.066 50.5951L143.437 40.5481L153.484 22.1771C154.273 20.7341 155.788 19.8361 157.432 19.8361C159.076 19.8361 160.59 20.7331 161.38 22.1761L171.428 40.5471L189.8 50.5951C191.243 51.3851 192.141 52.8981 192.141 54.5431C192.141 56.1881 191.244 57.7021 189.8 58.4911L171.428 68.5391L161.38 86.9101C160.591 88.3531 159.076 89.2501 157.432 89.2501ZM136.603 54.5431L148.912 61.2751C149.667 61.6881 150.288 62.3091 150.701 63.0641L157.432 75.3731L164.164 63.0641C164.577 62.3091 165.198 61.6881 165.953 61.2751L178.263 54.5431L165.953 47.8111C165.198 47.3981 164.577 46.7771 164.164 46.0221L157.432 33.7131L150.7 46.0221C150.287 46.7771 149.666 47.3981 148.911 47.8111L136.603 54.5431Z" fill="#333333"/>
<path d="M232.047 269.159C230.402 269.159 228.888 268.262 228.099 266.818L215.079 243.012L191.272 229.992C189.829 229.203 188.931 227.688 188.931 226.044C188.931 224.4 189.828 222.885 191.272 222.096L215.079 209.076L228.099 185.27C228.888 183.827 230.403 182.929 232.047 182.929C233.691 182.929 235.206 183.826 235.995 185.27L249.015 209.076L272.821 222.096C274.264 222.885 275.162 224.4 275.162 226.044C275.162 227.688 274.265 229.203 272.821 229.992L249.015 243.012L235.995 266.818C235.206 268.261 233.691 269.159 232.047 269.159ZM202.81 226.044L220.554 235.748C221.309 236.161 221.93 236.782 222.343 237.537L232.047 255.28L241.751 237.537C242.164 236.782 242.785 236.161 243.54 235.748L261.283 226.044L243.54 216.34C242.785 215.927 242.164 215.306 241.751 214.551L232.047 196.808L222.343 214.551C221.93 215.306 221.309 215.927 220.554 216.34L202.81 226.044Z" fill="#333333"/>
<path d="M168.656 235.495C160.515 235.496 151.439 231.305 141.521 222.941C129.436 212.752 116.384 219.729 107.561 227.374C107.071 227.799 106.801 228.033 106.428 228.267C104.319 229.583 101.544 228.94 100.228 226.832C98.9746 224.825 99.4956 222.214 101.368 220.832C101.443 220.768 101.543 220.681 101.667 220.573C117.653 206.719 134.293 205.074 147.323 216.06C165.77 231.616 174.126 225.706 176.871 223.767C177.202 223.533 177.48 223.34 177.704 223.201C179.809 221.886 182.586 222.524 183.905 224.633C185.221 226.74 184.581 229.517 182.473 230.834C182.363 230.903 182.228 231.002 182.066 231.117C177.935 234.037 173.458 235.495 168.656 235.495Z" fill="#333333"/>
<path d="M164.988 262.578C156.935 262.578 147.758 259.78 138.885 250.907C135.903 247.925 132.713 246.511 129.127 246.56C125.582 246.617 118.108 248.339 107.88 259.241C107.392 259.762 107.169 259.999 106.84 260.26C104.894 261.803 102.062 261.477 100.518 259.53C99.042 257.67 99.275 255.003 100.997 253.422C101.074 253.342 101.181 253.228 101.315 253.084C113.187 240.431 122.913 237.659 128.982 237.563C135.035 237.455 140.517 239.816 145.247 244.545C163.56 262.858 183.429 247.501 183.628 247.344C185.575 245.8 188.407 246.128 189.949 248.077C191.492 250.025 191.164 252.855 189.216 254.398C189.054 254.528 178.642 262.576 164.988 262.578Z" fill="#333333"/>
</g>
<defs>
<clipPath id="clip0_106_337">
<rect width="292.828" height="288.918" fill="white"/>
</clipPath>
</defs>
</svg>
