<svg width="289" height="300" viewBox="0 0 289 300" fill="none" xmlns="http://www.w3.org/2000/svg">
<path fill-rule="evenodd" clip-rule="evenodd" d="M171.94 296.022C199.448 289.637 224.608 275.8 244.589 256.066C303.805 197.586 303.805 102.433 244.584 43.9478C229.185 28.7328 210.653 16.9678 190.243 9.45141C169.834 1.93505 148.026 -1.15665 126.3 0.386179C125.588 0.436704 124.892 0.625208 124.254 0.94105C123.616 1.25689 123.046 1.69385 122.579 2.22693C122.112 2.76 121.755 3.37879 121.53 4.04795C121.304 4.7171 121.215 5.42356 121.266 6.12692C121.317 6.83028 121.508 7.51674 121.828 8.14722C122.148 8.7777 122.59 9.3398 123.13 9.80142C123.67 10.263 124.296 10.6152 124.974 10.8376C125.651 11.0601 126.367 11.1486 127.079 11.0981C147.253 9.66221 167.503 12.5295 186.455 19.5051C190.108 20.8496 193.697 22.3407 197.212 23.9731C197.534 24.231 197.886 24.4523 198.261 24.632C216.459 33.35 232.545 45.8325 245.426 61.2321C258.308 76.6317 267.684 94.5879 272.918 113.882C293.041 188.049 248.316 264.552 173.216 284.425C154.043 289.504 134.073 290.51 114.607 287.461C107.074 286.254 99.6224 284.439 92.3293 282.021C91.9803 281.905 91.6232 281.826 91.2633 281.783C68.4732 274.379 50.8834 263.863 34.626 245.679C33.6706 244.612 32.3251 243.963 30.8855 243.876C29.4458 243.788 28.0299 244.269 26.9493 245.213C25.8687 246.156 25.2119 247.485 25.1233 248.907C25.0347 250.328 25.5217 251.727 26.4771 252.794C45.1825 273.712 65.8016 285.481 92.8573 293.535C99.1982 295.423 105.635 296.892 112.125 297.943C131.917 301.214 152.25 300.592 171.94 296.022Z" fill="#333333"/>
<mask id="path-2-outside-1_1010_698" maskUnits="userSpaceOnUse" x="0" y="19.4922" width="238" height="210" fill="black">
<rect fill="white" y="19.4922" width="238" height="210"/>
<path fill-rule="evenodd" clip-rule="evenodd" d="M14.1912 205.861H18.5915V185.644H14.1912C11.1968 185.644 8.38536 184.53 6.28259 182.515C4.16579 180.5 3 177.814 3 174.953C3 169.055 8.02018 164.258 14.1912 164.258H46.4712C45.0553 163.339 43.8519 162.131 42.9448 160.687C42.9275 160.659 42.9107 160.632 42.894 160.605C42.8844 160.59 42.8748 160.574 42.8651 160.559C40.2154 162.122 36.9365 162.704 33.6847 161.928C30.582 161.188 27.9677 159.34 26.3221 156.723L26.287 156.666C26.2762 156.649 26.2655 156.632 26.2549 156.615C26.2478 156.603 26.2407 156.592 26.2337 156.58C23.6416 158.111 20.4478 158.711 17.2826 158.016C14.1889 157.338 11.5529 155.513 9.8606 152.877C8.14205 150.199 7.61013 146.928 8.40213 143.903L21.9403 92.0849C22.1582 91.2495 22.7146 90.5314 23.4871 90.0882L27.221 87.9457C30.6603 85.972 33.1768 82.6842 34.1242 78.9247C35.0494 75.2547 34.4377 71.5142 32.4097 68.4047C31.9711 67.739 31.4949 67.1274 30.9938 66.5868C30.123 65.6476 29.8964 64.3132 30.4125 63.1597C36.1952 50.2237 45.9474 39.5159 58.6143 32.1946C60.22 31.267 62.3087 31.757 63.281 33.2914C64.2529 34.8253 63.7387 36.8211 62.1329 37.7495C51.2648 44.0312 42.774 53.0678 37.4761 63.9665C37.714 64.2876 37.9459 64.6192 38.1702 64.9603C41.1773 69.5703 42.0871 75.0699 40.7315 80.4456C39.36 85.8859 35.7109 90.6487 30.7201 93.5119L28.1928 94.9623L27.1295 99.0331L27.2368 98.927C30.0446 96.1509 34.063 95.0515 37.9817 95.9868C41.9018 96.9217 44.9067 99.6949 46.0195 103.406L48.9595 113.21C50.0723 116.921 49.0606 120.793 46.2528 123.569C44.1038 125.694 41.2471 126.836 38.2667 126.836C37.3533 126.836 36.4277 126.729 35.5083 126.51L25.1499 124.04C23.6375 123.679 22.2638 123.043 21.0803 122.187L14.9954 145.478C14.6434 146.823 14.883 148.283 15.6537 149.484C16.3837 150.621 17.5019 151.405 18.8027 151.689C21.5244 152.287 24.2932 150.665 24.9705 148.072C25.4254 146.332 27.2686 145.275 29.0909 145.709C30.9118 146.144 32.0191 147.906 31.5643 149.645L31.5638 149.647L31.5633 149.649C31.2303 150.927 31.4378 152.252 32.1474 153.381C32.8583 154.512 33.9878 155.31 35.3298 155.63C38.0932 156.289 40.9041 154.677 41.5942 152.037C42.0491 150.297 43.8931 149.24 45.7145 149.674C47.2595 150.043 48.2912 151.367 48.2903 152.823C48.2898 153.083 48.2572 153.346 48.1879 153.61C47.8535 154.889 48.0606 156.216 48.7706 157.346C49.4806 158.476 50.6096 159.275 51.948 159.594C54.7137 160.253 57.5278 158.641 58.2178 155.998C58.6727 154.258 60.5195 153.201 62.3377 153.634C64.1591 154.068 65.2665 155.83 64.8125 157.57L64.8111 157.573C64.1365 160.166 65.7803 162.84 68.473 163.535C69.7606 163.865 71.1339 163.675 72.34 162.997C73.6127 162.283 74.5443 161.101 74.8963 159.759L76.2873 154.435C76.7417 152.695 78.5885 151.638 80.4067 152.072L110.169 159.166C113.706 160.008 117.371 159.486 120.489 157.697C123.608 155.909 125.811 153.064 126.696 149.672C126.914 148.846 127.049 147.972 127.094 147.074L127.094 147.071C127.209 144.546 126.55 142.043 125.157 139.826C123.282 136.845 120.304 134.739 116.772 133.897C114.951 133.463 113.843 131.701 114.298 129.961C114.752 128.221 116.599 127.164 118.418 127.597C122.459 128.561 126.014 130.631 128.721 133.544C128.891 131.933 129.177 130.324 129.592 128.728C129.885 127.6 130.788 126.708 131.959 126.389C135.567 125.408 139.364 124.975 143.122 125.098V81.1429C143.122 79.3501 144.643 77.8967 146.52 77.8967C150.359 77.8967 154.053 78.4923 157.516 79.5787C153.401 55.9379 135.034 36.6887 110.314 30.797C98.9016 28.074 86.9733 28.4255 75.8215 31.8146C74.035 32.3573 72.1225 31.4138 71.553 29.7049C70.9844 27.9966 71.973 26.1709 73.7613 25.6273C86.1152 21.8733 99.3244 21.4829 111.96 24.4976C140.806 31.3726 161.847 54.6745 164.824 82.7868C166.81 83.9399 168.666 85.2764 170.371 86.7684C177.031 79.9392 186.235 76.0866 196.165 76.0866C198.041 76.0866 199.563 77.54 199.563 79.3328V97.1641C201.034 96.9888 202.528 96.8966 204.039 96.8966C205.916 96.8966 207.438 98.3501 207.438 100.143V124.803C209.383 124.949 211.328 125.247 213.254 125.705C214.434 125.985 215.367 126.846 215.701 127.963C219.213 139.705 215.885 152.447 207.016 161.219C205.898 162.323 204.709 163.346 203.461 164.29C209.047 164.522 214.468 166.095 219.222 168.882C220.821 169.819 221.323 171.818 220.341 173.346C219.36 174.874 217.268 175.354 215.667 174.415C211.574 172.018 206.853 170.75 202.013 170.75H14.1912C11.7676 170.75 9.79626 172.635 9.79626 174.953C9.79626 176.076 10.2525 177.128 11.0885 177.924C11.914 178.715 13.0163 179.151 14.1916 179.151H202.008C211.592 179.151 219.389 186.599 219.389 195.755C219.389 200.181 217.581 204.348 214.297 207.49C211.014 210.626 206.65 212.354 202.008 212.354H14.1912C11.7676 212.354 9.79626 214.237 9.79626 216.552C9.79626 217.675 10.2539 218.731 11.0844 219.524C11.9153 220.318 13.0191 220.755 14.1912 220.755H202.013C209.009 220.755 215.579 218.153 220.516 213.424C225.46 208.706 228.183 202.429 228.183 195.75C228.183 191.681 227.141 187.652 225.171 184.099C224.293 182.515 224.925 180.55 226.583 179.711C228.243 178.872 230.299 179.475 231.177 181.06C233.664 185.545 234.979 190.626 234.979 195.75C234.979 204.164 231.549 212.072 225.324 218.013C219.107 223.968 210.828 227.247 202.013 227.247H14.1912C11.2031 227.247 8.39351 226.135 6.27852 224.115C4.16442 222.095 3 219.409 3 216.552C3 210.657 8.02018 205.861 14.1912 205.861ZM23.6461 114.832C23.8555 115.531 24.5818 117.212 26.7964 117.74L37.1549 120.21C39.3695 120.738 40.8375 119.58 41.3658 119.057C41.8941 118.535 43.0554 117.093 42.4265 114.997L39.4864 105.193C38.8575 103.096 37.0742 102.461 36.3366 102.285C35.5985 102.109 33.7119 101.869 32.1247 103.438L24.7068 110.773C23.121 112.34 23.4373 114.134 23.6461 114.832ZM81.49 161.332C81.2205 162.36 80.7991 163.343 80.2531 164.258H103.465L82.0591 159.871L81.49 161.332ZM123.988 163.262C123.345 163.631 122.684 163.961 122.012 164.258H142.622C141.527 163.457 140.475 162.596 139.473 161.671C136.721 159.132 134.459 156.218 132.717 153.065C131.14 157.332 128.094 160.908 123.988 163.262ZM135.771 132.171C134.104 141.218 137.238 150.582 144.196 157.002C148.217 160.715 153.217 163.217 158.669 164.258H169.136C168.606 160.992 168.579 157.695 169.028 154.469C156.193 153.161 145.695 143.761 143.532 131.61C140.939 131.469 138.315 131.659 135.771 132.171ZM149.918 84.5813V126.954C149.918 127.474 149.935 127.953 149.969 128.424C150.683 138.379 158.639 146.389 168.698 147.882V130.658C168.698 123.672 170.896 117.019 175.057 111.345C174.893 97.5489 163.955 86.1793 149.918 84.5813ZM192.767 82.7686C185.87 83.5395 179.596 86.6546 174.943 91.6213C177.949 95.5034 180.108 100.018 181.152 104.917C184.583 102.114 188.516 99.9888 192.767 98.6336V82.7686ZM181.181 114.328C177.461 119.065 175.495 124.712 175.495 130.659V138.892C176.485 137.58 177.575 136.325 178.769 135.145C184.65 129.331 192.442 125.785 200.641 124.913V103.579C192.901 104.444 185.94 108.254 181.181 114.328ZM209.651 131.609C200.182 130.016 190.378 133.011 183.656 139.656C177.057 146.182 174.247 155.422 176.033 164.258H188.643C193.762 162.976 198.419 160.373 202.128 156.709C208.851 150.06 211.645 140.595 209.651 131.609ZM209.49 202.901C211.49 200.987 212.592 198.449 212.592 195.755C212.592 190.179 207.844 185.644 202.008 185.644H25.3878V205.861H202.008C204.835 205.861 207.492 204.809 209.49 202.901Z"/>
<path fill-rule="evenodd" clip-rule="evenodd" d="M83.7222 76.7431C89.673 78.1619 94.6891 81.7094 97.8471 86.7324C101.005 91.7554 101.926 97.6527 100.441 103.337C98.9558 109.022 95.2419 113.814 89.9843 116.831C86.3668 118.906 82.3163 119.97 78.2032 119.97C76.3378 119.97 74.4589 119.751 72.6022 119.308C60.3181 116.38 52.8182 104.449 55.8842 92.7141C57.369 87.0293 61.083 82.237 66.341 79.2206C71.5986 76.2042 77.7705 75.3247 83.7222 76.7431ZM62.4771 94.2866C60.3186 102.548 65.5993 110.947 74.2478 113.009C78.437 114.008 82.7825 113.389 86.4851 111.265C90.1868 109.142 92.8006 105.768 93.8468 101.765C94.8925 97.763 94.2442 93.6118 92.0209 90.0751C89.7981 86.5389 86.2663 84.041 82.0766 83.0425C80.769 82.7309 79.4469 82.5768 78.1334 82.5768C75.2377 82.5768 72.386 83.326 69.8397 84.7868C66.1376 86.9107 63.5228 90.2842 62.4771 94.2866Z"/>
<path d="M136.675 99.5066L127.443 97.3056C124.919 96.7036 122.791 95.199 121.452 93.0686C120.112 90.9382 119.721 88.4369 120.352 86.0256L121.659 81.0238C122.113 79.2843 121.006 77.5222 119.185 77.0881C117.365 76.6536 115.52 77.7118 115.065 79.4514L113.758 84.4536C112.688 88.5473 113.351 92.7942 115.626 96.4114C117.899 100.029 121.512 102.583 125.797 103.605L135.029 105.806C135.306 105.872 135.583 105.903 135.855 105.903C137.378 105.903 138.764 104.918 139.149 103.442C139.604 101.703 138.496 99.9407 136.675 99.5066Z"/>
</mask>
<path fill-rule="evenodd" clip-rule="evenodd" d="M14.1912 205.861H18.5915V185.644H14.1912C11.1968 185.644 8.38536 184.53 6.28259 182.515C4.16579 180.5 3 177.814 3 174.953C3 169.055 8.02018 164.258 14.1912 164.258H46.4712C45.0553 163.339 43.8519 162.131 42.9448 160.687C42.9275 160.659 42.9107 160.632 42.894 160.605C42.8844 160.59 42.8748 160.574 42.8651 160.559C40.2154 162.122 36.9365 162.704 33.6847 161.928C30.582 161.188 27.9677 159.34 26.3221 156.723L26.287 156.666C26.2762 156.649 26.2655 156.632 26.2549 156.615C26.2478 156.603 26.2407 156.592 26.2337 156.58C23.6416 158.111 20.4478 158.711 17.2826 158.016C14.1889 157.338 11.5529 155.513 9.8606 152.877C8.14205 150.199 7.61013 146.928 8.40213 143.903L21.9403 92.0849C22.1582 91.2495 22.7146 90.5314 23.4871 90.0882L27.221 87.9457C30.6603 85.972 33.1768 82.6842 34.1242 78.9247C35.0494 75.2547 34.4377 71.5142 32.4097 68.4047C31.9711 67.739 31.4949 67.1274 30.9938 66.5868C30.123 65.6476 29.8964 64.3132 30.4125 63.1597C36.1952 50.2237 45.9474 39.5159 58.6143 32.1946C60.22 31.267 62.3087 31.757 63.281 33.2914C64.2529 34.8253 63.7387 36.8211 62.1329 37.7495C51.2648 44.0312 42.774 53.0678 37.4761 63.9665C37.714 64.2876 37.9459 64.6192 38.1702 64.9603C41.1773 69.5703 42.0871 75.0699 40.7315 80.4456C39.36 85.8859 35.7109 90.6487 30.7201 93.5119L28.1928 94.9623L27.1295 99.0331L27.2368 98.927C30.0446 96.1509 34.063 95.0515 37.9817 95.9868C41.9018 96.9217 44.9067 99.6949 46.0195 103.406L48.9595 113.21C50.0723 116.921 49.0606 120.793 46.2528 123.569C44.1038 125.694 41.2471 126.836 38.2667 126.836C37.3533 126.836 36.4277 126.729 35.5083 126.51L25.1499 124.04C23.6375 123.679 22.2638 123.043 21.0803 122.187L14.9954 145.478C14.6434 146.823 14.883 148.283 15.6537 149.484C16.3837 150.621 17.5019 151.405 18.8027 151.689C21.5244 152.287 24.2932 150.665 24.9705 148.072C25.4254 146.332 27.2686 145.275 29.0909 145.709C30.9118 146.144 32.0191 147.906 31.5643 149.645L31.5638 149.647L31.5633 149.649C31.2303 150.927 31.4378 152.252 32.1474 153.381C32.8583 154.512 33.9878 155.31 35.3298 155.63C38.0932 156.289 40.9041 154.677 41.5942 152.037C42.0491 150.297 43.8931 149.24 45.7145 149.674C47.2595 150.043 48.2912 151.367 48.2903 152.823C48.2898 153.083 48.2572 153.346 48.1879 153.61C47.8535 154.889 48.0606 156.216 48.7706 157.346C49.4806 158.476 50.6096 159.275 51.948 159.594C54.7137 160.253 57.5278 158.641 58.2178 155.998C58.6727 154.258 60.5195 153.201 62.3377 153.634C64.1591 154.068 65.2665 155.83 64.8125 157.57L64.8111 157.573C64.1365 160.166 65.7803 162.84 68.473 163.535C69.7606 163.865 71.1339 163.675 72.34 162.997C73.6127 162.283 74.5443 161.101 74.8963 159.759L76.2873 154.435C76.7417 152.695 78.5885 151.638 80.4067 152.072L110.169 159.166C113.706 160.008 117.371 159.486 120.489 157.697C123.608 155.909 125.811 153.064 126.696 149.672C126.914 148.846 127.049 147.972 127.094 147.074L127.094 147.071C127.209 144.546 126.55 142.043 125.157 139.826C123.282 136.845 120.304 134.739 116.772 133.897C114.951 133.463 113.843 131.701 114.298 129.961C114.752 128.221 116.599 127.164 118.418 127.597C122.459 128.561 126.014 130.631 128.721 133.544C128.891 131.933 129.177 130.324 129.592 128.728C129.885 127.6 130.788 126.708 131.959 126.389C135.567 125.408 139.364 124.975 143.122 125.098V81.1429C143.122 79.3501 144.643 77.8967 146.52 77.8967C150.359 77.8967 154.053 78.4923 157.516 79.5787C153.401 55.9379 135.034 36.6887 110.314 30.797C98.9016 28.074 86.9733 28.4255 75.8215 31.8146C74.035 32.3573 72.1225 31.4138 71.553 29.7049C70.9844 27.9966 71.973 26.1709 73.7613 25.6273C86.1152 21.8733 99.3244 21.4829 111.96 24.4976C140.806 31.3726 161.847 54.6745 164.824 82.7868C166.81 83.9399 168.666 85.2764 170.371 86.7684C177.031 79.9392 186.235 76.0866 196.165 76.0866C198.041 76.0866 199.563 77.54 199.563 79.3328V97.1641C201.034 96.9888 202.528 96.8966 204.039 96.8966C205.916 96.8966 207.438 98.3501 207.438 100.143V124.803C209.383 124.949 211.328 125.247 213.254 125.705C214.434 125.985 215.367 126.846 215.701 127.963C219.213 139.705 215.885 152.447 207.016 161.219C205.898 162.323 204.709 163.346 203.461 164.29C209.047 164.522 214.468 166.095 219.222 168.882C220.821 169.819 221.323 171.818 220.341 173.346C219.36 174.874 217.268 175.354 215.667 174.415C211.574 172.018 206.853 170.75 202.013 170.75H14.1912C11.7676 170.75 9.79626 172.635 9.79626 174.953C9.79626 176.076 10.2525 177.128 11.0885 177.924C11.914 178.715 13.0163 179.151 14.1916 179.151H202.008C211.592 179.151 219.389 186.599 219.389 195.755C219.389 200.181 217.581 204.348 214.297 207.49C211.014 210.626 206.65 212.354 202.008 212.354H14.1912C11.7676 212.354 9.79626 214.237 9.79626 216.552C9.79626 217.675 10.2539 218.731 11.0844 219.524C11.9153 220.318 13.0191 220.755 14.1912 220.755H202.013C209.009 220.755 215.579 218.153 220.516 213.424C225.46 208.706 228.183 202.429 228.183 195.75C228.183 191.681 227.141 187.652 225.171 184.099C224.293 182.515 224.925 180.55 226.583 179.711C228.243 178.872 230.299 179.475 231.177 181.06C233.664 185.545 234.979 190.626 234.979 195.75C234.979 204.164 231.549 212.072 225.324 218.013C219.107 223.968 210.828 227.247 202.013 227.247H14.1912C11.2031 227.247 8.39351 226.135 6.27852 224.115C4.16442 222.095 3 219.409 3 216.552C3 210.657 8.02018 205.861 14.1912 205.861ZM23.6461 114.832C23.8555 115.531 24.5818 117.212 26.7964 117.74L37.1549 120.21C39.3695 120.738 40.8375 119.58 41.3658 119.057C41.8941 118.535 43.0554 117.093 42.4265 114.997L39.4864 105.193C38.8575 103.096 37.0742 102.461 36.3366 102.285C35.5985 102.109 33.7119 101.869 32.1247 103.438L24.7068 110.773C23.121 112.34 23.4373 114.134 23.6461 114.832ZM81.49 161.332C81.2205 162.36 80.7991 163.343 80.2531 164.258H103.465L82.0591 159.871L81.49 161.332ZM123.988 163.262C123.345 163.631 122.684 163.961 122.012 164.258H142.622C141.527 163.457 140.475 162.596 139.473 161.671C136.721 159.132 134.459 156.218 132.717 153.065C131.14 157.332 128.094 160.908 123.988 163.262ZM135.771 132.171C134.104 141.218 137.238 150.582 144.196 157.002C148.217 160.715 153.217 163.217 158.669 164.258H169.136C168.606 160.992 168.579 157.695 169.028 154.469C156.193 153.161 145.695 143.761 143.532 131.61C140.939 131.469 138.315 131.659 135.771 132.171ZM149.918 84.5813V126.954C149.918 127.474 149.935 127.953 149.969 128.424C150.683 138.379 158.639 146.389 168.698 147.882V130.658C168.698 123.672 170.896 117.019 175.057 111.345C174.893 97.5489 163.955 86.1793 149.918 84.5813ZM192.767 82.7686C185.87 83.5395 179.596 86.6546 174.943 91.6213C177.949 95.5034 180.108 100.018 181.152 104.917C184.583 102.114 188.516 99.9888 192.767 98.6336V82.7686ZM181.181 114.328C177.461 119.065 175.495 124.712 175.495 130.659V138.892C176.485 137.58 177.575 136.325 178.769 135.145C184.65 129.331 192.442 125.785 200.641 124.913V103.579C192.901 104.444 185.94 108.254 181.181 114.328ZM209.651 131.609C200.182 130.016 190.378 133.011 183.656 139.656C177.057 146.182 174.247 155.422 176.033 164.258H188.643C193.762 162.976 198.419 160.373 202.128 156.709C208.851 150.06 211.645 140.595 209.651 131.609ZM209.49 202.901C211.49 200.987 212.592 198.449 212.592 195.755C212.592 190.179 207.844 185.644 202.008 185.644H25.3878V205.861H202.008C204.835 205.861 207.492 204.809 209.49 202.901Z" fill="#333333"/>
<path fill-rule="evenodd" clip-rule="evenodd" d="M83.7222 76.7431C89.673 78.1619 94.6891 81.7094 97.8471 86.7324C101.005 91.7554 101.926 97.6527 100.441 103.337C98.9558 109.022 95.2419 113.814 89.9843 116.831C86.3668 118.906 82.3163 119.97 78.2032 119.97C76.3378 119.97 74.4589 119.751 72.6022 119.308C60.3181 116.38 52.8182 104.449 55.8842 92.7141C57.369 87.0293 61.083 82.237 66.341 79.2206C71.5986 76.2042 77.7705 75.3247 83.7222 76.7431ZM62.4771 94.2866C60.3186 102.548 65.5993 110.947 74.2478 113.009C78.437 114.008 82.7825 113.389 86.4851 111.265C90.1868 109.142 92.8006 105.768 93.8468 101.765C94.8925 97.763 94.2442 93.6118 92.0209 90.0751C89.7981 86.5389 86.2663 84.041 82.0766 83.0425C80.769 82.7309 79.4469 82.5768 78.1334 82.5768C75.2377 82.5768 72.386 83.326 69.8397 84.7868C66.1376 86.9107 63.5228 90.2842 62.4771 94.2866Z" fill="#333333"/>
<path d="M136.675 99.5066L127.443 97.3056C124.919 96.7036 122.791 95.199 121.452 93.0686C120.112 90.9382 119.721 88.4369 120.352 86.0256L121.659 81.0238C122.113 79.2843 121.006 77.5222 119.185 77.0881C117.365 76.6536 115.52 77.7118 115.065 79.4514L113.758 84.4536C112.688 88.5473 113.351 92.7942 115.626 96.4114C117.899 100.029 121.512 102.583 125.797 103.605L135.029 105.806C135.306 105.872 135.583 105.903 135.855 105.903C137.378 105.903 138.764 104.918 139.149 103.442C139.604 101.703 138.496 99.9407 136.675 99.5066Z" fill="#333333"/>
<path fill-rule="evenodd" clip-rule="evenodd" d="M14.1912 205.861H18.5915V185.644H14.1912C11.1968 185.644 8.38536 184.53 6.28259 182.515C4.16579 180.5 3 177.814 3 174.953C3 169.055 8.02018 164.258 14.1912 164.258H46.4712C45.0553 163.339 43.8519 162.131 42.9448 160.687C42.9275 160.659 42.9107 160.632 42.894 160.605C42.8844 160.59 42.8748 160.574 42.8651 160.559C40.2154 162.122 36.9365 162.704 33.6847 161.928C30.582 161.188 27.9677 159.34 26.3221 156.723L26.287 156.666C26.2762 156.649 26.2655 156.632 26.2549 156.615C26.2478 156.603 26.2407 156.592 26.2337 156.58C23.6416 158.111 20.4478 158.711 17.2826 158.016C14.1889 157.338 11.5529 155.513 9.8606 152.877C8.14205 150.199 7.61013 146.928 8.40213 143.903L21.9403 92.0849C22.1582 91.2495 22.7146 90.5314 23.4871 90.0882L27.221 87.9457C30.6603 85.972 33.1768 82.6842 34.1242 78.9247C35.0494 75.2547 34.4377 71.5142 32.4097 68.4047C31.9711 67.739 31.4949 67.1274 30.9938 66.5868C30.123 65.6476 29.8964 64.3132 30.4125 63.1597C36.1952 50.2237 45.9474 39.5159 58.6143 32.1946C60.22 31.267 62.3087 31.757 63.281 33.2914C64.2529 34.8253 63.7387 36.8211 62.1329 37.7495C51.2648 44.0312 42.774 53.0678 37.4761 63.9665C37.714 64.2876 37.9459 64.6192 38.1702 64.9603C41.1773 69.5703 42.0871 75.0699 40.7315 80.4456C39.36 85.8859 35.7109 90.6487 30.7201 93.5119L28.1928 94.9623L27.1295 99.0331L27.2368 98.927C30.0446 96.1509 34.063 95.0515 37.9817 95.9868C41.9018 96.9217 44.9067 99.6949 46.0195 103.406L48.9595 113.21C50.0723 116.921 49.0606 120.793 46.2528 123.569C44.1038 125.694 41.2471 126.836 38.2667 126.836C37.3533 126.836 36.4277 126.729 35.5083 126.51L25.1499 124.04C23.6375 123.679 22.2638 123.043 21.0803 122.187L14.9954 145.478C14.6434 146.823 14.883 148.283 15.6537 149.484C16.3837 150.621 17.5019 151.405 18.8027 151.689C21.5244 152.287 24.2932 150.665 24.9705 148.072C25.4254 146.332 27.2686 145.275 29.0909 145.709C30.9118 146.144 32.0191 147.906 31.5643 149.645L31.5638 149.647L31.5633 149.649C31.2303 150.927 31.4378 152.252 32.1474 153.381C32.8583 154.512 33.9878 155.31 35.3298 155.63C38.0932 156.289 40.9041 154.677 41.5942 152.037C42.0491 150.297 43.8931 149.24 45.7145 149.674C47.2595 150.043 48.2912 151.367 48.2903 152.823C48.2898 153.083 48.2572 153.346 48.1879 153.61C47.8535 154.889 48.0606 156.216 48.7706 157.346C49.4806 158.476 50.6096 159.275 51.948 159.594C54.7137 160.253 57.5278 158.641 58.2178 155.998C58.6727 154.258 60.5195 153.201 62.3377 153.634C64.1591 154.068 65.2665 155.83 64.8125 157.57L64.8111 157.573C64.1365 160.166 65.7803 162.84 68.473 163.535C69.7606 163.865 71.1339 163.675 72.34 162.997C73.6127 162.283 74.5443 161.101 74.8963 159.759L76.2873 154.435C76.7417 152.695 78.5885 151.638 80.4067 152.072L110.169 159.166C113.706 160.008 117.371 159.486 120.489 157.697C123.608 155.909 125.811 153.064 126.696 149.672C126.914 148.846 127.049 147.972 127.094 147.074L127.094 147.071C127.209 144.546 126.55 142.043 125.157 139.826C123.282 136.845 120.304 134.739 116.772 133.897C114.951 133.463 113.843 131.701 114.298 129.961C114.752 128.221 116.599 127.164 118.418 127.597C122.459 128.561 126.014 130.631 128.721 133.544C128.891 131.933 129.177 130.324 129.592 128.728C129.885 127.6 130.788 126.708 131.959 126.389C135.567 125.408 139.364 124.975 143.122 125.098V81.1429C143.122 79.3501 144.643 77.8967 146.52 77.8967C150.359 77.8967 154.053 78.4923 157.516 79.5787C153.401 55.9379 135.034 36.6887 110.314 30.797C98.9016 28.074 86.9733 28.4255 75.8215 31.8146C74.035 32.3573 72.1225 31.4138 71.553 29.7049C70.9844 27.9966 71.973 26.1709 73.7613 25.6273C86.1152 21.8733 99.3244 21.4829 111.96 24.4976C140.806 31.3726 161.847 54.6745 164.824 82.7868C166.81 83.9399 168.666 85.2764 170.371 86.7684C177.031 79.9392 186.235 76.0866 196.165 76.0866C198.041 76.0866 199.563 77.54 199.563 79.3328V97.1641C201.034 96.9888 202.528 96.8966 204.039 96.8966C205.916 96.8966 207.438 98.3501 207.438 100.143V124.803C209.383 124.949 211.328 125.247 213.254 125.705C214.434 125.985 215.367 126.846 215.701 127.963C219.213 139.705 215.885 152.447 207.016 161.219C205.898 162.323 204.709 163.346 203.461 164.29C209.047 164.522 214.468 166.095 219.222 168.882C220.821 169.819 221.323 171.818 220.341 173.346C219.36 174.874 217.268 175.354 215.667 174.415C211.574 172.018 206.853 170.75 202.013 170.75H14.1912C11.7676 170.75 9.79626 172.635 9.79626 174.953C9.79626 176.076 10.2525 177.128 11.0885 177.924C11.914 178.715 13.0163 179.151 14.1916 179.151H202.008C211.592 179.151 219.389 186.599 219.389 195.755C219.389 200.181 217.581 204.348 214.297 207.49C211.014 210.626 206.65 212.354 202.008 212.354H14.1912C11.7676 212.354 9.79626 214.237 9.79626 216.552C9.79626 217.675 10.2539 218.731 11.0844 219.524C11.9153 220.318 13.0191 220.755 14.1912 220.755H202.013C209.009 220.755 215.579 218.153 220.516 213.424C225.46 208.706 228.183 202.429 228.183 195.75C228.183 191.681 227.141 187.652 225.171 184.099C224.293 182.515 224.925 180.55 226.583 179.711C228.243 178.872 230.299 179.475 231.177 181.06C233.664 185.545 234.979 190.626 234.979 195.75C234.979 204.164 231.549 212.072 225.324 218.013C219.107 223.968 210.828 227.247 202.013 227.247H14.1912C11.2031 227.247 8.39351 226.135 6.27852 224.115C4.16442 222.095 3 219.409 3 216.552C3 210.657 8.02018 205.861 14.1912 205.861ZM23.6461 114.832C23.8555 115.531 24.5818 117.212 26.7964 117.74L37.1549 120.21C39.3695 120.738 40.8375 119.58 41.3658 119.057C41.8941 118.535 43.0554 117.093 42.4265 114.997L39.4864 105.193C38.8575 103.096 37.0742 102.461 36.3366 102.285C35.5985 102.109 33.7119 101.869 32.1247 103.438L24.7068 110.773C23.121 112.34 23.4373 114.134 23.6461 114.832ZM81.49 161.332C81.2205 162.36 80.7991 163.343 80.2531 164.258H103.465L82.0591 159.871L81.49 161.332ZM123.988 163.262C123.345 163.631 122.684 163.961 122.012 164.258H142.622C141.527 163.457 140.475 162.596 139.473 161.671C136.721 159.132 134.459 156.218 132.717 153.065C131.14 157.332 128.094 160.908 123.988 163.262ZM135.771 132.171C134.104 141.218 137.238 150.582 144.196 157.002C148.217 160.715 153.217 163.217 158.669 164.258H169.136C168.606 160.992 168.579 157.695 169.028 154.469C156.193 153.161 145.695 143.761 143.532 131.61C140.939 131.469 138.315 131.659 135.771 132.171ZM149.918 84.5813V126.954C149.918 127.474 149.935 127.953 149.969 128.424C150.683 138.379 158.639 146.389 168.698 147.882V130.658C168.698 123.672 170.896 117.019 175.057 111.345C174.893 97.5489 163.955 86.1793 149.918 84.5813ZM192.767 82.7686C185.87 83.5395 179.596 86.6546 174.943 91.6213C177.949 95.5034 180.108 100.018 181.152 104.917C184.583 102.114 188.516 99.9888 192.767 98.6336V82.7686ZM181.181 114.328C177.461 119.065 175.495 124.712 175.495 130.659V138.892C176.485 137.58 177.575 136.325 178.769 135.145C184.65 129.331 192.442 125.785 200.641 124.913V103.579C192.901 104.444 185.94 108.254 181.181 114.328ZM209.651 131.609C200.182 130.016 190.378 133.011 183.656 139.656C177.057 146.182 174.247 155.422 176.033 164.258H188.643C193.762 162.976 198.419 160.373 202.128 156.709C208.851 150.06 211.645 140.595 209.651 131.609ZM209.49 202.901C211.49 200.987 212.592 198.449 212.592 195.755C212.592 190.179 207.844 185.644 202.008 185.644H25.3878V205.861H202.008C204.835 205.861 207.492 204.809 209.49 202.901Z" stroke="#333333" stroke-width="4.29556" mask="url(#path-2-outside-1_1010_698)"/>
<path fill-rule="evenodd" clip-rule="evenodd" d="M83.7222 76.7431C89.673 78.1619 94.6891 81.7094 97.8471 86.7324C101.005 91.7554 101.926 97.6527 100.441 103.337C98.9558 109.022 95.2419 113.814 89.9843 116.831C86.3668 118.906 82.3163 119.97 78.2032 119.97C76.3378 119.97 74.4589 119.751 72.6022 119.308C60.3181 116.38 52.8182 104.449 55.8842 92.7141C57.369 87.0293 61.083 82.237 66.341 79.2206C71.5986 76.2042 77.7705 75.3247 83.7222 76.7431ZM62.4771 94.2866C60.3186 102.548 65.5993 110.947 74.2478 113.009C78.437 114.008 82.7825 113.389 86.4851 111.265C90.1868 109.142 92.8006 105.768 93.8468 101.765C94.8925 97.763 94.2442 93.6118 92.0209 90.0751C89.7981 86.5389 86.2663 84.041 82.0766 83.0425C80.769 82.7309 79.4469 82.5768 78.1334 82.5768C75.2377 82.5768 72.386 83.326 69.8397 84.7868C66.1376 86.9107 63.5228 90.2842 62.4771 94.2866Z" stroke="#333333" stroke-width="4.29556" mask="url(#path-2-outside-1_1010_698)"/>
<path d="M136.675 99.5066L127.443 97.3056C124.919 96.7036 122.791 95.199 121.452 93.0686C120.112 90.9382 119.721 88.4369 120.352 86.0256L121.659 81.0238C122.113 79.2843 121.006 77.5222 119.185 77.0881C117.365 76.6536 115.52 77.7118 115.065 79.4514L113.758 84.4536C112.688 88.5473 113.351 92.7942 115.626 96.4114C117.899 100.029 121.512 102.583 125.797 103.605L135.029 105.806C135.306 105.872 135.583 105.903 135.855 105.903C137.378 105.903 138.764 104.918 139.149 103.442C139.604 101.703 138.496 99.9407 136.675 99.5066Z" stroke="#333333" stroke-width="4.29556" mask="url(#path-2-outside-1_1010_698)"/>
</svg>
