<svg width="339" height="329" viewBox="0 0 339 329" fill="none" xmlns="http://www.w3.org/2000/svg">
<g clip-path="url(#clip0_106_322)">
<path d="M184.27 319.81C183.403 318.747 182.149 318.071 180.784 317.932C147.763 314.534 117.178 299.012 94.9398 274.368C72.7008 249.724 60.3908 217.709 60.3918 184.515C60.3918 156.335 69.1358 130.163 84.0418 108.555C83.1728 107.559 75.5458 106.699 72.5968 107.126C58.3308 129.512 50.0498 156.064 50.0488 184.522C50.0518 220.275 63.3128 254.759 87.2678 281.302C111.222 307.846 144.168 324.565 179.735 328.226C181.1 328.365 182.465 327.955 183.528 327.088C184.592 326.221 185.268 324.967 185.407 323.602C185.546 322.238 185.137 320.874 184.27 319.81Z" fill="#333333"/>
<path d="M338.209 169.752C334.553 134.183 317.836 101.233 291.291 77.2761C264.746 53.3191 230.26 40.0601 194.504 40.0601C163.121 40.0601 134.049 50.1241 110.331 67.1881C110.141 67.8681 104.542 80.1291 103.564 86.0391C127.484 63.9331 159.441 50.4021 194.503 50.4021C227.696 50.4071 259.708 62.7171 284.352 84.9551C308.996 107.191 324.519 137.775 327.92 170.794C327.974 171.481 328.165 172.15 328.482 172.762C328.797 173.374 329.232 173.917 329.761 174.358C330.29 174.8 330.902 175.131 331.56 175.334C332.219 175.536 332.912 175.605 333.597 175.535C334.282 175.465 334.947 175.26 335.552 174.93C336.156 174.601 336.689 174.154 337.118 173.616C337.548 173.077 337.866 172.458 338.053 171.795C338.24 171.132 338.293 170.435 338.209 169.752Z" fill="#333333"/>
<path d="M317.065 242.353C315.919 239.628 310.425 231.282 231.456 160.368C190.989 124.03 150.537 88.6291 150.133 88.2761C150.003 88.1621 149.866 88.0561 149.724 87.9581C149.708 87.9471 149.69 87.9391 149.675 87.9281C149.641 87.9051 149.606 87.8871 149.572 87.8651C149.097 87.5451 148.601 87.2371 148.079 86.9571C140.675 81.8801 132.163 79.1991 123.444 79.1991C118.69 79.1991 114.096 80.0211 109.824 81.5811L119.169 43.9531C119.536 42.4761 119.131 40.9141 118.094 39.8011L82.3347 1.43206C81.1707 0.182055 79.4007 -0.297945 77.7617 0.186055L72.7297 1.68006C70.8817 2.22905 69.5877 3.89506 69.5147 5.82206L67.7967 50.6491C66.6137 50.6421 65.4517 51.0901 64.5847 51.9561L61.5347 55.0061L40.4397 33.9091C38.6817 32.1521 35.8337 32.1521 34.0757 33.9091C32.3187 35.6661 32.3187 38.5161 34.0757 40.2731L55.1717 61.3691L52.1207 64.4201C51.2167 65.3241 50.7597 66.5511 50.8107 67.7891L5.82272 69.5141C3.89672 69.5881 2.23072 70.8811 1.68172 72.7281L0.186723 77.7581C-0.300277 79.3961 0.182723 81.1681 1.43272 82.3321L39.8027 118.091C40.6457 118.877 41.7447 119.299 42.8707 119.299C43.2317 119.299 43.5967 119.256 43.9547 119.166L81.7177 109.787C77.3597 121.886 79.0587 136.15 87.1207 147.909C87.3977 148.43 87.7047 148.921 88.0227 149.392C88.0487 149.434 88.0707 149.475 88.0987 149.516C88.1107 149.534 88.1207 149.556 88.1337 149.573C88.2297 149.71 88.3317 149.842 88.4427 149.968C88.7957 150.372 124.197 190.824 160.534 231.29C231.451 310.266 239.794 315.756 242.518 316.901C251.538 322.016 263.85 324.864 279.156 325.4C279.171 325.4 279.184 325.404 279.198 325.404C279.205 325.404 279.212 325.402 279.219 325.402C280.966 325.463 282.74 325.501 284.565 325.501H284.566C294.206 325.501 302.888 324.634 308.474 323.907C320.431 322.35 320.912 321.745 321.871 319.831C322.019 319.552 322.15 319.239 322.256 318.89C322.387 318.448 332.685 269.89 317.065 242.353ZM261.13 314.217C262.546 312.8 264.194 311.152 266.019 309.327C269.874 311.893 273.833 314.083 277.868 315.87L277.425 316.313C271.453 316.005 265.993 315.301 261.13 314.217ZM289.021 254.611C291.269 256.81 294.53 260.246 297.956 264.664C293.925 268.694 289.385 273.234 284.735 277.884L275.121 268.511L289.021 254.611ZM314.395 260.953C315.558 266.176 316.203 271.734 316.488 277.25L316.377 277.362C314.417 273.078 312.148 269.123 309.792 265.555C311.522 263.824 313.075 262.271 314.395 260.953ZM313.573 305.998L306.936 299.528L312.424 294.04C313.247 297.879 313.688 301.875 313.573 305.998ZM307.601 312.744C303.047 312.998 298.698 312.672 294.572 311.893L300.573 305.892L307.601 312.744ZM309.438 284.3L300.493 293.245L291.18 284.166C295.374 279.972 299.479 275.867 303.198 272.148C305.509 275.829 307.68 279.906 309.438 284.3ZM268.756 274.875L278.37 284.248C273.736 288.882 269.182 293.436 265.101 297.517C261.304 294.433 258.028 291.242 255.322 288.309L268.756 274.875ZM284.815 290.531L294.128 299.61L284.673 309.065C280.275 307.38 276.203 305.242 272.484 302.863C276.322 299.025 280.536 294.811 284.815 290.531ZM309.104 246.561C309.952 248.03 310.703 249.599 311.383 251.236C309.953 252.666 307.525 255.094 304.431 258.187C301.002 253.886 297.76 250.503 295.408 248.223L303.702 239.929C306.484 242.857 308.268 244.95 308.84 246.023C308.916 246.208 309.005 246.388 309.104 246.561ZM97.9867 147.21L147.374 97.8221C147.629 98.0461 147.89 98.2751 148.147 98.4991L98.6637 147.982C98.4387 147.726 98.2107 147.465 97.9867 147.21ZM139.94 92.5281L92.6827 139.786C85.7327 127.147 87.2517 111.901 96.8157 102.336L102.501 96.6531C107.952 91.201 115.39 88.1991 123.444 88.1991C129.18 88.2001 134.81 89.7021 139.94 92.5281ZM78.3477 10.3541L109.846 44.1521L100.866 80.3091L76.5967 56.0391L78.3477 10.3541ZM68.5407 60.7281C68.6437 60.8201 68.7447 60.9151 68.8427 61.0141L96.9497 89.1221L96.3007 89.7711L67.8997 61.3691L68.5407 60.7281ZM89.9377 96.1351L89.2877 96.7851L61.1797 68.6771C61.0807 68.5781 60.9857 68.4781 60.8937 68.3751L61.5347 67.7341L89.9377 96.1351ZM44.1527 109.844L10.3547 78.3461L56.0417 76.5951L80.3107 100.864L44.1527 109.844ZM104.612 154.763L154.927 104.448C204.188 147.709 270.8 207.28 297.381 233.523L265.505 265.4C265.502 265.404 265.497 265.406 265.493 265.41C265.49 265.413 265.488 265.417 265.485 265.42L233.686 297.219C207.444 270.636 147.874 204.025 104.612 154.763ZM246.188 308.677C245.116 308.107 243.023 306.323 240.093 303.538L248.956 294.675C252.091 298.054 255.352 301.132 258.716 303.902C255.585 307.034 253.049 309.569 251.402 311.216C249.725 310.522 248.157 309.767 246.725 308.941C246.552 308.841 246.372 308.752 246.188 308.677Z" fill="#333333"/>
<path d="M303.373 206.85C302.217 206.85 301.06 206.407 300.181 205.522L217.714 122.506C215.962 120.743 215.972 117.894 217.735 116.142C219.498 114.39 222.346 114.4 224.099 116.163L306.566 199.178C308.318 200.942 308.308 203.791 306.545 205.542C305.667 206.415 304.52 206.85 303.373 206.85Z" fill="#333333"/>
<path d="M146.485 261.167C145.309 261.167 144.135 260.709 143.252 259.798L88.2306 202.987C86.5016 201.202 86.5466 198.352 88.3326 196.624C90.1186 194.895 92.9676 194.941 94.6956 196.726L149.717 253.537C151.446 255.322 151.401 258.172 149.615 259.9C148.741 260.747 147.612 261.167 146.485 261.167Z" fill="#333333"/>
<path d="M182.74 298.603C181.564 298.603 180.39 298.145 179.508 297.234L166.111 283.401C164.382 281.616 164.427 278.766 166.213 277.038C167.999 275.308 170.847 275.354 172.576 277.14L185.973 290.973C187.702 292.758 187.657 295.608 185.871 297.336C184.997 298.182 183.868 298.603 182.74 298.603Z" fill="#333333"/>
<path d="M293.411 155.028C292.27 155.028 291.129 154.597 290.253 153.733L210.59 75.2289C208.819 73.4849 208.799 70.6359 210.543 68.8649C212.288 67.0949 215.139 67.0739 216.906 68.8189L296.569 147.323C298.34 149.067 298.36 151.916 296.616 153.687C295.735 154.58 294.573 155.028 293.411 155.028Z" fill="#333333"/>
</g>
<defs>
<clipPath id="clip0_106_322">
<rect width="338.248" height="328.253" fill="white"/>
</clipPath>
</defs>
</svg>
