<svg width="338" height="300" viewBox="0 0 338 300" fill="none" xmlns="http://www.w3.org/2000/svg">
<path fill-rule="evenodd" clip-rule="evenodd" d="M90.6846 264.815C154.282 318.217 249.466 309.888 302.835 246.242C356.209 182.59 347.882 87.3551 284.269 33.9401C266.982 19.3586 246.623 8.87756 224.716 3.28124C202.81 -2.31508 171.517 0.0200122 149.361 4.52519C147.982 4.82885 146.777 5.66197 146.005 6.84547C145.233 8.02898 144.956 9.46828 145.233 10.854C145.511 12.2396 146.321 13.4611 147.489 14.2555C148.657 15.0499 150.09 15.3539 151.48 15.1022C172.052 10.9191 201.709 8.54395 222.049 13.7407C242.39 18.9375 261.293 28.6699 277.344 42.2098C336.398 91.7966 344.124 180.217 294.576 239.307C245.028 298.396 156.669 306.137 97.615 256.55C91.922 251.771 77.6036 237.359 72.9283 230.875C71.9822 229.828 70.6637 229.193 69.2556 229.108C67.8475 229.023 66.4622 229.493 65.3967 230.418C64.3312 231.343 63.6705 232.649 63.5564 234.056C63.4422 235.463 63.8838 236.859 64.7862 237.944C69.6374 245.277 84.5577 259.669 90.6846 264.815ZM246.375 113.618L307.628 133.147C310.27 134.034 312.549 135.785 314.107 138.125C315.665 140.466 316.416 143.265 316.242 146.085C316.068 148.905 314.978 151.587 313.144 153.712C311.31 155.836 308.834 157.284 306.103 157.829L258.911 166.512C240.901 170.992 223.332 177.13 206.42 184.85C180.662 197.445 153.228 206.15 124.989 210.688C119.285 211.741 100.91 211.612 87.4918 211.518C81.9002 211.479 77.1696 211.446 74.5761 211.507C62.9939 211.448 51.5632 208.831 41.077 203.837C30.5909 198.844 21.3004 191.594 13.8505 182.59C-1.62102 164.91 -7.00184 132.094 12.867 115.202C16.7558 111.813 21.2999 109.287 26.2073 107.786C31.1147 106.286 36.2769 105.845 41.3624 106.49L73.4082 110.537C75.7478 106.022 78.3813 102.452 80.9483 98.9714C87.0666 90.676 92.8074 82.8925 93.2919 64.0545C94.1189 31.2493 122.857 23.9982 148.131 45.1998C161.518 42.5607 175.078 40.9332 188.701 40.3306H205.608C213.648 40.3083 221.433 43.1931 227.569 48.4682C233.704 53.7433 237.79 61.0641 239.093 69.1191L246.375 113.618ZM235.789 136.497C237.245 134.124 237.802 131.295 237.358 128.536L237.12 127.092L169.778 145.034C163.967 146.589 157.963 147.273 151.957 147.065C148.796 146.838 143.969 146.742 138.457 146.632C124.84 146.361 107.039 146.007 99.8174 143.39L76.5994 136.546C75.8371 139.072 75.9591 141.789 76.9448 144.235C77.9305 146.681 79.7192 148.705 82.0074 149.964C122.078 171.023 198.467 151.019 229.443 141.438C232.078 140.626 234.333 138.87 235.789 136.497ZM131.239 47.8615C116.668 39.1983 104.418 47.7395 104.608 64.1322C104.648 80.3007 98.8798 95.9292 88.3837 108.089C84.3586 113.225 81.5339 119.221 80.1225 125.625C82.6943 126.255 86.1508 127.335 89.9626 128.525C98.7445 131.268 109.413 134.601 115.497 134.375L152.328 135.588C159.326 136.672 191.191 127.767 213.75 121.463C223.737 118.672 231.9 116.39 235.274 115.711L227.932 71.0095C227.062 65.64 224.338 60.7603 220.248 57.244C216.157 53.7278 210.968 51.8047 205.608 51.8191H188.701C174.889 52.5836 161.144 54.287 147.557 56.918C118.072 61.5852 117.486 61.5852 116.868 61.5852C115.402 61.5838 113.994 61.0052 112.94 59.9713C111.886 58.9373 111.269 57.5285 111.217 56.0415C111.166 54.5544 111.684 53.1051 112.664 51.9984C113.644 50.8918 115.008 50.2142 116.47 50.1082C117.328 50.0094 121.807 49.3366 131.239 47.8615ZM286.715 149.71C293.956 148.441 300.261 147.336 304.089 146.52C304.354 146.464 304.594 146.322 304.771 146.115C304.949 145.907 305.054 145.646 305.071 145.372C305.088 145.098 305.016 144.826 304.865 144.597C304.715 144.369 304.495 144.197 304.239 144.108L248.467 126.328C249.44 131.879 248.377 137.599 245.479 142.409C242.581 147.218 238.049 150.784 232.739 152.433C211.136 159.114 168.264 170.602 129.138 170.609C103.664 169.826 57.626 166.794 65.924 132.636L69.5063 121.62L39.9646 117.889C36.4432 117.444 32.8693 117.752 29.4716 118.791C26.074 119.83 22.9275 121.578 20.2338 123.923C17.5401 126.268 15.3586 129.159 13.8289 132.41C12.2991 135.66 11.455 139.2 11.3505 142.801C10.1298 169.213 31.5732 188.826 54.1916 196.849C60.7676 199.041 67.6555 200.112 74.5761 200.019C76.8885 199.945 81.8553 199.98 87.7993 200.022C100.894 200.114 118.73 200.24 123.379 199.312C150.489 194.949 176.826 186.584 201.552 174.484C214.392 168.787 227.518 163.778 240.875 159.478C248.76 156.361 270.175 152.608 286.715 149.71Z" fill="#333333"/>
</svg>
